<?xml version="1.0" encoding="UTF-8" standalone="no"?>
<!-- Generator: Adobe Illustrator 22.0.1, SVG Export Plug-In . SVG Version: 6.00 Build 0)  -->

<svg
   version="1.1"
   id="Layer_1"
   x="0px"
   y="0px"
   viewBox="0 0 30 30"
   style="enable-background:new 0 0 30 30;"
   xml:space="preserve"
   sodipodi:docname="alien-symbolic.svg"
   inkscape:version="1.2.2 (b0a8486541, 2022-12-01)"
   xmlns:inkscape="http://www.inkscape.org/namespaces/inkscape"
   xmlns:sodipodi="http://sodipodi.sourceforge.net/DTD/sodipodi-0.dtd"
   xmlns="http://www.w3.org/2000/svg"
   xmlns:svg="http://www.w3.org/2000/svg"><defs
   id="defs7" /><sodipodi:namedview
   id="namedview5"
   pagecolor="#ffffff"
   bordercolor="#666666"
   borderopacity="1.0"
   inkscape:showpageshadow="2"
   inkscape:pageopacity="0.0"
   inkscape:pagecheckerboard="0"
   inkscape:deskcolor="#d1d1d1"
   showgrid="false"
   inkscape:zoom="29.233333"
   inkscape:cx="10.159635"
   inkscape:cy="9.5096921"
   inkscape:window-width="1920"
   inkscape:window-height="1014"
   inkscape:window-x="1080"
   inkscape:window-y="470"
   inkscape:window-maximized="1"
   inkscape:current-layer="Layer_1" />
<path
   d="M 3.5492929,17.28405 C 1.5346396,12.966936 1.8404352,8.9016548 4.4846675,5.0702161 6.3374289,2.4079959 9.1615409,0.77109019 12.992979,0.17748698 13.280787,0.10553496 13.60457,0.05157125 13.964331,0.03358327 h 1.133241 c 5.234501,0.16189179 9.083929,2.48234043 11.512304,6.97933413 1.151231,2.1225811 1.439038,4.4610176 0.863423,7.0332966 -0.467687,2.032642 -1.223182,3.939367 -2.302461,5.70219 -2.320448,3.615582 -4.730837,6.547621 -7.195189,8.77813 -0.125916,0.125916 -0.305796,0.287809 -0.53964,0.467688 -0.827446,0.629579 -1.600929,0.953362 -2.302461,0.971351 -0.701531,0.01799 -1.493001,-0.251831 -2.356424,-0.80946 -0.521651,-0.305795 -0.953363,-0.665554 -1.331111,-1.06129 C 7.9203707,24.497229 5.2761384,20.899633 3.5492929,17.28405 Z m 0.1978676,-3.975342 c 0.035976,0.197868 0.08994,0.4497 0.1618918,0.791471 0.071952,0.341771 0.1259158,0.575615 0.1618918,0.719518 0.5036633,2.266485 1.5469658,4.011319 3.1119196,5.270477 1.5829419,1.259159 3.5256433,1.996666 5.8640793,2.212522 0.521652,0.05397 0.827447,0.03597 0.917388,-0.05397 0.08994,-0.08994 0.143903,-0.413724 0.161891,-0.935375 -0.01799,-0.143904 -0.05397,-0.377748 -0.08994,-0.701531 -0.03597,-0.323784 -0.07196,-0.557628 -0.107928,-0.701531 C 13.478658,17.499906 12.345415,15.737085 10.510642,14.639818 10.186855,14.44195 9.8091079,14.244082 9.3953845,14.028228 8.9816612,13.812372 8.6039137,13.668467 8.2981181,13.542551 7.9923225,13.416635 7.5785991,13.254745 7.0569479,13.056877 6.5352966,12.859009 6.1575492,12.715104 5.9237054,12.607177 5.6358979,12.49925 5.1682105,12.427298 4.4846675,12.40931 c -0.5756152,0 -0.8274468,0.305794 -0.737507,0.899398 z m 12.2318225,7.914709 c -0.03597,0.557627 0,0.881411 0.107928,1.007327 0.125916,0.125914 0.4497,0.143903 0.989339,0.07196 0.683543,-0.07196 1.403061,-0.215855 2.158557,-0.395735 1.924712,-0.485676 3.489667,-1.510991 4.712849,-3.075944 0.611592,-0.737507 1.079278,-1.546965 1.385074,-2.410388 0.305797,-0.863422 0.611591,-1.888738 0.845435,-3.093931 0.08994,-0.413725 0.07196,-0.683543 -0.05397,-0.827447 -0.125916,-0.143905 -0.395736,-0.197868 -0.791471,-0.143905 -1.061291,0.17988 -2.014653,0.413725 -2.860087,0.71952 -2.068618,0.773483 -3.633572,1.816785 -4.71285,3.129907 -1.079279,1.33111 -1.672882,2.986004 -1.78081,5.018644 z"
   id="path2"
   style="stroke-width:1.7988" />
</svg>
