<?xml version="1.0" encoding="UTF-8" standalone="no"?>
<!-- Generator: Adobe Illustrator 22.0.1, SVG Export Plug-In . SVG Version: 6.00 Build 0)  -->

<svg
   version="1.1"
   id="Layer_1"
   x="0px"
   y="0px"
   viewBox="0 0 30 30"
   style="enable-background:new 0 0 30 30;"
   xml:space="preserve"
   sodipodi:docname="cloud-refresh-symbolic.svg"
   inkscape:version="1.2.2 (b0a8486541, 2022-12-01)"
   xmlns:inkscape="http://www.inkscape.org/namespaces/inkscape"
   xmlns:sodipodi="http://sodipodi.sourceforge.net/DTD/sodipodi-0.dtd"
   xmlns="http://www.w3.org/2000/svg"
   xmlns:svg="http://www.w3.org/2000/svg"><defs
   id="defs7" /><sodipodi:namedview
   id="namedview5"
   pagecolor="#ffffff"
   bordercolor="#666666"
   borderopacity="1.0"
   inkscape:showpageshadow="2"
   inkscape:pageopacity="0.0"
   inkscape:pagecheckerboard="0"
   inkscape:deskcolor="#d1d1d1"
   showgrid="false"
   inkscape:zoom="29.233333"
   inkscape:cx="14.982896"
   inkscape:cy="9.5096921"
   inkscape:window-width="1920"
   inkscape:window-height="1014"
   inkscape:window-x="1080"
   inkscape:window-y="470"
   inkscape:window-maximized="1"
   inkscape:current-layer="Layer_1" />
<path
   d="m 0.02508632,17.956049 c 0,0.951704 0.17303704,1.845729 0.54795061,2.710914 0.36049382,0.865185 0.85076547,1.600592 1.47081487,2.235062 0.6200493,0.620049 1.3554567,1.13916 2.2062221,1.514074 0.8507655,0.389333 1.7447901,0.605629 2.6964938,0.648888 0.1586173,0 0.2451358,-0.08652 0.2451358,-0.245135 v -1.917827 c 0,-0.173037 -0.086518,-0.273976 -0.2451358,-0.273976 C 5.6920492,22.541531 4.6394073,22.036839 3.7886419,21.142815 2.9378764,20.24879 2.5052838,19.181728 2.5052838,17.956049 c 0,-1.211259 0.4037531,-2.263901 1.225679,-3.157926 0.821926,-0.894024 1.8168889,-1.398716 3.0281481,-1.499654 l 0.7498272,-0.100938 c 0.1874568,0 0.288395,-0.08652 0.288395,-0.245136 L 7.8982714,12.202568 C 7.9992097,11.178765 8.330864,10.241482 8.8932344,9.3907159 9.4556047,8.5543703 10.191012,7.8910616 11.085037,7.4152098 c 0.894025,-0.4758518 1.860148,-0.7065679 2.89837,-0.7065679 1.571753,0 2.95605,0.5191111 4.12405,1.5573333 1.182419,1.0382222 1.845728,2.3359998 2.004345,3.8933338 l 0.08652,0.821926 c 0,0.173037 0.08652,0.259555 0.273975,0.259555 h 2.32158 c 1.297778,0 2.408099,0.461432 3.345383,1.398716 0.922864,0.922864 1.398716,2.033185 1.398716,3.316543 0,1.225679 -0.432592,2.292741 -1.283358,3.186766 -0.850765,0.894024 -1.903407,1.398716 -3.157926,1.485234 -0.187457,0 -0.288395,0.08652 -0.288395,0.273976 v 1.917827 c 0,0.158617 0.100938,0.245135 0.288395,0.245135 1.932247,-0.08652 3.561679,-0.821925 4.888296,-2.177382 1.326618,-1.355457 1.989926,-3.013729 1.989926,-4.931556 0,-1.283358 -0.317234,-2.480197 -0.966123,-3.576098 -0.648889,-1.095902 -1.514074,-1.961087 -2.609975,-2.595556 -1.095902,-0.634469 -2.292741,-0.966123 -3.576099,-0.966123 H 22.361284 C 21.885432,8.9004443 20.86163,7.3286913 19.318716,6.0885925 17.718123,4.8484938 15.944494,4.2428642 13.968988,4.2428642 c -2.033185,0 -3.835655,0.6344691 -5.407408,1.9178271 -1.571753,1.283358 -2.5955555,2.8983703 -3.0425678,4.8738767 -1.6005926,0.374914 -2.9127901,1.211259 -3.9365925,2.509037 -1.03822227,1.283358 -1.55733338,2.754173 -1.55733338,4.412444 z m 8.98350608,1.831309 c 0,1.067062 0.2739753,2.062025 0.8075061,2.984889 0.5335315,0.922864 1.2689385,1.643852 2.1773835,2.177382 0.908444,0.547951 1.903407,0.807507 2.970469,0.807507 1.658271,0 3.071407,-0.59121 4.253827,-1.75921 1.182419,-1.18242 1.773629,-2.581136 1.773629,-4.210568 0,-0.331654 -0.115358,-0.620049 -0.360494,-0.865185 -0.245135,-0.245136 -0.53353,-0.360494 -0.879604,-0.360494 -0.346075,0 -0.63447,0.115358 -0.879605,0.360494 -0.245136,0.245136 -0.374914,0.533531 -0.374914,0.865185 0,0.966123 -0.346074,1.788049 -1.038222,2.494617 -0.692148,0.692148 -1.514074,1.038222 -2.494617,1.038222 -0.951704,0 -1.77363,-0.346074 -2.465778,-1.038222 -0.692148,-0.692148 -1.038222,-1.528494 -1.038222,-2.494617 0,-0.865185 0.259555,-1.629432 0.764247,-2.307161 0.519111,-0.677728 1.13916,-1.052641 1.888987,-1.11032 l -0.59121,0.56237 c -0.216296,0.216296 -0.331654,0.490271 -0.331654,0.821926 0,0.360494 0.100938,0.677728 0.331654,0.951703 0.201877,0.216297 0.447013,0.331655 0.764247,0.331655 0.317235,0.01442 0.648889,-0.100938 1.009383,-0.331655 L 17.92,16.009383 c 0.245136,-0.245136 0.360494,-0.519111 0.360494,-0.836346 0,-0.360494 -0.115358,-0.648889 -0.360494,-0.879605 l -2.624395,-2.638815 c -0.273975,-0.259555 -0.56237,-0.374913 -0.894025,-0.374913 -0.331654,0 -0.620049,0.115358 -0.850765,0.360494 -0.230716,0.245135 -0.346074,0.53353 -0.346074,0.879605 0,0.346074 0.100938,0.620049 0.331654,0.836345 l 0.504691,0.519111 c -1.441975,0.245136 -2.638814,0.908445 -3.590518,2.018766 -0.9661238,1.095901 -1.4419756,2.393679 -1.4419756,3.893333 z"
   id="path2"
   style="stroke-width:1.44198" />
</svg>
