<?xml version="1.0" encoding="UTF-8" standalone="no"?>
<!-- Generator: Adobe Illustrator 22.0.1, SVG Export Plug-In . SVG Version: 6.00 Build 0)  -->

<svg
   version="1.1"
   id="Layer_1"
   x="0px"
   y="0px"
   viewBox="0 0 30 30"
   style="enable-background:new 0 0 30 30;"
   xml:space="preserve"
   sodipodi:docname="cloud-down-symbolic.svg"
   inkscape:version="1.2.2 (b0a8486541, 2022-12-01)"
   xmlns:inkscape="http://www.inkscape.org/namespaces/inkscape"
   xmlns:sodipodi="http://sodipodi.sourceforge.net/DTD/sodipodi-0.dtd"
   xmlns="http://www.w3.org/2000/svg"
   xmlns:svg="http://www.w3.org/2000/svg"><defs
   id="defs7" /><sodipodi:namedview
   id="namedview5"
   pagecolor="#ffffff"
   bordercolor="#666666"
   borderopacity="1.0"
   inkscape:showpageshadow="2"
   inkscape:pageopacity="0.0"
   inkscape:pagecheckerboard="0"
   inkscape:deskcolor="#d1d1d1"
   showgrid="false"
   inkscape:zoom="29.233333"
   inkscape:cx="14.982896"
   inkscape:cy="23.192702"
   inkscape:window-width="1920"
   inkscape:window-height="1014"
   inkscape:window-x="1080"
   inkscape:window-y="470"
   inkscape:window-maximized="1"
   inkscape:current-layer="Layer_1" />
<path
   d="m 0.10777791,18.240869 c 0,1.921577 0.67398598,3.556351 2.00761779,4.933004 1.3336319,1.376652 2.9684064,2.107998 4.8756433,2.194039 0.1577414,0 0.2437822,-0.08604 0.2437822,-0.243782 v -1.921577 c 0,-0.172082 -0.086041,-0.258122 -0.2437822,-0.258122 C 5.7577881,22.88707 4.7109588,22.399506 3.8505511,21.481738 2.9901435,20.563969 2.5599397,19.48846 2.5599397,18.240869 c 0,-1.190231 0.4015235,-2.22272 1.2189108,-3.111808 0.8173872,-0.889088 1.8211962,-1.390992 3.0114267,-1.534393 l 0.7600268,-0.05736 c 0.1864216,0 0.2868025,-0.08604 0.2868025,-0.243782 l 0.114721,-0.788707 C 8.0952288,10.956084 8.7405345,9.6511325 9.9020848,8.6186434 11.063635,7.5718141 12.425947,7.0555695 14.003361,7.0555695 c 1.563074,0 2.925386,0.5162446 4.101277,1.5630739 1.17589,1.0468292 1.835536,2.3374406 2.007617,3.8861746 l 0.100381,0.831727 c 0,0.157742 0.08604,0.243782 0.243782,0.243782 h 2.323101 c 1.276271,0 2.380461,0.458884 3.312569,1.390993 0.932109,0.917768 1.405333,2.007618 1.405333,3.269549 0,1.247591 -0.430204,2.3231 -1.304952,3.240869 -0.874747,0.917768 -1.921577,1.405332 -3.140488,1.462693 -0.186421,0 -0.272462,0.08604 -0.272462,0.258122 v 1.921577 c 0,0.157741 0.08604,0.243782 0.272462,0.243782 1.261932,-0.02868 2.409142,-0.372843 3.455971,-1.032489 1.046829,-0.645306 1.878557,-1.505713 2.480842,-2.581223 0.602286,-1.07551 0.903428,-2.2514 0.903428,-3.513331 0,-1.290612 -0.315483,-2.480842 -0.960788,-3.556352 C 28.300468,13.594668 27.42572,12.7486 26.335871,12.117634 25.246021,11.486669 24.05579,11.185526 22.765179,11.185526 H 22.291955 C 21.818731,9.2639491 20.814922,7.7008752 19.280528,6.4676243 17.746134,5.2343733 15.967959,4.632088 13.989021,4.632088 c -2.021958,0 -3.828814,0.6309656 -5.3918877,1.8785566 -1.5630739,1.2475911 -2.5812229,2.8680255 -3.0257669,4.8326234 -1.577414,0.372843 -2.8823656,1.20457 -3.9148547,2.495182 -1.03248921,1.290611 -1.54873379,2.753304 -1.54873379,4.402419 z m 9.99506909,2.179699 c 0,0.344163 0.114721,0.630966 0.344163,0.860408 l 3.714093,3.742773 c 0.172081,0.229442 0.458884,0.329823 0.817387,0.329823 0.401523,0 0.688326,-0.114721 0.874748,-0.329823 l 3.728433,-3.742773 c 0.229442,-0.243782 0.344163,-0.544925 0.344163,-0.860408 0,-0.329823 -0.114721,-0.616625 -0.344163,-0.831727 -0.229442,-0.215102 -0.516245,-0.329823 -0.860408,-0.329823 -0.344163,0 -0.630966,0.114721 -0.889088,0.329823 l -1.606094,1.591754 v -5.707371 c 0,-0.344163 -0.114721,-0.616625 -0.358503,-0.846067 -0.243782,-0.229442 -0.530585,-0.329823 -0.874748,-0.329823 -0.344163,0 -0.616626,0.114721 -0.846068,0.329823 -0.229442,0.229442 -0.329823,0.501904 -0.329823,0.846067 v 5.707371 l -1.577414,-1.591754 c -0.258122,-0.229442 -0.544924,-0.329823 -0.903428,-0.329823 -0.358503,0 -0.645305,0.114721 -0.874747,0.329823 -0.243782,0.215102 -0.358503,0.501904 -0.358503,0.831727 z"
   id="path2"
   style="stroke-width:1.43401" />
</svg>
