<?xml version="1.0" encoding="UTF-8" standalone="no"?>
<!-- Generator: Adobe Illustrator 22.0.1, SVG Export Plug-In . SVG Version: 6.00 Build 0)  -->

<svg
   version="1.1"
   id="Layer_1"
   x="0px"
   y="0px"
   viewBox="0 0 30 30"
   style="enable-background:new 0 0 30 30;"
   xml:space="preserve"
   sodipodi:docname="cloudy-gusts-symbolic.svg"
   inkscape:version="1.2.2 (b0a8486541, 2022-12-01)"
   xmlns:inkscape="http://www.inkscape.org/namespaces/inkscape"
   xmlns:sodipodi="http://sodipodi.sourceforge.net/DTD/sodipodi-0.dtd"
   xmlns="http://www.w3.org/2000/svg"
   xmlns:svg="http://www.w3.org/2000/svg"><defs
   id="defs7" /><sodipodi:namedview
   id="namedview5"
   pagecolor="#ffffff"
   bordercolor="#666666"
   borderopacity="1.0"
   inkscape:showpageshadow="2"
   inkscape:pageopacity="0.0"
   inkscape:pagecheckerboard="0"
   inkscape:deskcolor="#d1d1d1"
   showgrid="false"
   inkscape:zoom="29.233333"
   inkscape:cx="14.982896"
   inkscape:cy="20.4561"
   inkscape:window-width="1920"
   inkscape:window-height="1014"
   inkscape:window-x="1080"
   inkscape:window-y="470"
   inkscape:window-maximized="1"
   inkscape:current-layer="Layer_1" />
<path
   d="m 0.04838448,21.001658 c 0,-0.328318 0.10506185,-0.604105 0.32831829,-0.827362 0.22325644,-0.210123 0.48591107,-0.315185 0.78796393,-0.315185 h 7.1179405 c 0.9718222,0 1.7991848,0.341451 2.4820868,1.037486 0.682902,0.696034 1.024353,1.523396 1.024353,2.495219 0,0.971822 -0.341451,1.812317 -1.024353,2.495219 -0.682902,0.682902 -1.5102646,1.024353 -2.4820868,1.024353 -0.9718221,0 -1.8123169,-0.341451 -2.495219,-1.037486 -0.2101237,-0.210124 -0.3020528,-0.472778 -0.3020528,-0.787964 0,-0.315186 0.1050618,-0.590973 0.3020528,-0.787964 0.196991,-0.210124 0.4596456,-0.315186 0.7879639,-0.315186 0.3020528,0 0.5647075,0.105062 0.8010966,0.315186 0.2626547,0.249522 0.5647075,0.380849 0.9061585,0.380849 0.3414511,0 0.6435039,-0.131327 0.8930258,-0.380849 0.2495219,-0.249522 0.3808492,-0.551575 0.3808492,-0.919291 0,-0.341451 -0.1313273,-0.643504 -0.3808492,-0.893026 C 8.9261111,22.236135 8.6240583,22.104808 8.2826072,22.104808 H 1.1646667 c -0.30205286,0 -0.56470749,-0.105062 -0.78796393,-0.328318 C 0.15344633,21.553233 0.04838448,21.316844 0.04838448,21.001658 Z m 0,-3.99235 c 0,-0.315186 0.10506185,-0.590973 0.32831829,-0.814229 0.22325644,-0.210124 0.48591107,-0.315186 0.78796393,-0.315186 H 15.019699 c 0.341451,0 0.643504,-0.131327 0.893026,-0.380849 0.249522,-0.249522 0.380849,-0.564708 0.380849,-0.906159 0,-0.341451 -0.131327,-0.656636 -0.380849,-0.906158 -0.249522,-0.249522 -0.551575,-0.380849 -0.893026,-0.380849 -0.367716,0 -0.656636,0.118194 -0.893026,0.367716 -0.236389,0.196991 -0.512176,0.302053 -0.840494,0.302053 -0.315186,0 -0.577841,-0.105062 -0.787964,-0.302053 -0.196991,-0.196991 -0.302053,-0.459646 -0.302053,-0.787964 0,-0.328318 0.09193,-0.590973 0.302053,-0.801096 0.669769,-0.66977 1.510264,-0.998088 2.521484,-0.998088 0.971822,0 1.812317,0.341451 2.495219,1.024353 0.682902,0.682902 1.024353,1.510264 1.024353,2.468954 0,0.958689 -0.341451,1.799184 -1.024353,2.482086 -0.682902,0.682902 -1.510264,1.024353 -2.495219,1.024353 H 1.1646667 c -0.31518559,0 -0.57784022,-0.105062 -0.78796393,-0.315186 C 0.15344633,17.574015 0.04838448,17.311361 0.04838448,17.009308 Z M 2.8719218,13.909983 c 0,0.105062 0.065664,0.157593 0.2101237,0.157593 h 1.8911133 c 0.1050619,0 0.196991,-0.06566 0.2889201,-0.196991 0.2889201,-0.709167 0.7616985,-1.30014 1.3789369,-1.772919 0.6303711,-0.472778 1.3264059,-0.735433 2.0881043,-0.787964 l 0.6960348,-0.105061 c 0.1707255,0 0.2626546,-0.0788 0.2626546,-0.223257 l 0.091929,-0.682902 C 9.9241986,8.8801468 10.515172,7.6850683 11.578923,6.7263788 c 1.063752,-0.9586894 2.311361,-1.4446005 3.755962,-1.4446005 1.457733,0 2.718475,0.4727784 3.782226,1.4314678 1.063752,0.9586895 1.667857,2.1537677 1.82545,3.5852359 l 0.09193,0.774831 c 0,0.14446 0.0788,0.223257 0.223257,0.223257 h 2.127502 c 1.195079,0 2.206299,0.420247 3.059927,1.260742 0.853627,0.840495 1.273875,1.838582 1.273875,3.020528 0,1.168813 -0.420248,2.180034 -1.273875,3.020528 -0.853628,0.840495 -1.864848,1.260743 -3.059927,1.260743 h -9.074717 c -0.157593,0 -0.249522,0.0788 -0.249522,0.223256 v 1.82545 c 0,0.14446 0.0788,0.223256 0.249522,0.223256 h 9.074717 c 1.195079,0 2.285096,-0.28892 3.296316,-0.879893 1.01122,-0.57784 1.799184,-1.378937 2.390157,-2.377024 0.590973,-1.01122 0.879893,-2.101237 0.879893,-3.283183 0,-1.195079 -0.28892,-2.285095 -0.879893,-3.283183 C 28.48075,11.309702 27.692786,10.508606 26.681566,9.9307658 25.670346,9.3529248 24.580329,9.0508728 23.38525,9.0508728 H 22.978135 C 22.57102,7.3042191 21.651729,5.8727514 20.220261,4.7564692 18.801926,3.640187 17.160334,3.0886122 15.321752,3.0886122 c -1.851715,0 -3.493307,0.5778402 -4.924774,1.7335206 C 8.9655093,5.9778131 8.0593508,7.4486791 7.6785016,9.2478639 6.5490866,9.5105179 5.550999,10.04896 4.6842387,10.86319 3.8174785,11.677419 3.2133728,12.649241 2.8719218,13.765523 v 0.05253 c 0,0.02627 0,0.05253 0,0.09193 z"
   id="path2"
   style="stroke-width:1.31327" />
</svg>
