<?xml version="1.0" encoding="UTF-8" standalone="no"?>
<!-- Generator: Adobe Illustrator 22.0.1, SVG Export Plug-In . SVG Version: 6.00 Build 0)  -->

<svg
   version="1.1"
   id="Layer_1"
   x="0px"
   y="0px"
   viewBox="0 0 30 30"
   style="enable-background:new 0 0 30 30;"
   xml:space="preserve"
   sodipodi:docname="cloud-up-symbolic.svg"
   inkscape:version="1.2.2 (b0a8486541, 2022-12-01)"
   xmlns:inkscape="http://www.inkscape.org/namespaces/inkscape"
   xmlns:sodipodi="http://sodipodi.sourceforge.net/DTD/sodipodi-0.dtd"
   xmlns="http://www.w3.org/2000/svg"
   xmlns:svg="http://www.w3.org/2000/svg"><defs
   id="defs7" /><sodipodi:namedview
   id="namedview5"
   pagecolor="#ffffff"
   bordercolor="#666666"
   borderopacity="1.0"
   inkscape:showpageshadow="2"
   inkscape:pageopacity="0.0"
   inkscape:pagecheckerboard="0"
   inkscape:deskcolor="#d1d1d1"
   showgrid="false"
   inkscape:zoom="29.233333"
   inkscape:cx="14.982896"
   inkscape:cy="20.4561"
   inkscape:window-width="1920"
   inkscape:window-height="1014"
   inkscape:window-x="1080"
   inkscape:window-y="470"
   inkscape:window-maximized="1"
   inkscape:current-layer="Layer_1" />
<path
   d="m 0.06422699,18.251912 c 0,1.913736 0.6618936,3.56847 2.00006981,4.935424 1.3381762,1.381343 2.9641322,2.115182 4.892257,2.201516 0.1582789,0 0.2446129,-0.08633 0.2446129,-0.244613 v -1.913736 c 0,-0.172668 -0.086334,-0.273391 -0.2446129,-0.273391 C 5.7191006,22.899556 4.6830932,22.410331 3.8197537,21.489435 2.9564142,20.56854 2.5247445,19.489365 2.5247445,18.251912 c 0,-1.179897 0.4028918,-2.215905 1.2086753,-3.108022 0.8057835,-0.877729 1.8130129,-1.395732 3.0216882,-1.539622 h 0.7626165 c 0.1870569,0 0.2877798,-0.08633 0.2877798,-0.259002 l 0.086334,-0.820173 C 8.0501172,10.971082 8.7120108,9.6616841 9.8775191,8.6112877 11.043027,7.5608914 12.424371,7.0284987 13.992771,7.0284987 c 1.554011,0 2.920965,0.5323927 4.100862,1.582789 1.179897,1.0503964 1.841791,2.3597943 2.00007,3.9138053 l 0.115112,0.820173 c 0,0.172668 0.08633,0.259002 0.259002,0.259002 h 2.316627 c 1.280621,0 2.388573,0.460448 3.323857,1.381343 0.935285,0.920895 1.410121,2.014459 1.410121,3.251912 0,1.237453 -0.431669,2.316628 -1.295009,3.237523 -0.863339,0.920896 -1.913736,1.410121 -3.1368,1.467677 -0.187057,0 -0.28778,0.08633 -0.28778,0.273391 v 1.913736 c 0,0.158279 0.100723,0.244613 0.28778,0.244613 1.251842,-0.02878 2.402962,-0.374114 3.453358,-1.021619 1.050396,-0.647504 1.884958,-1.510844 2.489296,-2.590018 0.604337,-1.079174 0.906506,-2.259072 0.906506,-3.510914 0,-0.964062 -0.187057,-1.884958 -0.561171,-2.748297 -0.374113,-0.877729 -0.892117,-1.625956 -1.525233,-2.259072 -0.633115,-0.633116 -1.395732,-1.13673 -2.27346,-1.510844 -0.877729,-0.374114 -1.798624,-0.561171 -2.762687,-0.561171 H 22.352775 C 21.877938,9.2444034 20.870708,7.6760033 19.316697,6.4385501 17.777075,5.2154858 16.007229,4.5967592 14.021549,4.5967592 c -2.028848,0 -3.841861,0.6331156 -5.4102612,1.8993468 -1.5684,1.2662313 -2.5756294,2.8777983 -3.0216881,4.834701 -1.5971781,0.374114 -2.9065763,1.194286 -3.9281947,2.489296 -1.09356332,1.309398 -1.59717801,2.777075 -1.59717801,4.431809 z m 9.98596001,0.906506 c 0,0.359725 0.115112,0.661894 0.345336,0.920896 0.215835,0.215835 0.503614,0.330947 0.877728,0.330947 0.345336,0 0.647505,-0.115112 0.892118,-0.330947 l 1.597178,-1.640345 v 5.726818 c 0,0.345336 0.115112,0.633116 0.330947,0.877729 0.230223,0.244613 0.503614,0.359725 0.84895,0.359725 0.330947,0 0.618727,-0.115112 0.86334,-0.359725 0.244612,-0.244613 0.359724,-0.532393 0.359724,-0.877729 v -5.669262 l 1.611567,1.597178 c 0.57556,0.446059 1.165509,0.446059 1.755457,0 0.230224,-0.215835 0.345336,-0.518004 0.345336,-0.892118 0,-0.345335 -0.115112,-0.633115 -0.345336,-0.892117 l -3.726748,-3.697971 c -0.230224,-0.230224 -0.518004,-0.345336 -0.86334,-0.345336 -0.345336,0 -0.633116,0.115112 -0.84895,0.345336 l -3.71236,3.697971 c -0.215835,0.230224 -0.330947,0.503615 -0.330947,0.84895 z"
   id="path2"
   style="stroke-width:1.4389" />
</svg>
