<?xml version="1.0" encoding="UTF-8" standalone="no"?>
<svg
   inkscape:version="1.2.2 (b0a8486541, 2022-12-01)"
   sodipodi:docname="cloud-symbolic.svg"
   xml:space="preserve"
   style="enable-background:new 0 0 30 30;"
   viewBox="0 0 30 30"
   y="0px"
   x="0px"
   id="Layer_1"
   version="1.1"
   xmlns:inkscape="http://www.inkscape.org/namespaces/inkscape"
   xmlns:sodipodi="http://sodipodi.sourceforge.net/DTD/sodipodi-0.dtd"
   xmlns="http://www.w3.org/2000/svg"
   xmlns:svg="http://www.w3.org/2000/svg"
   xmlns:rdf="http://www.w3.org/1999/02/22-rdf-syntax-ns#"
   xmlns:cc="http://creativecommons.org/ns#"
   xmlns:dc="http://purl.org/dc/elements/1.1/"><metadata
   id="metadata9"><rdf:RDF><cc:Work
       rdf:about=""><dc:format>image/svg+xml</dc:format><dc:type
         rdf:resource="http://purl.org/dc/dcmitype/StillImage" /></cc:Work></rdf:RDF></metadata><defs
   id="defs7" /><sodipodi:namedview
   inkscape:current-layer="Layer_1"
   inkscape:window-maximized="0"
   inkscape:window-y="0"
   inkscape:window-x="0"
   inkscape:cy="15.067568"
   inkscape:cx="15.067568"
   inkscape:zoom="22.2"
   showgrid="false"
   id="namedview5"
   inkscape:window-height="1049"
   inkscape:window-width="939"
   inkscape:pageshadow="2"
   inkscape:pageopacity="0"
   guidetolerance="10"
   gridtolerance="10"
   objecttolerance="10"
   borderopacity="1"
   bordercolor="#666666"
   pagecolor="#ffffff"
   inkscape:showpageshadow="2"
   inkscape:pagecheckerboard="0"
   inkscape:deskcolor="#d1d1d1" />
<path
   style="stroke-width:1.44328"
   id="path2"
   d="m 0.00436193,18.261805 c 0,-1.659768 0.51957928,-3.131909 1.55873827,-4.430857 C 2.6022588,12.531998 3.91564,11.694898 5.5176765,11.334079 5.9650921,9.3567913 6.9898186,7.7403212 8.5629886,6.4702388 10.13616,5.2001559 11.954687,4.5651144 13.989707,4.5651144 c 1.991721,0 3.76695,0.6206088 5.325688,1.8473934 1.558738,1.2267845 2.569032,2.814388 3.030881,4.7483772 h 0.47628 c 1.298949,0 2.496867,0.317522 3.593758,0.938132 1.096889,0.620608 1.977287,1.486574 2.612329,2.583462 0.635042,1.096891 0.966995,2.280377 0.966995,3.579326 0,1.270083 -0.303087,2.453569 -0.909264,3.536026 -0.606176,1.082456 -1.443276,1.948423 -2.496866,2.597896 -1.053592,0.649475 -2.222647,0.995861 -3.478297,1.039159 H 6.9320876 C 4.998097,25.34829 3.3671952,24.61222 2.0249484,23.226673 0.68270176,21.855561 0.00436193,20.195793 0.00436193,18.261805 Z m 2.46800217,0 c 0,1.25565 0.4329827,2.338108 1.2989483,3.261804 0.8659657,0.923696 1.9195573,1.41441 3.1607752,1.486575 H 23.082346 c 1.241217,-0.05773 2.294808,-0.562879 3.160774,-1.486575 0.880399,-0.923696 1.313382,-2.020587 1.313382,-3.261804 0,-1.270083 -0.476281,-2.35254 -1.41441,-3.276236 -0.938129,-0.923697 -2.049453,-1.385546 -3.348402,-1.385546 h -2.309241 c -0.15876,0 -0.245357,-0.0866 -0.245357,-0.25979 L 20.13806,12.517567 C 19.979302,10.958827 19.300963,9.6454455 18.117477,8.5918551 16.93399,7.538263 15.562877,7.0042509 13.989707,7.0042509 c -1.573171,0 -2.958716,0.5340121 -4.1133367,1.5876042 -1.1690539,1.0535904 -1.83296,2.3669719 -1.9772878,3.9257119 L 7.783618,13.340233 c 0,0.173194 -0.1010299,0.25979 -0.2886554,0.25979 H 6.7300264 c -1.2123523,0.144327 -2.2226455,0.663906 -3.0308801,1.544304 -0.8082345,0.8804 -1.2267847,1.919558 -1.2267847,3.117478 z" />
</svg>
