<?xml version="1.0" encoding="UTF-8" standalone="no"?>
<svg
   inkscape:version="1.2.2 (b0a8486541, 2022-12-01)"
   sodipodi:docname="day-haze-symbolic.svg"
   xml:space="preserve"
   style="enable-background:new 0 0 30 30;"
   viewBox="0 0 30 30"
   y="0px"
   x="0px"
   id="Layer_1"
   version="1.1"
   xmlns:inkscape="http://www.inkscape.org/namespaces/inkscape"
   xmlns:sodipodi="http://sodipodi.sourceforge.net/DTD/sodipodi-0.dtd"
   xmlns="http://www.w3.org/2000/svg"
   xmlns:svg="http://www.w3.org/2000/svg"
   xmlns:rdf="http://www.w3.org/1999/02/22-rdf-syntax-ns#"
   xmlns:cc="http://creativecommons.org/ns#"
   xmlns:dc="http://purl.org/dc/elements/1.1/"><metadata
   id="metadata9"><rdf:RDF><cc:Work
       rdf:about=""><dc:format>image/svg+xml</dc:format><dc:type
         rdf:resource="http://purl.org/dc/dcmitype/StillImage" /></cc:Work></rdf:RDF></metadata><defs
   id="defs7" /><sodipodi:namedview
   inkscape:current-layer="Layer_1"
   inkscape:window-maximized="1"
   inkscape:window-y="470"
   inkscape:window-x="1080"
   inkscape:cy="15"
   inkscape:cx="15"
   inkscape:zoom="22.2"
   showgrid="false"
   id="namedview5"
   inkscape:window-height="1014"
   inkscape:window-width="1920"
   inkscape:pageshadow="2"
   inkscape:pageopacity="0"
   guidetolerance="10"
   gridtolerance="10"
   objecttolerance="10"
   borderopacity="1"
   bordercolor="#666666"
   pagecolor="#ffffff"
   inkscape:showpageshadow="2"
   inkscape:pagecheckerboard="0"
   inkscape:deskcolor="#d1d1d1" />
<path
   style="stroke-width:1.40708"
   id="path2"
   d="m 0.05675364,18.088551 c 0,-0.3377 0.11256683,-0.619117 0.35177133,-0.858322 0.25327535,-0.239204 0.53469251,-0.35177 0.84425133,-0.35177 h 2.8704541 c 0.3236297,0 0.5909758,0.112566 0.8161096,0.35177 0.2110628,0.239205 0.3236295,0.520622 0.3236295,0.858322 0,0.337702 -0.1125667,0.619118 -0.3236295,0.844252 -0.2110629,0.239205 -0.4924799,0.351772 -0.8161096,0.351772 H 1.2668471 c -0.32362962,0 -0.60504678,-0.112567 -0.84425127,-0.351772 C 0.18339132,18.693598 0.05675364,18.412181 0.05675364,18.088551 Z M 4.0810179,8.3655923 c 0,-0.3236297 0.1125668,-0.6050467 0.3236296,-0.8583221 0.2814171,-0.2392045 0.576905,-0.3517714 0.9005347,-0.3517714 0.2954878,0 0.5769049,0.1125669 0.8301803,0.3517714 l 2.0121321,2.0543446 c 0.2251336,0.2110633 0.3377005,0.4924792 0.3377005,0.8301802 0,0.3377 -0.1125669,0.619117 -0.3377005,0.84425 -0.2251337,0.225134 -0.5065507,0.337701 -0.8442512,0.337701 -0.3377005,0 -0.6191177,-0.112567 -0.8301804,-0.337701 L 4.4187184,9.2239144 C 4.1935847,8.9847099 4.0810179,8.7032928 4.0810179,8.3655923 Z M 4.3061515,21.465556 c 0,-0.309558 0.1125669,-0.576904 0.3236297,-0.773897 0.2251336,-0.196992 0.5206216,-0.309558 0.9005346,-0.309558 h 8.0344572 c 0.379913,0 0.675402,0.0985 0.900535,0.309558 0.225134,0.196993 0.3377,0.464339 0.3377,0.773897 0,0.379914 -0.112566,0.675402 -0.32363,0.900535 -0.225133,0.225134 -0.520621,0.337701 -0.914605,0.337701 H 5.5303158 c -0.379913,0 -0.675401,-0.112567 -0.9005346,-0.32363 C 4.4046475,22.1691 4.3061515,21.84547 4.3061515,21.465556 Z m 1.3930145,4.150902 c 0,-0.309558 0.1266378,-0.590975 0.3939839,-0.844251 0.2532754,-0.253275 0.5487633,-0.379913 0.8442513,-0.379913 0.3658422,0 0.6613301,0.126638 0.8864637,0.365842 0.2251337,0.253275 0.3377005,0.534693 0.3377005,0.858322 0,0.393984 -0.1125668,0.689472 -0.3236296,0.914606 -0.2110628,0.225133 -0.5206216,0.32363 -0.9005346,0.32363 -0.3236297,0 -0.6191176,-0.112567 -0.8583221,-0.337701 C 5.8258038,26.29186 5.699166,25.9823 5.699166,25.616458 Z m 1.9839904,-7.119852 v -0.0985 c 0.042213,-1.772925 0.6613301,-3.306648 1.8432818,-4.615238 1.1819508,-1.308589 2.6312488,-2.096557 4.3619648,-2.377974 h 0.07035 c 0.267347,-0.05628 0.633189,-0.08442 1.069386,-0.08442 0.436196,0 0.802038,0.02815 1.069385,0.08442 h 0.05628 c 1.716643,0.267346 3.180012,1.069385 4.361964,2.377974 1.181952,1.30859 1.80107,2.842313 1.843283,4.615241 v 0.0985 c 0,0.225134 -0.112568,0.337701 -0.32363,0.337701 h -1.590007 c -0.16885,0 -0.281417,-0.04222 -0.351771,-0.126638 -0.07035,-0.08443 -0.0985,-0.16885 -0.0985,-0.253275 -0.05628,-1.30859 -0.562834,-2.420187 -1.519653,-3.334793 -0.956817,-0.914605 -2.096556,-1.364872 -3.433288,-1.364872 -1.336731,0 -2.47647,0.450267 -3.433289,1.364872 -0.956817,0.914606 -1.463368,2.026203 -1.519651,3.334793 0,0.08442 -0.04222,0.16885 -0.1125666,0.253275 -0.070353,0.08442 -0.1969924,0.126638 -0.3658427,0.126638 H 8.0208565 c -0.2251337,0 -0.3377005,-0.112567 -0.3377001,-0.337701 z m 1.4211562,7.119852 c 0,-0.323629 0.1125669,-0.605047 0.3377005,-0.858322 0.2251336,-0.239204 0.5206215,-0.365842 0.8864629,-0.365842 h 5.389138 c 0.309559,0 0.590975,0.126638 0.844251,0.379913 0.253276,0.253276 0.393984,0.534693 0.393984,0.844251 0,0.365842 -0.126638,0.675402 -0.379913,0.900535 -0.253275,0.225134 -0.534692,0.337701 -0.858322,0.337701 h -5.389138 c -0.3799119,0 -0.6754001,-0.112567 -0.9005337,-0.32363 C 9.2028086,26.30593 9.1043126,26.010442 9.1043126,25.616458 Z M 13.803977,7.2117823 V 4.355399 c 0,-0.3377005 0.112567,-0.6191176 0.351773,-0.8583221 0.239203,-0.2392044 0.52062,-0.3517713 0.858322,-0.3517713 0.3377,0 0.605045,0.1125669 0.84425,0.3517713 0.239205,0.2392045 0.351772,0.5206216 0.351772,0.8583221 v 2.8563833 c 0,0.3236297 -0.112567,0.6050467 -0.351772,0.8161095 -0.239205,0.2110629 -0.520621,0.3377005 -0.84425,0.3377005 -0.32363,0 -0.619119,-0.1125668 -0.844252,-0.3236297 C 13.944686,7.8308998 13.803977,7.535412 13.803977,7.2117823 Z m 1.913637,14.2537737 c 0,-0.295487 0.126637,-0.548762 0.379913,-0.759825 0.253275,-0.211064 0.534692,-0.32363 0.858322,-0.32363 0.323629,0 0.605046,0.112566 0.858322,0.32363 0.253276,0.211063 0.379913,0.464338 0.379913,0.759825 0,0.365843 -0.126637,0.675402 -0.379913,0.900535 -0.253276,0.225134 -0.534693,0.337701 -0.858322,0.337701 -0.32363,0 -0.619118,-0.112567 -0.858322,-0.337701 -0.253276,-0.239205 -0.379913,-0.534692 -0.379913,-0.900535 z m 2.166911,4.150902 c 0,-0.323629 0.112567,-0.605047 0.3377,-0.858322 0.225134,-0.239204 0.534694,-0.365842 0.900536,-0.365842 h 2.617178 c 0.365842,0 0.66133,0.126638 0.886464,0.365842 0.225133,0.253275 0.3377,0.534693 0.3377,0.858322 0,0.393984 -0.112567,0.689472 -0.323629,0.914606 -0.211063,0.225133 -0.520622,0.32363 -0.900535,0.32363 h -2.617178 c -0.379914,0 -0.675402,-0.112567 -0.900536,-0.32363 -0.225133,-0.225134 -0.3377,-0.520622 -0.3377,-0.914606 z m 1.238236,-4.150902 c 0,-0.295487 0.126637,-0.548762 0.379913,-0.759825 0.253275,-0.211064 0.534692,-0.32363 0.844251,-0.32363 h 4.319752 c 0.309558,0 0.562834,0.0985 0.759825,0.309558 0.196992,0.211063 0.30956,0.464339 0.30956,0.773897 0,0.379914 -0.0985,0.675402 -0.295488,0.900535 -0.196992,0.225134 -0.450267,0.337701 -0.773897,0.337701 h -4.319752 c -0.32363,0 -0.605047,-0.112567 -0.858322,-0.337701 -0.239205,-0.239205 -0.365842,-0.534692 -0.365842,-0.900535 z m 2.448328,-11.073761 c 0,-0.351771 0.112566,-0.6331884 0.32363,-0.8301802 L 23.89278,7.5072702 c 0.253275,-0.2392045 0.534692,-0.3517714 0.83018,-0.3517714 0.32363,0 0.605047,0.1125669 0.844251,0.3517714 0.239205,0.2392045 0.351772,0.5206216 0.351772,0.8583221 0,0.3377005 -0.112567,0.6331884 -0.337701,0.8583221 l -2.054344,1.9980606 c -0.253275,0.225134 -0.534693,0.3377 -0.844252,0.3377 -0.323629,0 -0.576905,-0.112566 -0.787967,-0.3377 -0.211064,-0.211063 -0.32363,-0.49248 -0.32363,-0.83018 z m 3.180013,7.696756 c 0,-0.323629 0.112567,-0.605046 0.3377,-0.858322 0.239205,-0.239204 0.506551,-0.35177 0.802039,-0.35177 h 2.842313 c 0.323629,0 0.605047,0.126637 0.84425,0.365842 0.239205,0.239204 0.365842,0.520621 0.365842,0.84425 0,0.32363 -0.126637,0.605047 -0.365842,0.844252 -0.239203,0.239205 -0.520621,0.351772 -0.84425,0.351772 h -2.842313 c -0.32363,0 -0.605047,-0.112567 -0.816109,-0.351772 -0.211063,-0.239205 -0.32363,-0.50655 -0.32363,-0.844252 z" />
</svg>
