<?xml version="1.0" encoding="UTF-8" standalone="no"?>
<!-- Generator: Adobe Illustrator 22.0.1, SVG Export Plug-In . SVG Version: 6.00 Build 0)  -->

<svg
   version="1.1"
   id="Layer_1"
   x="0px"
   y="0px"
   viewBox="0 0 30 30"
   style="enable-background:new 0 0 30 30;"
   xml:space="preserve"
   sodipodi:docname="day-lightning-symbolic.svg"
   inkscape:version="1.2.2 (b0a8486541, 2022-12-01)"
   xmlns:inkscape="http://www.inkscape.org/namespaces/inkscape"
   xmlns:sodipodi="http://sodipodi.sourceforge.net/DTD/sodipodi-0.dtd"
   xmlns="http://www.w3.org/2000/svg"
   xmlns:svg="http://www.w3.org/2000/svg"><defs
   id="defs7" /><sodipodi:namedview
   id="namedview5"
   pagecolor="#ffffff"
   bordercolor="#666666"
   borderopacity="1.0"
   inkscape:showpageshadow="2"
   inkscape:pageopacity="0.0"
   inkscape:pagecheckerboard="0"
   inkscape:deskcolor="#d1d1d1"
   showgrid="false"
   inkscape:zoom="29.233333"
   inkscape:cx="14.982896"
   inkscape:cy="9.5096921"
   inkscape:window-width="1920"
   inkscape:window-height="1014"
   inkscape:window-x="1080"
   inkscape:window-y="470"
   inkscape:window-maximized="1"
   inkscape:current-layer="Layer_1" />
<path
   d="m 0.26353418,17.609582 c 0,1.458297 0.50437315,2.708264 1.52408392,3.760869 1.0197107,1.052604 2.2587142,1.611801 3.7279748,1.677589 0.120611,0 0.1863988,-0.06578 0.1863988,-0.1864 v -1.502153 c 0,-0.131576 -0.065787,-0.197363 -0.1863988,-0.197363 C 4.56167,21.085368 3.7612519,20.712573 3.1143385,20.021802 2.4674253,19.341994 2.1384863,18.530612 2.1384863,17.598617 c 0,-0.921029 0.3070097,-1.721446 0.9319938,-2.401254 0.624984,-0.679806 1.3815436,-1.063569 2.3025727,-1.140321 l 0.5701608,-0.08772 c 0.1425402,0 0.2192926,-0.06578 0.2192926,-0.186397 l 0.065787,-0.559197 c 0.1206113,-1.184179 0.6140198,-2.18196 1.502155,-2.971414 0.8881351,-0.8004182 1.9297751,-1.1951448 3.1358848,-1.1951448 1.195145,0 2.236786,0.3947266 3.124921,1.1951448 0.888134,0.789454 1.392508,1.787235 1.524083,2.98238 l 0.07676,0.635949 c 0,0.120611 0.06578,0.186399 0.208327,0.186399 h 1.754341 c 0.997782,0 1.842058,0.350867 2.543794,1.041639 0.701737,0.690772 1.052605,1.524084 1.052605,2.499936 0,0.931995 -0.328939,1.743377 -0.975852,2.423185 -0.646913,0.679807 -1.447331,1.063568 -2.401254,1.140322 -0.14254,0 -0.219293,0.06578 -0.219293,0.197363 v 1.502154 c 0,0.120611 0.07676,0.186399 0.219293,0.186399 1.458296,-0.04386 2.6973,-0.603056 3.706045,-1.655659 1.008747,-1.052605 1.513119,-2.313538 1.513119,-3.782799 0,-0.745595 -0.175434,-1.502154 -0.515337,-2.269679 0.855241,-1.030675 1.293826,-2.22582 1.293826,-3.585434 0,-0.778489 -0.153504,-1.524084 -0.460514,-2.2367853 C 23.004182,8.8049826 22.59849,8.2019279 22.083153,7.6865901 21.567814,7.1712524 20.953795,6.765561 20.252059,6.4585514 c -0.712702,-0.2960451 -1.447331,-0.44955 -2.22582,-0.44955 -1.688554,0 -3.113956,0.6359487 -4.254278,1.8968814 -0.942958,-0.44955 -1.907846,-0.6798073 -2.905628,-0.6798073 -1.5569775,0 -2.9275565,0.4714793 -4.1227013,1.4254022 C 5.5484868,9.6054007 4.7809626,10.83344 4.441059,12.346558 3.2349496,12.63164 2.237168,13.256623 1.4477145,14.243441 0.65826095,15.230257 0.26353418,16.34865 0.26353418,17.609582 Z M 8.4870082,29.966723 h 0.328939 l 5.8331838,-8.607236 c 0.04386,-0.04386 0.05483,-0.09869 0.02194,-0.153505 -0.03289,-0.05482 -0.07676,-0.07675 -0.153506,-0.07675 h -2.390289 l 2.521865,-4.61611 c 0.07676,-0.153505 0.03289,-0.241223 -0.153505,-0.241223 h -3.223602 c -0.08772,0 -0.16447,0.05483 -0.241221,0.153505 l -2.3683616,6.271769 c -0.02193,0.153505 0.021929,0.230257 0.1535048,0.230257 H 11.195272 Z M 9.4518957,4.1121202 c 0,0.2741158 0.087717,0.504373 0.2631513,0.6798071 l 0.723666,0.7127011 c 0.460514,0.3508682 0.8991,0.3508682 1.326721,0 0.175434,-0.1973634 0.263151,-0.4276207 0.263151,-0.7017364 0,-0.2521866 -0.08772,-0.4714792 -0.263151,-0.6469133 L 11.063698,3.4432776 C 10.855369,3.2568789 10.636076,3.1691619 10.38389,3.1691619 c -0.252187,0 -0.4714792,0.087717 -0.6578785,0.2741157 C 9.5396128,3.6296763 9.4518957,3.8599336 9.4518957,4.1121202 Z M 15.30701,8.969452 c 0.745595,-0.7455949 1.65566,-1.1183923 2.719229,-1.1183923 1.074534,0 1.984598,0.383762 2.730193,1.1403216 0.756559,0.7565596 1.129357,1.6775887 1.129357,2.7630877 0,0.668843 -0.186399,1.32672 -0.559196,1.984599 -1.074534,-1.030676 -2.335467,-1.546014 -3.793763,-1.546014 H 17.192927 C 16.907845,10.943086 16.271898,9.8685527 15.30701,8.969452 Z m 1.77627,-5.8002901 c 0,0.2741157 0.08772,0.504373 0.263151,0.679807 0.175435,0.1754342 0.394727,0.2631513 0.668842,0.2631513 0.263152,0 0.47148,-0.087717 0.646914,-0.2631513 0.175434,-0.175434 0.252187,-0.4056913 0.252187,-0.679807 V 0.93237695 c 0,-0.26315125 -0.08772,-0.47147919 -0.252187,-0.6469133 -0.175434,-0.1754341 -0.383762,-0.25218654 -0.646914,-0.25218654 -0.26315,0 -0.482443,0.08771709 -0.657878,0.25218654 -0.175434,0.16446948 -0.274115,0.38376205 -0.274115,0.6469133 z m 6.052476,2.5437945 c 0,0.2521866 0.09869,0.4714791 0.296046,0.6578779 0.197364,0.1863987 0.405691,0.2741158 0.603054,0.2741158 0.175435,0 0.405692,-0.087717 0.679808,-0.2741158 L 26.293571,4.802892 c 0.186399,-0.1973635 0.274115,-0.4276207 0.274115,-0.6907718 0,-0.2631513 -0.08772,-0.4934085 -0.274115,-0.6688426 -0.186399,-0.1754341 -0.405692,-0.2631512 -0.657878,-0.2631512 -0.241223,0 -0.44955,0.087717 -0.635948,0.2741158 L 23.431802,5.0221845 C 23.234439,5.2305127 23.135756,5.46077 23.135756,5.7129564 Z m 0.888136,12.9601956 c 0,0.252186 0.08772,0.471479 0.26315,0.668842 l 0.712703,0.723666 c 0.175433,0.175435 0.394725,0.263151 0.635948,0.263151 0.26315,0 0.482443,-0.08772 0.657878,-0.274115 0.186399,-0.186399 0.274115,-0.416656 0.274115,-0.690772 0,-0.252187 -0.08772,-0.460515 -0.274115,-0.624985 l -0.679808,-0.723666 c -0.208327,-0.175433 -0.42762,-0.252186 -0.679807,-0.252186 -0.252186,0 -0.471479,0.08772 -0.646914,0.263152 -0.175432,0.175433 -0.26315,0.394726 -0.26315,0.646913 z m 1.589871,-6.918683 c 0,0.241222 0.09869,0.44955 0.28508,0.624984 0.186399,0.186398 0.405692,0.274116 0.657879,0.274116 h 2.236785 c 0.263151,0 0.482444,-0.08772 0.668843,-0.263151 0.186399,-0.175434 0.274116,-0.383763 0.274116,-0.646914 0,-0.26315 -0.09868,-0.482443 -0.285081,-0.668842 -0.186399,-0.186399 -0.405691,-0.274116 -0.657878,-0.274116 h -2.236785 c -0.252187,0 -0.47148,0.08772 -0.657879,0.274116 -0.186398,0.197363 -0.28508,0.416656 -0.28508,0.679807 z"
   id="path2"
   style="stroke-width:1.09645" />
</svg>
