<?xml version="1.0" encoding="UTF-8" standalone="no"?>
<!-- Generator: Adobe Illustrator 22.0.1, SVG Export Plug-In . SVG Version: 6.00 Build 0)  -->

<svg
   version="1.1"
   id="Layer_1"
   x="0px"
   y="0px"
   viewBox="0 0 30 30"
   style="enable-background:new 0 0 30 30;"
   xml:space="preserve"
   sodipodi:docname="day-fog-symbolic.svg"
   inkscape:version="1.2.2 (b0a8486541, 2022-12-01)"
   xmlns:inkscape="http://www.inkscape.org/namespaces/inkscape"
   xmlns:sodipodi="http://sodipodi.sourceforge.net/DTD/sodipodi-0.dtd"
   xmlns="http://www.w3.org/2000/svg"
   xmlns:svg="http://www.w3.org/2000/svg"><defs
   id="defs7" /><sodipodi:namedview
   id="namedview5"
   pagecolor="#ffffff"
   bordercolor="#666666"
   borderopacity="1.0"
   inkscape:showpageshadow="2"
   inkscape:pageopacity="0.0"
   inkscape:pagecheckerboard="0"
   inkscape:deskcolor="#d1d1d1"
   showgrid="false"
   inkscape:zoom="29.233333"
   inkscape:cx="14.982896"
   inkscape:cy="20.4561"
   inkscape:window-width="1920"
   inkscape:window-height="1014"
   inkscape:window-x="1080"
   inkscape:window-y="470"
   inkscape:window-maximized="1"
   inkscape:current-layer="Layer_1" />
<path
   d="m 0.05824317,23.251798 c 0,0.234021 0.08139874,0.437518 0.25437107,0.600315 0.17297232,0.162798 0.38664402,0.244196 0.64101509,0.244196 H 19.99076 c 0.244197,0 0.447693,-0.0814 0.620666,-0.244196 0.172972,-0.162797 0.254371,-0.356119 0.254371,-0.600315 0,-0.244197 -0.0814,-0.447694 -0.254371,-0.610491 -0.172973,-0.172972 -0.376469,-0.254371 -0.620666,-0.254371 H 0.95362933 c -0.25437107,0 -0.46804277,0.0814 -0.64101509,0.254371 -0.17297233,0.172972 -0.25437107,0.366294 -0.25437107,0.610491 z M 2.724052,20.056897 c 0,0.234021 0.081399,0.437518 0.254371,0.590141 0.1729723,0.183147 0.3764692,0.274721 0.6104906,0.274721 H 22.63622 c 0.234021,0 0.437518,-0.0814 0.600315,-0.254372 0.162798,-0.172972 0.244196,-0.376469 0.244196,-0.61049 0,-0.234022 -0.0814,-0.437518 -0.234021,-0.600316 -0.162797,-0.162797 -0.356119,-0.244196 -0.600316,-0.244196 H 3.5990884 c -0.2441962,0 -0.4476931,0.0814 -0.6104905,0.244196 -0.1729724,0.172972 -0.2645459,0.366294 -0.2645459,0.600316 z m 0.1322729,-2.441962 c 0,0.09157 0.050874,0.132273 0.1627975,0.132273 h 1.4550025 c 0.071224,0 0.1424478,-0.05087 0.2136717,-0.162798 0.2441962,-0.529092 0.6003157,-0.956435 1.0785334,-1.292205 0.4782176,-0.33577 1.0073094,-0.529092 1.5872754,-0.569791 l 0.5494415,-0.07122 c 0.1119233,0 0.1729724,-0.06105 0.1729724,-0.183147 l 0.071224,-0.518917 c 0.1119231,-1.098887 0.5697911,-2.014623 1.3939533,-2.757387 0.8241624,-0.732588 1.7907724,-1.109058 2.9100054,-1.109058 1.098883,0 2.065493,0.366295 2.889655,1.098884 0.824163,0.732588 1.292205,1.638149 1.404129,2.726857 l 0.07122,0.590141 c 0,0.111924 0.06105,0.172973 0.193322,0.172973 h 1.63815 c 0.65119,0 1.251506,0.172972 1.790772,0.529091 0.539267,0.345945 0.936086,0.813988 1.200632,1.393954 0.07122,0.111923 0.132273,0.162797 0.203497,0.162797 h 1.465177 c 0.132273,0 0.183147,-0.07122 0.132273,-0.234021 l -0.203497,-0.559616 c 0.773288,-0.956436 1.149757,-2.075668 1.149757,-3.367873 0,-0.722414 -0.142447,-1.404129 -0.417168,-2.065494 C 23.694403,10.869014 23.317934,10.309397 22.839716,9.8311798 22.371674,9.3529621 21.801882,8.976493 21.140518,8.6915974 20.479153,8.4067018 19.797438,8.2846036 19.06485,8.2846036 c -1.566926,0 -2.869306,0.5697912 -3.88679,1.7093736 -0.864862,-0.4273434 -1.770423,-0.6410151 -2.726858,-0.6410151 -1.424478,0 -2.6963337,0.4476931 -3.8053915,1.3430789 -1.1090579,0.895387 -1.8212969,2.034969 -2.136717,3.428923 -1.811122,0.478217 -3.0321032,1.607625 -3.6425937,3.408572 -0.010175,0.01017 -0.010175,0.0407 -0.010175,0.0814 z m 1.6483245,8.760539 c 0,0.244196 0.091574,0.447693 0.2747208,0.610491 0.1627975,0.172972 0.3561195,0.264546 0.6003157,0.264546 H 24.447342 c 0.234021,0 0.437518,-0.0814 0.61049,-0.254371 0.172972,-0.172973 0.254371,-0.37647 0.254371,-0.620666 0,-0.234021 -0.0814,-0.427343 -0.254371,-0.590141 -0.172972,-0.152622 -0.376469,-0.234021 -0.61049,-0.234021 H 5.3796859 c -0.2441962,0 -0.4476931,0.0814 -0.6206654,0.234021 -0.1729723,0.162798 -0.2543711,0.35612 -0.2543711,0.590141 z M 11.189521,6.5650552 c 0,0.2441962 0.0814,0.4375183 0.234022,0.6003157 l 0.661365,0.65119 c 0.172972,0.1831471 0.366294,0.2747207 0.59014,0.2747207 0.223847,0 0.427344,-0.081399 0.610491,-0.254371 0.172972,-0.1729724 0.264546,-0.3764692 0.264546,-0.6206654 0,-0.2441963 -0.0814,-0.457868 -0.254371,-0.6410151 L 12.644524,5.9545646 C 12.481726,5.7815923 12.27823,5.6900187 12.034033,5.6900187 c -0.244196,0 -0.447693,0.081399 -0.61049,0.2543711 -0.152623,0.1627975 -0.234022,0.3764692 -0.234022,0.6206654 z m 5.413017,4.4565808 c 0.681714,-0.691889 1.505876,-1.0276588 2.472487,-1.0276588 0.997134,0 1.851821,0.3561198 2.553885,1.0581838 0.702064,0.702064 1.058184,1.556751 1.058184,2.543711 0,0.661364 -0.162798,1.271855 -0.498568,1.831471 -0.96661,-0.96661 -2.146891,-1.444827 -3.53067,-1.444827 h -0.345945 c -0.29507,-1.200632 -0.864861,-2.187592 -1.709373,-2.96088 z m 1.627975,-5.3214424 c 0,0.2340214 0.0814,0.4375182 0.244196,0.6003157 0.162797,0.1627975 0.356119,0.2441962 0.600316,0.2441962 0.254371,0 0.468042,-0.081399 0.641015,-0.2441962 0.172972,-0.1627975 0.254371,-0.3561195 0.254371,-0.6003157 V 3.6143508 c 0,-0.2340214 -0.09157,-0.4375182 -0.264546,-0.6104906 -0.183147,-0.1729723 -0.396819,-0.2543711 -0.641015,-0.2543711 -0.234022,0 -0.437519,0.081399 -0.600316,0.2543711 -0.162798,0.1729724 -0.244196,0.3764692 -0.244196,0.6104906 v 2.0858428 z m 5.585988,2.3096893 c 0,0.2238465 0.0814,0.4375182 0.244197,0.6104906 0.376469,0.3662943 0.793637,0.3662943 1.251505,0 l 1.455003,-1.4550026 c 0.162797,-0.1831471 0.244196,-0.3968188 0.244196,-0.6511899 0,-0.2340214 -0.0814,-0.4375182 -0.244196,-0.6003157 C 26.604408,5.7510678 26.400911,5.669669 26.16689,5.669669 c -0.244196,0 -0.447693,0.081399 -0.610491,0.2441963 L 24.070872,7.4095672 C 23.8979,7.5927143 23.816501,7.7962112 23.816501,8.0098829 Z m 0.824163,12.0063151 c 0,0.244196 0.09157,0.447693 0.264545,0.61049 l 0.65119,0.661365 c 0.162798,0.162797 0.366295,0.244196 0.590141,0.244196 0.213672,0 0.417169,-0.0814 0.620666,-0.244196 0.162797,-0.172972 0.244196,-0.396819 0.244196,-0.65119 0,-0.223847 -0.0814,-0.417169 -0.244196,-0.569791 l -0.661365,-0.67154 c -0.183147,-0.162797 -0.386644,-0.244196 -0.610491,-0.244196 -0.244196,0 -0.447693,0.0814 -0.61049,0.254371 -0.162798,0.162797 -0.244196,0.366294 -0.244196,0.610491 z m 1.505876,-6.420326 c 0,0.244196 0.09157,0.447693 0.264546,0.61049 0.152623,0.172973 0.35612,0.254371 0.600316,0.254371 h 2.085843 c 0.234021,0 0.437518,-0.0814 0.600315,-0.254371 0.162798,-0.172972 0.244197,-0.376469 0.244197,-0.61049 0,-0.244197 -0.0814,-0.447693 -0.244197,-0.610491 -0.162797,-0.162797 -0.356119,-0.244196 -0.600315,-0.244196 h -2.085843 c -0.244196,0 -0.447693,0.0814 -0.610491,0.254371 -0.172972,0.162797 -0.254371,0.366294 -0.254371,0.600316 z"
   id="path2"
   style="stroke-width:1.01748" />
</svg>
