<?xml version="1.0" encoding="UTF-8" standalone="no"?>
<!-- Generator: Adobe Illustrator 22.0.1, SVG Export Plug-In . SVG Version: 6.00 Build 0)  -->

<svg
   version="1.1"
   id="Layer_1"
   x="0px"
   y="0px"
   viewBox="0 0 30 30"
   style="enable-background:new 0 0 30 30;"
   xml:space="preserve"
   sodipodi:docname="day-sunny-overcast-symbolic.svg"
   inkscape:version="1.2.2 (b0a8486541, 2022-12-01)"
   xmlns:inkscape="http://www.inkscape.org/namespaces/inkscape"
   xmlns:sodipodi="http://sodipodi.sourceforge.net/DTD/sodipodi-0.dtd"
   xmlns="http://www.w3.org/2000/svg"
   xmlns:svg="http://www.w3.org/2000/svg"><defs
   id="defs7" /><sodipodi:namedview
   id="namedview5"
   pagecolor="#ffffff"
   bordercolor="#666666"
   borderopacity="1.0"
   inkscape:showpageshadow="2"
   inkscape:pageopacity="0.0"
   inkscape:pagecheckerboard="0"
   inkscape:deskcolor="#d1d1d1"
   showgrid="false"
   inkscape:zoom="29.233333"
   inkscape:cx="14.982896"
   inkscape:cy="9.5096921"
   inkscape:window-width="1920"
   inkscape:window-height="1014"
   inkscape:window-x="1080"
   inkscape:window-y="470"
   inkscape:window-maximized="1"
   inkscape:current-layer="Layer_1" />
<path
   d="m -0.00164606,16.554934 c 0,0.339945 0.113315,0.616937 0.35253554,0.843567 0.23922055,0.22663 0.54139387,0.327354 0.90652002,0.327354 h 2.1278037 c 0.339945,0 0.6295278,-0.113315 0.8687483,-0.339945 0.2392206,-0.22663 0.3651261,-0.503622 0.3651261,-0.830976 0,-0.365127 -0.113315,-0.6673 -0.3525355,-0.89393 C 4.0273316,15.434374 3.7377488,15.308469 3.3978038,15.308469 H 1.2574095 c -0.36512615,0 -0.66729947,0.113315 -0.90652002,0.352535 -0.23922054,0.21404 -0.35253554,0.516213 -0.35253554,0.89393 z m 2.22852826,7.780963 c 0,1.221283 0.4406694,2.27889 1.3345988,3.172819 0.8939294,0.89393 1.9389455,1.334599 3.1602293,1.334599 h 8.6371207 c 1.221284,0 2.2663,-0.440669 3.135048,-1.322008 0.868748,-0.881339 1.309418,-1.938946 1.309418,-3.18541 0,-0.604347 -0.08813,-1.12056 -0.264402,-1.548639 1.045016,-0.667299 1.875993,-1.561229 2.480339,-2.669197 0.604347,-1.107969 0.919111,-2.304072 0.919111,-3.575718 0,-1.019835 -0.201449,-2.001898 -0.604347,-2.933599 C 21.931101,12.677043 21.389707,11.871247 20.722407,11.203948 20.055108,10.536648 19.249312,9.9952545 18.317611,9.5923567 17.38591,9.189459 16.416437,8.9880101 15.396602,8.9880101 c -1.37237,0 -2.644016,0.339945 -3.802347,1.0198349 -1.158331,0.67989 -2.0774415,1.599 -2.7447409,2.744741 -0.6672994,1.158331 -0.9946538,2.417386 -0.9946538,3.789757 v 0.428079 C 6.5958048,17.688083 5.7648281,18.7331 5.3619304,20.10547 4.4050482,20.407643 3.6496149,20.936447 3.0830399,21.704471 2.516465,22.472494 2.2268822,23.353833 2.2268822,24.335897 Z M 4.1910088,6.5076708 c 0,0.3525355 0.113315,0.6421183 0.3273544,0.8435672 l 2.0270793,2.1278037 c 0.5917561,0.45326 1.1835122,0.45326 1.7752683,0 0.2392205,-0.2392205 0.3525355,-0.5288033 0.3525355,-0.8813388 0,-0.339945 -0.113315,-0.6295277 -0.3525355,-0.8813388 L 6.2432692,5.6389225 C 5.9788676,5.3997019 5.6766943,5.2737964 5.3619304,5.2737964 c -0.3525356,0 -0.6421183,0.113315 -0.8561578,0.3525355 C 4.2917332,5.8655525 4.1910088,6.1551352 4.1910088,6.5076708 Z M 4.7198121,24.335897 c 0,-0.528804 0.1636772,-0.982064 0.5036222,-1.35978 0.339945,-0.377717 0.7680238,-0.591757 1.2842366,-0.642119 l 0.7806144,-0.100724 c 0.1636772,0 0.2518111,-0.100725 0.2518111,-0.289583 l 0.113315,-0.705071 c 0.088134,-0.730252 0.3903072,-1.334599 0.9191105,-1.81304 0.5288033,-0.491032 1.1457405,-0.730252 1.8634021,-0.730252 0.730252,0 1.37237,0.23922 1.901174,0.730252 0.541393,0.491032 0.856157,1.095378 0.944291,1.81304 l 0.100725,0.818386 c 0.07554,0.188858 0.176267,0.289583 0.302173,0.289583 h 1.661953 c 0.541394,0 1.007245,0.201449 1.410142,0.591756 0.402898,0.390307 0.591757,0.856158 0.591757,1.410142 0,0.566575 -0.201449,1.045016 -0.591757,1.447914 -0.390307,0.402898 -0.868748,0.604347 -1.410142,0.604347 H 6.7217103 c -0.566575,0 -1.045016,-0.201449 -1.4227327,-0.604347 -0.3903072,-0.402898 -0.5791655,-0.89393 -0.5791655,-1.460504 z m 5.5650249,-8.045365 c 0.08813,-1.372371 0.616937,-2.530702 1.599001,-3.474993 0.969472,-0.931701 2.152985,-1.410142 3.512764,-1.410142 1.397552,0 2.593655,0.503622 3.575718,1.498276 0.982063,0.994653 1.473095,2.215937 1.473095,3.63867 0,0.881339 -0.214039,1.699725 -0.642118,2.455158 -0.428079,0.755433 -1.007245,1.35978 -1.737497,1.825631 -0.742843,-0.616938 -1.599,-0.919111 -2.555883,-0.919111 -0.365126,-1.107969 -1.019834,-1.976717 -1.938945,-2.631426 -0.919111,-0.654709 -1.964127,-0.982063 -3.122458,-0.982063 z M 14.175319,5.2737964 c 0,0.339945 0.125905,0.6421183 0.365126,0.8813388 0.23922,0.2392206 0.528803,0.3651261 0.868748,0.3651261 0.352536,0 0.642118,-0.1259055 0.881339,-0.3651261 0.23922,-0.2392205 0.365126,-0.5288033 0.365126,-0.8813388 V 2.3276065 c 0,-0.3273544 -0.125906,-0.6043466 -0.365126,-0.8309766 -0.239221,-0.22663 -0.528803,-0.339945 -0.881339,-0.339945 -0.339945,0 -0.629528,0.113315 -0.868748,0.339945 -0.239221,0.22663 -0.365126,0.5036222 -0.365126,0.8309766 z m 7.95723,19.1754146 c 0,0.339945 0.113315,0.629528 0.339945,0.881339 l 2.064851,2.03967 c 0.528804,0.528804 1.12056,0.528804 1.775269,0 0.22663,-0.214039 0.327354,-0.491031 0.327354,-0.856157 0,-0.339945 -0.113315,-0.616938 -0.327354,-0.843568 L 24.18481,23.567873 c -0.22663,-0.21404 -0.516213,-0.314764 -0.856158,-0.314764 -0.352535,0 -0.629528,0.113315 -0.856158,0.339945 -0.22663,0.22663 -0.339945,0.516213 -0.339945,0.856157 z m 0,-15.8766892 c 0,0.3525355 0.113315,0.6547089 0.339945,0.9065199 0.22663,0.22663 0.516213,0.339945 0.856158,0.339945 0.339945,0 0.629528,-0.113315 0.856158,-0.339945 L 26.312614,7.351238 c 0.22663,-0.2140395 0.327354,-0.4910317 0.327354,-0.8435672 0,-0.3525356 -0.125905,-0.6421183 -0.365126,-0.8687483 -0.239221,-0.22663 -0.528803,-0.3525356 -0.881339,-0.3525356 -0.327354,0 -0.616937,0.1259056 -0.856158,0.3651261 l -2.064851,2.0522605 c -0.22663,0.22663 -0.339945,0.5162128 -0.339945,0.8687483 z m 3.248364,7.9824122 c 0,0.339945 0.113315,0.616937 0.352535,0.843567 0.239221,0.22663 0.541394,0.327354 0.90652,0.327354 h 2.127804 c 0.339945,0 0.629528,-0.113315 0.868748,-0.339945 0.239221,-0.22663 0.365126,-0.503622 0.365126,-0.830976 0,-0.365127 -0.113315,-0.6673 -0.352535,-0.89393 -0.239221,-0.22663 -0.528804,-0.352535 -0.868749,-0.352535 h -2.127803 c -0.365126,0 -0.6673,0.113315 -0.90652,0.352535 -0.239221,0.21404 -0.365126,0.516213 -0.365126,0.89393 z"
   id="path2"
   style="stroke-width:1.25906" />
</svg>
