<?xml version="1.0" encoding="UTF-8" standalone="no"?>
<!-- Generator: Adobe Illustrator 22.0.1, SVG Export Plug-In . SVG Version: 6.00 Build 0)  -->

<svg
   version="1.1"
   id="Layer_1"
   x="0px"
   y="0px"
   viewBox="0 0 30 30"
   style="enable-background:new 0 0 30 30;"
   xml:space="preserve"
   sodipodi:docname="day-storm-showers-symbolic.svg"
   inkscape:version="1.2.2 (b0a8486541, 2022-12-01)"
   xmlns:inkscape="http://www.inkscape.org/namespaces/inkscape"
   xmlns:sodipodi="http://sodipodi.sourceforge.net/DTD/sodipodi-0.dtd"
   xmlns="http://www.w3.org/2000/svg"
   xmlns:svg="http://www.w3.org/2000/svg"><defs
   id="defs7" /><sodipodi:namedview
   id="namedview5"
   pagecolor="#ffffff"
   bordercolor="#666666"
   borderopacity="1.0"
   inkscape:showpageshadow="2"
   inkscape:pageopacity="0.0"
   inkscape:pagecheckerboard="0"
   inkscape:deskcolor="#d1d1d1"
   showgrid="false"
   inkscape:zoom="29.233333"
   inkscape:cx="14.982896"
   inkscape:cy="12.246294"
   inkscape:window-width="1920"
   inkscape:window-height="1014"
   inkscape:window-x="1080"
   inkscape:window-y="470"
   inkscape:window-maximized="1"
   inkscape:current-layer="Layer_1" />
<path
   d="m 0.05134812,17.860271 c 0,1.239267 0.36514101,2.345755 1.10648788,3.319464 0.741347,0.973709 1.6929266,1.626537 2.8547389,1.947419 l -0.730282,1.881029 c -0.055324,0.154909 0,0.243428 0.1549083,0.243428 h 2.3568192 l -1.5822777,4.658314 h 0.3208815 l 4.8242873,-6.262722 c 0.044259,-0.04426 0.044259,-0.09958 0.02213,-0.154908 -0.02213,-0.05532 -0.077454,-0.07745 -0.1549083,-0.07745 H 6.8009244 L 9.5560793,18.269676 C 9.6335333,18.114767 9.5892743,18.026248 9.401171,18.026248 H 6.1259668 c -0.099584,0 -0.1881029,0.05532 -0.2544922,0.165974 L 4.6875325,21.378903 C 3.8908612,21.179735 3.2269685,20.75927 2.717984,20.095377 2.1979347,19.442549 1.9434425,18.701202 1.9434425,17.860271 c 0,-0.92945 0.3098166,-1.737186 0.9294498,-2.412143 0.6196333,-0.674958 1.4052397,-1.073294 2.3346895,-1.183942 l 0.5643089,-0.0332 c 0.1327785,0 0.2102327,-0.05532 0.2434273,-0.154908 L 6.092772,13.42325 C 6.2144858,12.228248 6.7124054,11.221344 7.6086606,10.413607 8.5049158,9.6058712 9.5560793,9.1964707 10.773216,9.1964707 c 1.206072,0 2.257236,0.4094005 3.164556,1.2171363 0.90732,0.807737 1.427369,1.814641 1.549083,3.009648 l 0.08852,0.652828 c 0,0.121713 0.06639,0.188103 0.199168,0.188103 h 1.781445 c 0.984774,0 1.83677,0.354076 2.555987,1.062228 0.719217,0.708152 1.073293,1.549083 1.073293,2.533857 0,0.962645 -0.331946,1.792511 -0.995839,2.500663 -0.663892,0.708152 -1.460564,1.084358 -2.412143,1.139683 -0.143844,0 -0.221298,0.06639 -0.221298,0.199167 v 1.482694 c 0,0.121714 0.07745,0.188103 0.221298,0.188103 0.973709,-0.02213 1.869964,-0.287687 2.6777,-0.796671 0.807737,-0.49792 1.4495,-1.172877 1.925289,-2.002743 0.47579,-0.829866 0.708153,-1.737186 0.708153,-2.710896 0,-0.807736 -0.154909,-1.549083 -0.47579,-2.235105 0.840931,-1.062229 1.261396,-2.279365 1.261396,-3.640346 0,-1.051163 -0.265557,-2.0248727 -0.785606,-2.9211279 C 22.568377,8.1674369 21.860225,7.4592846 20.96397,6.9392353 20.067715,6.419186 19.094005,6.1536289 18.042842,6.1536289 c -0.796672,0 -1.571213,0.1659732 -2.323625,0.4979196 -0.752412,0.3319463 -1.394175,0.7966713 -1.947419,1.3831099 -0.896255,-0.4757898 -1.892094,-0.7192172 -3.009647,-0.7192172 -1.5712127,0 -2.9653874,0.4868547 -4.1714593,1.4605641 C 5.3846199,9.7497146 4.5990135,10.988981 4.2670671,12.50487 3.0388655,12.792557 2.0319615,13.43432 1.2352902,14.430159 0.44968377,15.448128 0.05134812,16.58781 0.05134812,17.860271 Z m 9.05107118,10.97636 c 0,0.165974 0.055324,0.343012 0.1770381,0.52005 0.1217136,0.177038 0.2876868,0.298751 0.5089844,0.376206 0.1217137,0.03319 0.2212972,0.04426 0.2766222,0.04426 0.165973,0 0.309817,-0.03319 0.420465,-0.08852 0.232363,-0.08852 0.398336,-0.298752 0.47579,-0.630698 l 0.298752,-1.139683 c 0.06639,-0.276622 0.03319,-0.520049 -0.08852,-0.741346 -0.121714,-0.221298 -0.331947,-0.354077 -0.586439,-0.409401 -0.232362,-0.07745 -0.45366,-0.04426 -0.6860224,0.07745 -0.2323625,0.132779 -0.3872708,0.320882 -0.4647249,0.575374 l -0.276622,1.150747 c -0.033195,0.154909 -0.055324,0.243428 -0.055324,0.265557 z M 9.3569115,4.2615346 c 0,0.2544922 0.088519,0.4757898 0.276622,0.6638927 l 0.7192175,0.730282 c 0.177038,0.1770381 0.376206,0.2655571 0.608568,0.2876869 0.232363,0.033195 0.45366,-0.044259 0.674958,-0.2544922 0.221297,-0.1991679 0.331946,-0.4315303 0.331946,-0.7081523 0,-0.2544922 -0.08852,-0.4757898 -0.276622,-0.6638927 L 10.994514,3.5865769 c -0.177038,-0.177038 -0.398336,-0.2655571 -0.663893,-0.2655571 -0.276622,0 -0.5089846,0.088519 -0.6970875,0.2655571 -0.1770381,0.1991679 -0.276622,0.4204654 -0.276622,0.6749577 z M 10.585113,23.525489 c -0.01107,0.177038 0.04426,0.354077 0.154909,0.52005 0.110648,0.165973 0.287686,0.287687 0.531114,0.354076 0.232362,0.07745 0.464725,0.05532 0.686022,-0.06639 0.221298,-0.121714 0.376206,-0.331947 0.464725,-0.619634 L 12.75383,22.57391 c 0.07745,-0.243428 0.04426,-0.47579 -0.08852,-0.697088 -0.132778,-0.221297 -0.331946,-0.376205 -0.597503,-0.45366 -0.254492,-0.07745 -0.486855,-0.05532 -0.708152,0.07746 -0.221298,0.132778 -0.376206,0.320881 -0.45366,0.586438 l -0.265557,1.161812 c -0.03319,0.165974 -0.05532,0.254493 -0.05532,0.276622 z m 3.131361,1.8589 c 0,0.154908 0.0332,0.309817 0.110649,0.43153 0.143843,0.232363 0.343011,0.398336 0.597503,0.47579 0.121714,0.04426 0.232363,0.06639 0.309817,0.06639 0.143843,0 0.254492,-0.02213 0.343011,-0.08852 0.221298,-0.07745 0.387271,-0.298751 0.49792,-0.663892 l 0.276622,-1.117553 c 0.07745,-0.265557 0.05532,-0.49792 -0.07745,-0.719217 -0.121714,-0.221298 -0.309817,-0.365141 -0.564309,-0.431531 -0.254493,-0.07745 -0.49792,-0.05532 -0.719217,0.07746 -0.221298,0.121713 -0.376206,0.309816 -0.45366,0.564308 l -0.309817,1.150748 c 0,0.08852 -0.01107,0.177038 -0.01107,0.254492 z m 1.515888,-5.333272 c 0,0.199168 0.05532,0.376206 0.177039,0.553244 0.121713,0.177038 0.298751,0.298752 0.542179,0.365141 0.188103,0.06639 0.4094,0.04426 0.674957,-0.05532 0.221298,-0.09958 0.376206,-0.309817 0.47579,-0.630698 l 0.298752,-1.106488 c 0.06639,-0.276622 0.04426,-0.520049 -0.08852,-0.741347 -0.132779,-0.221298 -0.320882,-0.354076 -0.586439,-0.409401 -0.254492,-0.07745 -0.486855,-0.05532 -0.708152,0.06639 -0.221298,0.121713 -0.365141,0.309816 -0.442595,0.553244 l -0.320882,1.172877 c -0.01107,0.154908 -0.02213,0.232362 -0.02213,0.232362 z M 15.343011,9.163276 c 0.741347,-0.7081522 1.637602,-1.0732932 2.710896,-1.0732932 1.084358,0 2.013808,0.3762058 2.777284,1.1396825 0.763477,0.7524118 1.150748,1.6818617 1.150748,2.7662197 0,0.730282 -0.177038,1.394175 -0.52005,2.002743 C 20.399661,12.9364 19.10507,12.405286 17.567052,12.405286 h -0.343011 c -0.320882,-1.316721 -0.95158,-2.401079 -1.88103,-3.24201 z m 1.770381,-5.8311913 c 0,0.2655571 0.08852,0.4868547 0.276622,0.6749576 0.188103,0.188103 0.4094,0.276622 0.663893,0.276622 0.265557,0 0.486854,-0.088519 0.663892,-0.276622 0.177038,-0.1881029 0.265558,-0.4094005 0.265558,-0.6749576 V 1.0527196 c 0,-0.26555706 -0.08852,-0.49791953 -0.265558,-0.67495759 -0.177038,-0.18810295 -0.398335,-0.28768686 -0.663892,-0.28768686 -0.265557,0 -0.486855,0.088519 -0.663893,0.27662198 -0.177038,0.18810294 -0.276622,0.40940053 -0.276622,0.67495767 z m 6.174203,2.5338573 c 0,0.2655571 0.08852,0.4868547 0.254492,0.6638928 0.154908,0.1770381 0.354076,0.2655571 0.608568,0.2876868 0.254492,0.02213 0.486855,-0.077454 0.697087,-0.2876868 l 1.593343,-1.5933426 c 0.199168,-0.1770381 0.287687,-0.3983357 0.287687,-0.6638928 0,-0.2655571 -0.09958,-0.4868546 -0.287687,-0.6638927 -0.177038,-0.1991678 -0.398336,-0.2876869 -0.663893,-0.2876869 -0.254492,0 -0.464725,0.099584 -0.641763,0.2876869 L 23.542087,5.2020493 C 23.365049,5.3680225 23.287595,5.5893201 23.287595,5.865942 Z m 0.851995,13.178271 c 0,0.254493 0.08852,0.47579 0.276622,0.663893 l 0.719217,0.697087 c 0.199168,0.188103 0.431531,0.276622 0.686023,0.276622 l 0.02213,0.02213 c 0.243427,0 0.442595,-0.09958 0.597503,-0.298752 0.199168,-0.177038 0.287687,-0.398335 0.287687,-0.663892 0,-0.254492 -0.09958,-0.47579 -0.287687,-0.674958 l -0.686022,-0.686022 c -0.199168,-0.199168 -0.420466,-0.298752 -0.674958,-0.298752 -0.265557,0 -0.486855,0.09958 -0.663893,0.287687 -0.177038,0.188103 -0.276622,0.420465 -0.276622,0.674957 z m 1.626537,-7.048328 c 0,0.265557 0.09958,0.486855 0.287687,0.652828 0.177038,0.199168 0.398336,0.287687 0.663893,0.287687 h 2.279365 c 0.265557,0 0.486855,-0.08852 0.674958,-0.276622 0.188103,-0.188103 0.276622,-0.4094 0.276622,-0.663893 0,-0.254492 -0.08852,-0.486854 -0.276622,-0.663892 -0.188103,-0.177039 -0.409401,-0.265558 -0.674958,-0.265558 h -2.279365 c -0.265557,0 -0.49792,0.08852 -0.674958,0.265558 -0.188103,0.177038 -0.276622,0.398335 -0.276622,0.663892 z"
   id="path2"
   style="stroke-width:1.10649" />
</svg>
