<?xml version="1.0" encoding="UTF-8" standalone="no"?>
<!-- Generator: Adobe Illustrator 22.0.1, SVG Export Plug-In . SVG Version: 6.00 Build 0)  -->

<svg
   version="1.1"
   id="Layer_1"
   x="0px"
   y="0px"
   viewBox="0 0 30 30"
   style="enable-background:new 0 0 30 30;"
   xml:space="preserve"
   sodipodi:docname="day-sleet-storm-symbolic.svg"
   inkscape:version="1.2.2 (b0a8486541, 2022-12-01)"
   xmlns:inkscape="http://www.inkscape.org/namespaces/inkscape"
   xmlns:sodipodi="http://sodipodi.sourceforge.net/DTD/sodipodi-0.dtd"
   xmlns="http://www.w3.org/2000/svg"
   xmlns:svg="http://www.w3.org/2000/svg"><defs
   id="defs7" /><sodipodi:namedview
   id="namedview5"
   pagecolor="#ffffff"
   bordercolor="#666666"
   borderopacity="1.0"
   inkscape:showpageshadow="2"
   inkscape:pageopacity="0.0"
   inkscape:pagecheckerboard="0"
   inkscape:deskcolor="#d1d1d1"
   showgrid="false"
   inkscape:zoom="29.233333"
   inkscape:cx="14.982896"
   inkscape:cy="6.7730901"
   inkscape:window-width="1920"
   inkscape:window-height="1014"
   inkscape:window-x="1080"
   inkscape:window-y="470"
   inkscape:window-maximized="1"
   inkscape:current-layer="Layer_1" />
<path
   d="m 0.06263183,17.758604 c 0,1.238331 0.3648654,2.343983 1.10565277,3.316958 0.7407873,0.972974 1.6916487,1.625309 2.852584,1.945949 L 3.2911378,24.90112 c -0.055283,0.154792 0,0.243244 0.1547914,0.243244 h 2.3550403 l -1.5810834,4.654798 h 0.3206393 l 4.8206459,-6.257995 c 0.044226,-0.04423 0.044226,-0.09951 0.022113,-0.154791 -0.022113,-0.05528 -0.077396,-0.0774 -0.1547913,-0.0774 H 6.8071135 L 9.5601888,18.167691 C 9.6375848,18.0129 9.5933588,17.924447 9.4053974,17.924447 H 6.1326653 c -0.099509,0 -0.1879609,0.05528 -0.2543001,0.165848 l -1.1830484,3.18428 C 3.8992468,21.075562 3.2358552,20.655414 2.7272549,19.992022 2.2075982,19.339687 1.953298,18.5989 1.953298,17.758604 c 0,-0.928749 0.3095828,-1.735875 0.9287483,-2.410323 0.6191655,-0.674449 1.404179,-1.072484 2.3329273,-1.183049 l 0.5638829,-0.03317 c 0.1326783,0 0.210074,-0.05528 0.2432436,-0.154792 l 0.077396,-0.652335 C 6.2211179,12.13083 6.7186617,11.124686 7.6142404,10.317559 8.5098191,9.5104328 9.5601892,9.1013413 10.776407,9.1013413 c 1.205161,0 2.255531,0.4090915 3.162166,1.2162177 0.906636,0.807127 1.426292,1.813271 1.547914,3.007376 l 0.08845,0.652335 c 0,0.121622 0.06634,0.187961 0.199018,0.187961 h 1.780101 c 0.984031,0 1.835383,0.353809 2.554058,1.061427 0.718674,0.707618 1.072483,1.547914 1.072483,2.531945 0,0.961917 -0.331696,1.791157 -0.995088,2.498775 -0.663391,0.707617 -1.459461,1.083539 -2.410323,1.138822 -0.143735,0 -0.22113,0.06634 -0.22113,0.199018 v 1.481574 c 0,0.121622 0.07739,0.187961 0.22113,0.187961 0.972975,-0.02211 1.868553,-0.28747 2.67568,-0.79607 0.807126,-0.497544 1.448405,-1.171992 1.923836,-2.001231 0.47543,-0.82924 0.707617,-1.735875 0.707617,-2.708849 0,-0.807127 -0.154791,-1.547914 -0.47543,-2.233419 0.840296,-1.061427 1.260444,-2.277645 1.260444,-3.637597 0,-1.050371 -0.265357,-2.0233453 -0.785014,-2.918924 C 22.562665,8.0730853 21.855047,7.3654675 20.959468,6.8458107 20.063889,6.326154 19.090915,6.0607973 18.040545,6.0607973 c -0.79607,0 -1.570027,0.1658479 -2.321871,0.4975437 -0.751844,0.3316958 -1.393122,0.79607 -1.945949,1.3820659 -0.895578,-0.4754306 -1.890666,-0.7186742 -3.007375,-0.7186742 -1.5700266,0 -2.9631491,0.4864872 -4.1683105,1.4594616 C 5.391878,9.6541687 4.6068646,10.8925 4.2751687,12.407244 3.0478942,12.694714 2.0417502,13.335993 1.2456803,14.33108 0.46066681,15.348281 0.06263183,16.487103 0.06263183,17.758604 Z m 8.71254347,11.29977 c 0,0.187961 0.055283,0.364866 0.1769045,0.54177 0.1216218,0.176905 0.2985262,0.298526 0.5417698,0.364866 0.099509,0.02211 0.187961,0.03317 0.2653567,0.03317 0.4754307,0 0.7739567,-0.22113 0.8845217,-0.674448 l 0.143735,-0.652335 c 0.06634,-0.28747 0.03317,-0.530713 -0.08845,-0.751844 -0.132678,-0.22113 -0.320639,-0.353809 -0.585996,-0.409091 -0.2321869,-0.0774 -0.464374,-0.05528 -0.6965611,0.07739 -0.232187,0.132679 -0.3759219,0.32064 -0.4533176,0.563883 L 8.8194035,28.80407 c -0.03317,0.132679 -0.044226,0.221131 -0.044226,0.2543 z M 9.3611713,4.1701311 c 0,0.2543002 0.088452,0.4754307 0.2764132,0.6633917 l 0.7186745,0.7297308 c 0.176904,0.1769044 0.375921,0.2653566 0.608109,0.2874697 0.232187,0.03317 0.453317,-0.044226 0.674448,-0.2543001 0.22113,-0.1990175 0.331696,-0.4312046 0.331696,-0.7076178 0,-0.2543001 -0.08845,-0.4754307 -0.276414,-0.6633916 L 10.997537,3.495683 C 10.820633,3.3187785 10.599502,3.2303263 10.334145,3.2303263 c -0.276413,0 -0.5085996,0.088452 -0.6965605,0.2653567 C 9.46068,3.6947005 9.3611713,3.915831 9.3611713,4.1701311 Z M 9.648641,25.851982 c 0,0.2543 0.088452,0.464374 0.2653567,0.641278 0.1769043,0.176905 0.3980343,0.265357 0.6412783,0.265357 0.265357,0 0.475431,-0.08845 0.652335,-0.2543 0.176905,-0.176905 0.2543,-0.386979 0.2543,-0.652335 0,-0.254301 -0.08845,-0.464375 -0.2543,-0.641279 -0.176904,-0.176905 -0.386978,-0.2543 -0.652335,-0.2543 -0.265357,0 -0.475431,0.08845 -0.6523349,0.2543 -0.1658479,0.165848 -0.2543001,0.386978 -0.2543001,0.641279 z m 0.685504,-2.509832 c -0.01106,0.165848 0.03317,0.342752 0.154792,0.519657 0.110565,0.176904 0.276413,0.287469 0.497544,0.331695 0.2543,0.06634 0.486487,0.04423 0.707617,-0.06634 0.221131,-0.110565 0.364866,-0.320639 0.453318,-0.619165 l 0.28747,-0.995088 c 0.07739,-0.243243 0.05528,-0.47543 -0.0774,-0.696561 -0.132678,-0.22113 -0.320639,-0.364865 -0.585996,-0.442261 -0.243244,-0.0774 -0.475431,-0.04423 -0.707618,0.08845 -0.232187,0.132679 -0.375922,0.331696 -0.453317,0.585996 l -0.2543,0.995088 c -0.01106,0.08845 -0.02211,0.187961 -0.02211,0.298526 z m 3.051602,2.377153 c 0,0.187961 0.05528,0.364866 0.165848,0.530713 0.110565,0.165848 0.276413,0.28747 0.5086,0.353809 0.03317,0 0.08845,0.01106 0.154792,0.02211 0.06634,0.01106 0.121621,0.02211 0.154791,0.02211 0.453318,0 0.729731,-0.243243 0.840296,-0.72973 l 0.154791,-0.663392 c 0.0774,-0.232187 0.05528,-0.464374 -0.07739,-0.696561 -0.132679,-0.232187 -0.32064,-0.375922 -0.563883,-0.453318 -0.276413,-0.06634 -0.530713,-0.04423 -0.751844,0.08845 -0.221131,0.132679 -0.375922,0.32064 -0.453318,0.585996 l -0.09951,0.652335 c 0,0.01106 0,0.05528 -0.01106,0.121622 -0.01106,0.0774 -0.02211,0.121622 -0.02211,0.165848 z m 0.818183,-3.272732 c 0,0.2543 0.08845,0.464374 0.265357,0.630222 0.165848,0.176905 0.375922,0.265357 0.641278,0.265357 0.265357,0 0.475431,-0.08845 0.652335,-0.2543 0.176905,-0.176905 0.254301,-0.386979 0.254301,-0.641279 0,-0.265357 -0.08845,-0.475431 -0.254301,-0.652335 -0.176904,-0.176904 -0.386978,-0.2543 -0.652335,-0.2543 -0.265356,0 -0.47543,0.08845 -0.652335,0.2543 -0.165848,0.176904 -0.2543,0.386978 -0.2543,0.652335 z M 15.342752,9.0681727 c 0.740788,-0.7076177 1.636366,-1.0724831 2.70885,-1.0724831 1.083539,0 2.012287,0.3759219 2.775188,1.1388223 0.7629,0.7518438 1.149879,1.6805921 1.149879,2.7641321 0,0.729731 -0.176905,1.393123 -0.519657,2.001232 -1.061427,-1.061427 -2.35504,-1.59214 -3.891898,-1.59214 H 17.222362 C 16.901723,10.992009 16.271501,9.9084688 15.342752,9.0681727 Z m 1.769045,-5.8267899 c 0,0.2653567 0.08845,0.4864872 0.276413,0.6744482 0.187961,0.187961 0.409091,0.2764132 0.663392,0.2764132 0.265356,0 0.486487,-0.088452 0.663391,-0.2764132 C 18.891898,3.72787 18.98035,3.5067395 18.98035,3.2413828 V 0.96373825 c 0,-0.26535665 -0.08845,-0.49754372 -0.265357,-0.67444816 -0.176904,-0.18796096 -0.398035,-0.28746971 -0.663391,-0.28746971 -0.265357,0 -0.486488,0.0884522 -0.663392,0.27641318 -0.176905,0.18796097 -0.276413,0.40909151 -0.276413,0.67444817 z m 6.169542,2.5319448 c 0,0.2653566 0.08845,0.4864872 0.2543,0.6633916 0.154791,0.1769045 0.353809,0.2653567 0.608109,0.2874697 0.2543,0.022113 0.486487,-0.077396 0.696561,-0.2874697 l 1.59214,-1.5921399 c 0.199018,-0.1769044 0.28747,-0.398035 0.28747,-0.6633916 0,-0.2653567 -0.09951,-0.4864872 -0.28747,-0.6633917 -0.176904,-0.1990175 -0.398035,-0.2874697 -0.663391,-0.2874697 -0.254301,0 -0.464375,0.099509 -0.641279,0.2874697 l -1.59214,1.59214 c -0.176904,0.1658479 -0.2543,0.3869784 -0.2543,0.6633916 z m 0.851353,13.1683244 c 0,0.2543 0.08845,0.475431 0.276413,0.663392 l 0.718674,0.696561 c 0.199017,0.187961 0.431205,0.276413 0.685505,0.276413 l 0.02211,0.02211 c 0.243243,0 0.442261,-0.09951 0.597052,-0.298526 0.199018,-0.176905 0.28747,-0.398035 0.28747,-0.663392 0,-0.2543 -0.09951,-0.47543 -0.28747,-0.674448 L 25.746945,18.27826 c -0.199018,-0.199017 -0.420149,-0.298526 -0.674449,-0.298526 -0.265356,0 -0.486487,0.09951 -0.663391,0.28747 -0.176905,0.187961 -0.276413,0.420148 -0.276413,0.674448 z m 1.625309,-7.043008 c 0,0.265357 0.09951,0.486487 0.28747,0.652335 0.176904,0.199018 0.398035,0.28747 0.663391,0.28747 h 2.277645 c 0.265357,0 0.486487,-0.08845 0.674448,-0.276413 0.187961,-0.187961 0.276413,-0.409092 0.276413,-0.663392 0,-0.2543 -0.08845,-0.486487 -0.276413,-0.663392 -0.187961,-0.176904 -0.409091,-0.265356 -0.674448,-0.265356 h -2.277645 c -0.265356,0 -0.497543,0.08845 -0.674448,0.265356 -0.187961,0.176905 -0.276413,0.398035 -0.276413,0.663392 z"
   id="path2"
   style="stroke-width:1.10565" />
</svg>
