<?xml version="1.0" encoding="UTF-8" standalone="no"?>
<!-- Generator: Adobe Illustrator 22.0.1, SVG Export Plug-In . SVG Version: 6.00 Build 0)  -->

<svg
   version="1.1"
   id="Layer_1"
   x="0px"
   y="0px"
   viewBox="0 0 30 30"
   style="enable-background:new 0 0 30 30;"
   xml:space="preserve"
   sodipodi:docname="day-hail-symbolic.svg"
   inkscape:version="1.2.2 (b0a8486541, 2022-12-01)"
   xmlns:inkscape="http://www.inkscape.org/namespaces/inkscape"
   xmlns:sodipodi="http://sodipodi.sourceforge.net/DTD/sodipodi-0.dtd"
   xmlns="http://www.w3.org/2000/svg"
   xmlns:svg="http://www.w3.org/2000/svg"><defs
   id="defs7" /><sodipodi:namedview
   id="namedview5"
   pagecolor="#ffffff"
   bordercolor="#666666"
   borderopacity="1.0"
   inkscape:showpageshadow="2"
   inkscape:pageopacity="0.0"
   inkscape:pagecheckerboard="0"
   inkscape:deskcolor="#d1d1d1"
   showgrid="false"
   inkscape:zoom="29.233333"
   inkscape:cx="14.982896"
   inkscape:cy="12.246294"
   inkscape:window-width="1920"
   inkscape:window-height="1014"
   inkscape:window-x="1080"
   inkscape:window-y="470"
   inkscape:window-maximized="1"
   inkscape:current-layer="Layer_1" />
<path
   d="m 0.03178686,18.000284 c 0,1.483536 0.52034469,2.75672 1.54996284,3.819552 1.0296182,1.062832 2.2917309,1.627461 3.7641957,1.693888 0.1328539,0 0.1992809,-0.06643 0.1992809,-0.18821 v -1.483536 c 0,-0.132854 -0.066427,-0.199281 -0.1992809,-0.199281 -0.9521201,-0.04428 -1.7603151,-0.431775 -2.4245849,-1.14033 -0.6642698,-0.708554 -0.9964047,-1.549963 -0.9964047,-2.502083 0,-0.918906 0.3099926,-1.71603 0.9410489,-2.402442 0.6310563,-0.686412 1.4060378,-1.073903 2.3249444,-1.184615 l 0.5867717,-0.04428 c 0.1439251,0 0.2214232,-0.06643 0.2214232,-0.199281 l 0.077498,-0.608914 c 0.121783,-1.19569 0.6199853,-2.203166 1.5167496,-3.00029 0.8967643,-0.8081948 1.9485248,-1.2067567 3.1663524,-1.2067567 1.206757,0 2.258518,0.3985619 3.166353,1.2067567 0.907836,0.808195 1.42818,1.8046 1.549963,3.000286 l 0.0775,0.642127 c 0,0.132854 0.06643,0.210352 0.18821,0.210352 h 1.793528 c 0.985334,0 1.848885,0.354278 2.56851,1.062832 0.719626,0.708555 1.084974,1.549963 1.084974,2.513154 0,0.963191 -0.332134,1.793529 -1.007475,2.502083 -0.675341,0.708555 -1.483536,1.084974 -2.424585,1.14033 -0.143925,0 -0.221424,0.06643 -0.221424,0.199281 v 1.483536 c 0,0.121783 0.0775,0.18821 0.221424,0.18821 1.483536,-0.04429 2.734577,-0.608914 3.753124,-1.671746 1.029618,-1.073903 1.538892,-2.347087 1.538892,-3.830623 0,-0.819266 -0.154996,-1.561034 -0.453918,-2.225304 0.874622,-1.062831 1.306398,-2.29173 1.306398,-3.686697 0,-1.040689 -0.265708,-2.014952 -0.786053,-2.9117163 C 22.583747,8.2798024 21.875193,7.571248 20.978428,7.0398321 20.081664,6.5194874 19.107402,6.2537795 18.066712,6.2537795 c -1.727101,0 -3.166352,0.6421275 -4.317753,1.9374536 -0.885694,-0.4871312 -1.882098,-0.7306968 -3.000286,-0.7306968 -1.5610338,0 -2.9560005,0.4871312 -4.1627573,1.4503225 C 5.3791589,9.87405 4.5931062,11.125092 4.2499002,12.641841 3.021001,12.929691 2.0135251,13.571819 1.2164013,14.568224 0.43034875,15.586771 0.03178686,16.727101 0.03178686,18.000284 Z m 5.91200134,7.816242 c 0.1107116,0.243566 0.2767791,0.409633 0.5092735,0.498202 0.2214233,0.110712 0.4539178,0.121783 0.6974834,0.02214 0.2435656,-0.08857 0.409633,-0.254637 0.4982023,-0.498203 C 7.7594591,25.5951 7.7705302,25.362605 7.6708894,25.11904 7.5823204,24.886548 7.416253,24.720481 7.1726874,24.631911 6.9512641,24.510129 6.7187697,24.499057 6.4862752,24.598698 c -0.2435656,0.09964 -0.409633,0.265708 -0.5203447,0.520345 -0.1107116,0.199281 -0.1217828,0.431775 -0.022142,0.697483 z m 0.7085545,-3.144211 c 0,0.154997 0.033214,0.298922 0.099641,0.420705 0.2103521,0.343206 0.542487,0.509273 0.9853335,0.509273 0.3542773,0 0.608914,-0.243565 0.7639103,-0.719625 l 1.151401,-3.564915 c 0.088569,-0.265708 0.066427,-0.520345 -0.077498,-0.741768 -0.1439251,-0.221423 -0.3432061,-0.365349 -0.608914,-0.409633 -0.2324944,-0.05536 -0.4649889,-0.03321 -0.6864122,0.0775 -0.2214232,0.121783 -0.3764195,0.309993 -0.4539177,0.553558 l -1.1403298,3.564915 c -0.022142,0.110711 -0.033214,0.221423 -0.033214,0.309992 z m 2.0703076,6.221994 c 0,0.143926 0.022142,0.254637 0.055356,0.321064 0.099641,0.243566 0.2657079,0.409633 0.4982024,0.498203 0.09964,0.05536 0.2324944,0.0775 0.3874907,0.0775 0.066427,0 0.1771386,-0.02214 0.3321349,-0.06643 0.2435657,-0.08857 0.4207037,-0.254637 0.5203447,-0.498203 0.09964,-0.243565 0.110711,-0.487131 0,-0.730696 -0.110712,-0.243566 -0.276779,-0.409634 -0.498203,-0.498203 -0.2214226,-0.08857 -0.4539171,-0.08857 -0.6864115,0 -0.2103521,0.0775 -0.3653484,0.210352 -0.4649889,0.387491 -0.09964,0.177139 -0.1439251,0.354277 -0.1439251,0.509273 z M 9.3979913,4.3716817 c 0,0.2767791 0.088569,0.4982023 0.2657079,0.6642698 l 0.7196258,0.7196256 c 0.177138,0.1771386 0.376419,0.2767791 0.597843,0.2989214 0.232494,0.033214 0.453917,-0.055356 0.675341,-0.2546367 0.221423,-0.199281 0.332134,-0.4428466 0.332134,-0.7085545 0,-0.2657079 -0.08857,-0.4871312 -0.265707,-0.6642698 L 11.014381,3.718483 C 10.804029,3.5302732 10.582606,3.4417039 10.327969,3.4417039 c -0.265708,0 -0.4982023,0.088569 -0.675341,0.2657079 C 9.4865606,3.8956216 9.3979913,4.1170449 9.3979913,4.3716817 Z M 9.5308452,25.916166 c 0,0.177139 0.055356,0.354278 0.1771387,0.531416 0.1217828,0.177139 0.2989211,0.298922 0.5314161,0.365349 0.121782,0.02214 0.210352,0.04428 0.265708,0.04428 0.166067,0 0.309992,-0.03321 0.420704,-0.08857 0.221423,-0.08857 0.376419,-0.298921 0.47606,-0.631056 l 1.992809,-6.797695 c 0.0775,-0.265708 0.05536,-0.498202 -0.06643,-0.719625 -0.121783,-0.221424 -0.298921,-0.365349 -0.553558,-0.431776 -0.265708,-0.0775 -0.509273,-0.05536 -0.730697,0.06643 -0.221423,0.121783 -0.376419,0.298922 -0.453917,0.564629 l -2.0370944,6.853051 c -0.011071,0.121783 -0.022142,0.210352 -0.022142,0.243565 z m 3.8195518,-0.431775 c 0,0.143925 0.02214,0.254637 0.0775,0.343206 0.09964,0.232495 0.265708,0.387491 0.498202,0.487131 0.121783,0.05536 0.243566,0.08857 0.387491,0.08857 0.06643,0 0.177138,-0.02214 0.332135,-0.06643 0.254637,-0.09964 0.420704,-0.254637 0.509273,-0.487132 0.08857,-0.243565 0.08857,-0.47606 0,-0.697483 -0.08857,-0.221423 -0.243565,-0.387491 -0.464989,-0.498202 -0.254636,-0.121783 -0.487131,-0.132854 -0.730696,-0.03321 -0.232495,0.09964 -0.409633,0.265708 -0.531416,0.520345 -0.05536,0.08857 -0.0775,0.199281 -0.0775,0.343206 z m 0.797123,-2.834218 c 0,0.177139 0.05536,0.343206 0.166068,0.498202 0.110711,0.166068 0.28785,0.27678 0.509273,0.343207 0.09964,0.02214 0.18821,0.03321 0.276779,0.03321 0.431776,0 0.719626,-0.221423 0.874622,-0.675341 l 1.14033,-3.52063 c 0.08857,-0.254637 0.05536,-0.498202 -0.0775,-0.719626 -0.132854,-0.221423 -0.321064,-0.365348 -0.5757,-0.431775 -0.265708,-0.0775 -0.498203,-0.05536 -0.708555,0.06643 -0.210352,0.121783 -0.354277,0.298921 -0.442846,0.564629 l -1.129259,3.542773 c -0.01107,0.143925 -0.03321,0.243565 -0.03321,0.298921 z M 15.332135,9.2762072 c 0.741768,-0.7085545 1.660674,-1.0739029 2.745649,-1.0739029 1.084974,0 2.00388,0.3764196 2.76779,1.1403299 0.763911,0.7528388 1.151401,1.6717458 1.151401,2.7567198 0,0.686412 -0.188209,1.372824 -0.5757,2.048165 -1.062832,-1.062831 -2.347087,-1.594247 -3.885979,-1.594247 h -0.321063 c -0.332135,-1.284255 -0.95212,-2.380301 -1.882098,-3.2770648 z m 1.793528,-5.8345033 c 0,0.2657079 0.08857,0.4871312 0.27678,0.675341 0.188209,0.1882098 0.409633,0.2767791 0.675341,0.2767791 0.254636,0 0.47606,-0.088569 0.653198,-0.2767791 0.177139,-0.1882098 0.265708,-0.4096331 0.265708,-0.675341 V 1.1610442 c 0,-0.26570789 -0.08857,-0.48713116 -0.265708,-0.67534094 -0.177138,-0.18820979 -0.387491,-0.2767791 -0.653198,-0.2767791 -0.265708,0 -0.487132,0.0885693 -0.675341,0.2767791 -0.18821,0.18820978 -0.27678,0.40963305 -0.27678,0.67534094 z m 6.144496,2.5352965 c 0,0.2657079 0.08857,0.4871312 0.276779,0.6642698 0.166068,0.1882098 0.37642,0.2878503 0.642128,0.2878503 0.254637,0 0.487131,-0.099641 0.66427,-0.2878503 l 1.594247,-1.5942475 c 0.199281,-0.1660675 0.298922,-0.3874908 0.298922,-0.6642699 0,-0.2657079 -0.09964,-0.4871312 -0.287851,-0.675341 -0.188209,-0.1882097 -0.420704,-0.276779 -0.675341,-0.276779 -0.243565,0 -0.453917,0.09964 -0.631056,0.2989214 L 23.546938,5.3127306 C 23.3698,5.478798 23.270159,5.7112925 23.270159,5.9770004 Z m 0.896765,13.1746846 c 0,0.254637 0.08857,0.47606 0.265707,0.66427 l 0.730697,0.697484 c 0.154997,0.19928 0.37642,0.298921 0.66427,0.298921 0.265708,0 0.47606,-0.09964 0.631056,-0.298921 0.199281,-0.177139 0.298922,-0.398562 0.298922,-0.66427 0,-0.265708 -0.09964,-0.487132 -0.298922,-0.675341 l -0.719625,-0.686412 c -0.177139,-0.199281 -0.387491,-0.287851 -0.642128,-0.287851 -0.254636,0 -0.47606,0.08857 -0.66427,0.276779 -0.177138,0.18821 -0.265707,0.420705 -0.265707,0.675341 z m 1.616389,-7.052331 c 0,0.265708 0.09964,0.487131 0.287851,0.66427 0.199281,0.199281 0.420704,0.28785 0.686412,0.28785 h 2.247446 c 0.265708,0 0.487131,-0.08857 0.675341,-0.276779 0.18821,-0.18821 0.28785,-0.409633 0.28785,-0.675341 0,-0.254637 -0.08857,-0.47606 -0.276779,-0.653199 -0.18821,-0.177138 -0.420704,-0.265707 -0.686412,-0.265707 h -2.247446 c -0.276779,0 -0.509274,0.08857 -0.697483,0.265707 -0.177139,0.177139 -0.27678,0.398562 -0.27678,0.653199 z"
   id="path2"
   style="stroke-width:1.10712" />
</svg>
