<?xml version="1.0" encoding="UTF-8" standalone="no"?>
<!-- Generator: Adobe Illustrator 22.0.1, SVG Export Plug-In . SVG Version: 6.00 Build 0)  -->

<svg
   version="1.1"
   id="Layer_1"
   x="0px"
   y="0px"
   viewBox="0 0 30 30"
   style="enable-background:new 0 0 30 30;"
   xml:space="preserve"
   sodipodi:docname="day-sleet-symbolic.svg"
   inkscape:version="1.2.2 (b0a8486541, 2022-12-01)"
   xmlns:inkscape="http://www.inkscape.org/namespaces/inkscape"
   xmlns:sodipodi="http://sodipodi.sourceforge.net/DTD/sodipodi-0.dtd"
   xmlns="http://www.w3.org/2000/svg"
   xmlns:svg="http://www.w3.org/2000/svg"><defs
   id="defs7" /><sodipodi:namedview
   id="namedview5"
   pagecolor="#ffffff"
   bordercolor="#666666"
   borderopacity="1.0"
   inkscape:showpageshadow="2"
   inkscape:pageopacity="0.0"
   inkscape:pagecheckerboard="0"
   inkscape:deskcolor="#d1d1d1"
   showgrid="false"
   inkscape:zoom="29.233333"
   inkscape:cx="14.982896"
   inkscape:cy="9.5096921"
   inkscape:window-width="1920"
   inkscape:window-height="1014"
   inkscape:window-x="1080"
   inkscape:window-y="470"
   inkscape:window-maximized="1"
   inkscape:current-layer="Layer_1" />
<path
   d="m 0.06057487,17.758984 v 0 c 0,-1.293791 0.39808979,-2.421712 1.19426933,-3.416937 C 2.0510238,13.346823 3.0683644,12.705456 4.2847499,12.417946 4.6275494,10.902994 5.4016129,9.6644923 6.6069403,8.6803258 7.8233258,7.7072175 9.205582,7.2206633 10.775825,7.2206633 c 1.094747,0 2.101029,0.2432771 3.00779,0.7298313 0.552902,-0.5860767 1.205327,-1.0505148 1.946216,-1.3822563 0.74089,-0.3317415 1.514953,-0.4976122 2.311133,-0.4976122 1.050514,0 2.023623,0.2653932 2.919325,0.7851215 0.895702,0.5197284 1.603417,1.2274436 2.123145,2.1231456 0.519729,0.895702 0.785122,1.8688098 0.785122,2.9193248 0,1.36014 -0.420206,2.576526 -1.260618,3.638098 0.320684,0.674541 0.475496,1.415431 0.475496,2.233726 0,0.973109 -0.232219,1.879869 -0.707715,2.709223 -0.464438,0.829353 -1.105805,1.503894 -1.9241,2.001507 -0.807238,0.50867 -1.70294,0.774063 -2.676049,0.796179 -0.143754,0 -0.22116,-0.06635 -0.22116,-0.199045 v -1.481778 c 0,-0.132697 0.07741,-0.199045 0.22116,-0.199045 0.950993,-0.04423 1.747172,-0.431264 2.410655,-1.138979 0.663483,-0.707716 0.995225,-1.548127 0.995225,-2.49912 0,-0.984166 -0.353858,-1.824578 -1.072631,-2.532293 -0.718773,-0.707715 -1.559185,-1.061573 -2.554409,-1.061573 h -1.780347 c -0.132696,0 -0.199044,-0.06635 -0.199044,-0.187987 l -0.08846,-0.652425 c -0.121643,-1.194269 -0.641372,-2.200551 -1.548132,-3.007789 -0.90676,-0.8072374 -1.968333,-1.2163853 -3.162602,-1.2163853 -1.2163854,0 -2.2669001,0.4091479 -3.1626022,1.2163853 -0.895702,0.807238 -1.4043723,1.81352 -1.5149528,3.007789 l -0.077406,0.652425 c -0.033174,0.09952 -0.1216386,0.143755 -0.2432771,0.143755 l -0.5639606,0.04423 C 4.2847502,14.275697 3.4996286,14.662728 2.8803778,15.33727 2.261127,16.011811 1.9515016,16.819048 1.9515016,17.747924 v 0.05529 h 0.033174 c 0.011058,1.083689 0.4202059,1.968332 1.2274435,2.687106 0.2432771,0.210103 0.5197284,0.39809 0.8182957,0.541844 v 0.02212 c 0.4533801,0.210103 0.9067601,0.320684 1.338024,0.3428 0.1216386,0 0.1879869,0.06635 0.1879869,0.187987 v 1.481778 c 0,0.121639 -0.066348,0.187987 -0.1879869,0.187987 -0.5750187,-0.03317 -1.1168631,-0.143755 -1.6365914,-0.331742 v 0.02212 C 2.8140292,22.624526 2.0289077,22.09374 1.3985989,21.363909 0.76829005,20.634077 0.34808416,19.771549 0.17115536,18.809499 v -0.04423 c -0.011058,-0.01106 -0.011058,-0.02212 -0.011058,-0.03317 C 0.08269097,18.444584 0.06057487,18.1239 0.06057487,17.758984 Z m 6.08192733,7.928622 c 0,-0.03317 0.011058,-0.07741 0.022116,-0.143755 0.011058,-0.05529 0.022116,-0.09952 0.022116,-0.132696 l 0.099522,-0.652425 c 0.077406,-0.265393 0.221161,-0.45338 0.45338,-0.586077 0.221161,-0.132696 0.4754961,-0.154812 0.7519474,-0.08846 0.2543351,0.07741 0.4312639,0.221161 0.5639605,0.45338 0.1216386,0.221161 0.1437547,0.45338 0.077406,0.685599 l -0.1548116,0.663479 c -0.1105805,0.486554 -0.3870318,0.729831 -0.8404118,0.729831 -0.033174,0 -0.088464,0 -0.1658707,-0.01106 C 6.89445,26.594362 6.8502174,26.594362 6.8281013,26.594362 6.5958823,26.528018 6.4300115,26.406379 6.319431,26.229451 6.1977925,26.06358 6.1425022,25.875593 6.1425022,25.687606 Z m 0.8182957,-3.251067 c 0,-0.265393 0.088464,-0.475496 0.2543351,-0.652424 0.1769288,-0.176929 0.3870318,-0.254336 0.652425,-0.254336 0.2653932,0 0.4754961,0.08846 0.6524249,0.254336 0.1769288,0.176928 0.2543352,0.387031 0.2543352,0.652424 0,0.254336 -0.088464,0.464439 -0.2543352,0.641367 -0.1658707,0.176929 -0.3870317,0.254336 -0.6524249,0.254336 -0.2543352,0 -0.4644381,-0.08846 -0.6303089,-0.265394 C 7.0492623,22.88992 6.9607979,22.679817 6.9607979,22.436539 Z m 1.8135202,6.612714 c 0,-0.04423 0.011058,-0.121638 0.044232,-0.254335 l 0.1437548,-0.641367 c 0.077406,-0.254335 0.2322191,-0.442322 0.4533801,-0.56396 0.232219,-0.132697 0.464438,-0.154813 0.696657,-0.07741 0.254335,0.04423 0.45338,0.187987 0.586077,0.409148 0.132696,0.221161 0.16587,0.475496 0.08846,0.751948 l -0.143755,0.652425 c -0.11058,0.45338 -0.409147,0.674541 -0.8846435,0.674541 -0.05529,0 -0.1437546,-0.01106 -0.2653932,-0.04423 C 9.2498142,29.889665 9.0728854,29.768026 8.9512469,29.591098 8.8296083,29.414169 8.7743181,29.23724 8.7743181,29.049253 Z M 9.3603947,4.1575835 c 0,-0.2653932 0.088464,-0.4865542 0.2764513,-0.663483 0.1879868,-0.1769288 0.420206,-0.2653932 0.696657,-0.2653932 0.265393,0 0.486554,0.088464 0.663483,0.2653932 l 0.696657,0.7298313 c 0.187987,0.1879868 0.276451,0.4091478 0.276451,0.663483 0,0.2653932 -0.11058,0.5086703 -0.331741,0.7077152 C 11.417192,5.7941749 11.196031,5.8826392 10.963812,5.8494651 10.731593,5.827349 10.532548,5.7278266 10.355619,5.5508978 L 9.636846,4.8210665 C 9.4599172,4.6330796 9.3603947,4.4119186 9.3603947,4.1575835 Z M 9.647904,25.842419 c 0,-0.254335 0.088464,-0.475496 0.2543351,-0.641367 0.1769289,-0.176929 0.3870319,-0.254335 0.6524249,-0.254335 0.265393,0 0.475496,0.08846 0.652425,0.254335 0.176929,0.176929 0.254335,0.387032 0.254335,0.641367 0,0.265393 -0.08846,0.475496 -0.254335,0.652425 -0.176929,0.176929 -0.387032,0.254335 -0.652425,0.254335 -0.243277,0 -0.45338,-0.08846 -0.6413668,-0.276451 C 9.7363684,26.295799 9.647904,26.085696 9.647904,25.842419 Z m 0.685599,-2.510177 c 0,-0.09952 0.01106,-0.199045 0.03317,-0.28751 l 0.254335,-0.995224 c 0.07741,-0.254335 0.232219,-0.45338 0.45338,-0.586077 0.232219,-0.132696 0.464438,-0.165871 0.707716,-0.08846 0.265393,0.07741 0.45338,0.221161 0.586076,0.442322 0.132697,0.221161 0.154813,0.442322 0.07741,0.685599 l -0.287509,0.995224 c -0.08846,0.298568 -0.243277,0.508671 -0.45338,0.630309 -0.210103,0.121639 -0.45338,0.132697 -0.707715,0.06635 -0.221161,-0.04423 -0.387032,-0.154812 -0.497612,-0.331741 -0.132697,-0.199045 -0.187987,-0.364916 -0.165871,-0.530786 z m 3.052022,2.366422 c 0,-0.03317 0,-0.07741 0.01106,-0.143754 0.01106,-0.06635 0.01106,-0.09952 0.01106,-0.121639 l 0.09952,-0.652425 c 0.07741,-0.265393 0.221161,-0.45338 0.45338,-0.586077 0.221161,-0.132696 0.475496,-0.154812 0.751948,-0.08846 0.254335,0.07741 0.442322,0.232219 0.56396,0.45338 0.132697,0.232219 0.154813,0.464438 0.07741,0.696657 l -0.154813,0.663483 c -0.110581,0.475496 -0.387032,0.718773 -0.840412,0.718773 -0.03317,0 -0.08846,0 -0.165871,-0.01106 -0.07741,-0.01106 -0.121638,-0.01106 -0.143754,-0.01106 -0.221161,-0.06635 -0.387032,-0.187987 -0.497613,-0.364915 -0.11058,-0.187987 -0.16587,-0.364916 -0.16587,-0.552903 z m 0.818295,-3.251066 c 0,-0.265394 0.08846,-0.475497 0.254336,-0.652425 0.176928,-0.176929 0.387031,-0.254336 0.652424,-0.254336 0.265394,0 0.475497,0.08846 0.652425,0.254336 0.176929,0.176928 0.254336,0.387031 0.254336,0.652425 0,0.254335 -0.08846,0.475496 -0.254336,0.641366 -0.176928,0.176929 -0.387031,0.254336 -0.652425,0.254336 -0.254335,0 -0.475496,-0.08846 -0.641366,-0.276452 -0.176929,-0.16587 -0.265394,-0.375973 -0.265394,-0.61925 z M 15.3428,9.0562995 c 0.928876,0.8404118 1.548127,1.9241005 1.879868,3.2400085 h 0.3428 c 1.52601,0 2.819802,0.530786 3.892433,1.603417 0.3428,-0.608193 0.519728,-1.282734 0.519728,-2.012565 0,-1.083689 -0.387031,-2.0015067 -1.150037,-2.7645122 -0.763005,-0.7519473 -1.691881,-1.1389791 -2.77557,-1.1389791 -1.061573,0 -1.968333,0.3538576 -2.709222,1.0726308 z M 17.112088,3.2287073 V 0.96180706 c 0,-0.26539319 0.08846,-0.48655419 0.276451,-0.67454103 0.187987,-0.18798685 0.409148,-0.2875093 0.663483,-0.2875093 0.265393,0 0.486554,0.0884644 0.663483,0.27645125 0.176929,0.18798684 0.265393,0.42020589 0.265393,0.68559908 V 3.2287073 c 0,0.2653932 -0.08846,0.4976122 -0.265393,0.6855991 -0.176929,0.1879868 -0.39809,0.2764512 -0.663483,0.2764512 -0.254335,0 -0.475496,-0.099522 -0.663483,-0.2875093 -0.187987,-0.1879868 -0.276451,-0.4091478 -0.276451,-0.674541 z m 6.170391,2.5322934 c 0,-0.2653932 0.08847,-0.4865542 0.254335,-0.663483 l 1.59236,-1.6034172 c 0.16587,-0.1879869 0.375973,-0.2764512 0.641366,-0.2764512 0.265394,0 0.486555,0.088464 0.663483,0.2764512 0.199045,0.1769288 0.28751,0.3980898 0.28751,0.663483 0,0.2653932 -0.09952,0.4865542 -0.28751,0.663483 L 24.841664,6.4355417 C 24.631561,6.6456447 24.399342,6.7341091 24.145007,6.723051 23.890672,6.7009349 23.691627,6.6124705 23.536814,6.4355417 23.359886,6.2586129 23.282479,6.0374519 23.282479,5.7610007 Z m 0.85147,13.1701373 c 0,-0.265393 0.08846,-0.486554 0.276451,-0.674541 0.187987,-0.187987 0.409148,-0.276452 0.663483,-0.276452 0.254336,0 0.475496,0.09952 0.674541,0.28751 l 0.685599,0.696657 c 0.199045,0.187987 0.28751,0.420206 0.28751,0.674541 0,0.265393 -0.09952,0.486554 -0.28751,0.663483 -0.154812,0.187987 -0.353857,0.287509 -0.597134,0.287509 l -0.02212,-0.02212 c -0.265394,0 -0.486554,-0.08846 -0.685599,-0.265393 L 24.4104,19.594621 c -0.176928,-0.187987 -0.276451,-0.409148 -0.276451,-0.663483 z m 1.625533,-7.043978 c 0,-0.265393 0.08847,-0.486554 0.276452,-0.663483 0.187987,-0.176929 0.409148,-0.265393 0.674541,-0.265393 h 2.277958 c 0.265393,0 0.497612,0.08846 0.674541,0.265393 0.176929,0.176929 0.276451,0.39809 0.276451,0.663483 0,0.265393 -0.08846,0.486554 -0.276451,0.674541 -0.187987,0.187987 -0.409148,0.276451 -0.674541,0.276451 h -2.277958 c -0.265393,0 -0.486554,-0.09952 -0.663483,-0.298567 -0.199045,-0.165871 -0.28751,-0.387032 -0.28751,-0.652425 z"
   id="path2"
   style="stroke-width:1.1058" />
</svg>
