<?xml version="1.0" encoding="UTF-8" standalone="no"?>
<svg
   inkscape:version="1.2.2 (b0a8486541, 2022-12-01)"
   sodipodi:docname="day-cloudy-symbolic.svg"
   xml:space="preserve"
   style="enable-background:new 0 0 30 30;"
   viewBox="0 0 30 30"
   y="0px"
   x="0px"
   id="Layer_1"
   version="1.1"
   xmlns:inkscape="http://www.inkscape.org/namespaces/inkscape"
   xmlns:sodipodi="http://sodipodi.sourceforge.net/DTD/sodipodi-0.dtd"
   xmlns="http://www.w3.org/2000/svg"
   xmlns:svg="http://www.w3.org/2000/svg"
   xmlns:rdf="http://www.w3.org/1999/02/22-rdf-syntax-ns#"
   xmlns:cc="http://creativecommons.org/ns#"
   xmlns:dc="http://purl.org/dc/elements/1.1/"><metadata
   id="metadata9"><rdf:RDF><cc:Work
       rdf:about=""><dc:format>image/svg+xml</dc:format><dc:type
         rdf:resource="http://purl.org/dc/dcmitype/StillImage" /></cc:Work></rdf:RDF></metadata><defs
   id="defs7" /><sodipodi:namedview
   inkscape:current-layer="Layer_1"
   inkscape:window-maximized="0"
   inkscape:window-y="0"
   inkscape:window-x="0"
   inkscape:cy="15.022523"
   inkscape:cx="15"
   inkscape:zoom="22.2"
   showgrid="false"
   id="namedview5"
   inkscape:window-height="937"
   inkscape:window-width="1080"
   inkscape:pageshadow="2"
   inkscape:pageopacity="0"
   guidetolerance="10"
   gridtolerance="10"
   objecttolerance="10"
   borderopacity="1"
   bordercolor="#666666"
   pagecolor="#ffffff"
   inkscape:showpageshadow="2"
   inkscape:pagecheckerboard="0"
   inkscape:deskcolor="#d1d1d1" />
<path
   style="stroke-width:1.10519"
   id="path2"
   d="m 0.14622508,21.100657 c 0,0.994673 0.24314215,1.911982 0.72942645,2.751928 0.48628427,0.839945 1.14939927,1.50306 1.98934487,1.989344 0.8399456,0.486285 1.7462027,0.729427 2.7298232,0.729427 H 17.564044 c 0.983621,0 1.90093,-0.243142 2.740876,-0.729427 0.839945,-0.486284 1.514112,-1.149399 2.000396,-1.989344 0.486285,-0.839946 0.740479,-1.757255 0.740479,-2.751928 0,-0.729426 -0.154727,-1.469904 -0.464181,-2.210383 0.839946,-1.016776 1.259919,-2.243539 1.259919,-3.647132 0,-0.784686 -0.154727,-1.536216 -0.453129,-2.254591 -0.298402,-0.718374 -0.718374,-1.326229 -1.237815,-1.845669 -0.51944,-0.51944 -1.127295,-0.939413 -1.845669,-1.2378149 -0.718375,-0.3094536 -1.469905,-0.4531286 -2.254591,-0.4531286 -1.635684,0 -3.061381,0.6410115 -4.288144,1.9230335 -0.850997,-0.486284 -1.84567,-0.729427 -2.984017,-0.729427 -1.55832,0 -2.9287575,0.486285 -4.1223645,1.447801 -1.1936069,0.961517 -1.967241,2.199331 -2.2987985,3.702392 -1.2378145,0.28735 -2.2435389,0.917309 -3.0282249,1.911981 -0.78468605,0.994673 -1.18255502,2.121968 -1.18255502,3.392938 z m 1.88987762,0 c 0,-0.92836 0.3094537,-1.724098 0.9283609,-2.398265 0.6189073,-0.674167 1.3925414,-1.060984 2.3209024,-1.171503 l 0.5525958,-0.03316 c 0.132623,0 0.2099864,-0.06631 0.2099864,-0.198935 l 0.077363,-0.596803 c 0.1547272,-1.193603 0.6741673,-2.199327 1.5583205,-2.995065 0.8841533,-0.80679 1.9230334,-1.204659 3.1055883,-1.204659 1.215711,0 2.276695,0.408921 3.1719,1.215711 0.906257,0.80679 1.403593,1.801462 1.514112,2.995069 l 0.07736,0.641011 c 0.0221,0.121571 0.09947,0.187883 0.23209,0.187883 h 1.779358 c 0.972569,0 1.812515,0.353661 2.519837,1.060983 0.707323,0.707323 1.060984,1.536217 1.060984,2.508785 0,1.005725 -0.353661,1.856722 -1.049932,2.564045 -0.696271,0.707322 -1.547268,1.060984 -2.519837,1.060984 H 5.5948196 c -0.9725686,0 -1.8014623,-0.353662 -2.5087849,-1.072036 C 2.389764,22.946327 2.0361027,22.09533 2.0361027,21.100657 Z m 7.4047836,-13.5607 c 0,0.265246 0.088415,0.4973362 0.265246,0.6962707 l 0.7294267,0.7073226 c 0.276298,0.2099864 0.508388,0.2984017 0.707322,0.2762979 0.232091,0 0.431025,-0.099467 0.607856,-0.2873498 0.17683,-0.1878826 0.265246,-0.4199728 0.265246,-0.6852188 0,-0.265246 -0.09947,-0.4862843 -0.28735,-0.652063 L 11.07657,6.8657901 C 10.877635,6.6889595 10.656597,6.6005442 10.402403,6.6005442 c -0.265246,0 -0.4973362,0.088415 -0.6852188,0.2762979 C 9.5293017,7.0536727 9.4408863,7.274711 9.4408863,7.539957 Z m 5.9017227,4.895999 c 0.762583,-0.740479 1.66884,-1.105192 2.70772,-1.105192 1.094139,0 2.0225,0.375765 2.785082,1.138347 0.762583,0.762583 1.1494,1.679891 1.1494,2.774031 0,0.685219 -0.187883,1.370438 -0.563648,2.033553 -1.072036,-1.060984 -2.354058,-1.591476 -3.857119,-1.591476 H 17.210383 C 16.934085,14.48056 16.315178,13.397472 15.342609,12.435956 Z m 1.801463,-5.8354118 c 0,0.2873498 0.08842,0.5083881 0.254194,0.6852187 0.165778,0.1768307 0.386817,0.2541941 0.652063,0.2541941 0.28735,0 0.508388,-0.088415 0.685218,-0.2541941 0.176831,-0.1768306 0.254195,-0.3978689 0.254195,-0.6852187 V 4.3349014 c 0,-0.265246 -0.08842,-0.4752324 -0.265246,-0.652063 -0.176831,-0.1768307 -0.397869,-0.2541941 -0.674167,-0.2541941 -0.265246,0 -0.475233,0.088415 -0.652063,0.2541941 -0.176831,0.1657787 -0.254194,0.386817 -0.254194,0.652063 z m 6.100657,2.5308887 c 0,0.2873498 0.07736,0.5083881 0.243142,0.6852188 0.232091,0.1768306 0.464181,0.2652463 0.685219,0.2652463 0.198935,0 0.419973,-0.088415 0.652063,-0.2652463 l 1.580424,-1.580424 c 0.176831,-0.1989345 0.265246,-0.4310247 0.265246,-0.7073226 0,-0.265246 -0.08842,-0.4862843 -0.265246,-0.663115 -0.176831,-0.1768306 -0.397869,-0.2652459 -0.652063,-0.2652459 -0.265246,0 -0.475232,0.088415 -0.641011,0.2652459 l -1.624632,1.580424 c -0.165778,0.2099864 -0.243142,0.4310247 -0.243142,0.6852188 z m 0.873102,13.0854681 c 0,0.265246 0.08841,0.497336 0.276297,0.696271 l 0.718375,0.69627 c 0.165779,0.176831 0.375765,0.265246 0.641011,0.265246 0.265246,0 0.486284,-0.08841 0.663115,-0.276298 0.176831,-0.187882 0.265246,-0.40892 0.265246,-0.685218 0,-0.243142 -0.08842,-0.464181 -0.265246,-0.641011 l -0.718375,-0.718375 c -0.17683,-0.176831 -0.386817,-0.265246 -0.629959,-0.265246 -0.265246,0 -0.486284,0.08842 -0.663115,0.265246 -0.187882,0.176831 -0.287349,0.397869 -0.287349,0.663115 z m 1.624631,-6.973759 c 0,0.254194 0.09947,0.464181 0.28735,0.641011 0.176831,0.176831 0.408921,0.265246 0.674167,0.265246 h 2.254591 c 0.254194,0 0.46418,-0.08841 0.641011,-0.254194 0.17683,-0.165779 0.254194,-0.386817 0.254194,-0.652063 0,-0.265246 -0.08842,-0.486284 -0.254194,-0.663115 -0.165779,-0.176831 -0.386817,-0.276298 -0.641011,-0.276298 h -2.254591 c -0.265246,0 -0.486284,0.08841 -0.674167,0.276298 -0.198935,0.187883 -0.28735,0.408921 -0.28735,0.663115 z" />
</svg>
