<?xml version="1.0" encoding="UTF-8" standalone="no"?>
<!-- Generator: Adobe Illustrator 22.0.1, SVG Export Plug-In . SVG Version: 6.00 Build 0)  -->

<svg
   version="1.1"
   id="Layer_1"
   x="0px"
   y="0px"
   viewBox="0 0 30 30"
   style="enable-background:new 0 0 30 30;"
   xml:space="preserve"
   sodipodi:docname="day-cloudy-windy-symbolic.svg"
   inkscape:version="1.2.2 (b0a8486541, 2022-12-01)"
   xmlns:inkscape="http://www.inkscape.org/namespaces/inkscape"
   xmlns:sodipodi="http://sodipodi.sourceforge.net/DTD/sodipodi-0.dtd"
   xmlns="http://www.w3.org/2000/svg"
   xmlns:svg="http://www.w3.org/2000/svg"><defs
   id="defs7" /><sodipodi:namedview
   id="namedview5"
   pagecolor="#ffffff"
   bordercolor="#666666"
   borderopacity="1.0"
   inkscape:showpageshadow="2"
   inkscape:pageopacity="0.0"
   inkscape:pagecheckerboard="0"
   inkscape:deskcolor="#d1d1d1"
   showgrid="false"
   inkscape:zoom="20.671088"
   inkscape:cx="14.174387"
   inkscape:cy="12.626331"
   inkscape:window-width="1080"
   inkscape:window-height="1884"
   inkscape:window-x="0"
   inkscape:window-y="0"
   inkscape:window-maximized="1"
   inkscape:current-layer="Layer_1" />
<path
   d="m 0.03126518,23.250808 c 0,0.246907 0.08230232,0.46295 0.24690696,0.627555 0.45266277,0.18518 0.75100866,0.27777 0.90532556,0.27777 h 8.1067786 c 0.2469069,0 0.4526627,-0.09259 0.6172674,-0.267482 0.1748923,-0.174893 0.2571953,-0.390936 0.2571953,-0.627556 0,-0.236619 -0.0823,-0.442375 -0.2571953,-0.606979 C 9.7326513,22.489511 9.5268955,22.407209 9.2902763,22.407209 H 1.1834977 c -0.26748257,0 -0.53496511,0.0823 -0.78187207,0.246907 -0.24690697,0.164604 -0.37036045,0.37036 -0.37036045,0.596692 z M 1.461268,20.164471 c 0,0.246907 0.082302,0.442375 0.2571947,0.606979 0.1543169,0.174893 0.3497849,0.267483 0.5966919,0.267483 h 9.6705224 c 0.246907,0 0.452663,-0.0823 0.627556,-0.257195 0.174892,-0.174892 0.257194,-0.380648 0.257194,-0.617267 0,-0.246907 -0.0823,-0.452663 -0.257194,-0.627556 -0.174893,-0.174892 -0.380649,-0.257194 -0.627556,-0.257194 H 2.3151546 c -0.2366192,0 -0.442375,0.0823 -0.6069796,0.257194 -0.1646047,0.174893 -0.246907,0.380649 -0.246907,0.627556 z m 1.080218,-2.438207 c 0,0.09259 0.061727,0.133742 0.1748924,0.133742 h 1.4300028 c 0.1234535,0 0.195468,-0.04115 0.2263314,-0.133742 0.2674825,-0.545252 0.637843,-0.997915 1.1213691,-1.357988 0.4835262,-0.360073 1.028779,-0.565828 1.6254709,-0.637843 h 0.5555406 c 0.1131657,0 0.1646047,-0.06173 0.1646047,-0.195468 l 0.072015,-0.576116 c 0.072014,-0.730433 0.3086332,-1.39914 0.709857,-2.006119 0.4012238,-0.596692 0.9259011,-1.06993 1.5740321,-1.409427 0.648131,-0.339498 1.337413,-0.51439 2.078134,-0.51439 1.121369,0 2.098709,0.380648 2.93202,1.131657 0.833311,0.751009 1.306549,1.687198 1.430003,2.798279 l 0.07201,0.576116 c 0,0.123454 0.06173,0.195468 0.18518,0.195468 H 18.539 c 0.915613,0 1.697485,0.329209 2.366192,0.987628 0.668706,0.658419 0.997915,1.430003 0.997915,2.335328 0,0.925901 -0.329209,1.718061 -0.997915,2.37648 -0.658419,0.658418 -1.450579,0.987628 -2.37648,0.987628 h -7.088287 c -0.113166,0 -0.174893,0.06173 -0.174893,0.195468 v 1.368276 c 0,0.123453 0.06173,0.18518 0.174893,0.18518 h 7.088287 c 0.925901,0 1.779788,-0.226331 2.56166,-0.689282 0.781872,-0.452663 1.409427,-1.080218 1.86209,-1.86209 0.452663,-0.781872 0.689282,-1.635759 0.689282,-2.56166 0,-0.751008 -0.144029,-1.430003 -0.442375,-2.067846 0.802447,-0.987627 1.193383,-2.119284 1.193383,-3.374395 0,-0.967052 -0.246907,-1.86209 -0.730433,-2.695401 C 23.178793,10.082436 22.520375,9.4240178 21.687064,8.9404917 20.853753,8.4569656 19.948427,8.2100586 18.981375,8.2100586 c -0.751009,0 -1.471154,0.1543169 -2.160436,0.4629506 C 16.131657,8.9816429 15.534965,9.4034423 15.030863,9.9589829 14.176977,9.516608 13.251076,9.2902766 12.25316,9.2902766 c -1.450578,0 -2.7468401,0.4526627 -3.8682093,1.3477004 -1.1213691,0.895038 -1.8415144,2.04727 -2.1501481,3.456697 -0.8744622,0.216044 -1.6460464,0.648131 -2.3147528,1.285974 -0.6687063,0.637843 -1.1316569,1.39914 -1.3888516,2.273602 0.020576,0.02057 0.010288,0.04115 0.010288,0.07201 z m 0.7304331,8.806349 c 0,0.246907 0.09259,0.442375 0.2674825,0.606979 0.1646046,0.174893 0.3703604,0.257195 0.6069796,0.257195 H 13.83748 c 0.236619,0 0.442375,-0.0823 0.606979,-0.257195 0.164605,-0.174892 0.246907,-0.37036 0.246907,-0.617267 0,-0.257195 -0.0823,-0.473238 -0.246907,-0.637843 -0.164604,-0.164605 -0.37036,-0.257195 -0.617267,-0.257195 H 4.1463812 c -0.246907,0 -0.4526628,0.0823 -0.6172674,0.257195 -0.1646046,0.174892 -0.2571947,0.390936 -0.2571947,0.648131 z M 10.977474,6.4611343 c 0,0.2571947 0.0823,0.4629505 0.246907,0.6172674 L 11.8828,7.7573958 c 0.164604,0.1646047 0.37036,0.246907 0.617267,0.246907 0.267483,0 0.473238,-0.082302 0.637843,-0.246907 0.164605,-0.1646046 0.246907,-0.3703604 0.246907,-0.6275551 0,-0.2366192 -0.0823,-0.442375 -0.246907,-0.6069797 L 12.469204,5.8541547 C 12.294311,5.6792622 12.098843,5.5969599 11.8828,5.5969599 c -0.257195,0 -0.473239,0.082302 -0.648131,0.2571948 -0.174893,0.1748924 -0.257195,0.3703604 -0.257195,0.6069796 z m 5.514256,4.5060517 c 0.678994,-0.64813 1.522593,-0.9773397 2.520508,-0.9773397 0.997916,0 1.851802,0.3497847 2.56166,1.0596427 0.69957,0.699569 1.059642,1.553456 1.059642,2.561659 0,0.689282 -0.154317,1.30655 -0.473238,1.86209 -0.967052,-0.97734 -2.170724,-1.471154 -3.600727,-1.471154 h -0.308633 c -0.298346,-1.183096 -0.88475,-2.191299 -1.759212,-3.034898 z m 1.646046,-5.3702261 c 0,0.246907 0.0823,0.442375 0.257195,0.6069796 0.174892,0.1646047 0.37036,0.2366192 0.617267,0.2366192 0.257195,0 0.462951,-0.082302 0.617268,-0.2366192 0.154316,-0.1543168 0.236619,-0.3600726 0.236619,-0.6172674 V 3.4879629 c 0,-0.2469069 -0.0823,-0.4629506 -0.236619,-0.6275552 -0.164605,-0.1748924 -0.370361,-0.2571948 -0.617268,-0.2571948 -0.236619,0 -0.442375,0.082302 -0.617267,0.2571948 -0.174893,0.1748924 -0.257195,0.3806483 -0.257195,0.6275552 z m 5.67886,2.3456162 c 0,0.2469069 0.0823,0.4526627 0.257195,0.6172674 0.123453,0.1646046 0.339497,0.2469069 0.617267,0.2469069 0.277771,0 0.483526,-0.082302 0.60698,-0.2469069 l 1.502017,-1.4814418 c 0.164605,-0.1543169 0.246907,-0.3703604 0.246907,-0.637843 0,-0.2366192 -0.0823,-0.442375 -0.257195,-0.6172674 -0.174892,-0.1748924 -0.380648,-0.2571947 -0.617267,-0.2571947 -0.236619,0 -0.452663,0.082302 -0.627555,0.2366191 l -1.460866,1.5328808 c -0.174893,0.1748924 -0.267483,0.3703604 -0.267483,0.6069796 z m 0.823023,12.2013189 c 0,0.246907 0.0823,0.452663 0.23662,0.617267 l 0.678994,0.648131 c 0.246907,0.18518 0.46295,0.277771 0.627555,0.277771 0.164605,0 0.380648,-0.09259 0.627555,-0.277771 0.164605,-0.164604 0.246907,-0.37036 0.246907,-0.617267 0,-0.236619 -0.0823,-0.442375 -0.246907,-0.627555 l -0.658418,-0.627556 c -0.195469,-0.174892 -0.411512,-0.267482 -0.668707,-0.267482 -0.246907,0 -0.442375,0.0823 -0.606979,0.246907 -0.154317,0.174892 -0.23662,0.380648 -0.23662,0.627555 z m 1.481442,-6.501883 c 0,0.246907 0.09259,0.46295 0.27777,0.627555 0.185181,0.174892 0.390936,0.257195 0.617268,0.257195 h 2.088421 c 0.236619,0 0.432087,-0.0823 0.60698,-0.257195 0.174892,-0.174893 0.257195,-0.380648 0.257195,-0.627555 0,-0.226332 -0.0823,-0.4218 -0.246907,-0.586404 -0.164605,-0.154317 -0.370361,-0.23662 -0.60698,-0.23662 h -2.088421 c -0.246907,0 -0.462951,0.0823 -0.637843,0.23662 -0.174893,0.164604 -0.267483,0.360072 -0.267483,0.586404 z"
   id="path2"
   style="stroke-width:1.02878" />
</svg>
