<?xml version="1.0" encoding="UTF-8" standalone="no"?>
<!-- Generator: Adobe Illustrator 22.0.1, SVG Export Plug-In . SVG Version: 6.00 Build 0)  -->

<svg
   version="1.1"
   id="Layer_1"
   x="0px"
   y="0px"
   viewBox="0 0 30 30"
   style="enable-background:new 0 0 30 30;"
   xml:space="preserve"
   sodipodi:docname="day-light-wind-symbolic.svg"
   inkscape:version="1.2.2 (b0a8486541, 2022-12-01)"
   xmlns:inkscape="http://www.inkscape.org/namespaces/inkscape"
   xmlns:sodipodi="http://sodipodi.sourceforge.net/DTD/sodipodi-0.dtd"
   xmlns="http://www.w3.org/2000/svg"
   xmlns:svg="http://www.w3.org/2000/svg"><defs
   id="defs7" /><sodipodi:namedview
   id="namedview5"
   pagecolor="#ffffff"
   bordercolor="#666666"
   borderopacity="1.0"
   inkscape:showpageshadow="2"
   inkscape:pageopacity="0.0"
   inkscape:pagecheckerboard="0"
   inkscape:deskcolor="#d1d1d1"
   showgrid="false"
   inkscape:zoom="29.233333"
   inkscape:cx="14.982896"
   inkscape:cy="9.5096921"
   inkscape:window-width="1920"
   inkscape:window-height="1014"
   inkscape:window-x="1080"
   inkscape:window-y="470"
   inkscape:window-maximized="1"
   inkscape:current-layer="Layer_1" />
<path
   d="m 0.00638979,18.891607 c 0,0.283455 0.10629578,0.519668 0.3070767,0.708638 0.18897028,0.200781 0.42518312,0.295266 0.70863851,0.295266 H 12.14773 c 0.271645,0 0.507857,-0.09448 0.696828,-0.295266 0.18897,-0.200781 0.283455,-0.436994 0.283455,-0.708638 0,-0.271645 -0.09449,-0.507858 -0.271645,-0.696828 -0.18897,-0.188971 -0.413372,-0.283456 -0.696827,-0.283456 H 1.022105 c -0.28345539,0 -0.51966823,0.09449 -0.72044915,0.283456 -0.20078092,0.18897 -0.29526606,0.425183 -0.29526606,0.696828 z m 0.3897512,7.263545 c 0,0.283455 0.0944851,0.519668 0.29526605,0.708638 0.18897028,0.200781 0.42518306,0.295266 0.70863856,0.295266 H 12.537481 c 0.283455,0 0.519668,-0.09448 0.720449,-0.295266 0.200781,-0.200781 0.295266,-0.436994 0.295266,-0.708638 0,-0.271645 -0.09449,-0.507858 -0.295266,-0.696828 -0.200781,-0.18897 -0.436994,-0.283456 -0.720449,-0.283456 H 1.4118562 c -0.2834554,0 -0.51966824,0.09449 -0.70863851,0.283456 -0.20078092,0.18897 -0.3070767,0.425183 -0.3070767,0.696828 z M 2.014199,22.493853 c 0,0.283455 0.094485,0.507857 0.295266,0.696827 0.2007809,0.188971 0.4488044,0.271645 0.7440705,0.271645 H 14.155539 c 0.283455,0 0.507858,-0.09448 0.696828,-0.271645 0.18897,-0.18897 0.271645,-0.413372 0.271645,-0.696827 0,-0.295267 -0.09448,-0.531479 -0.271645,-0.72045 -0.18897,-0.18897 -0.413373,-0.283455 -0.696828,-0.283455 H 3.0535355 c -0.2952661,0 -0.5432896,0.09448 -0.7440705,0.283455 -0.1889703,0.188971 -0.295266,0.425183 -0.295266,0.72045 z m 2.869986,-7.499758 c 0,-0.283456 0.1062958,-0.519669 0.3070767,-0.73226 0.200781,-0.18897 0.4488045,-0.283456 0.7086386,-0.283456 h 2.3975604 c 0.2716448,0 0.496047,0.09449 0.6850172,0.295266 0.1889703,0.200781 0.2716448,0.436994 0.2716448,0.72045 0,0.283455 -0.094485,0.519668 -0.2716448,0.708638 -0.1889702,0.200781 -0.4133724,0.295266 -0.6850172,0.295266 H 5.8999003 c -0.2834554,0 -0.5196683,-0.09449 -0.7204492,-0.295266 C 4.9786702,15.501952 4.884185,15.265739 4.884185,14.994095 Z M 8.2620288,6.8211304 c 0,-0.2598341 0.094485,-0.5078576 0.2834554,-0.7204492 0.2244022,-0.1889703 0.4724257,-0.2834554 0.7440704,-0.2834554 0.2598342,0 0.496047,0.094485 0.6968276,0.2834554 l 1.6771118,1.7361644 c 0.18897,0.1771597 0.283455,0.4133725 0.283455,0.6968279 0,0.2834554 -0.09449,0.5196683 -0.283455,0.7086386 -0.188971,0.1889702 -0.425184,0.2834554 -0.708639,0.2834554 -0.283455,0 -0.519668,-0.094485 -0.696828,-0.2834554 L 8.5454842,7.5533902 C 8.3565139,7.3407987 8.2620288,7.1045858 8.2620288,6.8211304 Z m 3.0117132,8.0312366 v -0.08268 c 0.02362,-1.074768 0.318888,-2.066862 0.873988,-2.988092 0.5551,-0.909419 1.310981,-1.629868 2.244022,-2.1613474 0.933041,-0.5314789 1.948756,-0.791313 3.035335,-0.791313 0.826745,0 1.618058,0.165349 2.38575,0.496047 0.755881,0.3306979 1.417277,0.7676914 1.960566,1.3227924 0.555101,0.5551 0.992094,1.204685 1.310982,1.960566 0.318887,0.755881 0.484236,1.559005 0.484236,2.38575 0,1.1102 -0.271645,2.125915 -0.814934,3.070767 -0.54329,0.944851 -1.28736,1.688922 -2.220401,2.232211 -0.933041,0.5551 -1.960567,0.826745 -3.070767,0.838556 h -0.236213 c -0.08267,0 -0.153538,-0.02362 -0.212591,-0.08268 -0.05905,-0.05905 -0.09449,-0.129917 -0.09449,-0.212591 v -1.440899 c 0,-0.153538 0.08268,-0.236213 0.259835,-0.236213 h 0.283455 c 1.133822,-0.01181 2.114105,-0.413372 2.917229,-1.240117 0.803123,-0.814934 1.216496,-1.795218 1.216496,-2.94085 0,-1.133822 -0.413373,-2.102294 -1.228307,-2.917228 -0.814934,-0.803124 -1.795218,-1.204686 -2.952661,-1.204686 -1.1102,0 -2.078673,0.377941 -2.881796,1.157443 -0.803124,0.767692 -1.228307,1.700732 -1.27555,2.799122 0,0.07086 -0.02362,0.129917 -0.08267,0.200781 -0.05905,0.07086 -0.153539,0.106296 -0.295266,0.106296 h -1.346414 c -0.177159,0.01181 -0.259834,-0.08268 -0.259834,-0.271645 z m 5.161251,11.668915 v -2.350318 c 0,-0.283456 0.09449,-0.519668 0.283455,-0.708639 0.188971,-0.18897 0.425184,-0.283455 0.708639,-0.283455 0.283455,0 0.531479,0.09448 0.720449,0.283455 0.18897,0.188971 0.283456,0.425183 0.283456,0.708639 v 2.350318 c 0,0.283455 -0.09449,0.531478 -0.295266,0.732259 -0.200781,0.200781 -0.436994,0.295266 -0.708639,0.295266 -0.283455,0 -0.519668,-0.09448 -0.708639,-0.295266 -0.18897,-0.200781 -0.283455,-0.436993 -0.283455,-0.732259 z m 0,-20.645003 V 3.4550974 c 0,-0.2834555 0.09449,-0.5196683 0.295266,-0.7086386 0.200781,-0.1889703 0.425183,-0.295266 0.708639,-0.295266 0.271644,0 0.507857,0.094485 0.708638,0.295266 0.200781,0.2007809 0.295266,0.4369938 0.295266,0.7086386 v 2.409371 c 0,0.2716447 -0.09449,0.4960469 -0.295266,0.6850172 -0.200781,0.1771597 -0.436994,0.2716448 -0.708638,0.2716448 -0.283456,0 -0.519669,-0.094485 -0.708639,-0.2716448 C 16.529478,6.372326 16.434993,6.1479238 16.434993,5.876279 Z m 6.507664,15.566426 c 0,-0.271644 0.08267,-0.496047 0.271645,-0.661396 0.177159,-0.18897 0.401562,-0.271644 0.673206,-0.271644 0.283456,0 0.519669,0.09448 0.708639,0.271644 l 1.712543,1.677112 c 0.18897,0.200781 0.283455,0.448804 0.283455,0.720449 0,0.271645 -0.09448,0.507857 -0.283455,0.696828 -0.472426,0.36613 -0.944851,0.36613 -1.417277,0 l -1.677111,-1.688922 c -0.17716,-0.18897 -0.271645,-0.448805 -0.271645,-0.744071 z m 0,-12.9090315 c 0,-0.295266 0.08267,-0.5314789 0.271645,-0.6968279 l 1.677111,-1.7361644 c 0.212592,-0.1889703 0.436994,-0.2834554 0.696828,-0.2834554 0.283455,0 0.519668,0.094485 0.708638,0.2952661 0.200781,0.2007809 0.295266,0.4369937 0.295266,0.7086385 0,0.295266 -0.09448,0.5432895 -0.283455,0.7322598 l -1.712543,1.6889219 c -0.212592,0.1889702 -0.448805,0.2834554 -0.708639,0.2834554 -0.271644,0 -0.484236,-0.094485 -0.673206,-0.2834554 C 23.025331,9.0533418 22.942657,8.8171289 22.942657,8.5336735 Z m 2.669205,6.4604215 c 0,-0.271645 0.09449,-0.519669 0.295266,-0.73226 0.18897,-0.18897 0.413373,-0.283456 0.661396,-0.283456 h 2.397561 c 0.271644,0 0.507857,0.106296 0.720449,0.307077 0.200781,0.200781 0.307076,0.436994 0.307076,0.708639 0,0.271644 -0.106295,0.507857 -0.307076,0.708638 -0.212592,0.200781 -0.448805,0.295266 -0.720449,0.295266 h -2.397561 c -0.271645,0 -0.496047,-0.09449 -0.685017,-0.295266 -0.17716,-0.18897 -0.271645,-0.425183 -0.271645,-0.708638 z"
   id="path2"
   style="stroke-width:1.18106" />
</svg>
