<?xml version="1.0" encoding="UTF-8" standalone="no"?>
<svg
   version="1.1"
   id="Layer_1"
   x="0px"
   y="0px"
   viewBox="0 0 30 30"
   style="enable-background:new 0 0 30 30;"
   xml:space="preserve"
   sodipodi:docname="day-sunny-symbolic.svg"
   inkscape:version="1.2.2 (b0a8486541, 2022-12-01)"
   xmlns:inkscape="http://www.inkscape.org/namespaces/inkscape"
   xmlns:sodipodi="http://sodipodi.sourceforge.net/DTD/sodipodi-0.dtd"
   xmlns="http://www.w3.org/2000/svg"
   xmlns:svg="http://www.w3.org/2000/svg"
   xmlns:rdf="http://www.w3.org/1999/02/22-rdf-syntax-ns#"
   xmlns:cc="http://creativecommons.org/ns#"
   xmlns:dc="http://purl.org/dc/elements/1.1/"><metadata
   id="metadata9"><rdf:RDF><cc:Work
       rdf:about=""><dc:format>image/svg+xml</dc:format><dc:type
         rdf:resource="http://purl.org/dc/dcmitype/StillImage" /></cc:Work></rdf:RDF></metadata><defs
   id="defs7" /><sodipodi:namedview
   inkscape:document-rotation="0"
   pagecolor="#ffffff"
   bordercolor="#666666"
   borderopacity="1"
   objecttolerance="10"
   gridtolerance="10"
   guidetolerance="10"
   inkscape:pageopacity="0"
   inkscape:pageshadow="2"
   inkscape:window-width="1078"
   inkscape:window-height="937"
   id="namedview5"
   showgrid="false"
   inkscape:zoom="22.2"
   inkscape:cx="15"
   inkscape:cy="15.022523"
   inkscape:window-x="0"
   inkscape:window-y="0"
   inkscape:window-maximized="0"
   inkscape:current-layer="Layer_1"
   inkscape:showpageshadow="2"
   inkscape:pagecheckerboard="0"
   inkscape:deskcolor="#d1d1d1" />
<path
   d="m 0.15827704,14.986024 c 0,-0.335407 0.11180146,-0.628887 0.34938142,-0.866466 0.23757928,-0.223604 0.53105974,-0.335406 0.83851544,-0.335406 h 2.8509524 c 0.321431,0 0.5869609,0.111799 0.8105649,0.349381 0.2096289,0.237578 0.3214309,0.517084 0.3214309,0.852491 0,0.335405 -0.097828,0.614911 -0.3074557,0.85249 -0.2096288,0.23758 -0.4891339,0.349382 -0.8105648,0.349382 H 1.3601491 c -0.3214309,0 -0.60093601,-0.111799 -0.8385154,-0.349382 -0.2375794,-0.237579 -0.36335666,-0.517085 -0.36335666,-0.85249 z m 3.99692346,9.684853 c 0,-0.321431 0.1118026,-0.600936 0.321431,-0.85249 l 2.0543627,-1.998463 c 0.2096288,-0.223604 0.4891341,-0.321431 0.8245401,-0.321431 0.3354063,0 0.6149114,0.1118 0.8385156,0.321431 0.223604,0.20963 0.335406,0.475159 0.335406,0.79659 0,0.335406 -0.1118014,0.642862 -0.335406,0.894416 l -1.9844866,1.984487 c -0.5729855,0.447208 -1.145971,0.447208 -1.7189565,0 -0.2236042,-0.223604 -0.3354063,-0.50311 -0.3354063,-0.82454 z m 0,-19.3417547 c 0,-0.3214309 0.1118026,-0.600936 0.321431,-0.8524906 C 4.7561367,4.2390523 5.049617,4.1272502 5.371048,4.1272502 c 0.3074555,0 0.5869607,0.1118025 0.8245401,0.3354061 l 1.9984618,2.0543628 c 0.223604,0.2096288 0.335406,0.489134 0.335406,0.8245402 0,0.3354062 -0.1118014,0.6149113 -0.335406,0.8385155 -0.2236042,0.223604 -0.5031093,0.3354061 -0.8385156,0.3354061 -0.335406,0 -0.6149113,-0.1118025 -0.8245401,-0.3354061 L 4.4906068,6.1816129 C 4.2670026,5.9580089 4.1552005,5.6645284 4.1552005,5.3291223 Z m 3.5636906,9.6569017 c 0,-1.299698 0.3214309,-2.515546 0.9782679,-3.633567 0.6568372,-1.11802 1.537278,-2.0124358 2.669274,-2.6692731 C 12.498429,8.0263469 13.7003,7.704916 15,7.704916 c 0.978268,0 1.914611,0.1956535 2.823002,0.5869608 0.894416,0.3913071 1.677031,0.9083917 2.319893,1.5652292 0.656837,0.656837 1.173921,1.425476 1.551254,2.319892 0.377331,0.894416 0.572984,1.844733 0.572984,2.823001 0,1.313674 -0.321431,2.529521 -0.978268,3.647542 -0.656836,1.118021 -1.537278,1.998462 -2.655298,2.655298 -1.118021,0.656837 -2.333869,0.978269 -3.647543,0.978269 -1.313674,0 -2.529521,-0.321432 -3.647541,-0.978269 C 10.220461,20.646003 9.3400209,19.765562 8.6831839,18.647541 8.0542973,17.515545 7.7188911,16.299698 7.7188911,14.986024 Z m 2.3757929,0 c 0,1.369575 0.475159,2.529521 1.439453,3.493814 0.950317,0.964292 2.110263,1.453427 3.479838,1.453427 1.369576,0 2.529521,-0.489135 3.493814,-1.453427 0.964293,-0.964293 1.453428,-2.124239 1.453428,-3.493814 0,-1.341624 -0.489135,-2.487595 -1.453428,-3.451887 -0.964293,-0.950318 -2.124238,-1.425477 -3.493814,-1.425477 -1.3556,0 -2.515546,0.475159 -3.465863,1.425477 -0.978269,0.964292 -1.453428,2.110263 -1.453428,3.451887 z m 3.717419,10.87275 c 0,-0.335407 0.111799,-0.614912 0.349382,-0.838516 0.237578,-0.223604 0.517084,-0.335406 0.838515,-0.335406 0.335405,0 0.628886,0.111799 0.85249,0.335406 0.223606,0.223604 0.335407,0.503109 0.335407,0.838516 v 2.781075 c 0,0.335407 -0.111799,0.628887 -0.349382,0.866467 -0.237579,0.237579 -0.517084,0.349382 -0.838515,0.349382 -0.321431,0 -0.614911,-0.111799 -0.838515,-0.349382 -0.237579,-0.23758 -0.349382,-0.53106 -0.349382,-0.866467 z m 0,-21.6616474 V 1.346174 c 0,-0.3214309 0.111799,-0.60093607 0.349382,-0.83851536 0.237578,-0.23757939 0.517084,-0.36335676 0.85249,-0.36335676 0.335405,0 0.600936,0.11180258 0.838515,0.34938152 0.23758,0.23757929 0.349382,0.5170845 0.349382,0.8385153 v 2.8649279 c 0,0.3214308 -0.111799,0.5869607 -0.349382,0.8105648 -0.237579,0.2236041 -0.517085,0.3214309 -0.838515,0.3214309 -0.321431,0 -0.614912,-0.1118015 -0.838514,-0.3214309 -0.223606,-0.2096289 -0.363358,-0.489134 -0.363358,-0.8105648 z m 7.714342,18.4193874 c 0,-0.321431 0.1118,-0.58696 0.321431,-0.782615 0.209629,-0.223603 0.475158,-0.32143 0.782614,-0.32143 0.335406,0 0.614912,0.1118 0.838515,0.32143 l 2.040388,1.998462 c 0.223604,0.23758 0.335406,0.53106 0.335406,0.852491 0,0.32143 -0.111799,0.600936 -0.335406,0.82454 -0.55901,0.433233 -1.11802,0.433233 -1.67703,0 l -1.984487,-1.984486 c -0.209629,-0.251555 -0.321431,-0.545035 -0.321431,-0.908392 z m 0,-15.2609794 c 0,-0.3493815 0.1118,-0.6288867 0.321431,-0.8245401 l 1.984487,-2.0543628 c 0.237578,-0.2236042 0.517083,-0.3354063 0.824539,-0.3354063 0.335407,0 0.614912,0.1118026 0.838515,0.3493815 0.23758,0.2375794 0.349382,0.5170845 0.349382,0.8385154 0,0.3493815 -0.111799,0.6428618 -0.335406,0.8664659 L 23.469005,8.19405 c -0.251554,0.2236042 -0.531059,0.3354061 -0.838515,0.3354061 -0.321431,0 -0.572985,-0.1118015 -0.782614,-0.3354061 C 21.638247,7.970446 21.526445,7.6909407 21.526445,7.3555346 Z m 3.158408,7.6304894 c 0,-0.335407 0.111799,-0.614913 0.335405,-0.866466 0.223606,-0.223604 0.489135,-0.335406 0.796591,-0.335406 h 2.823002 c 0.321431,0 0.600936,0.125778 0.838516,0.363357 0.237579,0.23758 0.363356,0.517083 0.363356,0.838515 0,0.321431 -0.125777,0.600936 -0.363356,0.838515 -0.23758,0.237579 -0.517085,0.349382 -0.838516,0.349382 h -2.823002 c -0.321432,0 -0.600936,-0.111799 -0.810566,-0.349382 -0.209628,-0.237579 -0.32143,-0.50311 -0.32143,-0.838515 z"
   id="path2"
   style="stroke-width:1.39752" />
</svg>
