<?xml version="1.0" encoding="UTF-8" standalone="no"?>
<!-- Generator: Adobe Illustrator 22.0.1, SVG Export Plug-In . SVG Version: 6.00 Build 0)  -->

<svg
   version="1.1"
   id="Layer_1"
   x="0px"
   y="0px"
   viewBox="0 0 30 30"
   style="enable-background:new 0 0 30 30;"
   xml:space="preserve"
   sodipodi:docname="day-windy-symbolic.svg"
   inkscape:version="1.2.2 (b0a8486541, 2022-12-01)"
   xmlns:inkscape="http://www.inkscape.org/namespaces/inkscape"
   xmlns:sodipodi="http://sodipodi.sourceforge.net/DTD/sodipodi-0.dtd"
   xmlns="http://www.w3.org/2000/svg"
   xmlns:svg="http://www.w3.org/2000/svg"><defs
   id="defs7" /><sodipodi:namedview
   id="namedview5"
   pagecolor="#ffffff"
   bordercolor="#666666"
   borderopacity="1.0"
   inkscape:showpageshadow="2"
   inkscape:pageopacity="0.0"
   inkscape:pagecheckerboard="0"
   inkscape:deskcolor="#d1d1d1"
   showgrid="false"
   inkscape:zoom="29.233333"
   inkscape:cx="14.982896"
   inkscape:cy="12.246294"
   inkscape:window-width="1920"
   inkscape:window-height="1014"
   inkscape:window-x="1080"
   inkscape:window-y="470"
   inkscape:window-maximized="1"
   inkscape:current-layer="Layer_1" />
<path
   d="m -0.01958094,23.709579 c 0,0.26662 0.09998242,0.488803 0.29994725,0.66655 0.18885568,0.188856 0.41103883,0.277729 0.67765861,0.277729 H 7.4902095 c 0.288838,0 0.5332395,0.09998 0.7554227,0.311056 0.2221831,0.211074 0.3332747,0.466585 0.3332747,0.755423 0,0.288838 -0.1110916,0.555458 -0.3332747,0.766532 -0.2221832,0.211074 -0.4665847,0.322165 -0.7554227,0.322165 -0.2888381,0 -0.5332396,-0.111091 -0.7554228,-0.333274 -0.1999648,-0.177747 -0.4221479,-0.26662 -0.6776586,-0.26662 -0.2666197,0 -0.4888029,0.08887 -0.6665494,0.26662 -0.1777465,0.177746 -0.2666198,0.399929 -0.2666198,0.666549 0,0.26662 0.088873,0.488803 0.2666198,0.66655 0.5887853,0.588785 1.2886623,0.888732 2.0996308,0.888732 0.8220776,0 1.5219545,-0.288838 2.0885216,-0.866514 0.5665669,-0.577676 0.8665139,-1.277553 0.8665139,-2.099631 0,-0.822078 -0.288838,-1.521954 -0.8665139,-2.099631 C 9.0010549,23.054139 8.3011779,22.765301 7.4902095,22.765301 H 0.95802492 c -0.26661978,0 -0.48880293,0.08887 -0.68876777,0.277729 -0.18885567,0.188856 -0.28883809,0.411039 -0.28883809,0.666549 z m 0,-3.343856 c 0,0.255511 0.09998242,0.466585 0.29994725,0.644331 0.17774652,0.177747 0.41103883,0.26662 0.67765861,0.26662 H 13.144771 c 0.822077,0 1.521954,-0.288838 2.09963,-0.866514 0.577677,-0.577677 0.866515,-1.277553 0.866515,-2.099631 0,-0.822078 -0.288838,-1.510845 -0.866515,-2.088522 -0.577676,-0.566567 -1.277553,-0.855405 -2.09963,-0.855405 -0.844296,0 -1.533064,0.277729 -2.088522,0.844296 -0.177746,0.177747 -0.255511,0.411039 -0.255511,0.677659 0,0.26662 0.08887,0.488803 0.255511,0.666549 0.166637,0.166638 0.388821,0.255511 0.66655,0.255511 0.266619,0 0.488802,-0.08887 0.688767,-0.255511 0.211074,-0.211074 0.455476,-0.311056 0.755423,-0.311056 0.299947,0 0.544349,0.09998 0.755423,0.311056 0.211074,0.211074 0.322165,0.466585 0.322165,0.755423 0,0.299947 -0.111091,0.555458 -0.322165,0.766532 -0.211074,0.211074 -0.466585,0.322165 -0.755423,0.322165 H 0.95802492 c -0.26661978,0 -0.48880293,0.09998 -0.68876777,0.288838 -0.18885567,0.199965 -0.28883809,0.422148 -0.28883809,0.677659 z M 6.4126212,13.100334 c 0,-0.26662 0.099982,-0.488803 0.2888381,-0.688768 0.1999648,-0.177746 0.422148,-0.266619 0.6665494,-0.266619 h 2.255159 c 0.2555106,0 0.4665843,0.08887 0.6443313,0.277728 0.177746,0.188856 0.255511,0.411039 0.255511,0.677659 0,0.26662 -0.08887,0.488803 -0.255511,0.66655 -0.177747,0.188855 -0.3888207,0.277728 -0.6443313,0.277728 h -2.255159 c -0.2666198,0 -0.4888029,-0.08887 -0.6776586,-0.277728 C 6.5014944,13.578028 6.4126212,13.355845 6.4126212,13.100334 Z M 9.5787311,5.4127972 c 0,-0.2555106 0.088873,-0.4776938 0.2555106,-0.6776586 0.2110743,-0.1777465 0.4554753,-0.2666198 0.7109863,-0.2666198 0.244401,0 0.466584,0.088873 0.65544,0.2666198 l 1.58861,1.6330462 c 0.177746,0.1666373 0.266619,0.3888205 0.266619,0.6554402 0,0.2666198 -0.08887,0.488803 -0.266619,0.6665495 -0.177747,0.1777465 -0.39993,0.2666198 -0.655441,0.2666198 -0.266619,0 -0.488803,-0.088873 -0.65544,-0.2666198 L 9.8453508,6.101565 C 9.6676043,5.9127093 9.5787311,5.6905261 9.5787311,5.4127972 Z m 2.8439439,7.5542268 v -0.07776 c 0.02222,-1.010933 0.299948,-1.944102 0.822078,-2.810617 0.53324,-0.8554048 1.233117,-1.5330634 2.11074,-2.0329755 0.877623,-0.4999121 1.833011,-0.7443135 2.855054,-0.7443135 0.777641,0 1.521954,0.1555282 2.244049,0.4665846 0.710986,0.3110564 1.333099,0.7220952 1.84412,1.2442256 0.522131,0.5221304 0.93317,1.1331338 1.233117,1.8441198 0.299947,0.710986 0.455475,1.466409 0.455475,2.24405 0,1.044261 -0.25551,1.999648 -0.766531,2.888381 -0.511022,0.888733 -1.210899,1.58861 -2.088522,2.099631 -0.877624,0.52213 -1.84412,0.777641 -2.888381,0.78875 h -0.233292 c -0.07776,0 -0.144419,-0.02222 -0.188856,-0.07776 -0.05555,-0.05555 -0.07776,-0.122201 -0.07776,-0.199965 V 17.24405 c 0,-0.144419 0.07776,-0.222183 0.244401,-0.222183 h 0.26662 c 1.066479,-0.01111 1.988539,-0.388821 2.743962,-1.166462 0.755423,-0.766532 1.144243,-1.688592 1.144243,-2.76618 0,-1.066479 -0.38882,-1.97743 -1.155352,-2.743962 -0.766532,-0.7554226 -1.688592,-1.1331339 -2.777289,-1.1331339 -1.044261,0 -1.955212,0.355493 -2.710635,1.0886969 -0.755423,0.722096 -1.155352,1.599719 -1.199789,2.632871 0,0.06665 -0.03333,0.1222 -0.08887,0.188855 -0.05555,0.06665 -0.155528,0.09998 -0.288838,0.09998 h -1.255335 c -0.166637,0.01111 -0.244402,-0.07776 -0.244402,-0.255511 z m 4.832484,10.975848 v -2.210723 c 0,-0.266619 0.08887,-0.488803 0.277729,-0.666549 0.188856,-0.177747 0.411039,-0.26662 0.666549,-0.26662 0.277729,0 0.499912,0.08887 0.677659,0.26662 0.177746,0.177746 0.26662,0.39993 0.26662,0.666549 v 2.210723 c 0,0.26662 -0.08887,0.499912 -0.277729,0.688768 -0.188856,0.188855 -0.411039,0.277728 -0.66655,0.277728 -0.266619,0 -0.488803,-0.08887 -0.666549,-0.277728 -0.177747,-0.188856 -0.277729,-0.422148 -0.277729,-0.688768 z m 0,-19.4188074 V 2.2466873 c 0,-0.2555106 0.08887,-0.4776938 0.277729,-0.6665494 0.188856,-0.1888557 0.411039,-0.277729 0.666549,-0.277729 0.26662,0 0.488803,0.088873 0.66655,0.277729 0.177746,0.1888556 0.277729,0.4110388 0.277729,0.6665494 v 2.2662682 c 0,0.2555106 -0.08887,0.4665846 -0.277729,0.6443311 -0.188856,0.1666373 -0.411039,0.2555106 -0.66655,0.2555106 -0.266619,0 -0.488803,-0.088873 -0.666549,-0.2555106 -0.177747,-0.1666374 -0.277729,-0.3777114 -0.277729,-0.633222 z m 6.143364,14.6418694 c 0,-0.255511 0.08887,-0.466585 0.255511,-0.622113 0.166637,-0.177746 0.377711,-0.25551 0.633222,-0.25551 0.266619,0 0.488803,0.08887 0.666549,0.25551 l 1.610828,1.577501 c 0.177746,0.188855 0.26662,0.422148 0.26662,0.677658 0,0.255511 -0.08887,0.477694 -0.26662,0.65544 -0.444366,0.344384 -0.888733,0.344384 -1.333099,0 l -1.5775,-1.588609 c -0.177747,-0.177747 -0.255511,-0.422148 -0.255511,-0.699877 z m 0,-12.142309 c 0,-0.2777289 0.08887,-0.499912 0.255511,-0.6554402 l 1.5775,-1.6330462 c 0.199965,-0.1777465 0.411039,-0.2666198 0.65544,-0.2666198 0.255511,0 0.477694,0.088873 0.66655,0.277729 0.188855,0.1888556 0.277729,0.4110388 0.277729,0.6665494 0,0.2777289 -0.08887,0.5110213 -0.26662,0.6887678 l -1.610828,1.5886095 c -0.199965,0.1777465 -0.422148,0.2666198 -0.666549,0.2666198 -0.255511,0 -0.455476,-0.088873 -0.633222,-0.2666198 C 23.476287,7.512428 23.398523,7.2902448 23.398523,7.023625 Z m 2.51067,6.076709 c 0,-0.26662 0.08887,-0.488803 0.266619,-0.688768 0.177747,-0.177746 0.388821,-0.266619 0.633222,-0.266619 h 2.24405 c 0.255511,0 0.477694,0.09998 0.677659,0.288838 0.199965,0.188855 0.288838,0.411038 0.288838,0.666549 0,0.255511 -0.09998,0.477694 -0.288838,0.66655 -0.199965,0.188855 -0.422148,0.277728 -0.677659,0.277728 h -2.24405 c -0.25551,0 -0.466584,-0.08887 -0.644331,-0.277728 -0.177746,-0.177747 -0.25551,-0.39993 -0.25551,-0.66655 z"
   id="path2"
   style="stroke-width:1.11092" />
</svg>
