<?xml version="1.0" encoding="UTF-8" standalone="no"?>
<!-- Generator: Adobe Illustrator 22.0.1, SVG Export Plug-In . SVG Version: 6.00 Build 0)  -->

<svg
   version="1.1"
   id="Layer_1"
   x="0px"
   y="0px"
   viewBox="0 0 30 30"
   style="enable-background:new 0 0 30 30;"
   xml:space="preserve"
   sodipodi:docname="day-snow-symbolic.svg"
   inkscape:version="1.2.2 (b0a8486541, 2022-12-01)"
   xmlns:inkscape="http://www.inkscape.org/namespaces/inkscape"
   xmlns:sodipodi="http://sodipodi.sourceforge.net/DTD/sodipodi-0.dtd"
   xmlns="http://www.w3.org/2000/svg"
   xmlns:svg="http://www.w3.org/2000/svg"><defs
   id="defs7" /><sodipodi:namedview
   id="namedview5"
   pagecolor="#ffffff"
   bordercolor="#666666"
   borderopacity="1.0"
   inkscape:showpageshadow="2"
   inkscape:pageopacity="0.0"
   inkscape:pagecheckerboard="0"
   inkscape:deskcolor="#d1d1d1"
   showgrid="false"
   inkscape:zoom="29.233333"
   inkscape:cx="14.982896"
   inkscape:cy="23.192702"
   inkscape:window-width="1920"
   inkscape:window-height="1014"
   inkscape:window-x="1080"
   inkscape:window-y="470"
   inkscape:window-maximized="1"
   inkscape:current-layer="Layer_1" />
<path
   d="m 0.04986423,18.085833 c 0,0.958056 0.233944,1.860412 0.71297218,2.684786 0.46788799,0.824374 1.11401909,1.492785 1.93839319,1.994094 0.8132339,0.501308 1.7155893,0.768673 2.6736457,0.790953 0.1225421,0 0.1893832,-0.06684 0.1893832,-0.189383 v -1.481645 c 0,-0.133683 -0.066841,-0.211664 -0.1893832,-0.211664 C 4.4279591,21.628413 3.6147252,21.249647 2.9463138,20.536675 2.2779023,19.823702 1.9436966,19.010469 1.9436966,18.074693 c 0,-0.913496 0.3119254,-1.71559 0.9469162,-2.406282 0.6349909,-0.679551 1.403664,-1.080598 2.33944,-1.192 l 0.5904301,-0.06684 c 0.1336823,0 0.2005234,-0.06684 0.2005234,-0.211664 l 0.089121,-0.56815 C 6.2326699,12.415476 6.7339785,11.401718 7.6251937,10.588484 8.516409,9.7752506 9.5747271,9.3742037 10.800148,9.3742037 c 1.214281,0 2.272599,0.4010469 3.174954,1.2142803 0.913496,0.813234 1.425945,1.815852 1.537347,3.007852 l 0.07798,0.646131 c 0,0.122542 0.06684,0.189383 0.189383,0.189383 h 1.793571 c 1.002617,0 1.860412,0.356486 2.573384,1.069459 0.712972,0.712972 1.069458,1.559626 1.069458,2.551103 0,0.935776 -0.334205,1.74901 -1.002617,2.461982 -0.668411,0.701832 -1.481645,1.080599 -2.417421,1.1363 -0.133682,0 -0.211664,0.06684 -0.211664,0.211663 v 1.481646 c 0,0.122542 0.06684,0.189383 0.211664,0.189383 1.481645,-0.04456 2.729346,-0.60157 3.765384,-1.671029 1.036038,-1.069458 1.548487,-2.328299 1.548487,-3.798805 0,-0.846654 -0.155963,-1.593047 -0.479029,-2.261458 0.835515,-1.036038 1.281122,-2.261459 1.281122,-3.653983 0,-1.047178 -0.256224,-2.016374 -0.779813,-2.9075895 C 22.60875,8.3493062 21.895778,7.636334 21.004563,7.1127451 20.113347,6.5891561 19.133011,6.3329318 18.085833,6.3329318 c -1.71559,0 -3.152674,0.646131 -4.311254,1.9272529 -0.902355,-0.4901684 -1.904973,-0.7352526 -2.996711,-0.7352526 -1.5707672,0 -2.9521508,0.4901684 -4.1664316,1.459365 C 5.3971557,9.9534936 4.6284825,11.201195 4.2831366,12.705121 3.0354353,13.017046 2.021678,13.663177 1.2307244,14.654654 0.43977089,15.657271 0.04986423,16.793571 0.04986423,18.085833 Z M 7.112745,22.59761 c 0,0.267364 0.089122,0.490168 0.2673646,0.679551 0.178243,0.189384 0.3899066,0.278505 0.6572712,0.278505 0.2562244,0 0.4790282,-0.08912 0.6572712,-0.278505 0.1782431,-0.189383 0.2673646,-0.412187 0.2673646,-0.679551 0,-0.256225 -0.089122,-0.467888 -0.2673646,-0.646131 -0.178243,-0.178243 -0.3899066,-0.267365 -0.6572712,-0.267365 -0.2562244,0 -0.4790282,0.08912 -0.6572712,0.267365 C 7.2018665,22.129722 7.112745,22.352526 7.112745,22.59761 Z m 0,4.043889 c 0,0.233944 0.089122,0.445608 0.2673646,0.634991 0.2005234,0.178243 0.412187,0.267364 0.646131,0.267364 0.2673646,0 0.4790282,-0.08912 0.6572712,-0.256224 0.1782431,-0.178243 0.2562244,-0.389907 0.2562244,-0.646131 0,-0.267365 -0.089121,-0.479028 -0.2673646,-0.657271 -0.178243,-0.178243 -0.3899066,-0.256225 -0.6572712,-0.256225 -0.2562244,0 -0.4790282,0.08912 -0.6572712,0.256225 C 7.2018665,26.151331 7.112745,26.374134 7.112745,26.641499 Z M 9.396484,4.4390994 c 0,0.2673646 0.089122,0.4901684 0.2673646,0.6572712 l 0.7352524,0.7352526 c 0.178243,0.178243 0.378767,0.2785047 0.59043,0.2785047 0.233944,0.033421 0.456748,-0.044561 0.679552,-0.2450841 0.222804,-0.2005235 0.334206,-0.4344675 0.334206,-0.701832 0,-0.2673646 -0.08912,-0.5124488 -0.267365,-0.7129722 L 11.022952,3.770688 C 10.855849,3.5813047 10.644186,3.4921832 10.376821,3.4921832 c -0.278505,0 -0.512449,0.089122 -0.7018322,0.2785048 C 9.4856055,3.948931 9.396484,4.1717348 9.396484,4.4390994 Z m 1.258842,20.2974266 c 0,0.245085 0.08912,0.467888 0.267364,0.668412 0.178243,0.178243 0.401047,0.267364 0.646131,0.267364 0.267365,0 0.490169,-0.08912 0.668412,-0.267364 0.178243,-0.178243 0.278505,-0.401047 0.278505,-0.668412 0,-0.256224 -0.08912,-0.479028 -0.278505,-0.668411 -0.189383,-0.189383 -0.412187,-0.278505 -0.668412,-0.278505 -0.256224,0 -0.467888,0.08912 -0.646131,0.278505 -0.178243,0.189383 -0.267364,0.412187 -0.267364,0.668411 z m 0,-4.010468 c 0,0.256224 0.08912,0.467888 0.267364,0.646131 0.178243,0.178243 0.401047,0.267364 0.646131,0.267364 0.267365,0 0.490169,-0.08912 0.668412,-0.267364 0.189383,-0.178243 0.278505,-0.389907 0.278505,-0.657271 0,-0.256225 -0.08912,-0.479029 -0.278505,-0.657272 -0.189383,-0.178243 -0.412187,-0.267364 -0.668412,-0.267364 -0.256224,0 -0.467888,0.08912 -0.646131,0.267364 -0.178243,0.178243 -0.267364,0.412187 -0.267364,0.668412 z m 0,8.087778 c 0,0.245084 0.08912,0.456748 0.267364,0.634991 0.189384,0.189383 0.401047,0.278505 0.646131,0.278505 0.267365,0 0.490169,-0.08912 0.668412,-0.256225 0.189383,-0.178243 0.278505,-0.389906 0.278505,-0.657271 0,-0.267364 -0.08912,-0.490168 -0.278505,-0.668411 -0.189383,-0.189384 -0.412187,-0.278505 -0.668412,-0.278505 -0.245084,0 -0.456747,0.08912 -0.646131,0.278505 -0.178243,0.189383 -0.267364,0.412187 -0.267364,0.668411 z m 3.587141,-6.216226 c 0,0.267364 0.08912,0.490168 0.267365,0.679551 0.178243,0.189384 0.401046,0.278505 0.657271,0.278505 0.256224,0 0.479028,-0.08912 0.657271,-0.278505 0.178243,-0.189383 0.267365,-0.412187 0.267365,-0.679551 0,-0.256225 -0.08912,-0.467888 -0.267365,-0.646131 -0.178243,-0.178243 -0.389907,-0.267365 -0.657271,-0.267365 -0.267365,0 -0.479028,0.08912 -0.657271,0.267365 -0.178243,0.178243 -0.267365,0.401047 -0.267365,0.646131 z m 0,4.043889 c 0,0.233944 0.08912,0.445608 0.256224,0.634991 0.200524,0.178243 0.423328,0.267364 0.668412,0.267364 0.267364,0 0.479028,-0.08912 0.657271,-0.256224 0.178243,-0.178243 0.256224,-0.389907 0.256224,-0.646131 0,-0.267365 -0.08912,-0.479028 -0.267364,-0.657271 -0.178243,-0.178243 -0.389907,-0.256225 -0.657271,-0.256225 -0.267365,0 -0.490169,0.08912 -0.668412,0.267365 -0.155962,0.167103 -0.245084,0.389907 -0.245084,0.646131 z M 15.334206,9.3185028 c 0.768673,-0.7352526 1.682168,-1.1028789 2.751627,-1.1028789 1.080598,0 2.005234,0.3899067 2.762767,1.1585798 0.768673,0.7686733 1.14744,1.7044493 1.14744,2.7739073 0,0.690692 -0.189384,1.381384 -0.56815,2.049795 -1.058318,-1.069458 -2.35058,-1.604187 -3.865646,-1.604187 H 17.205758 C 16.871552,11.290317 16.247701,10.198578 15.334206,9.3185028 Z m 1.78243,-5.8151794 c 0,0.2562244 0.08912,0.4790282 0.278505,0.646131 0.189383,0.1671029 0.412187,0.2562244 0.679552,0.2562244 0.267364,0 0.479028,-0.089122 0.657271,-0.2562244 0.178243,-0.178243 0.256224,-0.3899066 0.256224,-0.646131 V 1.2307245 c 0,-0.26736456 -0.08912,-0.49016837 -0.267364,-0.6795516 -0.178243,-0.18938324 -0.378767,-0.27850477 -0.634991,-0.27850477 -0.256225,0 -0.479028,0.10026172 -0.668412,0.28964496 -0.189383,0.18938323 -0.289645,0.41218704 -0.289645,0.66841141 v 2.2725989 z m 6.149385,2.5288232 c 0,0.2562244 0.08912,0.4790282 0.278505,0.6572712 0.167103,0.1782431 0.378767,0.2673646 0.623851,0.289645 0.245084,0.02228 0.479028,-0.077981 0.690692,-0.289645 l 1.593047,-1.5930472 c 0.200523,-0.2005234 0.289645,-0.4233272 0.289645,-0.6795516 0,-0.2673646 -0.100262,-0.4901684 -0.289645,-0.6795516 -0.189383,-0.1893833 -0.412187,-0.2785048 -0.668412,-0.2785048 -0.245084,0 -0.456747,0.089122 -0.646131,0.2785048 l -1.593047,1.6264678 c -0.189383,0.178243 -0.278505,0.4010468 -0.278505,0.6684114 z m 0.891216,13.1454244 c 0,0.278505 0.08912,0.512449 0.267364,0.690692 l 0.712972,0.701832 c 0.267365,0.178243 0.512449,0.267365 0.712972,0.267365 0.233944,0 0.434468,-0.100262 0.623851,-0.289645 0.189383,-0.189383 0.278505,-0.423327 0.278505,-0.679552 0,-0.256224 -0.100262,-0.467888 -0.289645,-0.646131 L 25.772564,18.49802 c -0.200523,-0.178243 -0.423327,-0.267365 -0.679551,-0.267365 -0.256225,0 -0.479029,0.08912 -0.657272,0.278505 -0.189383,0.178243 -0.278504,0.401047 -0.278504,0.668411 z m 1.615327,-7.02946 c 0,0.267365 0.100262,0.479028 0.289645,0.657271 0.189383,0.200524 0.423327,0.300786 0.690692,0.300786 h 2.250318 c 0.256225,0 0.479029,-0.08912 0.668412,-0.278505 0.189383,-0.189383 0.278505,-0.412187 0.278505,-0.679552 0,-0.267364 -0.08912,-0.490168 -0.278505,-0.668411 -0.189383,-0.178243 -0.412187,-0.278505 -0.668412,-0.278505 h -2.250318 c -0.267365,0 -0.490168,0.08912 -0.690692,0.278505 -0.200523,0.189383 -0.289645,0.412187 -0.289645,0.668411 z"
   id="path2"
   style="stroke-width:1.11402" />
</svg>
