<?xml version="1.0" encoding="UTF-8" standalone="no"?>
<!-- Generator: Adobe Illustrator 22.0.1, SVG Export Plug-In . SVG Version: 6.00 Build 0)  -->

<svg
   version="1.1"
   id="Layer_1"
   x="0px"
   y="0px"
   viewBox="0 0 30 30"
   style="enable-background:new 0 0 30 30;"
   xml:space="preserve"
   sodipodi:docname="day-showers-symbolic.svg"
   inkscape:version="1.2.2 (b0a8486541, 2022-12-01)"
   xmlns:inkscape="http://www.inkscape.org/namespaces/inkscape"
   xmlns:sodipodi="http://sodipodi.sourceforge.net/DTD/sodipodi-0.dtd"
   xmlns="http://www.w3.org/2000/svg"
   xmlns:svg="http://www.w3.org/2000/svg"><defs
   id="defs7" /><sodipodi:namedview
   id="namedview5"
   pagecolor="#ffffff"
   bordercolor="#666666"
   borderopacity="1.0"
   inkscape:showpageshadow="2"
   inkscape:pageopacity="0.0"
   inkscape:pagecheckerboard="0"
   inkscape:deskcolor="#d1d1d1"
   showgrid="false"
   inkscape:zoom="29.233333"
   inkscape:cx="14.982896"
   inkscape:cy="12.246294"
   inkscape:window-width="1920"
   inkscape:window-height="1014"
   inkscape:window-x="1080"
   inkscape:window-y="470"
   inkscape:window-maximized="1"
   inkscape:current-layer="Layer_1" />
<path
   d="m 0.00148621,17.890339 c 0,1.484227 0.51334199,2.756423 1.55118559,3.827745 1.0378436,1.071323 2.2988793,1.629303 3.7942668,1.70742 0.1227557,0 0.1897133,-0.06696 0.1897133,-0.189713 v -1.495388 c 0,-0.133915 -0.066958,-0.200873 -0.1897133,-0.200873 C 4.3983719,21.49489 3.5948801,21.115465 2.9253036,20.40125 2.2557271,19.687035 1.9320985,18.850065 1.9320985,17.890339 c 0,-0.937408 0.312469,-1.740899 0.9374071,-2.421635 0.624938,-0.680737 1.4061106,-1.071323 2.3435177,-1.182919 l 0.5579804,-0.04464 c 0.1450749,0 0.2231922,-0.06696 0.2231922,-0.200873 l 0.066958,-0.59146 c 0.1227553,-1.205235 0.6249377,-2.22076 1.528866,-3.024252 0.9039283,-0.8146511 1.964091,-1.216397 3.1916481,-1.216397 1.216397,0 2.28772,0.4017459 3.191648,1.216397 0.903928,0.814652 1.41727,1.819017 1.528866,3.024254 l 0.07812,0.636098 c 0,0.133915 0.06696,0.200873 0.200873,0.200873 h 1.863654 c 0.982046,0 1.819016,0.357108 2.533231,1.071322 0.714215,0.714215 1.071323,1.551186 1.071323,2.533232 0,0.948566 -0.334789,1.774377 -1.004365,2.477433 -0.669577,0.703055 -1.473068,1.093641 -2.410475,1.171758 -0.122756,0 -0.189714,0.06696 -0.189714,0.200873 v 1.495388 c 0,0.122756 0.06696,0.189713 0.189714,0.189713 0.982045,-0.02232 1.863654,-0.29015 2.678306,-0.803492 0.814651,-0.513342 1.450749,-1.171758 1.908293,-2.008729 0.468703,-0.836971 0.691895,-1.740899 0.691895,-2.722944 0,-0.792333 -0.156234,-1.528867 -0.457544,-2.187284 0.848131,-1.049003 1.261036,-2.2654 1.261036,-3.660351 0,-0.792332 -0.156234,-1.551186 -0.457544,-2.2765606 -0.301311,-0.7253745 -0.725376,-1.339153 -1.249878,-1.8636546 -0.513342,-0.5245016 -1.13828,-0.9374071 -1.852495,-1.2387165 -0.725375,-0.312469 -1.484228,-0.457544 -2.27656,-0.457544 -1.685101,0 -3.102371,0.6137785 -4.251811,1.852495 -0.881609,-0.4798631 -1.897133,-0.7142149 -3.046573,-0.7142149 -1.5735049,0 -2.968456,0.4910228 -4.1848533,1.4619087 -1.2163973,0.9708859 -1.9752506,2.2207619 -2.3100389,3.7384689 -1.2498761,0.29015 -2.2877197,0.926248 -3.0912115,1.919453 -0.79233219,0.993205 -1.19407809,2.142645 -1.19407809,3.426 z m 6.03734809,7.476937 c 0,0.200873 0.055798,0.401746 0.1785538,0.591459 0.1227556,0.200873 0.2901498,0.323629 0.5021823,0.401746 0.2120326,0.07812 0.4463844,0.0558 0.6807361,-0.06696 0.2455114,-0.122756 0.4017459,-0.323629 0.4910228,-0.613779 L 8.1703195,24.507986 C 8.2484368,24.273635 8.2261176,24.050442 8.0922023,23.816091 7.958287,23.581739 7.7685736,23.425504 7.5230622,23.347387 7.244072,23.280429 6.9985606,23.313908 6.7753685,23.436664 6.5521763,23.55942 6.418261,23.771452 6.362463,24.028123 l -0.3124691,1.104801 c 0,0.0558 -0.01116,0.133916 -0.01116,0.234352 z M 7.500743,20.099941 c 0,0.424065 0.2343518,0.714215 0.7142149,0.881609 0.2455114,0.08928 0.4798632,0.06696 0.714215,-0.0558 0.2343518,-0.122756 0.3794267,-0.323629 0.4575439,-0.591459 l 0.2678306,-1.14944 c 0.078117,-0.23435 0.055798,-0.457542 -0.078117,-0.691894 C 9.4536745,18.258606 9.2639611,18.102371 9.0072901,18.024254 8.7394595,17.957296 8.4827885,17.979615 8.2595964,18.113531 8.0364042,18.247446 7.9024889,18.437159 7.8466909,18.69383 l -0.3347883,1.13828 c 0,0.08928 -0.01116,0.178554 -0.01116,0.267831 z m 1.3614722,8.804931 c 0,0.178554 0.066958,0.368267 0.1897134,0.55798 0.1227557,0.189714 0.312469,0.323629 0.5468208,0.401746 0.01116,0 0.044638,0 0.1115961,0.01116 0.066958,0.01116 0.1227556,0.01116 0.1673941,0.01116 0.1562344,0 0.2901504,-0.02232 0.4129054,-0.07812 0.212033,-0.08928 0.368267,-0.301309 0.457544,-0.647257 l 0.30131,-1.104801 c 0.07812,-0.256671 0.0558,-0.502183 -0.07812,-0.725375 -0.133915,-0.223192 -0.323628,-0.379426 -0.56914,-0.446384 -0.256671,-0.07812 -0.5021822,-0.0558 -0.7253744,0.07812 -0.2231921,0.133915 -0.3794266,0.323629 -0.4463843,0.56914 l -0.312469,1.13828 c -0.044639,0.100437 -0.055798,0.178554 -0.055798,0.234352 z M 9.3755572,4.2756161 c 0,0.2789902 0.089277,0.513342 0.2789902,0.6918957 l 0.7365346,0.7253746 c 0.379426,0.3794266 0.814651,0.3794266 1.305674,0 0.178554,-0.1897134 0.267831,-0.4240652 0.267831,-0.6807361 0,-0.256671 -0.08928,-0.4798632 -0.267831,-0.6807361 L 10.993701,3.59488 C 10.815147,3.4163263 10.591955,3.3270494 10.324124,3.3270494 c -0.256671,0 -0.4798632,0.089277 -0.6695766,0.2789902 C 9.4648341,3.7845933 9.3755572,4.0077855 9.3755572,4.2756161 Z M 10.368763,23.55942 c 0,0.189713 0.0558,0.379426 0.178553,0.56914 0.122756,0.189713 0.29015,0.312469 0.524502,0.390586 0.256671,0.07812 0.491023,0.0558 0.714215,-0.0558 0.212032,-0.111596 0.368267,-0.323629 0.446384,-0.624938 l 0.267831,-1.127121 c 0.07812,-0.256671 0.0558,-0.502182 -0.06696,-0.725374 -0.122756,-0.223192 -0.312469,-0.379427 -0.55798,-0.457544 -0.278991,-0.07812 -0.535662,-0.04464 -0.758854,0.08928 -0.223192,0.133915 -0.368267,0.334788 -0.412905,0.591459 l -0.312469,1.14944 c -0.02232,0.03348 -0.02232,0.100436 -0.02232,0.200873 z m 3.102371,1.919452 c 0.02232,0.424065 0.256671,0.725375 0.703055,0.926248 l 0.27899,0.04464 c 0.178554,0 0.357108,-0.0558 0.524502,-0.178554 0.167394,-0.122755 0.29015,-0.301309 0.357107,-0.55798 l 0.323629,-1.12712 c 0.06696,-0.267831 0.03348,-0.513342 -0.100437,-0.736535 -0.133915,-0.223192 -0.334788,-0.368267 -0.591459,-0.412905 -0.234352,-0.07812 -0.457544,-0.0558 -0.691896,0.07812 -0.234351,0.133915 -0.379426,0.323629 -0.457543,0.56914 l -0.30131,1.13828 c -0.01116,0.02232 -0.01116,0.0558 -0.02232,0.08928 -0.01116,0.03348 -0.01116,0.06696 -0.02232,0.08928 -0.01116,0.02232 0,0.0558 0,0.07812 z m 1.562345,-5.311973 c 0,0.178553 0.0558,0.357107 0.167394,0.535661 0.111596,0.178554 0.27899,0.301309 0.502182,0.357107 l 0.278991,0.03348 c 0.212032,0 0.412905,-0.06696 0.580299,-0.200873 0.167394,-0.133915 0.267831,-0.312469 0.312469,-0.524501 l 0.30131,-1.104802 c 0.07812,-0.26783 0.0558,-0.502182 -0.07812,-0.725374 -0.122755,-0.223192 -0.312469,-0.368267 -0.56914,-0.435225 -0.256671,-0.07812 -0.502182,-0.0558 -0.714215,0.06696 -0.223192,0.122755 -0.368267,0.312469 -0.435224,0.55798 l -0.334789,1.182919 c 0,0.08928 -0.01116,0.178553 -0.01116,0.256671 z M 15.401746,9.1635246 c 0.736534,-0.714215 1.629303,-1.0713224 2.678306,-1.0713224 1.093642,0 2.031049,0.3905862 2.801062,1.1605992 0.770013,0.7700126 1.160599,1.7074206 1.160599,2.8010616 0,0.624938 -0.178554,1.283355 -0.524502,1.964091 C 20.445889,12.946632 19.162534,12.42213 17.644827,12.42213 H 17.2654 C 16.975251,11.149935 16.350313,10.067453 15.401746,9.1635246 Z m 1.71858,-5.8364752 c 0,0.2789902 0.08928,0.5021824 0.26783,0.6807361 0.178554,0.1785537 0.401746,0.2678306 0.680736,0.2678306 0.27899,0 0.502183,-0.089277 0.680736,-0.2678306 0.178554,-0.1785537 0.267831,-0.4017459 0.267831,-0.6807361 V 1.0728086 c 0,-0.27899025 -0.08928,-0.51334202 -0.267831,-0.69189575 -0.178553,-0.17855374 -0.401746,-0.2678306 -0.680736,-0.2678306 -0.27899,0 -0.502182,0.0892769 -0.680736,0.2678306 -0.178554,0.17855373 -0.26783,0.4129055 -0.26783,0.69189575 z m 6.193582,2.5555503 c 0,0.2789902 0.08928,0.5021824 0.256671,0.6807361 0.234352,0.1897134 0.457544,0.2789902 0.691896,0.2789902 0.212032,0 0.424065,-0.089277 0.658417,-0.2789902 l 1.595824,-1.595824 c 0.178554,-0.2008729 0.26783,-0.4352247 0.26783,-0.7030553 0,-0.2678306 -0.08928,-0.4910228 -0.26783,-0.6695765 -0.178554,-0.1785537 -0.401746,-0.2678306 -0.658417,-0.2678306 -0.256671,0 -0.479863,0.089277 -0.680736,0.2678306 l -1.606984,1.595824 c -0.167394,0.2008729 -0.256671,0.4240651 -0.256671,0.6918957 z m 0.881609,13.2018173 c 0,0.256671 0.100437,0.491022 0.29015,0.703055 l 0.691896,0.714215 c 0.234352,0.234352 0.457544,0.345948 0.691895,0.345948 0.212033,0 0.435225,-0.111596 0.647258,-0.345948 0.200873,-0.200873 0.301309,-0.435225 0.29015,-0.680736 -0.01116,-0.256671 -0.100437,-0.479863 -0.29015,-0.669577 L 25.791341,18.41484 c -0.178553,-0.178554 -0.390586,-0.26783 -0.636097,-0.26783 -0.267831,0 -0.491023,0.08928 -0.680737,0.27899 -0.178553,0.178553 -0.27899,0.401746 -0.27899,0.658417 z m 1.640463,-7.041713 c 0,0.245511 0.08928,0.468703 0.26783,0.647257 0.178554,0.178554 0.401746,0.267831 0.647258,0.267831 h 2.27656 c 0.290149,0 0.524501,-0.08928 0.703055,-0.256671 0.178554,-0.178554 0.267831,-0.390587 0.267831,-0.658417 0,-0.27899 -0.08928,-0.513342 -0.278991,-0.691896 -0.189713,-0.178554 -0.412905,-0.267831 -0.691895,-0.267831 h -2.27656 c -0.256671,0 -0.479864,0.08928 -0.658417,0.278991 -0.167394,0.189713 -0.256671,0.424065 -0.256671,0.680736 z"
   id="path2"
   style="stroke-width:1.11596" />
</svg>
