<?xml version="1.0" encoding="UTF-8" standalone="no"?>
<!-- Generator: Adobe Illustrator 22.0.1, SVG Export Plug-In . SVG Version: 6.00 Build 0)  -->

<svg
   version="1.1"
   id="Layer_1"
   x="0px"
   y="0px"
   viewBox="0 0 30 30"
   style="enable-background:new 0 0 30 30;"
   xml:space="preserve"
   sodipodi:docname="day-rain-mix-symbolic.svg"
   inkscape:version="1.2.2 (b0a8486541, 2022-12-01)"
   xmlns:inkscape="http://www.inkscape.org/namespaces/inkscape"
   xmlns:sodipodi="http://sodipodi.sourceforge.net/DTD/sodipodi-0.dtd"
   xmlns="http://www.w3.org/2000/svg"
   xmlns:svg="http://www.w3.org/2000/svg"><defs
   id="defs7" /><sodipodi:namedview
   id="namedview5"
   pagecolor="#ffffff"
   bordercolor="#666666"
   borderopacity="1.0"
   inkscape:showpageshadow="2"
   inkscape:pageopacity="0.0"
   inkscape:pagecheckerboard="0"
   inkscape:deskcolor="#d1d1d1"
   showgrid="false"
   inkscape:zoom="29.233333"
   inkscape:cx="14.982896"
   inkscape:cy="23.192702"
   inkscape:window-width="1920"
   inkscape:window-height="1014"
   inkscape:window-x="1080"
   inkscape:window-y="470"
   inkscape:window-maximized="1"
   inkscape:current-layer="Layer_1" />
<path
   d="m 0.17306111,17.775919 c 0,1.454054 0.50671559,2.709827 1.50913119,3.745289 1.0024157,1.035463 2.2471735,1.597256 3.7232581,1.663349 0.1321866,0 0.19828,-0.06609 0.19828,-0.187264 v -1.465069 c 0,-0.132187 -0.066093,-0.19828 -0.19828,-0.19828 C 4.4581125,21.289882 3.6649925,20.915353 3.0150746,20.232388 2.3651568,19.549424 2.0457057,18.723257 2.0457057,17.764904 c 0,-0.925307 0.3084356,-1.740458 0.9253067,-2.412407 0.6168712,-0.682965 1.3879601,-1.057494 2.3132668,-1.134602 l 0.5838245,-0.08812 c 0.1211711,0 0.1762489,-0.05508 0.1762489,-0.154218 l 0.088125,-0.605855 c 0.1321862,-1.200701 0.6499173,-2.203117 1.5201462,-2.996237 0.870229,-0.7931201 1.9056913,-1.1786646 3.1174022,-1.1786646 1.211712,0 2.258189,0.3965601 3.150449,1.1896796 0.903276,0.793121 1.409992,1.784521 1.520147,2.963186 l 0.07711,0.638902 c 0.02203,0.121171 0.110156,0.187264 0.242342,0.187264 h 1.762489 c 0.980385,0 1.817567,0.352498 2.522563,1.057494 0.704995,0.704995 1.057493,1.553193 1.057493,2.544593 0,0.958354 -0.319451,1.773505 -0.969369,2.467485 -0.649918,0.69398 -1.443038,1.046478 -2.390375,1.101555 -0.143203,0 -0.220312,0.06609 -0.220312,0.19828 v 1.465069 c 0,0.121172 0.07711,0.187265 0.220312,0.187265 1.465069,-0.04406 2.698811,-0.59484 3.712242,-1.641318 1.002416,-1.046478 1.509131,-2.302251 1.509131,-3.76732 0,-0.749058 -0.143202,-1.476085 -0.418591,-2.214127 0.859213,-1.057493 1.277805,-2.291236 1.277805,-3.690211 0,-0.782105 -0.154218,-1.520148 -0.451638,-2.2361588 C 23.074403,8.9304271 22.655812,8.3245715 22.13808,7.8068403 21.620349,7.2891092 21.003478,6.8815336 20.298483,6.573098 19.593487,6.2646625 18.833414,6.1104447 18.051309,6.1104447 c -1.696396,0 -3.117402,0.6389022 -4.252005,1.9167068 C 12.81892,7.542467 11.805489,7.3001247 10.781042,7.3001247 c -1.5531936,0 -2.9301381,0.4846845 -4.1198182,1.4430379 -1.1896801,0.9583534 -1.9497535,2.2031114 -2.2912357,3.7232584 -1.2337423,0.286405 -2.2471735,0.914291 -3.029278,1.905691 -0.78210452,0.9914 -1.16764899,2.126003 -1.16764899,3.403807 z m 5.89332259,7.743936 c 0,0.187265 0.055078,0.374529 0.1762489,0.561794 0.1211712,0.187264 0.2974201,0.308435 0.5177312,0.385544 0.2533578,0.07711 0.4957,0.06609 0.7049956,-0.04406 0.2203111,-0.09914 0.3635133,-0.308436 0.4406222,-0.616871 l 0.1542178,-0.671951 c 0.055078,-0.253358 0.022031,-0.484685 -0.1101555,-0.69398 -0.1321867,-0.220311 -0.3194512,-0.363514 -0.572809,-0.440623 -0.2533578,-0.07711 -0.4846844,-0.04406 -0.7049956,0.08813 -0.2203111,0.132187 -0.3524978,0.319451 -0.4185911,0.572809 l -0.1542178,0.649918 c -0.022031,0.06609 -0.033047,0.132186 -0.033047,0.209295 z m 0.8481979,-3.194511 c 0,0.242342 0.088124,0.451638 0.2643733,0.627887 0.1762489,0.19828 0.3855445,0.286404 0.6168712,0.286404 0.2643733,0 0.4846845,-0.08812 0.6609334,-0.264373 0.1872644,-0.176249 0.2753889,-0.385545 0.2753889,-0.649918 0,-0.253358 -0.088125,-0.473669 -0.2753889,-0.649918 -0.1872645,-0.176249 -0.4075756,-0.264373 -0.6609334,-0.264373 -0.2533578,0 -0.4626534,0.08812 -0.6389023,0.253358 -0.1762489,0.165233 -0.2423422,0.407575 -0.2423422,0.660933 z m 0.6719489,-2.500531 c -0.011016,0.176249 0.033047,0.341482 0.1432022,0.4957 0.1101556,0.165233 0.2864045,0.275389 0.5287467,0.352497 0.2313267,0.06609 0.4516379,0.04406 0.6829645,-0.07711 0.2313267,-0.121172 0.3855445,-0.308436 0.4626534,-0.561794 l 0.29742,-0.9914 c 0.077109,-0.264371 0.055078,-0.506713 -0.077109,-0.716009 -0.1321867,-0.209296 -0.3304667,-0.352498 -0.59484,-0.429607 -0.2423423,-0.07711 -0.4736689,-0.05508 -0.6939801,0.07711 -0.2203111,0.121171 -0.3745289,0.308436 -0.4516378,0.550778 l -0.2643733,1.013431 c -0.022031,0.176249 -0.033047,0.275389 -0.033047,0.286405 z m 1.266789,9.131896 c 0,0.187264 0.055078,0.363513 0.1762489,0.539762 0.1211711,0.176249 0.29742,0.29742 0.5397622,0.363513 0.09914,0.02203 0.1872645,0.03305 0.2643734,0.03305 0.473669,0 0.771089,-0.220311 0.881245,-0.671949 l 0.143202,-0.649918 c 0.06609,-0.286404 0.03305,-0.528746 -0.08813,-0.749057 -0.121171,-0.220312 -0.319451,-0.352498 -0.572809,-0.407576 -0.2313263,-0.07711 -0.462653,-0.05508 -0.6939797,0.07711 -0.2313267,0.132187 -0.3745289,0.319451 -0.4516378,0.561793 l -0.1542178,0.660934 c -0.033047,0.121171 -0.044062,0.209295 -0.044062,0.242342 z M 9.4701906,4.2378001 c 0,0.2643733 0.088125,0.4846845 0.2643734,0.6609334 l 0.727027,0.7049956 c 0.154218,0.1762489 0.352498,0.2643733 0.59484,0.2864044 0.242342,0.022031 0.473669,-0.077109 0.682964,-0.2864044 0.176249,-0.1762489 0.264374,-0.3965601 0.264374,-0.6499178 0,-0.2643734 -0.08812,-0.4846845 -0.264374,-0.6609334 L 11.045415,3.5768667 C 10.880182,3.4006178 10.659871,3.3124934 10.406513,3.2904623 c -0.253358,0 -0.473669,0.088124 -0.6609335,0.2753889 C 9.5693306,3.7531156 9.4701906,3.9734267 9.4701906,4.2378001 Z M 9.7235484,25.762198 c 0,0.253357 0.088125,0.462653 0.2643734,0.638902 0.1762492,0.176249 0.3965602,0.264373 0.6389022,0.264373 0.264373,0 0.473669,-0.08812 0.649918,-0.253358 0.176249,-0.176249 0.253358,-0.385544 0.253358,-0.649917 0,-0.253358 -0.08812,-0.462654 -0.253358,-0.638903 -0.176249,-0.176249 -0.385545,-0.253358 -0.649918,-0.253358 -0.264373,0 -0.473669,0.08812 -0.6499178,0.253358 -0.1762489,0.165234 -0.2533578,0.385545 -0.2533578,0.638903 z m 0.6829646,-2.500532 c -0.01102,0.165234 0.03305,0.341482 0.154218,0.517731 0.110155,0.176249 0.275389,0.286405 0.4957,0.330467 0.253358,0.06609 0.484684,0.04406 0.704995,-0.06609 0.220312,-0.110156 0.363514,-0.319451 0.451638,-0.616871 l 0.286405,-0.9914 c 0.07711,-0.242343 0.05508,-0.473669 -0.07711,-0.693981 -0.132187,-0.220311 -0.319451,-0.363513 -0.583825,-0.440622 -0.242342,-0.07711 -0.473669,-0.04406 -0.704995,0.08813 -0.231327,0.132186 -0.374529,0.330466 -0.451638,0.583824 l -0.242342,0.9914 c -0.02203,0.08813 -0.03305,0.187265 -0.03305,0.29742 z m 3.040294,2.368345 c 0,0.187264 0.05508,0.363513 0.165233,0.528747 0.110155,0.165233 0.275389,0.286404 0.506715,0.352497 0.03305,0 0.08812,0.01102 0.154218,0.02203 0.06609,0.01102 0.121171,0.02203 0.154218,0.02203 0.451638,0 0.727027,-0.242343 0.837182,-0.727027 l 0.154218,-0.660934 c 0.07711,-0.231326 0.05508,-0.462653 -0.07711,-0.69398 -0.132186,-0.231326 -0.319451,-0.374528 -0.561793,-0.451637 -0.275389,-0.06609 -0.528747,-0.04406 -0.749058,0.08812 -0.220311,0.132187 -0.374529,0.319451 -0.451638,0.583825 l -0.09914,0.649917 c 0,0.01102 0,0.05508 -0.01102,0.121171 -0.01102,0.07711 -0.02203,0.121172 -0.02203,0.165234 z m 0.815151,-3.260605 c 0,0.253358 0.08812,0.462654 0.264373,0.627887 0.165233,0.176249 0.374529,0.264373 0.638902,0.264373 0.264374,0 0.473669,-0.08812 0.649918,-0.253358 0.176249,-0.176248 0.253358,-0.385544 0.253358,-0.638902 0,-0.264373 -0.08812,-0.473669 -0.253358,-0.649918 -0.176249,-0.176249 -0.385544,-0.253357 -0.649918,-0.253357 -0.264373,0 -0.473669,0.08812 -0.649917,0.253357 -0.176249,0.165234 -0.253358,0.385545 -0.253358,0.649918 z m 0.671949,-2.544593 c 0,0.187264 0.05508,0.363513 0.176249,0.528746 0.121171,0.165234 0.29742,0.286405 0.539762,0.352498 0.02203,0 0.06609,0.01102 0.132186,0.02203 0.06609,0.01102 0.121172,0.02203 0.154218,0.02203 0.121171,0 0.253358,-0.03305 0.407576,-0.09914 0.231327,-0.121171 0.374529,-0.308435 0.440622,-0.572809 l 0.264373,-0.9914 c 0.06609,-0.253357 0.04406,-0.484684 -0.07711,-0.69398 -0.121172,-0.209295 -0.308436,-0.363513 -0.550778,-0.440622 -0.253358,-0.07711 -0.4957,-0.05508 -0.704996,0.06609 -0.220311,0.121172 -0.363513,0.29742 -0.440622,0.561794 l -0.308436,1.002415 c 0,0.02203 0,0.05508 -0.01102,0.121172 -0.01102,0.03305 -0.02203,0.07711 -0.02203,0.121171 z M 15.319451,9.1176915 c 0.727027,-0.7270267 1.630302,-1.09054 2.720843,-1.09054 1.09054,0 2.015846,0.3745289 2.77592,1.1235867 0.760073,0.7490578 1.145618,1.6523338 1.145618,2.7318588 0,0.727026 -0.19828,1.421006 -0.583825,2.070924 -1.079524,-1.079524 -2.368345,-1.619287 -3.855445,-1.619287 H 17.18108 c -0.308435,-1.211711 -0.936322,-2.28022 -1.861629,-3.2165425 z m 1.817567,-5.7941826 c 0,0.2533578 0.08812,0.4626534 0.253358,0.6389023 0.165233,0.1652333 0.385544,0.2533578 0.649918,0.2533578 0.264373,0 0.4957,-0.088125 0.682964,-0.2533578 0.187264,-0.1652334 0.275389,-0.3855445 0.275389,-0.6389023 V 1.0432887 c 0,-0.25335777 -0.09914,-0.4736689 -0.286405,-0.66093335 -0.187264,-0.18726446 -0.418591,-0.27538891 -0.671948,-0.27538891 -0.253358,0 -0.473669,0.0881244 -0.638903,0.27538891 -0.176249,0.18726445 -0.253358,0.40757558 -0.253358,0.66093335 v 2.2802202 z m 6.080587,2.4895157 c 0,0.275389 0.08812,0.4957001 0.253358,0.6609334 0.39656,0.39656 0.837182,0.39656 1.332882,0 L 26.37907,4.8987335 c 0.187264,-0.1872645 0.275389,-0.4185912 0.275389,-0.6939801 0,-0.2643733 -0.08813,-0.4846845 -0.275389,-0.6609334 -0.187265,-0.1872644 -0.407576,-0.2753889 -0.660934,-0.2753889 -0.253358,0 -0.473669,0.088125 -0.671949,0.2643734 l -1.575224,1.6303023 c -0.165234,0.1652334 -0.253358,0.3745289 -0.253358,0.6499178 z m 0.859213,13.0534344 c 0,0.253358 0.09914,0.473669 0.29742,0.649918 l 0.671949,0.69398 c 0.220311,0.176249 0.440623,0.264373 0.671949,0.264373 0.220311,0 0.440623,-0.08812 0.660934,-0.264373 0.187264,-0.176249 0.275389,-0.385544 0.275389,-0.649918 0,-0.253357 -0.08813,-0.473669 -0.275389,-0.682964 l -0.716011,-0.671949 c -0.165234,-0.187265 -0.374529,-0.275389 -0.627887,-0.275389 -0.253358,0 -0.473669,0.08812 -0.660934,0.275389 -0.19828,0.187264 -0.29742,0.407575 -0.29742,0.660933 z m 1.630303,-6.983862 c 0,0.264373 0.09914,0.473668 0.286404,0.649917 0.19828,0.19828 0.429607,0.29742 0.682965,0.29742 h 2.236158 c 0.253357,0 0.473669,-0.08812 0.649917,-0.275388 0.176249,-0.187265 0.264374,-0.407576 0.264374,-0.671949 0,-0.264374 -0.08813,-0.484685 -0.264374,-0.660934 -0.176248,-0.187264 -0.385544,-0.275389 -0.649917,-0.275389 H 26.67649 c -0.264374,0 -0.484685,0.08812 -0.682965,0.275389 -0.19828,0.187265 -0.286404,0.407576 -0.286404,0.660934 z"
   id="path2"
   style="stroke-width:1.10156" />
</svg>
