<?xml version="1.0" encoding="UTF-8" standalone="no"?>
<!-- Generator: Adobe Illustrator 22.0.1, SVG Export Plug-In . SVG Version: 6.00 Build 0)  -->

<svg
   version="1.1"
   id="Layer_1"
   x="0px"
   y="0px"
   viewBox="0 0 30 30"
   style="enable-background:new 0 0 30 30;"
   xml:space="preserve"
   sodipodi:docname="day-snow-wind-symbolic.svg"
   inkscape:version="1.2.2 (b0a8486541, 2022-12-01)"
   xmlns:inkscape="http://www.inkscape.org/namespaces/inkscape"
   xmlns:sodipodi="http://sodipodi.sourceforge.net/DTD/sodipodi-0.dtd"
   xmlns="http://www.w3.org/2000/svg"
   xmlns:svg="http://www.w3.org/2000/svg"><defs
   id="defs7" /><sodipodi:namedview
   id="namedview5"
   pagecolor="#ffffff"
   bordercolor="#666666"
   borderopacity="1.0"
   inkscape:showpageshadow="2"
   inkscape:pageopacity="0.0"
   inkscape:pagecheckerboard="0"
   inkscape:deskcolor="#d1d1d1"
   showgrid="false"
   inkscape:zoom="29.233333"
   inkscape:cx="14.982896"
   inkscape:cy="9.5096921"
   inkscape:window-width="1920"
   inkscape:window-height="1014"
   inkscape:window-x="1080"
   inkscape:window-y="470"
   inkscape:window-maximized="1"
   inkscape:current-layer="Layer_1" />
<path
   d="m 0.04766424,18.086287 c 0,0.958197 0.23397842,1.860685 0.7130771,2.685181 0.46795686,0.824495 1.11418296,1.493005 1.93867846,1.994387 0.8133535,0.501383 1.7158417,0.768787 2.6740391,0.79107 0.1225601,0 0.1894111,-0.06685 0.1894111,-0.189411 v -1.481863 c 0,-0.133702 -0.066851,-0.211695 -0.1894111,-0.211695 C 4.4264034,21.629389 3.6130498,21.250566 2.94454,20.537489 2.2760302,19.824412 1.9417753,19.011059 1.9417753,18.075145 c 0,-0.91363 0.3119713,-1.715842 0.9470556,-2.406635 0.6350843,-0.679652 1.4038705,-1.080758 2.3397842,-1.192176 l 0.590517,-0.06685 c 0.1337019,0 0.2005529,-0.06685 0.2005529,-0.211695 L 6.10882,13.629556 C 6.2313798,12.415095 6.7327621,11.401189 7.6241085,10.587835 8.5154549,9.7744818 9.5739287,9.373376 10.79953,9.373376 c 1.21446,0 2.272933,0.4011058 3.175422,1.214459 0.91363,0.813354 1.426154,1.816119 1.537572,3.008294 l 0.07799,0.646227 c 0,0.12256 0.06685,0.189411 0.189411,0.189411 h 1.793835 c 1.002764,0 1.860685,0.356538 2.573762,1.069615 0.713077,0.713077 1.069616,1.559857 1.069616,2.551479 0,0.935914 -0.334255,1.749268 -1.002765,2.462345 -0.668509,0.701935 -1.481863,1.080757 -2.417777,1.136466 -0.133702,0 -0.211694,0.06685 -0.211694,0.211695 v 1.481863 c 0,0.122561 0.06685,0.189412 0.211694,0.189412 1.481864,-0.04457 2.729749,-0.601659 3.765939,-1.671275 1.03619,-1.069616 1.548714,-2.328642 1.548714,-3.799364 0,-0.846779 -0.155986,-1.593281 -0.479099,-2.261791 0.835638,-1.03619 1.281311,-2.261792 1.281311,-3.65452 0,-1.047332 -0.256262,-2.016672 -0.779928,-2.908018 C 22.60987,8.3483276 21.896793,7.6352505 21.005446,7.1115845 20.1141,6.5879185 19.133619,6.3316565 18.086287,6.3316565 c -1.715842,0 -3.153138,0.6462261 -4.311888,1.9275365 -0.902488,-0.4902405 -1.905253,-0.7353608 -2.997152,-0.7353608 -1.5709987,0 -2.9525856,0.4902405 -4.167045,1.4595797 C 5.3957426,9.9527511 4.6269563,11.200636 4.2815596,12.704783 3.0336746,13.016754 2.0197681,13.66298 1.2286982,14.654603 0.43762827,15.657368 0.04766423,16.793835 0.04766424,18.086287 Z M 6.153387,26.643212 c 0,0.233979 0.089135,0.445673 0.2674039,0.635084 0.2005529,0.17827 0.4122477,0.267404 0.6462261,0.267404 0.2674039,0 0.4790987,-0.08913 0.657368,-0.256262 0.1782692,-0.178269 0.2562621,-0.389964 0.2562621,-0.646226 0,-0.267404 -0.089135,-0.479099 -0.267404,-0.657368 -0.1782692,-0.178269 -0.389964,-0.256262 -0.6573679,-0.256262 -0.2674039,0 -0.4790987,0.08913 -0.657368,0.256262 -0.1559856,0.167128 -0.2451202,0.389964 -0.2451202,0.657368 z m 0.9581973,-4.044484 c 0,0.267404 0.089135,0.49024 0.2674039,0.679652 0.1782693,0.189411 0.3899641,0.278545 0.657368,0.278545 0.2562621,0 0.4790987,-0.08913 0.657368,-0.278545 0.1782692,-0.189412 0.2674039,-0.412248 0.2674039,-0.679652 0,-0.256262 -0.089135,-0.467957 -0.2674039,-0.646226 -0.1782693,-0.17827 -0.3899641,-0.267404 -0.657368,-0.267404 -0.2562621,0 -0.4790987,0.08913 -0.657368,0.267404 -0.1782692,0.178269 -0.2674039,0.401106 -0.2674039,0.646226 z m 2.1169477,6.217141 c 0,0.24512 0.089135,0.456815 0.2674039,0.635084 0.1894111,0.189411 0.4011059,0.278546 0.6462261,0.278546 0.267404,0 0.490241,-0.08914 0.66851,-0.256262 0.189411,-0.178269 0.278546,-0.389964 0.278546,-0.657368 0,-0.267404 -0.08914,-0.490241 -0.278546,-0.66851 -0.189411,-0.189411 -0.412248,-0.278546 -0.66851,-0.278546 -0.2451202,0 -0.456815,0.08913 -0.6462261,0.278546 C 9.3176666,28.33677 9.228532,28.559607 9.228532,28.815869 Z M 9.3956594,4.4375454 c 0,0.2674039 0.089135,0.4902405 0.2674039,0.6573679 l 0.7353607,0.7353608 c 0.17827,0.1782693 0.378823,0.2785458 0.590517,0.2785458 0.233979,0.033425 0.456815,-0.044567 0.679652,-0.2451203 0.222836,-0.2005529 0.334255,-0.4345314 0.334255,-0.7019353 0,-0.2674039 -0.08914,-0.5125241 -0.267404,-0.7130771 L 11.022367,3.7690356 C 10.855239,3.5796245 10.643545,3.4904899 10.376141,3.4904899 c -0.278546,0 -0.5125247,0.089135 -0.7019358,0.2785457 C 9.4847941,3.9473049 9.3956594,4.1701415 9.3956594,4.4375454 Z M 10.175588,24.737959 c 0,0.24512 0.08913,0.467957 0.278545,0.66851 0.17827,0.178269 0.389965,0.267404 0.635085,0.267404 0.267404,0 0.49024,-0.08913 0.679651,-0.267404 0.189411,-0.178269 0.278546,-0.401106 0.278546,-0.66851 0,-0.256262 -0.08914,-0.479098 -0.278546,-0.66851 -0.189411,-0.189411 -0.412247,-0.278545 -0.679651,-0.278545 -0.24512,0 -0.467957,0.08913 -0.646226,0.278545 -0.17827,0.189412 -0.267404,0.412248 -0.267404,0.66851 z M 10.654686,20.7269 c 0,0.256263 0.08914,0.467957 0.267404,0.646227 0.17827,0.178269 0.401106,0.267404 0.646226,0.267404 0.267404,0 0.490241,-0.08913 0.66851,-0.267404 0.189411,-0.17827 0.278546,-0.389964 0.278546,-0.657368 0,-0.256262 -0.08913,-0.479099 -0.278546,-0.657368 -0.189411,-0.17827 -0.412247,-0.267404 -0.66851,-0.267404 -0.256262,0 -0.467956,0.08913 -0.646226,0.267404 -0.178269,0.178269 -0.267404,0.412247 -0.267404,0.668509 z m 2.640614,5.916312 c 0,0.233979 0.08914,0.445673 0.256262,0.635084 0.189411,0.17827 0.42339,0.267404 0.66851,0.267404 0.267404,0 0.479099,-0.08913 0.657368,-0.256262 0.178269,-0.178269 0.256262,-0.389964 0.256262,-0.646226 0,-0.267404 -0.08913,-0.479099 -0.256262,-0.657368 -0.178269,-0.178269 -0.389964,-0.256262 -0.657368,-0.256262 -0.267404,0 -0.490241,0.08913 -0.66851,0.267404 -0.178269,0.178269 -0.256262,0.389964 -0.256262,0.646226 z m 0.947056,-4.044484 c 0,0.267404 0.08913,0.49024 0.267403,0.679652 0.17827,0.189411 0.401106,0.278545 0.657368,0.278545 0.256263,0 0.479099,-0.08913 0.657368,-0.278545 0.17827,-0.189412 0.267404,-0.412248 0.267404,-0.679652 0,-0.256262 -0.08913,-0.467957 -0.267404,-0.646226 -0.178269,-0.17827 -0.389964,-0.267404 -0.657368,-0.267404 -0.267403,0 -0.479098,0.08913 -0.657368,0.267404 -0.178269,0.178269 -0.267403,0.401106 -0.267403,0.646226 z M 15.334255,9.3176668 c 0.768786,-0.7353607 1.682416,-1.1030411 2.752032,-1.1030411 1.080757,0 2.005529,0.389964 2.763174,1.1587503 0.768786,0.768786 1.147608,1.7047 1.147608,2.774316 0,0.690793 -0.189411,1.381586 -0.568233,2.050096 -1.058474,-1.069615 -2.350926,-1.604423 -3.866215,-1.604423 H 17.206082 C 16.871827,11.289771 16.247885,10.197871 15.334255,9.3176668 Z m 1.782693,-5.8160351 c 0,0.2562621 0.08913,0.4790987 0.278545,0.6462261 0.189412,0.1671275 0.412248,0.2562621 0.679652,0.2562621 0.267404,0 0.479099,-0.089135 0.657368,-0.2562621 0.178269,-0.1782693 0.256262,-0.389964 0.256262,-0.6462261 V 1.2286984 c 0,-0.26740392 -0.08913,-0.49024052 -0.267404,-0.67965162 -0.178269,-0.18941111 -0.378822,-0.27854575 -0.635084,-0.27854575 -0.256262,0 -0.479099,0.10027647 -0.66851,0.28968758 -0.189411,0.1894111 -0.289688,0.4122477 -0.289688,0.66850979 v 2.2729333 z m 6.15029,2.5291953 c 0,0.2562621 0.08913,0.4790987 0.278545,0.657368 0.167128,0.1782693 0.378823,0.2674039 0.623943,0.2896876 0.24512,0.022284 0.479099,-0.077993 0.690793,-0.2896876 l 1.593282,-1.5932817 c 0.200553,-0.2005529 0.289688,-0.4233895 0.289688,-0.6796516 0,-0.2674039 -0.100277,-0.4902405 -0.289688,-0.6796516 -0.189411,-0.1894111 -0.412248,-0.2785457 -0.66851,-0.2785457 -0.24512,0 -0.456815,0.089135 -0.646226,0.2785457 L 23.545783,5.3623173 C 23.356372,5.5405865 23.267238,5.7634231 23.267238,6.030827 Z m 0.891346,13.147359 c 0,0.278546 0.08913,0.512524 0.267404,0.690794 l 0.713077,0.701935 c 0.267404,0.178269 0.512524,0.267404 0.713077,0.267404 0.233979,0 0.434532,-0.100277 0.623943,-0.289688 0.189411,-0.189411 0.278545,-0.423389 0.278545,-0.679651 0,-0.256262 -0.100276,-0.467957 -0.289687,-0.646227 l -0.690794,-0.724218 c -0.200553,-0.17827 -0.423389,-0.267404 -0.679651,-0.267404 -0.256262,0 -0.479099,0.08913 -0.657368,0.278545 -0.189411,0.17827 -0.278546,0.401106 -0.278546,0.66851 z m 1.615565,-7.030494 c 0,0.267403 0.100277,0.479098 0.289688,0.657368 0.189411,0.200552 0.423389,0.300829 0.690793,0.300829 h 2.25065 c 0.256262,0 0.479099,-0.08913 0.66851,-0.278546 0.189411,-0.189411 0.278546,-0.412248 0.278546,-0.679651 0,-0.267404 -0.08913,-0.490241 -0.278546,-0.66851 -0.189411,-0.178269 -0.412248,-0.278546 -0.66851,-0.278546 h -2.25065 c -0.267404,0 -0.49024,0.08914 -0.690793,0.278546 -0.200553,0.189411 -0.289688,0.412247 -0.289688,0.66851 z"
   id="path2"
   style="stroke-width:1.11418" />
</svg>
