<?xml version="1.0" encoding="UTF-8" standalone="no"?>
<!-- Generator: Adobe Illustrator 22.0.1, SVG Export Plug-In . SVG Version: 6.00 Build 0)  -->

<svg
   version="1.1"
   id="Layer_1"
   x="0px"
   y="0px"
   viewBox="0 0 30 30"
   style="enable-background:new 0 0 30 30;"
   xml:space="preserve"
   sodipodi:docname="day-thunderstorm-symbolic.svg"
   inkscape:version="1.2.2 (b0a8486541, 2022-12-01)"
   xmlns:inkscape="http://www.inkscape.org/namespaces/inkscape"
   xmlns:sodipodi="http://sodipodi.sourceforge.net/DTD/sodipodi-0.dtd"
   xmlns="http://www.w3.org/2000/svg"
   xmlns:svg="http://www.w3.org/2000/svg"><defs
   id="defs7" /><sodipodi:namedview
   id="namedview5"
   pagecolor="#ffffff"
   bordercolor="#666666"
   borderopacity="1.0"
   inkscape:showpageshadow="2"
   inkscape:pageopacity="0.0"
   inkscape:pagecheckerboard="0"
   inkscape:deskcolor="#d1d1d1"
   showgrid="false"
   inkscape:zoom="29.233333"
   inkscape:cx="14.982896"
   inkscape:cy="12.246294"
   inkscape:window-width="1920"
   inkscape:window-height="1014"
   inkscape:window-x="1080"
   inkscape:window-y="470"
   inkscape:window-maximized="1"
   inkscape:current-layer="Layer_1" />
<path
   d="m 0.09302393,18.003521 c 0,1.227958 0.3650688,2.312102 1.08414377,3.274556 0.7190749,0.962454 1.6704663,1.615153 2.8431116,1.969159 L 3.312267,25.127894 c -0.044251,0.154877 0,0.232316 0.1548777,0.232316 h 2.3563532 l -1.3828364,4.369763 h 0.3208181 l 4.6131421,-5.96279 c 0.044251,-0.04425 0.044251,-0.09957 0.011063,-0.154878 -0.022125,-0.05531 -0.077439,-0.07744 -0.1548777,-0.07744 H 6.8302028 L 9.5626875,18.41284 c 0.077439,-0.154877 0.022125,-0.243379 -0.1548777,-0.243379 H 6.1553786 c -0.099564,0 -0.1880657,0.05531 -0.2544419,0.154878 L 4.7172288,21.510394 C 3.9317777,21.311265 3.279079,20.87982 2.7591325,20.227122 2.239186,19.574423 1.9847441,18.833222 1.9847441,18.003521 c 0,-0.918204 0.3097554,-1.714717 0.9403288,-2.400604 0.6305733,-0.685887 1.4049617,-1.073081 2.3231651,-1.183708 l 0.5752599,-0.06638 c 0.143815,0 0.2212538,-0.06638 0.2212538,-0.199129 l 0.066376,-0.564197 c 0.1216896,-1.194771 0.6305734,-2.201476 1.5266513,-3.009052 0.896078,-0.8075765 1.9580963,-1.2168961 3.16393,-1.2168961 1.205833,0 2.256789,0.4093196 3.152867,1.2168961 0.896078,0.807576 1.416024,1.814281 1.548776,3.009052 l 0.06638,0.641636 c 0,0.12169 0.06638,0.188066 0.199128,0.188066 h 1.781093 c 1.006705,0 1.858532,0.354006 2.566545,1.050955 0.708012,0.69695 1.062018,1.537714 1.062018,2.533357 0,0.940328 -0.331881,1.758967 -0.98458,2.444854 -0.652698,0.685887 -1.460275,1.073081 -2.422729,1.15052 -0.143815,0 -0.221254,0.06638 -0.221254,0.199129 v 1.515588 c 0,0.12169 0.07744,0.188066 0.221254,0.188066 1.471338,-0.04425 2.721422,-0.608448 3.750252,-1.670466 1.028831,-1.062019 1.537714,-2.334228 1.537714,-3.816629 0,-0.818639 -0.154877,-1.559839 -0.475695,-2.223601 0.873952,-1.062018 1.305397,-2.278914 1.305397,-3.672813 0,-1.039893 -0.265504,-2.002347 -0.785451,-2.8984251 C 22.583475,8.323666 21.875462,7.6156537 20.979384,7.0957073 20.083307,6.5757608 19.120852,6.3102562 18.080959,6.3102562 c -1.703654,0 -3.141804,0.6416361 -4.292324,1.9138456 -0.896078,-0.4756958 -1.89172,-0.719075 -2.986926,-0.719075 -1.5598396,0 -2.9537386,0.4867584 -4.159572,1.4492126 C 5.4363037,9.9166935 4.6619153,11.155715 4.3189719,12.671304 3.0910132,12.958934 2.0843083,13.589507 1.2988573,14.585149 0.51340619,15.580791 0.09302393,16.731311 0.09302393,18.003521 Z M 9.042741,28.601579 c -0.011063,0.16594 0.033188,0.33188 0.1548777,0.486758 0.1216896,0.154878 0.2876299,0.276567 0.5088837,0.365069 0.077439,0.02212 0.1548777,0.03319 0.2323166,0.03319 0.188066,0 0.376131,-0.05531 0.564197,-0.16594 0.188066,-0.110627 0.309755,-0.28763 0.376132,-0.519947 l 2.533356,-9.480726 c 0.06638,-0.254442 0.04425,-0.497821 -0.07744,-0.708012 -0.12169,-0.221254 -0.298693,-0.365069 -0.542072,-0.442508 -0.254442,-0.07744 -0.497821,-0.05531 -0.719075,0.07744 -0.221254,0.121689 -0.376131,0.309755 -0.442507,0.564197 l -2.5554819,9.513914 c -0.022125,0.07744 -0.033188,0.177003 -0.033188,0.276568 z M 9.4078098,4.4295987 c 0,0.2655046 0.088501,0.4756957 0.2765673,0.6526988 l 0.7080119,0.7301376 c 0.188066,0.1880658 0.40932,0.2765673 0.674824,0.28763 0.265505,0 0.475696,-0.088501 0.630574,-0.28763 0.210191,-0.1659404 0.309755,-0.3871942 0.309755,-0.6637614 0,-0.2655046 -0.0885,-0.4756958 -0.276567,-0.6526988 L 11.034025,3.7658373 C 10.84596,3.5888342 10.613643,3.5003327 10.359201,3.5003327 c -0.276567,0 -0.5088836,0.088502 -0.6858866,0.2655046 C 9.4963113,3.9428403 9.4078098,4.1640942 9.4078098,4.4295987 Z M 13.64482,25.227458 c 0,0.132752 0.04425,0.265504 0.12169,0.420382 0.143815,0.221254 0.320818,0.376132 0.553135,0.475696 0.07744,0.03319 0.188065,0.05531 0.33188,0.05531 0.165941,0 0.28763,-0.02212 0.365069,-0.06638 0.221254,-0.0885 0.376132,-0.309755 0.45357,-0.641636 l 1.648341,-6.139793 c 0.06638,-0.265505 0.04425,-0.497822 -0.07744,-0.719075 -0.121689,-0.210192 -0.309755,-0.354006 -0.564197,-0.431445 -0.254442,-0.07744 -0.497821,-0.05531 -0.708012,0.07744 -0.221254,0.121689 -0.365069,0.309755 -0.431445,0.564197 l -1.659404,6.150856 c 0,0.02212 -0.01106,0.06638 -0.02212,0.12169 -0.01106,0.06638 -0.01106,0.09956 -0.01106,0.132752 z M 15.337412,9.3082455 c 0.7412,-0.7080123 1.648341,-1.0730811 2.743547,-1.0730811 1.073081,0 2.002348,0.3761315 2.765673,1.1283945 0.763326,0.7522631 1.15052,1.6704661 1.15052,2.7435471 0,0.685887 -0.188066,1.371774 -0.57526,2.046598 C 20.326686,13.06956 19.032351,12.527489 17.54995,12.527489 H 17.207007 C 16.864063,11.233154 16.23349,10.160073 15.337412,9.3082455 Z m 1.781093,-5.8079128 c 0,0.2544419 0.09956,0.4756957 0.28763,0.6637615 0.188066,0.1880657 0.40932,0.2876299 0.663762,0.2876299 0.265504,0 0.475695,-0.088502 0.652699,-0.2765673 0.177003,-0.1880657 0.254441,-0.4093195 0.254441,-0.6748241 V 1.2214184 c 0,-0.2655046 -0.0885,-0.48675842 -0.254441,-0.67482417 -0.165941,-0.18806575 -0.387195,-0.27656728 -0.652699,-0.27656728 -0.254442,0 -0.475696,0.0885015 -0.663762,0.27656728 -0.188065,0.18806575 -0.28763,0.40931957 -0.28763,0.67482417 z m 6.117668,2.5222935 c 0,0.2655046 0.09957,0.4867584 0.28763,0.6637615 0.154878,0.1880657 0.365069,0.2765673 0.630574,0.2765673 0.265504,0 0.486758,-0.088502 0.663761,-0.2765673 l 1.593028,-1.6040902 c 0.188066,-0.1770031 0.28763,-0.3871942 0.28763,-0.6526988 0,-0.2655045 -0.0885,-0.4867584 -0.276568,-0.6748241 -0.188065,-0.1880658 -0.409319,-0.2765673 -0.674824,-0.2765673 -0.243379,0 -0.45357,0.099564 -0.630573,0.28763 l -1.593028,1.5930275 c -0.188065,0.177003 -0.28763,0.3982569 -0.28763,0.6637614 z m 0.896078,13.1203518 c 0,0.243379 0.0885,0.464633 0.265505,0.663761 l 0.730138,0.69695 c 0.132752,0.154877 0.342943,0.254442 0.597385,0.265504 l 0.01106,0.01106 c 0.01106,0 0.03319,0 0.05531,0 0.02212,0 0.03319,0 0.05531,0 0.210191,0 0.398256,-0.09956 0.586322,-0.28763 0.188066,-0.177003 0.28763,-0.398257 0.28763,-0.663761 0,-0.254442 -0.09956,-0.475696 -0.28763,-0.674825 l -0.719075,-0.674824 c -0.177003,-0.199128 -0.398257,-0.298692 -0.641636,-0.298692 -0.254442,0 -0.475696,0.0885 -0.663761,0.276567 -0.188066,0.199128 -0.276568,0.431445 -0.276568,0.685887 z m 1.604091,-7.024809 c 0,0.254442 0.09956,0.475696 0.298692,0.663761 0.199129,0.199129 0.420383,0.298693 0.674824,0.298693 h 2.245727 c 0.254442,0 0.475695,-0.09956 0.663761,-0.28763 0.188066,-0.188066 0.28763,-0.420382 0.28763,-0.674824 0,-0.254442 -0.0885,-0.475696 -0.276567,-0.652699 -0.188066,-0.177003 -0.40932,-0.265504 -0.674824,-0.265504 h -2.245727 c -0.276567,0 -0.508883,0.0885 -0.696949,0.265504 -0.188066,0.177003 -0.276567,0.398257 -0.276567,0.652699 z"
   id="path2"
   style="stroke-width:1.10627" />
</svg>
