<?xml version="1.0" encoding="UTF-8" standalone="no"?>
<!-- Generator: Adobe Illustrator 22.0.1, SVG Export Plug-In . SVG Version: 6.00 Build 0)  -->

<svg
   version="1.1"
   id="Layer_1"
   x="0px"
   y="0px"
   viewBox="0 0 30 30"
   style="enable-background:new 0 0 30 30;"
   xml:space="preserve"
   sodipodi:docname="day-rain-symbolic.svg"
   inkscape:version="1.2.2 (b0a8486541, 2022-12-01)"
   xmlns:inkscape="http://www.inkscape.org/namespaces/inkscape"
   xmlns:sodipodi="http://sodipodi.sourceforge.net/DTD/sodipodi-0.dtd"
   xmlns="http://www.w3.org/2000/svg"
   xmlns:svg="http://www.w3.org/2000/svg"><defs
   id="defs7" /><sodipodi:namedview
   id="namedview5"
   pagecolor="#ffffff"
   bordercolor="#666666"
   borderopacity="1.0"
   inkscape:showpageshadow="2"
   inkscape:pageopacity="0.0"
   inkscape:pagecheckerboard="0"
   inkscape:deskcolor="#d1d1d1"
   showgrid="false"
   inkscape:zoom="29.233333"
   inkscape:cx="14.982896"
   inkscape:cy="6.7730901"
   inkscape:window-width="1920"
   inkscape:window-height="1014"
   inkscape:window-x="1080"
   inkscape:window-y="470"
   inkscape:window-maximized="1"
   inkscape:current-layer="Layer_1" />
<path
   d="m 0.05115106,17.897792 c 0,1.47383 0.50974577,2.748195 1.54031874,3.812012 1.0305729,1.063817 2.2827745,1.62897 3.7787676,1.695459 0.1218957,0 0.1883843,-0.06649 0.1883843,-0.188385 v -1.484911 c 0,-0.121896 -0.066489,-0.188385 -0.1883843,-0.188385 -0.953003,-0.04433 -1.7619474,-0.432175 -2.4268332,-1.141387 -0.6648858,-0.709211 -0.9973287,-1.5514 -0.9973287,-2.504403 0,-0.908677 0.3102801,-1.70654 0.9419216,-2.393589 0.6316415,-0.687049 1.4073416,-1.074899 2.3271002,-1.185713 l 0.5873158,-0.05541 c 0.1440586,0 0.2216286,-0.06649 0.2216286,-0.188384 l 0.07757,-0.598398 C 6.2235075,12.279507 6.7221718,11.271097 7.6197676,10.462153 8.5173634,9.6532082 9.5700993,9.2431953 10.777975,9.2431953 c 1.207876,0 2.260612,0.4100129 3.169289,1.2189577 0.908677,0.808944 1.418423,1.817354 1.5514,3.014148 l 0.07757,0.631642 c 0,0.132977 0.06649,0.210547 0.188385,0.210547 h 1.795191 c 0.986248,0 1.828436,0.354606 2.548729,1.063817 0.720293,0.709212 1.074899,1.540319 1.074899,2.515485 0,0.964084 -0.332443,1.795192 -0.997329,2.504403 -0.664886,0.709212 -1.47383,1.08598 -2.415752,1.141387 -0.132977,0 -0.210547,0.06649 -0.210547,0.188385 v 1.484911 c 0,0.121896 0.06649,0.188385 0.210547,0.188385 1.473831,-0.04433 2.726032,-0.609479 3.756605,-1.673296 1.030573,-1.074899 1.540319,-2.349263 1.540319,-3.823094 0,-0.797863 -0.15514,-1.540318 -0.46542,-2.227367 0.864351,-1.074899 1.296527,-2.293856 1.296527,-3.667953 0,-1.052736 -0.265954,-2.0279019 -0.786781,-2.9254977 C 22.590779,8.1904595 21.881568,7.4812479 20.983972,6.9604207 20.086376,6.4395935 19.122292,6.1847206 18.080638,6.1847206 c -1.728704,0 -3.158208,0.642723 -4.299595,1.9281688 -0.908678,-0.4875829 -1.906006,-0.7313743 -3.003068,-0.7313743 -1.5624815,0 -2.9587416,0.4875829 -4.1666175,1.4627487 C 5.4034816,9.8194296 4.6277816,11.06055 4.2842572,12.567624 3.0542185,12.855741 2.0458084,13.498464 1.2479454,14.495793 0.45008253,15.493122 0.05115106,16.623427 0.05115106,17.897792 Z m 5.98397204,7.601861 c 0,0.188384 0.055407,0.365687 0.1773029,0.54299 0.1218957,0.177303 0.2991986,0.299198 0.5429901,0.365687 0.1218957,0.02216 0.2216286,0.04433 0.2991986,0.04433 0.4321758,0 0.7202929,-0.23271 0.8532701,-0.709212 l 1.7508659,-6.515885 c 0.07757,-0.265954 0.044326,-0.509745 -0.088651,-0.742455 -0.1329772,-0.23271 -0.3324429,-0.365687 -0.5873158,-0.421095 -0.2437915,-0.07757 -0.4765015,-0.05541 -0.6981301,0.07757 -0.2216286,0.121896 -0.3767686,0.31028 -0.4543386,0.565153 l -1.7508659,6.549125 c -0.022163,0.144059 -0.044326,0.221629 -0.044326,0.243792 z m 2.8922532,3.41308 c 0,0.210547 0.055407,0.398932 0.1662215,0.576235 0.1108143,0.177302 0.2991986,0.288117 0.5762343,0.332442 0.1218958,0.02216 0.2216286,0.04433 0.2881172,0.04433 0.1773027,0 0.3435247,-0.06649 0.4986647,-0.188384 0.15514,-0.132977 0.254873,-0.31028 0.299198,-0.531909 l 2.659544,-9.895717 c 0.06649,-0.254873 0.04433,-0.498664 -0.07757,-0.709211 -0.121896,-0.210547 -0.310281,-0.365687 -0.554072,-0.443257 -0.254873,-0.07757 -0.498664,-0.05541 -0.720293,0.07757 -0.221629,0.121895 -0.376769,0.31028 -0.443257,0.565153 l -2.6595434,9.895716 c -0.022163,0.166222 -0.033244,0.265955 -0.033244,0.277036 z M 9.3927964,4.2787147 c 0,0.2659543 0.088651,0.4875829 0.2770357,0.6759672 l 0.7202929,0.7313744 c 0.210547,0.1662215 0.443257,0.2437915 0.687049,0.2437915 0.23271,0 0.454338,-0.088651 0.642723,-0.2548729 0.188384,-0.1773029 0.288117,-0.3878501 0.288117,-0.6538044 0,-0.2659543 -0.08865,-0.5097458 -0.265954,-0.7092115 L 11.032848,3.5916661 C 10.833382,3.4032818 10.611754,3.3146303 10.367962,3.3146303 c -0.265954,0 -0.4986641,0.099733 -0.6870484,0.2881172 C 9.4925293,3.7911318 9.3927964,4.0238418 9.3927964,4.2787147 Z M 13.52617,25.521816 c 0,0.177303 0.05541,0.354605 0.166221,0.520827 0.110815,0.166221 0.288117,0.288117 0.509746,0.354606 0.121896,0.02216 0.221629,0.04433 0.277036,0.04433 0.188384,0 0.376768,-0.05541 0.54299,-0.166221 0.166221,-0.110814 0.277036,-0.288117 0.332443,-0.54299 l 1.750866,-6.515881 c 0.06649,-0.254873 0.04433,-0.498664 -0.07757,-0.709211 -0.121896,-0.221629 -0.31028,-0.365688 -0.554072,-0.443258 -0.265954,-0.07757 -0.498664,-0.05541 -0.720293,0.07757 -0.221628,0.121896 -0.365687,0.31028 -0.432176,0.565153 l -1.750865,6.549125 c -0.02216,0.166222 -0.04433,0.254873 -0.04433,0.265955 z M 15.332443,9.1877881 c 0.786781,-0.7424558 1.695459,-1.1081429 2.748195,-1.1081429 1.08598,0 2.01682,0.38785 2.770357,1.1524687 0.764619,0.7646186 1.141387,1.6954591 1.141387,2.7925201 0,0.687049 -0.188384,1.374097 -0.576234,2.050065 C 20.341249,12.9998 19.055803,12.467891 17.548729,12.467891 H 17.183042 C 16.883843,11.160283 16.263283,10.074302 15.332443,9.1877881 Z m 1.795192,-5.8177506 c 0,0.2548728 0.08865,0.4765014 0.277035,0.6538043 0.188385,0.1773029 0.410013,0.2659543 0.675968,0.2659543 0.254872,0 0.476501,-0.088651 0.653804,-0.2548728 0.177303,-0.1773029 0.265954,-0.3878501 0.265954,-0.6538044 V 1.0983443 c 0,-0.28811716 -0.08865,-0.52082718 -0.254873,-0.69813006 -0.177303,-0.17730288 -0.38785,-0.26595432 -0.653804,-0.26595432 -0.277036,0 -0.509746,0.0886514 -0.687049,0.27703575 -0.177303,0.18838431 -0.265954,0.4100129 -0.265954,0.68704863 v 2.2716932 z m 6.12803,2.526566 c 0,0.2659543 0.09973,0.4875829 0.299199,0.6538043 0.15514,0.1773029 0.354606,0.2659543 0.609478,0.2881172 0.254873,0.022163 0.487583,-0.07757 0.687049,-0.2881172 l 1.595726,-1.5846444 c 0.199466,-0.1883843 0.288117,-0.4210944 0.288117,-0.6981301 0,-0.2659543 -0.08865,-0.4986644 -0.277036,-0.6759672 -0.188384,-0.1773029 -0.410012,-0.2659544 -0.675967,-0.2659544 -0.23271,0 -0.443257,0.088651 -0.642723,0.2770358 l -1.584644,1.5957259 c -0.199466,0.1883843 -0.299199,0.4210943 -0.299199,0.6981301 z m 0.897596,13.1314945 c 0,0.265954 0.08865,0.498664 0.265954,0.69813 l 0.720293,0.69813 c 0.199466,0.15514 0.421095,0.23271 0.664886,0.23271 l 0.02216,0.02216 c 0.254873,0 0.46542,-0.08865 0.642723,-0.265955 0.177303,-0.177302 0.265954,-0.410012 0.265954,-0.675967 0,-0.265954 -0.09973,-0.476501 -0.288117,-0.642723 l -0.687046,-0.731371 c -0.199465,-0.177303 -0.432175,-0.265954 -0.687048,-0.265954 -0.254873,0 -0.476502,0.08865 -0.653805,0.277035 -0.177302,0.188385 -0.265954,0.38785 -0.265954,0.653805 z m 1.617889,-7.014545 c 0,0.265954 0.09973,0.476501 0.288117,0.653804 0.199466,0.199466 0.421094,0.288117 0.687049,0.288117 h 2.24953 c 0.265954,0 0.487583,-0.08865 0.675967,-0.277036 0.188384,-0.188384 0.277036,-0.410012 0.277036,-0.664885 0,-0.265955 -0.08865,-0.487583 -0.277036,-0.675968 -0.188384,-0.188384 -0.410013,-0.288117 -0.675967,-0.288117 h -2.24953 c -0.265955,0 -0.487583,0.09973 -0.687049,0.288117 -0.199466,0.188385 -0.288117,0.410013 -0.288117,0.675968 z"
   id="path2"
   style="stroke-width:1.10814" />
</svg>
