<?xml version="1.0" encoding="UTF-8" standalone="no"?>
<!-- Generator: Adobe Illustrator 22.0.1, SVG Export Plug-In . SVG Version: 6.00 Build 0)  -->

<svg
   version="1.1"
   id="Layer_1"
   x="0px"
   y="0px"
   viewBox="0 0 30 30"
   style="enable-background:new 0 0 30 30;"
   xml:space="preserve"
   sodipodi:docname="day-sprinkle-symbolic.svg"
   inkscape:version="1.2.2 (b0a8486541, 2022-12-01)"
   xmlns:inkscape="http://www.inkscape.org/namespaces/inkscape"
   xmlns:sodipodi="http://sodipodi.sourceforge.net/DTD/sodipodi-0.dtd"
   xmlns="http://www.w3.org/2000/svg"
   xmlns:svg="http://www.w3.org/2000/svg"><defs
   id="defs7" /><sodipodi:namedview
   id="namedview5"
   pagecolor="#ffffff"
   bordercolor="#666666"
   borderopacity="1.0"
   inkscape:showpageshadow="2"
   inkscape:pageopacity="0.0"
   inkscape:pagecheckerboard="0"
   inkscape:deskcolor="#d1d1d1"
   showgrid="false"
   inkscape:zoom="29.233333"
   inkscape:cx="14.982896"
   inkscape:cy="9.5096921"
   inkscape:window-width="1920"
   inkscape:window-height="1014"
   inkscape:window-x="1080"
   inkscape:window-y="470"
   inkscape:window-maximized="1"
   inkscape:current-layer="Layer_1" />
<path
   d="m 0.05027095,19.895981 c 0,0.96917 0.23393764,1.871501 0.7129528,2.695852 0.46787525,0.835492 1.11398875,1.503885 1.92720055,2.00518 0.8132117,0.501295 1.7044028,0.768652 2.673573,0.813212 0.1336786,0 0.2005179,-0.06684 0.2005179,-0.189378 v -1.481605 c 0,-0.133679 -0.066839,-0.211658 -0.2005179,-0.211658 C 4.4171068,23.483024 3.603895,23.104268 2.9355018,22.391315 2.2671085,21.678363 1.9329119,20.854011 1.9329119,19.884841 c 0,-0.913471 0.3119169,-1.715543 0.9357506,-2.395076 0.6238337,-0.679533 1.4036258,-1.069429 2.3282365,-1.180828 l 0.5792741,-0.03342 c 0.1336787,0 0.2116579,-0.06684 0.2116579,-0.200518 L 6.07695,15.473445 c 0.1225388,-1.203108 0.6238338,-2.205698 1.5150248,-3.018909 0.891191,-0.813212 1.9494803,-1.214248 3.1748682,-1.214248 1.191968,0 2.250257,0.401036 3.163728,1.214248 0.913471,0.813211 1.425905,1.815801 1.559584,3.007769 l 0.07798,0.646114 c 0,0.122539 0.06684,0.189378 0.189378,0.189378 h 1.804662 c 0.98031,0 1.838082,0.356476 2.551034,1.069429 0.724093,0.712953 1.080569,1.548444 1.080569,2.517615 0,0.95803 -0.334196,1.793522 -1.002589,2.506474 -0.668394,0.701813 -1.481605,1.080569 -2.428496,1.136269 -0.133679,0 -0.200518,0.06684 -0.200518,0.211658 v 1.481605 c 0,0.122539 0.06684,0.189378 0.200518,0.189378 0.96917,-0.02228 1.860361,-0.289637 2.673573,-0.802072 0.813212,-0.512435 1.459325,-1.169688 1.927201,-2.00518 0.467875,-0.835491 0.701813,-1.737822 0.701813,-2.706992 0,-0.824352 -0.155959,-1.559585 -0.456736,-2.227978 0.868911,-1.058289 1.292227,-2.283677 1.292227,-3.676163 0,-1.047149 -0.256217,-2.027459 -0.779792,-2.91865 -0.523576,-0.891191 -1.225389,-1.6041442 -2.11658,-2.116579 -0.891191,-0.5235747 -1.860361,-0.7797921 -2.90751,-0.7797921 -1.726683,0 -3.163728,0.6461135 -4.311137,1.9272001 -0.913471,-0.4901546 -1.91606,-0.7352322 -2.996629,-0.7352322 -1.5707246,0 -2.9520707,0.4901551 -4.1663184,1.4593252 -1.2142478,0.96917 -1.9829,2.216838 -2.3282365,3.720723 -1.2253877,0.289637 -2.2391174,0.93575 -3.0300494,1.9272 -0.82435169,1.01373 -1.21424775,2.149998 -1.21424775,3.419946 z m 6.57253365,0.98031 c 0,0.423315 0.1559584,0.790932 0.4678752,1.091709 0.3119169,0.300777 0.6906731,0.445595 1.1251287,0.445595 0.4455955,0 0.8132118,-0.144818 1.1139887,-0.445595 0.300777,-0.300777 0.4455955,-0.657254 0.4455955,-1.091709 0,-0.267358 -0.1336786,-0.646114 -0.389896,-1.113989 C 9.1292793,19.283287 8.8842017,18.91567 8.661404,18.659453 8.4274663,18.414376 8.2715079,18.247277 8.2158085,18.191578 l -0.401036,0.445595 C 7.5139956,18.96023 7.2354984,19.338986 6.9904209,19.784582 6.7453433,20.230177 6.6228046,20.597793 6.6228046,20.876291 Z M 9.3966366,6.2718981 c 0,0.2896371 0.089119,0.5124348 0.2673573,0.6795331 l 0.7240931,0.7352326 c 0.467875,0.3453365 0.91347,0.3453365 1.347926,0 0.178238,-0.2116578 0.267357,-0.4567354 0.267357,-0.7129528 0,-0.2562174 -0.08912,-0.4790151 -0.267357,-0.6572533 L 11.02306,5.592365 C 10.811402,5.4029869 10.588605,5.3138678 10.343527,5.3138678 c -0.267357,0 -0.5012949,0.089119 -0.6795331,0.2784972 C 9.4857557,5.7817431 9.3966366,6.0045408 9.3966366,6.2718981 Z M 9.9313512,25.287686 c 0,0.735233 0.2562178,1.347927 0.7575128,1.838082 0.501294,0.490155 1.113988,0.746372 1.838081,0.746372 0.724093,0 1.336786,-0.256217 1.849221,-0.757512 0.512435,-0.512435 0.757513,-1.113989 0.757513,-1.826942 0,-0.601554 -0.300777,-1.325646 -0.902331,-2.194558 -0.512435,-0.679533 -0.99145,-1.225387 -1.425906,-1.659843 -0.08912,-0.06684 -0.189378,-0.144818 -0.289637,-0.256217 l -0.256217,0.256217 c -0.401036,0.356476 -0.868912,0.913471 -1.414766,1.637564 -0.601554,0.846631 -0.9134708,1.581864 -0.9134708,2.216837 z m 1.6487038,-7.374605 c 0,0.278497 0.111398,0.523574 0.323056,0.724092 0.211658,0.200518 0.467876,0.300777 0.768653,0.300777 0.289637,0 0.534714,-0.100259 0.735232,-0.300777 0.200518,-0.200518 0.300777,-0.445595 0.300777,-0.724092 0,-0.456736 -0.345336,-1.05829 -1.036009,-1.782382 l -0.267358,0.278497 c -0.200518,0.222798 -0.389896,0.479015 -0.556994,0.779792 -0.189378,0.300777 -0.267357,0.534715 -0.267357,0.724093 z m 3.754142,-6.739632 C 16.069429,10.438216 16.9829,10.0706 18.085749,10.0706 c 1.091709,0 2.00518,0.378756 2.773832,1.147408 0.757512,0.768652 1.147408,1.693263 1.147408,2.784972 0,0.657253 -0.189378,1.336787 -0.579274,2.049739 -1.080569,-1.069429 -2.372796,-1.604143 -3.865541,-1.604143 H 17.194558 C 16.871501,13.156349 16.247667,12.06464 15.334197,11.173449 Z m 1.782382,-5.8595812 c 0,0.2673573 0.100259,0.490155 0.289637,0.6795331 0.189378,0.1893781 0.412176,0.2784972 0.668393,0.2784972 0.256217,0 0.479015,-0.089119 0.646113,-0.2784972 C 18.898961,5.8040228 18.97694,5.5812251 18.97694,5.3138678 V 3.0413307 c 0,-0.2673573 -0.08912,-0.4790151 -0.256218,-0.6572533 C 18.553624,2.2058392 18.341966,2.12786 18.085749,2.12786 c -0.256218,0 -0.490155,0.089119 -0.679533,0.2562174 -0.189378,0.1670983 -0.289637,0.389896 -0.289637,0.6572533 z m 6.149218,2.573314 c 0,0.2673573 0.08912,0.4901551 0.278497,0.6572534 0.189378,0.1782382 0.401036,0.2673573 0.623833,0.2673573 0.189379,0 0.423316,-0.089119 0.679534,-0.2673573 l 1.593004,-1.593004 c 0.200517,-0.2005179 0.300776,-0.4344556 0.300776,-0.690673 0,-0.2673573 -0.08912,-0.5012949 -0.278497,-0.6795331 -0.189378,-0.1782382 -0.412176,-0.2673573 -0.679533,-0.2673573 -0.245077,0 -0.456735,0.089119 -0.646113,0.2784972 L 23.544294,7.1853689 C 23.354916,7.374747 23.265797,7.6086846 23.265797,7.8871818 Z m 0.891191,13.1227872 c 0,0.278498 0.08912,0.512435 0.256217,0.712953 l 0.724093,0.646114 c 0.155958,0.200518 0.378756,0.300777 0.657253,0.300777 0.267357,0 0.490155,-0.100259 0.646114,-0.300777 0.200517,-0.178239 0.300776,-0.401036 0.300776,-0.646114 0,-0.245077 -0.100259,-0.456735 -0.300776,-0.646113 l -0.679534,-0.724093 c -0.200518,-0.178238 -0.423315,-0.267357 -0.679533,-0.267357 -0.267357,0 -0.490155,0.08912 -0.668393,0.267357 -0.178238,0.178238 -0.256217,0.401036 -0.256217,0.657253 z m 1.615283,-7.006989 c 0,0.245078 0.08912,0.467875 0.278497,0.646114 0.189379,0.178238 0.423316,0.267357 0.701813,0.267357 h 2.250258 c 0.267357,0 0.490155,-0.08912 0.668393,-0.267357 0.189378,-0.178239 0.278497,-0.389897 0.278497,-0.657254 0,-0.267357 -0.08912,-0.490155 -0.278497,-0.668393 -0.189378,-0.178238 -0.412176,-0.278497 -0.668393,-0.278497 h -2.250258 c -0.267357,0 -0.490155,0.08912 -0.690673,0.278497 -0.200518,0.189378 -0.289637,0.423316 -0.289637,0.679533 z"
   id="path2"
   style="stroke-width:1.11399" />
</svg>
