<?xml version="1.0" encoding="UTF-8" standalone="no"?>
<!-- Generator: Adobe Illustrator 22.0.1, SVG Export Plug-In . SVG Version: 6.00 Build 0)  -->

<svg
   version="1.1"
   id="Layer_1"
   x="0px"
   y="0px"
   viewBox="0 0 30 30"
   style="enable-background:new 0 0 30 30;"
   xml:space="preserve"
   sodipodi:docname="day-rain-wind-symbolic.svg"
   inkscape:version="1.2.2 (b0a8486541, 2022-12-01)"
   xmlns:inkscape="http://www.inkscape.org/namespaces/inkscape"
   xmlns:sodipodi="http://sodipodi.sourceforge.net/DTD/sodipodi-0.dtd"
   xmlns="http://www.w3.org/2000/svg"
   xmlns:svg="http://www.w3.org/2000/svg"><defs
   id="defs7" /><sodipodi:namedview
   id="namedview5"
   pagecolor="#ffffff"
   bordercolor="#666666"
   borderopacity="1.0"
   inkscape:showpageshadow="2"
   inkscape:pageopacity="0.0"
   inkscape:pagecheckerboard="0"
   inkscape:deskcolor="#d1d1d1"
   showgrid="false"
   inkscape:zoom="29.233333"
   inkscape:cx="14.982896"
   inkscape:cy="28.665906"
   inkscape:window-width="1920"
   inkscape:window-height="1014"
   inkscape:window-x="1080"
   inkscape:window-y="470"
   inkscape:window-maximized="1"
   inkscape:current-layer="Layer_1" />
<path
   d="m 0.08519206,17.686211 c 0,1.235546 0.36404487,2.349744 1.10316624,3.32053 0.7391214,0.970787 1.6878444,1.621655 2.8461689,1.952605 0.099285,0.01103 0.1875383,-0.01103 0.2647599,-0.08825 l 1.2907046,-1.555464 c -0.981818,0 -1.831256,-0.353013 -2.5372824,-1.070071 -0.7060264,-0.717058 -1.0590397,-1.566497 -1.0590397,-2.570378 0,-0.915628 0.3088866,-1.709908 0.9376914,-2.393871 0.6288047,-0.672931 1.4010211,-1.070071 2.3276808,-1.180388 l 0.5405515,-0.03309 c 0.1434116,0 0.2206332,-0.06619 0.2206332,-0.209602 l 0.077222,-0.59571 c 0.1213479,-1.191427 0.6288044,-2.195309 1.5223691,-3.00062 0.8935647,-0.8053118 1.9526043,-1.2134833 3.1550554,-1.2134833 1.213483,0 2.272523,0.4081715 3.177119,1.2134833 0.904596,0.805311 1.412053,1.809193 1.533401,3.000612 l 0.07722,0.650868 c 0.04413,0.121349 0.13238,0.187538 0.242696,0.187538 h 1.809193 c 0.970786,0 1.809193,0.353014 2.515219,1.048008 0.706027,0.694995 1.05904,1.544433 1.05904,2.51522 0,0.926659 -0.308887,1.743002 -0.937692,2.437997 -0.628804,0.694995 -1.378957,1.081103 -2.283554,1.158325 -0.540551,0.06619 -0.871501,0.165474 -0.992849,0.308886 l -2.415935,3.110929 c -0.154443,0.209602 -0.209601,0.441266 -0.176506,0.694995 0.03309,0.253728 0.143412,0.46333 0.341981,0.617773 0.165475,0.187538 0.386109,0.26476 0.6619,0.231665 0.275792,-0.03309 0.496425,-0.165475 0.6619,-0.39714 l 2.118079,-2.713789 c 0.904597,-0.08825 1.731971,-0.386108 2.482124,-0.904596 0.750153,-0.507457 1.334831,-1.169357 1.776098,-1.974668 0.430235,-0.805311 0.650868,-1.665781 0.650868,-2.581409 0,-0.79428 -0.154443,-1.533401 -0.46333,-2.217364 0.871502,-1.05904 1.301736,-2.283554 1.301736,-3.673544 0,-0.783248 -0.154443,-1.52237 -0.463329,-2.2394278 C 23.141367,8.8057221 22.722164,8.187949 22.203676,7.6694609 21.685188,7.1509727 21.067414,6.7428012 20.350356,6.4339147 19.633298,6.1250281 18.883145,5.9705848 18.099897,5.9705848 c -1.654749,0 -3.077834,0.6398365 -4.280285,1.9195093 C 12.948111,7.404701 11.944229,7.1620044 10.819,7.1620044 c -1.5554647,0 -2.9344225,0.4853932 -4.1368737,1.4561795 C 5.479675,9.5889702 4.7184903,10.824517 4.3985721,12.335854 3.1519942,12.622678 2.1260496,13.251482 1.3207382,14.244332 0.51542691,15.237182 0.08519206,16.41757 0.08519206,17.686211 Z m 4.30234834,9.09009 c 0.077222,0.242696 0.2537283,0.419203 0.5074565,0.52952 0.2426966,0.110316 0.4853932,0.110316 0.7391214,0.01103 0.2537283,-0.09929 0.4192032,-0.275791 0.5074565,-0.518488 0.099285,-0.231665 0.1103166,-0.452298 0,-0.683963 C 6.0422898,25.882736 5.8768149,25.717261 5.64515,25.606945 5.4024534,25.496628 5.1597568,25.485596 4.9170602,25.584881 c -0.2426965,0.09929 -0.4081715,0.26476 -0.4964248,0.507457 -0.099285,0.275791 -0.1103166,0.507456 -0.033095,0.683963 z m 1.996731,-3.022676 v 0.121349 c 0.022063,0.242696 0.1323799,0.441266 0.3309499,0.606741 0.1985699,0.165475 0.4192031,0.242697 0.6949947,0.220633 0.2647599,-0.02206 0.4743615,-0.13238 0.6288048,-0.319918 l 2.4049022,-3.110929 c 0.154444,-0.19857 0.231665,-0.430235 0.209602,-0.694995 -0.02206,-0.264759 -0.13238,-0.474361 -0.319918,-0.628804 C 10.135037,19.782227 9.9033718,19.716037 9.6386119,19.7381 9.373852,19.76016 9.1532187,19.881512 8.9767121,20.080082 l -2.3718075,3.088865 c -0.1544432,0.176507 -0.2206332,0.375077 -0.2206332,0.584678 z m 0.5626148,5.361388 c 0,0.06619 0.022063,0.176507 0.06619,0.33095 0.099285,0.242697 0.2647599,0.408172 0.5074564,0.507457 0.1213483,0.04413 0.2537283,0.07722 0.3971399,0.07722 0.099285,0 0.2206332,-0.02206 0.3419815,-0.05516 C 8.4913189,29.88723 8.6567939,29.721752 8.7450472,29.490087 8.8553638,29.24739 8.8663955,29.004694 8.7671102,28.750965 8.6788572,28.497237 8.513382,28.331762 8.2706854,28.243509 8.0279888,28.133192 7.7852922,28.133192 7.531564,28.232479 c -0.2537282,0.09929 -0.4192032,0.26476 -0.4964248,0.496425 -0.055158,0.121348 -0.088253,0.253728 -0.088253,0.386108 z m 1.8422876,-2.614504 v 0.110317 c 0.022063,0.253728 0.1434116,0.46333 0.3640449,0.639836 0.1654749,0.176507 0.3861082,0.253729 0.6618998,0.220634 0.2757915,-0.03309 0.4964245,-0.154444 0.6618995,-0.375077 l 4.567109,-5.769559 c 0.154443,-0.220634 0.209601,-0.452299 0.187538,-0.706027 -0.02206,-0.253728 -0.143412,-0.46333 -0.341982,-0.650868 -0.19857,-0.154443 -0.430234,-0.220633 -0.683963,-0.187538 -0.253728,0.03309 -0.46333,0.143411 -0.617773,0.341981 L 8.9987754,25.926863 C 8.8553638,26.092338 8.7891738,26.290908 8.7891738,26.500509 Z M 9.4290103,4.1172655 c 0,0.2647599 0.099285,0.4853932 0.2978549,0.6508681 l 0.6729318,0.7280897 c 0.176506,0.1765066 0.375076,0.2647599 0.595709,0.2868233 0.231665,0.033095 0.452299,-0.044127 0.672932,-0.2426966 0.220633,-0.1985699 0.33095,-0.4302349 0.33095,-0.7060264 0,-0.2426966 -0.08825,-0.4743615 -0.26476,-0.6618998 L 11.028601,3.4553657 C 10.863127,3.2788591 10.653525,3.1906058 10.388765,3.1906058 c -0.26476,0 -0.4964249,0.088253 -0.6839632,0.2647599 C 9.5282952,3.642904 9.4290103,3.8635373 9.4290103,4.1172655 Z M 12.683351,27.758119 c 0,0.13238 0.02206,0.242696 0.07722,0.341981 0.09929,0.242697 0.26476,0.408172 0.496425,0.507457 0.121349,0.05516 0.242697,0.08825 0.386108,0.08825 0.06619,0 0.176507,-0.02206 0.33095,-0.06619 0.242697,-0.09928 0.419204,-0.26476 0.507457,-0.507456 0.110316,-0.242697 0.121348,-0.485393 0.02206,-0.72809 -0.08825,-0.242697 -0.253728,-0.408172 -0.496425,-0.496425 -0.242696,-0.110316 -0.485393,-0.121348 -0.739121,-0.02206 -0.253728,0.09929 -0.419203,0.26476 -0.507457,0.496425 -0.05516,0.121348 -0.07722,0.253728 -0.07722,0.386108 z M 15.33095,8.9932604 c 0.783248,-0.7060264 1.687844,-1.0700713 2.735852,-1.0700713 1.092135,0 2.018794,0.3750765 2.791011,1.1362613 0.772216,0.7611847 1.158324,1.6657816 1.158324,2.7468846 0,0.728089 -0.187538,1.412052 -0.573646,2.051889 -1.070071,-1.070071 -2.349744,-1.599591 -3.839019,-1.599591 H 17.228396 C 16.930541,10.97896 16.301736,9.8978567 15.33095,8.9932604 Z m 1.798161,-5.8026546 c 0,0.2537283 0.08825,0.4743615 0.275791,0.6508681 0.187539,0.1765066 0.408172,0.2647599 0.6619,0.2647599 0.26476,0 0.496425,-0.088253 0.683963,-0.2647599 0.187539,-0.1765066 0.275792,-0.3971398 0.275792,-0.6508681 V 0.90705165 c 0,-0.25372824 -0.09929,-0.47436149 -0.286823,-0.66189976 -0.187539,-0.18753826 -0.419204,-0.27579156 -0.672932,-0.27579156 -0.253728,0 -0.474361,0.0882533 -0.6619,0.27579156 -0.187538,0.18753827 -0.275791,0.40817152 -0.275791,0.66189976 z m 6.144636,2.5152191 c 0,0.2647599 0.07722,0.4853932 0.242697,0.6618998 0.198569,0.1875383 0.419203,0.2757916 0.672931,0.2868232 0.253728,0 0.46333,-0.088253 0.628805,-0.2868232 l 1.654749,-1.5995911 c 0.176507,-0.1765066 0.26476,-0.4081715 0.26476,-0.6729314 0,-0.2647599 -0.09928,-0.4853932 -0.286823,-0.6729314 -0.187538,-0.1875383 -0.408172,-0.2868233 -0.6619,-0.2868233 -0.242697,0 -0.46333,0.088253 -0.6619,0.2757916 L 23.527475,5.0328935 C 23.362,5.2204318 23.273747,5.441065 23.273747,5.7058249 Z m 0.86047,13.1276791 c 0,0.26476 0.08825,0.485393 0.26476,0.6619 l 0.728089,0.694994 c 0.176507,0.176507 0.375077,0.275792 0.59571,0.297855 h 0.06619 c 0.19857,0 0.419203,-0.09929 0.683963,-0.297855 0.176507,-0.176506 0.26476,-0.39714 0.26476,-0.639836 0,-0.26476 -0.08825,-0.496425 -0.26476,-0.694995 l -0.72809,-0.683963 c -0.176506,-0.187538 -0.397139,-0.275792 -0.650868,-0.275792 -0.26476,0 -0.496425,0.08825 -0.683963,0.275792 -0.176506,0.176507 -0.275791,0.408172 -0.275791,0.6619 z m 1.654749,-7.027169 c 0,0.26476 0.08825,0.485393 0.26476,0.661899 0.176507,0.19857 0.39714,0.297855 0.6619,0.297855 h 2.250459 c 0.26476,0 0.485393,-0.09929 0.672931,-0.286823 0.187539,-0.187538 0.275792,-0.419203 0.275792,-0.672931 0,-0.253729 -0.08825,-0.474362 -0.275792,-0.650868 -0.187538,-0.176507 -0.408171,-0.26476 -0.672931,-0.26476 h -2.250459 c -0.26476,0 -0.485393,0.08825 -0.6619,0.26476 -0.176507,0.176506 -0.26476,0.397139 -0.26476,0.650868 z"
   id="path2"
   style="stroke-width:1.10317" />
</svg>
