<?xml version="1.0" encoding="UTF-8" standalone="no"?>
<!-- Generator: Adobe Illustrator 22.0.1, SVG Export Plug-In . SVG Version: 6.00 Build 0)  -->

<svg
   version="1.1"
   id="Layer_1"
   x="0px"
   y="0px"
   viewBox="0 0 30 30"
   style="enable-background:new 0 0 30 30;"
   xml:space="preserve"
   sodipodi:docname="day-snow-thunderstorm-symbolic.svg"
   inkscape:version="1.2.2 (b0a8486541, 2022-12-01)"
   xmlns:inkscape="http://www.inkscape.org/namespaces/inkscape"
   xmlns:sodipodi="http://sodipodi.sourceforge.net/DTD/sodipodi-0.dtd"
   xmlns="http://www.w3.org/2000/svg"
   xmlns:svg="http://www.w3.org/2000/svg"><defs
   id="defs7" /><sodipodi:namedview
   id="namedview5"
   pagecolor="#ffffff"
   bordercolor="#666666"
   borderopacity="1.0"
   inkscape:showpageshadow="2"
   inkscape:pageopacity="0.0"
   inkscape:pagecheckerboard="0"
   inkscape:deskcolor="#d1d1d1"
   showgrid="false"
   inkscape:zoom="29.233333"
   inkscape:cx="14.982896"
   inkscape:cy="17.719498"
   inkscape:window-width="1920"
   inkscape:window-height="1014"
   inkscape:window-x="1080"
   inkscape:window-y="470"
   inkscape:window-maximized="1"
   inkscape:current-layer="Layer_1" />
<path
   d="m 0.06711396,17.857255 c 0,1.237959 0.36475591,2.34328 1.10532094,3.315963 0.740565,0.972682 1.691141,1.624821 2.851728,1.945364 l -0.7295118,1.879046 c -0.055266,0.154745 0,0.243171 0.1547449,0.243171 H 5.8037297 L 4.2231207,29.8942 h 0.3205431 l 4.8191993,-6.256117 c 0.044213,-0.04421 0.044213,-0.09948 0.022106,-0.154745 -0.022106,-0.05527 -0.077372,-0.07737 -0.154745,-0.07737 H 6.8095717 l 2.7522492,-5.139743 c 0.077372,-0.154745 0.03316,-0.24317 -0.1547449,-0.24317 h -3.27175 c -0.099479,0 -0.1879046,0.05527 -0.2542239,0.165798 L 4.6984087,21.372175 C 3.9025776,21.173218 3.2393851,20.753196 2.7309374,20.090003 2.2114366,19.437864 1.9572127,18.697299 1.9572127,17.857255 c 0,-0.92847 0.3094899,-1.735354 0.9284696,-2.4096 0.6189798,-0.674246 1.4037577,-1.072161 2.3322273,-1.182693 l 0.5637136,-0.03316 c 0.1326386,0 0.210011,-0.05527 0.2431707,-0.154745 l 0.077372,-0.652139 c 0.1215853,-1.193747 0.6189798,-2.199589 1.5142897,-3.006473 0.89531,-0.8068847 1.9453649,-1.2158535 3.1612184,-1.2158535 1.2048,0 2.254855,0.4089688 3.161218,1.2158535 0.906363,0.806884 1.425864,1.812726 1.547449,3.006473 l 0.08843,0.652139 c 0,0.121585 0.06632,0.187905 0.198958,0.187905 h 1.779566 c 0.983736,0 1.834833,0.353702 2.553292,1.061108 0.718458,0.707405 1.072161,1.547449 1.072161,2.531185 0,0.961629 -0.331596,1.79062 -0.994789,2.498025 -0.663192,0.707405 -1.459023,1.083215 -2.409599,1.138481 -0.143692,0 -0.221065,0.06632 -0.221065,0.198957 v 1.48113 c 0,0.121586 0.07737,0.187905 0.221065,0.187905 0.972682,-0.02211 1.867992,-0.287383 2.674876,-0.795831 0.806885,-0.497395 1.447971,-1.17164 1.923259,-2.000631 0.475288,-0.828991 0.707405,-1.735354 0.707405,-2.708036 0,-0.806885 -0.154745,-1.54745 -0.475288,-2.232749 0.840044,-1.061108 1.260066,-2.276961 1.260066,-3.636506 0,-1.050055 -0.265277,-2.022737 -0.784778,-2.918047 C 22.560395,8.174643 21.85299,7.4672376 20.95768,6.9477368 20.06237,6.4282359 19.089688,6.1629589 18.039633,6.1629589 c -0.795831,0 -1.569556,0.1657981 -2.321174,0.4973944 -0.751619,0.3315963 -1.392705,0.7958311 -1.945365,1.3816512 -0.89531,-0.475288 -1.890099,-0.7184586 -3.006473,-0.7184586 -1.569556,0 -2.9622604,0.4863412 -4.1670602,1.4590236 C 5.3947609,9.755252 4.609983,10.993212 4.2783868,12.507501 3.0514805,12.794885 2.0456384,13.435971 1.2498073,14.43076 0.4650295,15.447655 0.06711396,16.586136 0.06711396,17.857255 Z M 9.3628631,4.27286 c 0,0.2542239 0.088426,0.4752881 0.2763303,0.6631926 l 0.7184586,0.7295118 c 0.176851,0.1768514 0.375809,0.2652771 0.607927,0.2873835 0.232117,0.03316 0.453181,-0.044213 0.674245,-0.2542238 0.221064,-0.1989578 0.331597,-0.4310752 0.331597,-0.7074054 0,-0.2542239 -0.08843,-0.475288 -0.276331,-0.6631926 L 10.998738,3.5986143 C 10.821887,3.4217629 10.600823,3.3333372 10.335546,3.3333372 c -0.276331,0 -0.5084481,0.088426 -0.6963526,0.2652771 C 9.462342,3.797572 9.3628631,4.0186362 9.3628631,4.27286 Z m 1.3042789,20.304746 c 0,0.265277 0.08843,0.486341 0.265277,0.652139 0.176851,0.176852 0.397915,0.265277 0.641086,0.265277 0.265277,0 0.486341,-0.08843 0.674246,-0.265277 0.187904,-0.176851 0.27633,-0.397915 0.27633,-0.652139 0,-0.265277 -0.08843,-0.486341 -0.27633,-0.674246 -0.187905,-0.187904 -0.408969,-0.287383 -0.674246,-0.287383 -0.243171,0 -0.453182,0.09948 -0.641086,0.287383 -0.187905,0.187905 -0.265277,0.408969 -0.265277,0.674246 z m 0,-4.023368 c 0,0.265277 0.08843,0.475288 0.265277,0.641086 0.176851,0.176851 0.397915,0.265277 0.641086,0.265277 0.265277,0 0.497394,-0.08843 0.674246,-0.254224 0.176851,-0.165798 0.27633,-0.386862 0.27633,-0.652139 0,-0.254224 -0.08843,-0.475288 -0.27633,-0.663193 -0.187905,-0.187904 -0.408969,-0.27633 -0.674246,-0.27633 -0.254224,0 -0.464235,0.08843 -0.641086,0.27633 -0.176851,0.187905 -0.265277,0.408969 -0.265277,0.663193 z m 0,8.079896 c 0,0.243171 0.08843,0.453182 0.265277,0.630033 0.187904,0.187904 0.397915,0.27633 0.641086,0.27633 0.265277,0 0.486341,-0.08843 0.674246,-0.265277 0.187904,-0.176851 0.27633,-0.386862 0.27633,-0.652139 0,-0.265277 -0.08843,-0.486341 -0.27633,-0.674246 -0.187905,-0.187905 -0.408969,-0.287383 -0.674246,-0.287383 -0.243171,0 -0.453182,0.09948 -0.641086,0.287383 -0.176851,0.198958 -0.265277,0.431075 -0.265277,0.685299 z m 3.570187,-6.200851 c 0,0.265277 0.08842,0.486342 0.27633,0.663193 0.187904,0.176851 0.397915,0.27633 0.663192,0.27633 0.254224,0 0.475288,-0.08842 0.65214,-0.27633 0.176851,-0.187905 0.265277,-0.408969 0.265277,-0.663193 0,-0.24317 -0.08843,-0.464234 -0.265277,-0.641086 -0.176852,-0.176851 -0.386863,-0.265277 -0.65214,-0.265277 -0.254223,0 -0.475288,0.08843 -0.663192,0.265277 -0.187905,0.176852 -0.27633,0.386863 -0.27633,0.641086 z m 0,4.023369 c 0,0.254224 0.08842,0.464234 0.265277,0.641086 0.176851,0.176851 0.397915,0.265277 0.663192,0.265277 0.265277,0 0.475288,-0.08843 0.65214,-0.265277 0.176851,-0.176852 0.254223,-0.386862 0.254223,-0.65214 0,-0.265277 -0.08843,-0.475288 -0.254223,-0.652139 -0.176852,-0.176851 -0.386863,-0.254224 -0.65214,-0.254224 -0.265277,0 -0.486341,0.08843 -0.663192,0.254224 -0.176852,0.176851 -0.265277,0.397916 -0.265277,0.663193 z m 1.10532,-17.2872201 c 0.740566,-0.7074054 1.635876,-1.0721614 2.708037,-1.0721614 1.083214,0 2.011684,0.3758092 2.774355,1.1384806 0.762672,0.7516183 1.149534,1.6800879 1.149534,2.7633029 0,0.729511 -0.176851,1.392704 -0.519501,2.000631 -1.061108,-1.061109 -2.354333,-1.591663 -3.890729,-1.591663 h -0.34265 C 16.901152,11.09269 16.271119,10.009476 15.342649,9.1694319 Z m 1.768514,-5.8250415 c 0,0.2652771 0.08843,0.4863413 0.27633,0.6742458 0.187905,0.1879046 0.408969,0.2763303 0.663193,0.2763303 0.265277,0 0.486341,-0.088426 0.663192,-0.2763303 0.176852,-0.1879045 0.265277,-0.4089687 0.265277,-0.6742458 V 1.0674293 c 0,-0.26527702 -0.08842,-0.49739442 -0.265277,-0.67424577 -0.176851,-0.18790456 -0.397915,-0.28738345 -0.663192,-0.28738345 -0.265277,0 -0.486341,0.0884257 -0.663193,0.27633024 -0.176851,0.18790456 -0.27633,0.40896875 -0.27633,0.67424578 z m 6.167691,2.531185 c 0,0.2652771 0.08843,0.4863412 0.254224,0.6631926 0.154745,0.1768514 0.353702,0.265277 0.607926,0.2873834 0.254224,0.022107 0.486342,-0.077372 0.696352,-0.2873834 l 1.591663,-1.5916622 c 0.198957,-0.1768513 0.287383,-0.3979155 0.287383,-0.6631925 0,-0.2652771 -0.09948,-0.4863413 -0.287383,-0.6631926 -0.176852,-0.1989578 -0.397916,-0.2873835 -0.663193,-0.2873835 -0.254224,0 -0.464235,0.099479 -0.641086,0.2873835 L 23.533078,5.2123829 C 23.356226,5.378181 23.278854,5.5992452 23.278854,5.8755754 Z m 0.851097,13.1643726 c 0,0.254224 0.08843,0.475288 0.27633,0.663193 l 0.718459,0.696352 c 0.198958,0.187904 0.431075,0.27633 0.685299,0.27633 l 0.02211,0.02211 c 0.243171,0 0.442129,-0.09948 0.596874,-0.298437 0.198957,-0.176851 0.287383,-0.397916 0.287383,-0.663193 0,-0.254224 -0.09948,-0.475288 -0.287383,-0.674245 L 25.74372,18.376756 c -0.198958,-0.198958 -0.420022,-0.298437 -0.674246,-0.298437 -0.265277,0 -0.486341,0.09948 -0.663193,0.287383 -0.176851,0.187905 -0.27633,0.420022 -0.27633,0.674246 z m 1.624822,-7.040894 c 0,0.265277 0.09948,0.486341 0.287383,0.652139 0.176852,0.198958 0.397916,0.287383 0.663193,0.287383 h 2.276961 c 0.265277,0 0.486341,-0.08842 0.674246,-0.27633 0.187904,-0.187904 0.27633,-0.408969 0.27633,-0.663192 0,-0.254224 -0.08843,-0.486342 -0.27633,-0.663193 -0.187905,-0.176851 -0.408969,-0.265277 -0.674246,-0.265277 h -2.276961 c -0.265277,0 -0.497395,0.08843 -0.674246,0.265277 -0.187904,0.176851 -0.27633,0.397916 -0.27633,0.663193 z"
   id="path2"
   style="stroke-width:1.10532" />
</svg>
