<?xml version="1.0" encoding="UTF-8" standalone="no"?>
<svg
   inkscape:version="1.2.2 (b0a8486541, 2022-12-01)"
   sodipodi:docname="dust-symbolic.svg"
   xml:space="preserve"
   style="enable-background:new 0 0 30 30;"
   viewBox="0 0 30 30"
   y="0px"
   x="0px"
   id="Layer_1"
   version="1.1"
   xmlns:inkscape="http://www.inkscape.org/namespaces/inkscape"
   xmlns:sodipodi="http://sodipodi.sourceforge.net/DTD/sodipodi-0.dtd"
   xmlns="http://www.w3.org/2000/svg"
   xmlns:svg="http://www.w3.org/2000/svg"
   xmlns:rdf="http://www.w3.org/1999/02/22-rdf-syntax-ns#"
   xmlns:cc="http://creativecommons.org/ns#"
   xmlns:dc="http://purl.org/dc/elements/1.1/"><metadata
   id="metadata9"><rdf:RDF><cc:Work
       rdf:about=""><dc:format>image/svg+xml</dc:format><dc:type
         rdf:resource="http://purl.org/dc/dcmitype/StillImage" /></cc:Work></rdf:RDF></metadata><defs
   id="defs7" /><sodipodi:namedview
   inkscape:current-layer="Layer_1"
   inkscape:window-maximized="1"
   inkscape:window-y="470"
   inkscape:window-x="1080"
   inkscape:cy="17.394366"
   inkscape:cx="25.915493"
   inkscape:zoom="14.2"
   showgrid="false"
   id="namedview5"
   inkscape:window-height="1014"
   inkscape:window-width="1920"
   inkscape:pageshadow="2"
   inkscape:pageopacity="0"
   guidetolerance="10"
   gridtolerance="10"
   objecttolerance="10"
   borderopacity="1"
   bordercolor="#666666"
   pagecolor="#ffffff"
   inkscape:showpageshadow="2"
   inkscape:pagecheckerboard="0"
   inkscape:deskcolor="#d1d1d1" />
<path
   style="stroke-width:1.93089"
   id="path2"
   d="m 0.18038873,17.74187 c 0,-0.444106 0.15447156,-0.791668 0.44410564,-1.081301 C 0.93343736,16.370935 1.3389252,16.235773 1.8602666,16.235773 H 12.88567 c 0.521342,0 0.92683,0.135162 1.235773,0.424796 0.308943,0.289633 0.444105,0.637195 0.444105,1.081301 0,0.521341 -0.154471,0.946137 -0.444105,1.235771 -0.289634,0.289635 -0.714431,0.444107 -1.235773,0.444107 H 1.8602666 c -0.5213414,0 -0.92682924,-0.154472 -1.23577223,-0.444107 C 0.31555125,18.688007 0.18038873,18.28252 0.18038873,17.74187 Z m 0,-11.4115846 c 0,-0.4247967 0.15447156,-0.7916666 0.44410564,-1.0619918 C 0.93343736,4.9786596 1.3389252,4.843497 1.8602666,4.843497 h 5.7154462 c 0.5213417,0 0.9268286,0.1351626 1.2357727,0.4247966 0.3089428,0.2703252 0.4634132,0.6371951 0.4634132,1.0619918 0,0.5213414 -0.1544704,0.9268291 -0.4634132,1.2357722 -0.3089441,0.308943 -0.714431,0.4634146 -1.2357727,0.4634146 H 1.8602666 c -0.5213414,0 -0.92682924,-0.1544716 -1.23577223,-0.4441057 C 0.31555125,7.2957324 0.18038873,6.8516268 0.18038873,6.3302854 Z M 2.0919738,23.457316 c 0,-0.424796 0.1737805,-0.810976 0.5406504,-1.158537 0.3475609,-0.34756 0.7530482,-0.54065 1.1585363,-0.54065 0.502032,0 0.8882115,0.17378 1.1971544,0.521341 0.3089428,0.347562 0.4634149,0.73374 0.4634149,1.177846 0,0.521341 -0.1544721,0.946137 -0.4441064,1.255081 -0.2896331,0.308943 -0.6951212,0.444106 -1.2164629,0.444106 -0.4441052,0 -0.8495933,-0.154472 -1.1778453,-0.463415 -0.3668698,-0.328252 -0.5213414,-0.73374 -0.5213414,-1.235772 z m 2.741869,-11.450202 c 0,-0.444106 0.1351635,-0.849593 0.4247978,-1.177846 0.2896332,-0.347561 0.6371943,-0.52134 1.0426824,-0.52134 0.502032,0 0.9268286,0.173779 1.2357715,0.52134 0.308944,0.347561 0.4634149,0.73374 0.4634149,1.177846 0,0.521342 -0.1544709,0.946138 -0.4441052,1.255081 C 7.2474613,13.571138 6.8419733,13.7063 6.301323,13.7063 5.8572166,13.7063 5.5096566,13.55183 5.2393309,13.242887 4.9690063,12.933943 4.8338428,12.528456 4.8338428,12.007114 Z m 1.9115853,11.450202 c 0,-0.444106 0.1544721,-0.849593 0.4634149,-1.177846 0.3089429,-0.328251 0.7337395,-0.521341 1.2357727,-0.521341 h 7.3953233 l 1.699186,1.699187 c 0,0.502032 -0.17378,0.90752 -0.521341,1.235772 -0.347562,0.328252 -0.73374,0.463415 -1.177845,0.463415 H 8.4446157 c -0.5213417,0 -0.9461383,-0.154472 -1.2550812,-0.463415 C 6.8805904,24.384145 6.7454281,23.978657 6.7454281,23.457316 Z M 9.2942085,12.007114 c 0,-0.424797 0.1737805,-0.810976 0.5406503,-1.158536 0.3475602,-0.347561 0.7530482,-0.54065 1.1585362,-0.54065 h 7.395324 c 0.502032,0 0.90752,0.173779 1.216463,0.52134 0.308942,0.347561 0.463414,0.73374 0.463414,1.177846 0,0.521342 -0.154472,0.946138 -0.444105,1.255081 -0.308944,0.308943 -0.714431,0.444105 -1.235772,0.444105 h -7.395324 c -0.444106,0 -0.849594,-0.15447 -1.1778459,-0.463413 C 9.467989,12.933943 9.2942085,12.528456 9.2942085,12.007114 Z M 10.761687,6.3302854 c 0,-0.4247967 0.154472,-0.7916666 0.463415,-1.0619918 0.308943,-0.2703251 0.714431,-0.4247966 1.235772,-0.4247966 h 11.025405 c 0.444105,0 0.830285,0.1544715 1.177845,0.4441057 0.347561,0.2896341 0.521341,0.637195 0.521341,1.0426827 0,0.5020325 -0.17378,0.9268291 -0.521341,1.2357722 -0.34756,0.308943 -0.73374,0.4634146 -1.177845,0.4634146 H 12.460874 c -0.521341,0 -0.946138,-0.1544716 -1.255082,-0.4634146 C 10.896849,7.2571145 10.761687,6.8516268 10.761687,6.3302854 Z M 15.839939,17.74187 c 0,-0.405488 0.173779,-0.772358 0.521341,-1.061992 0.347561,-0.289634 0.733739,-0.444105 1.177845,-0.444105 0.444106,0 0.830285,0.154471 1.177845,0.444105 0.347561,0.289634 0.521342,0.656504 0.521342,1.061992 0,0.502032 -0.173781,0.90752 -0.521342,1.216463 -0.34756,0.308943 -0.733739,0.463415 -1.177845,0.463415 -0.444106,0 -0.849593,-0.154472 -1.177845,-0.463415 -0.347562,-0.289634 -0.521341,-0.695122 -0.521341,-1.216463 z m 2.973576,5.715446 c 0,-0.444106 0.154472,-0.849593 0.463415,-1.177846 0.308943,-0.347561 0.714431,-0.521341 1.216463,-0.521341 h 3.610772 c 0.502032,0 0.90752,0.17378 1.216463,0.502033 0.308943,0.328251 0.463415,0.733739 0.463415,1.197154 0,0.521341 -0.154472,0.946137 -0.444106,1.255081 -0.289634,0.308943 -0.71443,0.444106 -1.235772,0.444106 h -3.610772 c -0.521342,0 -0.926829,-0.154472 -1.235773,-0.444106 -0.289633,-0.308944 -0.444105,-0.73374 -0.444105,-1.255081 z m 1.679878,-5.715446 c 0,-0.405488 0.173781,-0.772358 0.521342,-1.061992 0.34756,-0.289634 0.733739,-0.444105 1.177844,-0.444105 h 5.927846 c 0.424796,0 0.772357,0.154471 1.042682,0.444105 0.270326,0.289634 0.424796,0.637195 0.424796,1.061992 0,0.521341 -0.135162,0.926829 -0.405486,1.235771 -0.270326,0.308943 -0.617887,0.444107 -1.061992,0.444107 h -5.927846 c -0.444105,0 -0.849593,-0.154472 -1.177844,-0.463415 -0.347561,-0.289634 -0.521342,-0.695122 -0.521342,-1.216463 z m 0.849593,-5.734756 c 0,-0.424797 0.173781,-0.810976 0.540651,-1.158536 0.347561,-0.347561 0.753049,-0.54065 1.158536,-0.54065 h 3.784552 c 0.405488,0 0.753049,0.173779 1.042684,0.52134 0.289634,0.347561 0.444105,0.73374 0.444105,1.177846 0,0.521342 -0.135163,0.926829 -0.424797,1.235773 -0.270325,0.308943 -0.637195,0.463413 -1.061992,0.463413 h -3.784552 c -0.444105,0 -0.849594,-0.15447 -1.177845,-0.463413 -0.347561,-0.308944 -0.521342,-0.714431 -0.521342,-1.235773 z m 5.29065,-5.6768286 c 0,-0.4247967 0.135162,-0.7723576 0.424796,-1.0619918 0.289635,-0.289634 0.637196,-0.4247966 1.061993,-0.4247966 0.521341,0 0.926828,0.1351626 1.235772,0.4247966 0.308943,0.2703252 0.463414,0.6371951 0.463414,1.0619918 0,0.5213414 -0.154471,0.9268291 -0.463414,1.2357722 -0.308944,0.308943 -0.714431,0.4634146 -1.235772,0.4634146 -0.444106,0 -0.791667,-0.1544716 -1.061993,-0.4634146 C 26.768798,7.2571145 26.633636,6.8516268 26.633636,6.3302854 Z" />
</svg>
