<?xml version="1.0" encoding="UTF-8" standalone="no"?>
<!-- Generator: Adobe Illustrator 22.0.1, SVG Export Plug-In . SVG Version: 6.00 Build 0)  -->

<svg
   version="1.1"
   id="Layer_1"
   x="0px"
   y="0px"
   viewBox="0 0 30 30"
   style="enable-background:new 0 0 30 30;"
   xml:space="preserve"
   sodipodi:docname="fog-symbolic.svg"
   inkscape:version="1.2.2 (b0a8486541, 2022-12-01)"
   xmlns:inkscape="http://www.inkscape.org/namespaces/inkscape"
   xmlns:sodipodi="http://sodipodi.sourceforge.net/DTD/sodipodi-0.dtd"
   xmlns="http://www.w3.org/2000/svg"
   xmlns:svg="http://www.w3.org/2000/svg"><defs
   id="defs7" /><sodipodi:namedview
   id="namedview5"
   pagecolor="#ffffff"
   bordercolor="#666666"
   borderopacity="1.0"
   inkscape:showpageshadow="2"
   inkscape:pageopacity="0.0"
   inkscape:pagecheckerboard="0"
   inkscape:deskcolor="#d1d1d1"
   showgrid="false"
   inkscape:zoom="29.233333"
   inkscape:cx="14.982896"
   inkscape:cy="12.246294"
   inkscape:window-width="1920"
   inkscape:window-height="1014"
   inkscape:window-x="1080"
   inkscape:window-y="470"
   inkscape:window-maximized="1"
   inkscape:current-layer="Layer_1" />
<path
   d="m 0.0254451,20.880916 c 0,-0.290416 0.0968052,-0.544529 0.30251626,-0.73814 0.20571104,-0.19361 0.45982471,-0.290415 0.76234094,-0.290415 H 23.682217 c 0.302516,0 0.544529,0.0968 0.738139,0.290415 0.193611,0.193611 0.290416,0.435624 0.290416,0.73814 0,0.278315 -0.0968,0.520328 -0.302516,0.701838 -0.205711,0.19361 -0.447724,0.278315 -0.726039,0.278315 H 1.0903023 c -0.30251623,0 -0.5566299,-0.0968 -0.76234094,-0.278315 C 0.1222503,21.389143 0.0254451,21.159231 0.0254451,20.880916 Z m 3.1703704,-3.799604 c 0,-0.290416 0.1089058,-0.532429 0.3146169,-0.726039 0.1815097,-0.18151 0.4235228,-0.278315 0.7139384,-0.278315 H 26.816285 c 0.278315,0 0.508227,0.0968 0.701838,0.290415 0.19361,0.193611 0.278315,0.423523 0.278315,0.713939 0,0.290415 -0.0968,0.532428 -0.278315,0.726039 -0.193611,0.205711 -0.423523,0.302516 -0.701838,0.302516 H 4.2243708 c -0.2904156,0 -0.5324287,-0.0968 -0.7260391,-0.302516 C 3.2926207,17.60164 3.1958155,17.359627 3.1958155,17.081312 Z m 0.1573084,-2.892056 c 0,0.108906 0.060503,0.157309 0.1815098,0.157309 h 1.730393 c 0.072604,0 0.1573084,-0.0605 0.242013,-0.193611 0.2904156,-0.629233 0.7139384,-1.137461 1.2826689,-1.536782 0.5687306,-0.399322 1.1979644,-0.629234 1.8756008,-0.677637 l 0.6655358,-0.0847 c 0.1331072,0 0.2057111,-0.0726 0.2057111,-0.217812 l 0.084705,-0.605032 C 9.754368,9.7241162 10.298897,8.6350581 11.27905,7.7638113 c 0.980153,-0.8712468 2.129714,-1.3068702 3.448685,-1.3068702 1.306871,0 2.444332,0.4356234 3.424484,1.2947695 0.968052,0.8591462 1.524682,1.9482046 1.65779,3.2429744 l 0.09681,0.689737 c 0,0.133107 0.0847,0.205711 0.242013,0.205711 h 1.924003 c 0.774442,0 1.48838,0.205711 2.129715,0.629234 0.641334,0.423522 1.113259,0.968052 1.427876,1.657789 0.0847,0.133107 0.169409,0.19361 0.254114,0.19361 h 1.730393 c 0.145208,0 0.205711,-0.0847 0.169409,-0.278315 C 27.433418,12.858185 26.71948,11.84173 25.678824,11.055188 24.626067,10.268646 23.428103,9.8814252 22.084931,9.8814252 H 21.69771 C 21.298389,8.2720386 20.451343,6.9530677 19.156573,5.9245124 17.861804,4.8959572 16.397625,4.3877298 14.739836,4.3877298 c -1.694091,0 -3.194572,0.5324287 -4.513543,1.5972859 -1.3189706,1.0648572 -2.1539154,2.4201301 -2.5290356,4.0658183 -1.0285553,0.242013 -1.936104,0.726039 -2.7105457,1.464179 -0.7744416,0.738139 -1.3189709,1.609386 -1.6214871,2.637941 v -0.0484 c -0.012101,0 -0.012101,0.0363 -0.012101,0.0847 z m 1.9482047,10.394459 c 0,-0.290416 0.1089059,-0.520328 0.314617,-0.713938 0.1815097,-0.18151 0.4235227,-0.278315 0.726039,-0.278315 H 28.946 c 0.290415,0 0.532428,0.0968 0.726039,0.278315 0.205711,0.19361 0.302516,0.423522 0.302516,0.701837 0,0.290416 -0.0968,0.532429 -0.302516,0.73814 C 29.466327,25.515465 29.224314,25.61227 28.946,25.61227 H 6.3419846 c -0.278315,0 -0.520328,-0.108905 -0.726039,-0.314617 -0.2057111,-0.181509 -0.314617,-0.435623 -0.314617,-0.713938 z"
   id="path2"
   style="stroke-width:1.21007" />
</svg>
