<?xml version="1.0" encoding="UTF-8" standalone="no"?>
<svg
   version="1.1"
   id="Layer_1"
   x="0px"
   y="0px"
   viewBox="0 0 30 30"
   style="enable-background:new 0 0 30 30;"
   xml:space="preserve"
   sodipodi:docname="hail-symbolic.svg"
   inkscape:version="1.2.2 (b0a8486541, 2022-12-01)"
   xmlns:inkscape="http://www.inkscape.org/namespaces/inkscape"
   xmlns:sodipodi="http://sodipodi.sourceforge.net/DTD/sodipodi-0.dtd"
   xmlns="http://www.w3.org/2000/svg"
   xmlns:svg="http://www.w3.org/2000/svg"
   xmlns:rdf="http://www.w3.org/1999/02/22-rdf-syntax-ns#"
   xmlns:cc="http://creativecommons.org/ns#"
   xmlns:dc="http://purl.org/dc/elements/1.1/"><metadata
   id="metadata9"><rdf:RDF><cc:Work
       rdf:about=""><dc:format>image/svg+xml</dc:format><dc:type
         rdf:resource="http://purl.org/dc/dcmitype/StillImage" /></cc:Work></rdf:RDF></metadata><defs
   id="defs7" /><sodipodi:namedview
   inkscape:document-rotation="0"
   pagecolor="#ffffff"
   bordercolor="#666666"
   borderopacity="1"
   objecttolerance="10"
   gridtolerance="10"
   guidetolerance="10"
   inkscape:pageopacity="0"
   inkscape:pageshadow="2"
   inkscape:window-width="1920"
   inkscape:window-height="1014"
   id="namedview5"
   showgrid="false"
   inkscape:zoom="22.2"
   inkscape:cx="15"
   inkscape:cy="15.495495"
   inkscape:window-x="1080"
   inkscape:window-y="470"
   inkscape:window-maximized="1"
   inkscape:current-layer="Layer_1"
   inkscape:showpageshadow="2"
   inkscape:pagecheckerboard="0"
   inkscape:deskcolor="#d1d1d1" />
<path
   d="m -0.00403655,14.037368 c 0,1.925265 0.66588095,3.575492 2.01211865,4.965156 1.3462379,1.389665 2.9819892,2.127925 4.9217296,2.214778 0.1592324,0 0.2460865,-0.08685 0.2460865,-0.246087 v -1.93974 c 0,-0.159232 -0.086854,-0.246086 -0.2460865,-0.246086 C 5.6849036,18.727489 4.642655,18.235314 3.7741145,17.308869 2.905574,16.382427 2.4713037,15.296751 2.4713037,14.037368 c 0,-1.201482 0.405319,-2.229255 1.2159568,-3.126747 0.8106378,-0.883016 1.8239351,-1.4041392 3.0254161,-1.5488964 l 0.7672107,-0.043427 c 0.1881839,0 0.2895135,-0.086853 0.2895135,-0.2750374 L 7.856255,8.2760496 C 8.0154874,6.7126767 8.6668928,5.3953904 9.839423,4.3531417 c 1.17253,-1.0567243 2.547719,-1.5778485 4.125568,-1.5778485 1.577848,0 2.953038,0.5211242 4.125566,1.5778485 1.17253,1.0567243 1.838411,2.359535 2.01212,3.9229079 l 0.115804,0.8395888 c 0,0.1592331 0.08685,0.2460873 0.260563,0.2460873 h 2.330584 c 1.288335,0 2.402962,0.4632201 3.343881,1.3896643 0.940918,0.926443 1.418616,2.012118 1.418616,3.285978 0,1.259384 -0.434271,2.345059 -1.302811,3.271503 -0.86854,0.926444 -1.925265,1.418616 -3.155697,1.476519 -0.188184,0 -0.289513,0.08685 -0.289513,0.246086 v 1.93974 c 0,0.159234 0.101328,0.246088 0.289513,0.246088 1.259383,-0.02895 2.417438,-0.376368 3.474161,-1.027773 1.056725,-0.651406 1.896314,-1.519947 2.504292,-2.605622 0.607979,-1.085676 0.911967,-2.272681 0.911967,-3.532064 0,-1.288337 -0.318465,-2.489818 -0.96987,-3.575492 C 28.397238,9.3906762 27.514222,8.5221352 26.414072,7.8996812 25.313919,7.2772271 24.097963,6.9442866 22.809628,6.9442866 H 22.346406 C 21.883184,5.0045461 20.855412,3.4266974 19.306514,2.1962651 17.757617,0.96583262 15.97711,0.34337863 13.979466,0.34337863 c -2.04107,0 -3.850529,0.63692975 -5.4283786,1.89631357 C 6.9732387,3.4990759 5.9599415,5.1203515 5.5111956,7.0890433 3.9043956,7.4654109 2.5871091,8.2905243 1.5593362,9.5933355 0.53156341,10.896146 -0.00403655,12.372665 -0.00403655,14.037368 Z M 7.8852063,24.459854 c 0.1302811,0.303989 0.3618919,0.5356 0.6658811,0.66588 0.2895135,0.144757 0.5935027,0.159233 0.8974917,0.02895 0.318465,-0.130281 0.5211244,-0.347416 0.6514069,-0.651405 0.144756,-0.318465 0.159232,-0.622454 0.02895,-0.926443 -0.115809,-0.303991 -0.3474199,-0.506649 -0.6514089,-0.63693 -0.2895142,-0.159233 -0.5790277,-0.173709 -0.8830169,-0.04343 -0.3039892,0.130281 -0.5211243,0.347416 -0.6658811,0.680357 -0.1592324,0.246086 -0.1592324,0.5356 -0.043427,0.883016 z m 0.9119675,-4.082141 c 0,0.23161 0.072378,0.448746 0.2171351,0.651405 0.1447569,0.217135 0.3763673,0.361893 0.6658815,0.463222 0.2750381,0.159232 0.5790276,0.173708 0.8974916,0.01448 0.318465,-0.144757 0.5356,-0.434271 0.63693,-0.868542 L 12.517423,15.7455 c 0.08685,-0.361892 0.0579,-0.680357 -0.115805,-0.96987 -0.173709,-0.289514 -0.419795,-0.463221 -0.767211,-0.521124 -0.115806,-0.02895 -0.231611,-0.04343 -0.347417,-0.04343 -0.23161,0 -0.463222,0.07239 -0.680356,0.217135 -0.217135,0.144755 -0.376367,0.361892 -0.46322,0.636929 l -1.2738618,4.907256 c -0.057903,0.231609 -0.072378,0.361891 -0.072378,0.405318 z m 2.6924762,8.091903 c 0,0.173707 0.02895,0.318464 0.08685,0.419794 0.13028,0.318465 0.347417,0.5356 0.651405,0.651406 0.130281,0.07239 0.289514,0.115805 0.477697,0.115805 0.08685,0 0.231612,-0.02895 0.434271,-0.08685 0.318465,-0.115806 0.550076,-0.33294 0.680357,-0.651405 0.144757,-0.318465 0.144757,-0.63693 0,-0.955395 -0.144758,-0.318464 -0.361892,-0.5356 -0.651406,-0.665881 -0.289513,-0.130282 -0.579027,-0.130282 -0.897492,0 -0.275037,0.115806 -0.463221,0.289514 -0.593503,0.521124 -0.13028,0.231611 -0.188183,0.448746 -0.188183,0.651407 z m 1.056724,-3.778152 c 0,0.5356 0.303989,0.883016 0.911968,1.056725 0.159232,0.04342 0.275037,0.0579 0.347415,0.0579 0.217137,0 0.40532,-0.04343 0.550077,-0.115806 0.303989,-0.115806 0.506648,-0.390843 0.607978,-0.825113 l 2.417437,-9.105199 c 0.08685,-0.347416 0.0579,-0.651405 -0.08685,-0.94092 -0.144757,-0.275038 -0.390843,-0.463221 -0.709308,-0.550075 -0.115806,-0.02895 -0.246086,-0.04343 -0.390843,-0.04343 -0.231611,0 -0.463221,0.07238 -0.694832,0.217134 -0.231611,0.144758 -0.376367,0.361892 -0.43427,0.63693 l -2.475341,9.177578 c -0.02895,0.20266 -0.04343,0.347417 -0.04343,0.43427 z m 4.965157,-0.665881 c 0,0.173708 0.02895,0.332941 0.115806,0.463223 0.115805,0.275037 0.332939,0.492172 0.636928,0.636928 0.159233,0.0579 0.332942,0.10134 0.506649,0.10134 0.08685,0 0.231611,-0.02895 0.434271,-0.08685 0.303989,-0.115806 0.535599,-0.332942 0.665881,-0.636931 0.101328,-0.318465 0.101328,-0.622453 -0.01448,-0.911967 -0.115805,-0.289514 -0.318465,-0.506649 -0.607978,-0.651405 -0.332941,-0.159233 -0.63693,-0.173709 -0.940919,-0.04343 -0.30399,0.130281 -0.521124,0.347416 -0.665881,0.680357 -0.08685,0.144757 -0.13028,0.289513 -0.13028,0.448746 z m 1.056725,-3.720248 c 0,0.20266 0.07238,0.419794 0.231609,0.651405 0.159233,0.231612 0.376368,0.390843 0.651406,0.477697 0.23161,0.04343 0.361892,0.07239 0.390844,0.07239 0.13028,0 0.318465,-0.04343 0.535599,-0.144756 0.289514,-0.130282 0.477698,-0.390844 0.579027,-0.752736 l 1.302811,-4.834875 c 0.02895,-0.246086 0.04343,-0.376368 0.04343,-0.376368 0,-0.23161 -0.07239,-0.448746 -0.217136,-0.665881 -0.144756,-0.217135 -0.361892,-0.361891 -0.651405,-0.448745 -0.130281,-0.02895 -0.260562,-0.04343 -0.376368,-0.04343 -0.231611,0 -0.463221,0.07239 -0.680356,0.217137 -0.217135,0.144755 -0.361892,0.361892 -0.448746,0.651405 l -1.30281,4.863827 z"
   id="path2"
   style="stroke-width:1.44757" />
</svg>
