<?xml version="1.0" encoding="UTF-8" standalone="no"?>
<!-- Generator: Adobe Illustrator 22.0.1, SVG Export Plug-In . SVG Version: 6.00 Build 0)  -->

<svg
   version="1.1"
   id="Layer_1"
   x="0px"
   y="0px"
   viewBox="0 0 30 30"
   style="enable-background:new 0 0 30 30;"
   xml:space="preserve"
   sodipodi:docname="hot-symbolic.svg"
   inkscape:version="1.2.2 (b0a8486541, 2022-12-01)"
   xmlns:inkscape="http://www.inkscape.org/namespaces/inkscape"
   xmlns:sodipodi="http://sodipodi.sourceforge.net/DTD/sodipodi-0.dtd"
   xmlns="http://www.w3.org/2000/svg"
   xmlns:svg="http://www.w3.org/2000/svg"><defs
   id="defs7" /><sodipodi:namedview
   id="namedview5"
   pagecolor="#ffffff"
   bordercolor="#666666"
   borderopacity="1.0"
   inkscape:showpageshadow="2"
   inkscape:pageopacity="0.0"
   inkscape:pagecheckerboard="0"
   inkscape:deskcolor="#d1d1d1"
   showgrid="false"
   inkscape:zoom="29.233333"
   inkscape:cx="14.982896"
   inkscape:cy="12.246294"
   inkscape:window-width="1920"
   inkscape:window-height="1014"
   inkscape:window-x="1080"
   inkscape:window-y="470"
   inkscape:window-maximized="1"
   inkscape:current-layer="Layer_1" />
<path
   d="m 0.10623115,15.898287 c 0,-0.329144 0.12342903,-0.603431 0.37028707,-0.836574 0.23314371,-0.233144 0.52114476,-0.342859 0.85028878,-0.342859 h 2.8251532 c 0.329144,0 0.6034307,0.109715 0.8228601,0.342859 0.2331437,0.233143 0.3428584,0.50743 0.3428584,0.836574 0,0.342858 -0.1097147,0.630859 -0.3428584,0.864003 -0.2331437,0.233144 -0.5074304,0.342859 -0.8228601,0.342859 H 1.326807 c -0.34285836,0 -0.63085941,-0.109715 -0.86400312,-0.342859 C 0.21594584,16.529146 0.10623115,16.241145 0.10623115,15.898287 Z M 4.1108172,6.2708233 c 0,-0.3154298 0.1097146,-0.6034308 0.329144,-0.8502889 C 4.7142479,5.2011051 5.002249,5.077676 5.3451074,5.077676 c 0.288001,0 0.5622878,0.1097147 0.8091458,0.3428584 l 1.9885787,2.0297217 c 0.2331437,0.2194294 0.3428584,0.4937161 0.3428584,0.8228602 0,0.329144 -0.1097147,0.6034308 -0.3428584,0.8228601 -0.2331437,0.2331437 -0.4937161,0.3428584 -0.8228602,0.3428584 -0.3565727,0 -0.6308594,-0.1097147 -0.8365744,-0.3428584 L 4.4262469,7.1211121 C 4.2342462,6.8879684 4.1108172,6.5999673 4.1108172,6.2708233 Z m 3.5794416,9.6274637 c 0,-0.973718 0.1920007,-1.906293 0.5897164,-2.797725 C 8.6639767,12.209131 9.1988357,11.427414 9.8434095,10.78284 10.501698,10.138266 11.283415,9.6171212 12.174847,9.2331198 13.066279,8.8491184 14.012568,8.6434033 15,8.6434033 c 1.316576,0 2.523438,0.3291441 3.648013,0.9874322 1.124576,0.6582885 2.016008,1.5360055 2.660581,2.6605815 0.644574,1.110861 0.973718,2.317722 0.973718,3.60687 0,0.205715 -0.01371,0.397716 -0.04114,0.576002 -0.384001,-0.233144 -0.82286,-0.342858 -1.33029,-0.342858 -0.329144,0 -0.658288,0.06857 -0.987432,0.205715 0.01371,-0.096 0.01371,-0.246858 0.01371,-0.438859 0,-1.344005 -0.480002,-2.482295 -1.45372,-3.428584 -0.973718,-0.946289 -2.139436,-1.426291 -3.497155,-1.426291 -1.35772,0 -2.509724,0.480002 -3.483442,1.426291 -0.973717,0.946289 -1.440005,2.084579 -1.440005,3.428584 v 0.246858 c -0.3977157,0.02743 -0.7817171,0.137143 -1.1520042,0.342858 -0.013714,0.01371 -0.054857,0.04114 -0.1371434,0.096 -0.082286,0.05486 -0.164572,0.123429 -0.2605723,0.192 -0.096,0.06857 -0.1920007,0.150858 -0.3154298,0.260573 -0.123429,0.109715 -0.246858,0.219429 -0.3565727,0.329144 C 7.7314018,16.926862 7.6902588,16.433146 7.6902588,15.898287 Z m 0.041143,5.005733 v -0.205715 c -0.013714,-0.123429 0,-0.274287 0.027429,-0.452574 0.068572,-0.493716 0.2605724,-0.960003 0.5760021,-1.398862 0.1782864,-0.219429 0.3017154,-0.370287 0.3702871,-0.425144 0.013714,-0.02743 0.027429,-0.05486 0.054857,-0.08229 l 0.054857,-0.05486 c 0.041143,-0.01371 0.096,-0.06857 0.1645721,-0.137143 0.027429,-0.02743 0.068572,-0.06857 0.1097147,-0.109715 0.041143,-0.04114 0.082286,-0.05486 0.096,-0.08229 0.068572,-0.06857 0.1371434,-0.109714 0.1920007,-0.137143 l 0.2331443,-0.150848 c 0.1920007,-0.123429 0.4251442,-0.192 0.6857172,-0.192 h 0.04114 c 0.137143,0 0.260572,0.01371 0.356573,0.04114 0.04114,0.01371 0.096,0.04114 0.178286,0.096 v 0.01371 c 0.192001,0.08229 0.356573,0.21943 0.466287,0.397716 0.109715,0.178286 0.178287,0.370287 0.178287,0.576002 0,0.233144 -0.06857,0.425145 -0.192001,0.576002 -0.08229,0.123429 -0.192001,0.233144 -0.301715,0.31543 -0.02743,0.01371 -0.05486,0.02743 -0.08229,0.04114 -0.02743,0.01371 -0.05486,0.02743 -0.05486,0.02743 l -0.08229,0.05486 c -0.05486,0.04114 -0.096,0.08229 -0.137143,0.109715 -0.04114,0.02743 -0.08229,0.08229 -0.150858,0.150857 -0.05486,0.06857 -0.109714,0.123429 -0.150858,0.192001 -0.04114,0.05486 -0.08229,0.137143 -0.123429,0.205715 -0.04114,0.08229 -0.06857,0.164572 -0.06857,0.233144 v 0.205715 c 0.05486,0.205715 0.109714,0.370287 0.150857,0.493716 0.096,0.192001 0.246859,0.384001 0.466288,0.603431 0.01371,0.02743 0.123429,0.137143 0.329144,0.342858 1.179433,1.069718 1.741721,2.221723 1.659435,3.428584 -0.02743,0.41143 -0.123429,0.809146 -0.288001,1.193147 -0.164572,0.384002 -0.356573,0.699431 -0.589717,0.960004 -0.219429,0.260572 -0.397716,0.452573 -0.534859,0.589716 -0.137143,0.123429 -0.246858,0.21943 -0.342858,0.288001 -0.01371,0.01372 -0.04114,0.02743 -0.08229,0.05486 -0.04114,0.02743 -0.08229,0.05486 -0.096,0.05486 -0.109714,0.05486 -0.205715,0.08229 -0.301715,0.096 -0.123429,0.01372 -0.205715,0.02743 -0.274287,0.02743 -0.4114301,0 -0.7405742,-0.137143 -0.9737179,-0.41143 -0.1920007,-0.233144 -0.2742866,-0.50743 -0.246858,-0.809146 0.027429,-0.301715 0.1782863,-0.548573 0.452573,-0.72686 l 0.013714,-0.04114 c 0.013714,-0.01371 0.041143,-0.04114 0.068572,-0.05486 0.027429,-0.02743 0.054857,-0.05486 0.096,-0.08229 0.041143,-0.02743 0.082286,-0.06857 0.1097147,-0.109715 0.041143,-0.04114 0.082286,-0.096 0.1097147,-0.137143 0.041143,-0.05486 0.082286,-0.109715 0.1097155,-0.164572 0.04114,-0.05486 0.08229,-0.123429 0.109714,-0.192001 0.04114,-0.06857 0.06857,-0.137143 0.096,-0.205715 0.02743,-0.06857 0.04114,-0.137143 0.06857,-0.219429 0.01371,-0.08229 0.02743,-0.164572 0.02743,-0.233144 0.02743,-0.274287 -0.04114,-0.548573 -0.205715,-0.82286 -0.06857,-0.150858 -0.1645725,-0.301715 -0.3017159,-0.452573 -0.096,-0.109715 -0.164572,-0.178287 -0.205715,-0.21943 -0.123429,-0.150857 -0.1920007,-0.233143 -0.205715,-0.246858 -0.027429,-0.01371 -0.054857,-0.04114 -0.096,-0.08229 -0.041143,-0.04114 -0.068572,-0.05486 -0.082286,-0.06857 C 9.006835,23.3726 8.8559774,23.208028 8.7462627,23.070885 8.5816906,22.851455 8.4582616,22.714312 8.4171186,22.632026 8.1565462,22.275453 7.9782599,21.91888 7.8822595,21.562308 c -0.054857,-0.192001 -0.096,-0.342859 -0.1097147,-0.438859 0,-0.02743 -0.013714,-0.06857 -0.027429,-0.109715 -0.013714,-0.04114 -0.013714,-0.06857 -0.013714,-0.109714 z m 5.3211622,-0.452574 c 0,-0.08229 0,-0.137143 0.01371,-0.192 0.02743,-0.301716 0.123429,-0.589717 0.274286,-0.877718 0.150858,-0.288001 0.301716,-0.534859 0.480002,-0.72686 0.178286,-0.192 0.342859,-0.370287 0.521145,-0.521144 0.178286,-0.150858 0.31543,-0.260573 0.425144,-0.342859 l 0.164572,-0.096 c 0.205715,-0.123429 0.438859,-0.192001 0.685717,-0.192001 0.150858,0 0.288001,0.01371 0.41143,0.04114 0.01372,0 0.02743,0.01372 0.06857,0.02743 0.04114,0.02743 0.06857,0.04114 0.08229,0.05486 0.01371,0 0.02743,0 0.04114,0.01372 0.01371,0 0.04114,0.02743 0.096,0.06857 0.274287,0.164572 0.438859,0.41143 0.521145,0.740574 0,0.02743 0,0.05486 0,0.096 0,0.02743 0,0.05486 0,0.06857 0,0.04114 -0.01371,0.096 -0.02743,0.164573 -0.01371,0.06857 -0.02743,0.109714 -0.02743,0.123429 -0.096,0.315429 -0.288001,0.534859 -0.576002,0.685716 -0.452574,0.301716 -0.699432,0.617145 -0.72686,0.94629 -0.01372,0.109714 -0.01372,0.205715 0,0.301715 0.02743,0.164572 0.109714,0.342858 0.233143,0.534859 0.150858,0.219429 0.260573,0.370287 0.329145,0.438859 0.219429,0.219429 0.342858,0.342858 0.384001,0.370287 0.164572,0.150857 0.384001,0.384001 0.644574,0.699431 0.740574,0.891432 1.083432,1.810292 1.014861,2.742867 -0.02743,0.41143 -0.123429,0.809146 -0.288001,1.193147 -0.164573,0.384002 -0.356573,0.699431 -0.589717,0.960004 -0.219429,0.246858 -0.41143,0.452573 -0.548573,0.589716 -0.150858,0.137144 -0.260573,0.233144 -0.342859,0.288001 l -0.164572,0.109715 c -0.150857,0.05486 -0.233144,0.08229 -0.288001,0.096 -0.150858,0.01371 -0.246858,0.02743 -0.274287,0.02743 h -0.04114 c -0.109714,0 -0.192,-0.01371 -0.260572,-0.02743 -0.02743,0 -0.06857,0 -0.109715,-0.01371 -0.04114,-0.01371 -0.08229,-0.01371 -0.096,-0.01371 -0.01371,0 -0.02743,0 -0.04114,-0.01372 -0.01371,-0.01371 -0.02743,-0.01371 -0.05486,-0.02743 -0.01371,-0.01372 -0.02743,-0.01372 -0.04114,-0.01372 -0.205715,-0.150857 -0.329144,-0.233143 -0.356573,-0.288001 -0.219429,-0.246858 -0.301715,-0.521144 -0.260572,-0.82286 0.04114,-0.301715 0.192,-0.534859 0.466287,-0.72686 l 0.04114,-0.05486 c 0.02743,-0.02743 0.06857,-0.06857 0.123429,-0.109715 l 0.164572,-0.164572 0.178286,-0.219429 0.164572,-0.260572 0.123429,-0.301716 0.05486,-0.329144 C 15.65828,24.949745 15.342854,24.373743 14.698281,23.756597 14.437708,23.523454 14.245708,23.331453 14.09485,23.166881 13.340561,22.220592 12.997703,21.32916 13.05256,20.451442 Z M 13.793138,5.1462477 V 2.3073802 c 0,-0.3291441 0.123429,-0.6171451 0.356573,-0.8502888 0.233144,-0.2331437 0.521145,-0.3428584 0.836575,-0.3428584 0.329144,0 0.617145,0.1097147 0.850288,0.3428584 0.233144,0.2331437 0.342859,0.5211447 0.342859,0.8502888 v 2.8388675 c 0,0.3291441 -0.109715,0.5897165 -0.342859,0.8091458 C 15.603431,6.1748229 15.329144,6.2708233 15,6.2708233 c -0.329144,0 -0.603431,-0.1097147 -0.836574,-0.3154298 C 13.916567,5.7359642 13.793138,5.4753918 13.793138,5.1462477 Z m 4.608017,15.0994833 c 0.02743,-0.301715 0.123429,-0.589716 0.274287,-0.877717 0.150858,-0.288001 0.301715,-0.534859 0.480002,-0.72686 0.178286,-0.192001 0.342858,-0.370287 0.521145,-0.521145 0.164572,-0.150857 0.301715,-0.260572 0.41143,-0.342858 l 0.178286,-0.096 c 0.02743,-0.02743 0.08229,-0.05486 0.137143,-0.109715 0.150858,-0.05486 0.329144,-0.096 0.521145,-0.096 0.466287,0 0.809146,0.178286 1.056004,0.521144 0.06857,0.096 0.109715,0.192001 0.137143,0.31543 0.01371,0.02743 0.02743,0.06857 0.02743,0.109715 v 0.150857 c 0,0.425145 -0.205715,0.754289 -0.617145,0.960004 -0.438859,0.288001 -0.672003,0.603431 -0.713146,0.946289 -0.05486,0.466288 0.260573,1.014861 0.932575,1.64572 1.206862,1.056004 1.755435,2.208009 1.686864,3.428584 -0.02743,0.41143 -0.123429,0.809146 -0.288002,1.193148 -0.164572,0.384001 -0.370287,0.699431 -0.589716,0.960003 -0.233144,0.260573 -0.41143,0.452573 -0.534859,0.589717 -0.123429,0.137143 -0.246858,0.219429 -0.342858,0.288001 -0.21943,0.137143 -0.411431,0.205715 -0.562288,0.219429 -0.04114,0.01371 -0.109715,0.01371 -0.205715,0.01371 -0.41143,0 -0.72686,-0.137143 -0.946289,-0.41143 -0.205715,-0.233143 -0.288001,-0.50743 -0.260573,-0.809146 0.02743,-0.301715 0.178287,-0.548573 0.438859,-0.726859 0.04114,-0.01372 0.123429,-0.08229 0.246858,-0.192001 0.123429,-0.109715 0.246858,-0.288001 0.397716,-0.521145 0.137143,-0.246858 0.219429,-0.480002 0.233143,-0.72686 0.02743,-0.548573 -0.301715,-1.124575 -0.960003,-1.74172 C 19.498303,23.19431 19.059444,22.659451 18.771443,22.097163 18.442299,21.521161 18.31887,20.890301 18.401156,20.245727 Z M 21.541738,8.2868306 c 0,-0.3428584 0.109715,-0.6171451 0.31543,-0.8228601 l 2.002293,-2.0297217 c 0.246858,-0.2331437 0.521145,-0.3428584 0.836574,-0.3428584 0.329144,0 0.603431,0.123429 0.836575,0.3565727 0.233144,0.2331437 0.356573,0.5211448 0.356573,0.8365745 0,0.3428584 -0.123429,0.6308594 -0.356573,0.8502888 l -2.029722,1.9748644 c -0.246858,0.2331437 -0.521145,0.3428584 -0.836574,0.3428584 -0.31543,0 -0.589717,-0.1097147 -0.795432,-0.3428584 C 21.651453,8.8902614 21.541738,8.6022603 21.541738,8.2868306 Z m 3.154297,7.6114564 c 0,-0.301715 0.123429,-0.576002 0.356573,-0.836574 0.21943,-0.233144 0.480002,-0.342859 0.795432,-0.342859 h 2.825153 c 0.329144,0 0.617145,0.123429 0.850289,0.356573 0.233143,0.233144 0.370287,0.50743 0.370287,0.82286 0,0.329144 -0.123429,0.617145 -0.356573,0.850289 -0.246858,0.233144 -0.521145,0.356573 -0.864003,0.356573 H 25.84804 c -0.329144,0 -0.617145,-0.109715 -0.822861,-0.342859 -0.219429,-0.233144 -0.329144,-0.521145 -0.329144,-0.864003 z"
   id="path2"
   style="stroke-width:1.37143" />
</svg>
