<?xml version="1.0" encoding="UTF-8" standalone="no"?>
<svg
   inkscape:version="1.2.2 (b0a8486541, 2022-12-01)"
   sodipodi:docname="hurricane-symbolic.svg"
   xml:space="preserve"
   style="enable-background:new 0 0 30 30;"
   viewBox="0 0 30 30"
   y="0px"
   x="0px"
   id="Layer_1"
   version="1.1"
   xmlns:inkscape="http://www.inkscape.org/namespaces/inkscape"
   xmlns:sodipodi="http://sodipodi.sourceforge.net/DTD/sodipodi-0.dtd"
   xmlns="http://www.w3.org/2000/svg"
   xmlns:svg="http://www.w3.org/2000/svg"
   xmlns:rdf="http://www.w3.org/1999/02/22-rdf-syntax-ns#"
   xmlns:cc="http://creativecommons.org/ns#"
   xmlns:dc="http://purl.org/dc/elements/1.1/"><metadata
   id="metadata9"><rdf:RDF><cc:Work
       rdf:about=""><dc:format>image/svg+xml</dc:format><dc:type
         rdf:resource="http://purl.org/dc/dcmitype/StillImage" /></cc:Work></rdf:RDF></metadata><defs
   id="defs7" /><sodipodi:namedview
   inkscape:current-layer="Layer_1"
   inkscape:window-maximized="0"
   inkscape:window-y="0"
   inkscape:window-x="0"
   inkscape:cy="9.5070423"
   inkscape:cx="23.239437"
   inkscape:zoom="14.2"
   showgrid="false"
   id="namedview5"
   inkscape:window-height="1020"
   inkscape:window-width="960"
   inkscape:pageshadow="2"
   inkscape:pageopacity="0"
   guidetolerance="10"
   gridtolerance="10"
   objecttolerance="10"
   borderopacity="1"
   bordercolor="#666666"
   pagecolor="#ffffff"
   inkscape:showpageshadow="2"
   inkscape:pagecheckerboard="0"
   inkscape:deskcolor="#d1d1d1" />
<path
   d="M 16.955548,0.2190436 C 14.786934,1.1807352 12.96918,2.8256374 11.44831,4.6206061 8.9994935,7.7019344 7.6276024,11.66811 7.7199037,15.605115 c 0.2772012,3.651634 3.6649033,6.768506 7.3227423,6.63499 1.302403,0.01016 2.576537,-0.376391 3.726747,-0.969597 -1.392136,2.877734 -3.762284,5.193809 -6.528271,6.750383 -0.814822,0.766137 0.397207,2.324078 1.31593,1.568945 4.57398,-2.422173 7.738252,-7.130428 8.525667,-12.217651 C 22.548433,14.9191 22.28419,12.086889 20.479358,10.187211 18.416298,7.7748139 14.797494,6.964082 11.93739,8.3993541 11.134574,8.9009079 11.526255,8.2831507 11.821148,7.7855315 13.204119,5.3162235 15.360451,3.3564406 17.800206,1.9697717 18.419085,1.3394227 17.867393,0.08345207 16.955548,0.2190436 Z M 15.010054,10.579691 c 2.60717,-0.135724 4.97313,2.480297 4.42473,5.071037 -0.327926,2.648518 -3.371668,4.520279 -5.879044,3.567789 -2.351144,-0.752415 -3.7087118,-3.664678 -2.666541,-5.932687 0.669357,-1.615544 2.368725,-2.743164 4.120855,-2.706139 z"
   style="stroke-width:1.91877"
   id="path2" />
</svg>
