<?xml version="1.0" encoding="UTF-8" standalone="no"?>
<!-- Generator: Adobe Illustrator 22.0.1, SVG Export Plug-In . SVG Version: 6.00 Build 0)  -->

<svg
   version="1.1"
   id="Layer_1"
   x="0px"
   y="0px"
   viewBox="0 0 30 30"
   style="enable-background:new 0 0 30 30;"
   xml:space="preserve"
   sodipodi:docname="night-alt-snow-symbolic.svg"
   inkscape:version="1.2.2 (b0a8486541, 2022-12-01)"
   xmlns:inkscape="http://www.inkscape.org/namespaces/inkscape"
   xmlns:sodipodi="http://sodipodi.sourceforge.net/DTD/sodipodi-0.dtd"
   xmlns="http://www.w3.org/2000/svg"
   xmlns:svg="http://www.w3.org/2000/svg"><defs
   id="defs7" /><sodipodi:namedview
   id="namedview5"
   pagecolor="#ffffff"
   bordercolor="#666666"
   borderopacity="1.0"
   inkscape:showpageshadow="2"
   inkscape:pageopacity="0.0"
   inkscape:pagecheckerboard="0"
   inkscape:deskcolor="#d1d1d1"
   showgrid="false"
   inkscape:zoom="29.233333"
   inkscape:cx="14.982896"
   inkscape:cy="9.5096921"
   inkscape:window-width="1920"
   inkscape:window-height="1014"
   inkscape:window-x="1080"
   inkscape:window-y="470"
   inkscape:window-maximized="1"
   inkscape:current-layer="Layer_1" />
<path
   d="m 0.22138251,15.730143 c 0,1.798313 0.63549425,3.339724 1.89296159,4.637755 1.2574673,1.298031 2.7988789,1.987609 4.5971924,2.041694 0.1622539,0 0.2433809,-0.08113 0.2433809,-0.22986 v -1.811834 c 0,-0.148732 -0.081127,-0.22986 -0.2433809,-0.22986 -1.1492981,-0.05408 -2.1363424,-0.527325 -2.9476116,-1.392678 -0.8247903,-0.865354 -1.230425,-1.879441 -1.230425,-3.028739 0,-1.149298 0.3785924,-2.136342 1.1492981,-2.974654 0.7707058,-0.838311 1.7171866,-1.298031 2.8394424,-1.392679 l 0.7166212,-0.09465 c 0.1757749,0 0.2704231,-0.08113 0.2704231,-0.22986 l 0.094648,-0.7031 C 7.7526654,8.8478746 8.3611173,7.6039289 9.4563309,6.6033635 10.551545,5.6027981 11.836054,5.1025154 13.323382,5.1025154 c 1.473806,0 2.758315,0.5002827 3.86705,1.4873269 1.108734,0.9870443 1.730707,2.2174689 1.892961,3.6777547 l 0.108167,0.770705 c 0,0.162254 0.08113,0.243381 0.229859,0.243381 h 2.190427 c 1.230425,0 2.271554,0.432677 3.150429,1.311551 0.878876,0.865355 1.311553,1.906483 1.311553,3.123387 0,1.149298 -0.405635,2.163385 -1.230426,3.028739 -0.82479,0.865353 -1.798313,1.325073 -2.947611,1.392678 -0.189296,0 -0.283945,0.08113 -0.283945,0.22986 v 1.811834 c 0,0.148734 0.09465,0.22986 0.283945,0.22986 1.189861,-0.02705 2.271554,-0.35155 3.258597,-0.960001 0.987045,-0.608452 1.771273,-1.419721 2.339161,-2.433808 0.567888,-1.014087 0.851833,-2.1093 0.851833,-3.28564 0,-1.230426 -0.297466,-2.352681 -0.878876,-3.353247 1.000566,-0.892396 1.676624,-2.055216 2.055216,-3.488457 l 0.229859,-0.9735235 c 0.01352,-0.013522 0.02704,-0.054085 0.02704,-0.1081697 0,-0.094648 -0.0676,-0.175775 -0.216339,-0.2163385 L 28.737497,7.3605481 C 28.142566,7.1847731 27.615241,6.9278712 27.155522,6.5898423 26.695803,6.2518135 26.330732,5.8732211 26.060308,5.4540653 25.789885,5.0349096 25.600589,4.6157538 25.465377,4.1695558 25.330167,3.7368788 25.26256,3.3042018 25.26256,2.8850461 c 0,-0.3650712 0.04057,-0.7571847 0.135212,-1.1628193 l 0.148733,-0.83831156 c 0.02704,-0.12169043 -0.02704,-0.2298596 -0.189296,-0.29746539 L 24.275516,0.26194214 c -0.59493,-0.14873263 -1.149298,-0.21633843 -1.690144,-0.21633843 -0.500282,0 -1.000565,0.05408486 -1.51437,0.17577496 C 20.557199,0.3430691 20.029874,0.51884405 19.475506,0.77574596 18.921139,1.032648 18.393815,1.3841979 17.88001,1.8574384 17.366207,2.3306787 16.920009,2.8715249 16.541416,3.5070192 15.446203,3.0608211 14.378031,2.8309615 13.323382,2.8309615 c -1.906483,0 -3.6101489,0.5949307 -5.083955,1.7847923 C 6.7656211,5.8056153 5.8056192,7.3199847 5.3864635,9.1723826 3.8720942,9.5509753 2.628148,10.348723 1.6681461,11.552106 0.70814412,12.769009 0.22138251,14.161689 0.22138251,15.730143 Z m 8.64001759,5.530151 c 0,0.324508 0.1081686,0.594932 0.3245077,0.81127 0.2163384,0.22986 0.4732405,0.338028 0.7977485,0.338028 0.3245077,0 0.5949317,-0.108167 0.8112697,-0.338028 0.216338,-0.22986 0.324507,-0.500283 0.324507,-0.81127 0,-0.297465 -0.108168,-0.567888 -0.324507,-0.784226 -0.216338,-0.216339 -0.486762,-0.324508 -0.8112697,-0.324508 -0.3109865,0 -0.5814101,0.108167 -0.7977485,0.324508 -0.2163385,0.216338 -0.3245077,0.47324 -0.3245077,0.784226 z m 0,4.9217 c 0,0.310987 0.1081686,0.56789 0.3245077,0.784228 0.2163384,0.216338 0.486762,0.324507 0.784227,0.324507 0.3245082,0 0.5949312,-0.108168 0.8112692,-0.310987 0.216339,-0.216338 0.324508,-0.47324 0.324508,-0.797748 0,-0.324507 -0.108167,-0.58141 -0.324508,-0.797748 -0.216338,-0.216338 -0.486761,-0.310986 -0.8112692,-0.310986 -0.3245069,0 -0.5814097,0.108167 -0.7977481,0.310986 -0.2028174,0.202818 -0.3109866,0.473241 -0.3109866,0.797748 z M 13.18817,23.883398 c 0,0.324508 0.108167,0.594931 0.324507,0.797748 0.216339,0.216339 0.486763,0.324508 0.784228,0.324508 0.324508,0 0.59493,-0.108167 0.82479,-0.324508 0.229859,-0.216338 0.338029,-0.486761 0.338029,-0.797748 0,-0.324508 -0.108167,-0.594931 -0.338029,-0.82479 -0.22986,-0.229859 -0.500282,-0.35155 -0.82479,-0.35155 -0.297465,0 -0.554368,0.121691 -0.784228,0.35155 -0.229859,0.229859 -0.324507,0.500282 -0.324507,0.82479 z m 0,-4.9217 c 0,0.324508 0.108167,0.58141 0.324507,0.784227 0.216339,0.216338 0.486763,0.324508 0.784228,0.324508 0.324508,0 0.608451,-0.108168 0.82479,-0.310987 0.216338,-0.202818 0.338029,-0.47324 0.338029,-0.797748 0,-0.310986 -0.108167,-0.581409 -0.338029,-0.811269 -0.22986,-0.22986 -0.500282,-0.338029 -0.82479,-0.338029 -0.297465,0 -0.567889,0.108168 -0.784228,0.338029 -0.216338,0.22986 -0.324507,0.500283 -0.324507,0.811269 z m 0,9.883963 c 0,0.297467 0.108167,0.554368 0.324507,0.770707 0.22986,0.229859 0.486763,0.338028 0.784228,0.338028 0.324508,0 0.59493,-0.108167 0.82479,-0.324507 0.229859,-0.216338 0.338029,-0.473241 0.338029,-0.797748 0,-0.324508 -0.108167,-0.594931 -0.338029,-0.824791 -0.22986,-0.22986 -0.500282,-0.35155 -0.82479,-0.35155 -0.297465,0 -0.554368,0.12169 -0.784228,0.35155 -0.202817,0.243381 -0.324507,0.527325 -0.324507,0.838311 z m 4.380854,-7.585367 c 0,0.324508 0.108167,0.594932 0.338029,0.81127 0.229859,0.216338 0.486762,0.338028 0.811268,0.338028 0.324508,0 0.58141,-0.108167 0.797749,-0.338028 0.216338,-0.22986 0.324508,-0.500283 0.324508,-0.81127 0,-0.297465 -0.108168,-0.567888 -0.324508,-0.784226 -0.216339,-0.216339 -0.473241,-0.324508 -0.797749,-0.324508 -0.324506,0 -0.581409,0.108167 -0.811268,0.324508 -0.22986,0.216338 -0.338029,0.47324 -0.338029,0.784226 z m 0,4.9217 c 0,0.310987 0.108167,0.56789 0.324508,0.784228 0.216338,0.216338 0.486761,0.324507 0.811269,0.324507 0.324507,0 0.58141,-0.108168 0.797748,-0.324507 0.216338,-0.216338 0.310987,-0.473241 0.310987,-0.797748 0,-0.324508 -0.108168,-0.58141 -0.310987,-0.797748 -0.216338,-0.21634 -0.473241,-0.310987 -0.797748,-0.310987 -0.324508,0 -0.594931,0.108168 -0.811269,0.310987 -0.216339,0.216338 -0.324508,0.486761 -0.324508,0.811268 z M 18.488462,4.6968807 c 0.419156,-0.7301423 1.014087,-1.2980308 1.75775,-1.7036654 0.743664,-0.4056346 1.51437,-0.608452 2.312118,-0.6219731 0.202817,0 0.35155,0.013521 0.446198,0.027042 v 0.4191559 c 0,1.3115519 0.35155,2.541977 1.05465,3.7047962 0.703099,1.1628192 1.690144,2.0416949 2.93409,2.6501465 C 26.77693,9.6591439 26.438901,10.145905 25.96566,10.619146 24.762277,9.5509753 23.315514,9.0236506 21.598327,9.0236506 H 21.179172 C 20.814101,7.3605481 19.921704,5.9273058 18.488462,4.6968807 Z"
   id="path2"
   style="stroke-width:1.35212" />
</svg>
