<?xml version="1.0" encoding="UTF-8" standalone="no"?>
<!-- Generator: Adobe Illustrator 22.0.1, SVG Export Plug-In . SVG Version: 6.00 Build 0)  -->

<svg
   version="1.1"
   id="Layer_1"
   x="0px"
   y="0px"
   viewBox="0 0 30 30"
   style="enable-background:new 0 0 30 30;"
   xml:space="preserve"
   sodipodi:docname="night-fog-symbolic.svg"
   inkscape:version="1.2.2 (b0a8486541, 2022-12-01)"
   xmlns:inkscape="http://www.inkscape.org/namespaces/inkscape"
   xmlns:sodipodi="http://sodipodi.sourceforge.net/DTD/sodipodi-0.dtd"
   xmlns="http://www.w3.org/2000/svg"
   xmlns:svg="http://www.w3.org/2000/svg"><defs
   id="defs7" /><sodipodi:namedview
   id="namedview5"
   pagecolor="#ffffff"
   bordercolor="#666666"
   borderopacity="1.0"
   inkscape:showpageshadow="2"
   inkscape:pageopacity="0.0"
   inkscape:pagecheckerboard="0"
   inkscape:deskcolor="#d1d1d1"
   showgrid="false"
   inkscape:zoom="29.233333"
   inkscape:cx="14.982896"
   inkscape:cy="14.982896"
   inkscape:window-width="1920"
   inkscape:window-height="1014"
   inkscape:window-x="1080"
   inkscape:window-y="470"
   inkscape:window-maximized="1"
   inkscape:current-layer="Layer_1" />
<path
   d="m 0.02823289,22.126249 c 0,0.279166 0.09710104,0.509781 0.30344076,0.691845 0.20633972,0.194202 0.46122996,0.279166 0.75253305,0.279166 H 23.672337 c 0.291303,0 0.534056,-0.0971 0.728258,-0.279166 0.20634,-0.194202 0.303441,-0.424817 0.303441,-0.691845 0,-0.291303 -0.0971,-0.546193 -0.291304,-0.740395 -0.194202,-0.20634 -0.449092,-0.303441 -0.740395,-0.303441 H 1.0842067 c -0.29130309,0 -0.5340557,0.0971 -0.74039542,0.303441 -0.20633972,0.20634 -0.31557839,0.46123 -0.31557839,0.740395 z M 3.1961544,18.351446 c 0,0.291303 0.1092387,0.521918 0.3155784,0.71612 0.1699269,0.218478 0.4005418,0.327716 0.7161202,0.327716 h 22.58813 c 0.279166,0 0.509781,-0.0971 0.703983,-0.30344 0.194202,-0.20634 0.279165,-0.449093 0.279165,-0.740396 0,-0.279165 -0.0971,-0.521918 -0.279165,-0.703982 -0.182065,-0.182065 -0.424817,-0.279166 -0.703983,-0.279166 H 4.227853 c -0.2913031,0 -0.5340557,0.0971 -0.7282578,0.279166 -0.2063397,0.194202 -0.3034408,0.424817 -0.3034408,0.703982 z M 3.3782189,15.41414 v -0.06069 c -0.048551,0.182065 0,0.267028 0.1456516,0.267028 h 1.7478188 c 0.072826,0 0.1456515,-0.06069 0.2306149,-0.182064 0.2913032,-0.631157 0.7161202,-1.140937 1.2865889,-1.541479 0.5704686,-0.400542 1.2016254,-0.631157 1.8813327,-0.679707 l 0.6432944,-0.0971 c 0.1456516,0 0.230615,-0.07282 0.230615,-0.218477 l 0.072826,-0.606881 c 0.1335139,-1.310864 0.6797068,-2.3911134 1.6507178,-3.2771604 0.97101,-0.8739094 2.124085,-1.3108641 3.447087,-1.3108641 1.298726,0 2.451801,0.4369547 3.422811,1.2987264 0.971011,0.8617718 1.54148,1.9420211 1.674993,3.2407471 l 0.08496,0.691845 c 0,0.145652 0.08496,0.218477 0.25489,0.218477 h 1.917746 c 0.776808,0 1.492928,0.20634 2.124085,0.631157 0.631157,0.41268 1.116662,0.971011 1.420103,1.650718 0.08496,0.121376 0.169927,0.182064 0.267028,0.182064 h 1.723543 c 0.145652,0 0.20634,-0.08496 0.182065,-0.267028 -0.267028,-0.679707 -0.449093,-1.104524 -0.558331,-1.286588 0.873909,-0.788946 1.492928,-1.832783 1.820644,-3.119371 l 0.20634,-0.801084 c 0.03641,-0.07283 0.02427,-0.145652 -0.01214,-0.1942018 -0.03641,-0.048551 -0.08496,-0.084964 -0.145651,-0.084964 L 28.345325,9.6002148 C 27.265076,9.2846364 26.439717,8.6534797 25.869248,7.6824692 25.298779,6.7114588 25.153128,5.6797602 25.420156,4.5752358 l 0.157789,-0.7039826 c 0.06069,-0.1092386 0.01214,-0.2063397 -0.157789,-0.2791655 L 24.400595,3.3129222 c -1.323002,-0.327716 -2.633866,-0.2184773 -3.908317,0.3155784 -1.274451,0.5340558 -2.269737,1.3958275 -2.997995,2.5731777 -0.958873,-0.3762665 -1.89347,-0.558331 -2.779517,-0.558331 -1.687131,0 -3.18006,0.5340557 -4.503061,1.5900296 -1.3230019,1.0559738 -2.1604984,2.4153885 -2.5489025,4.0661061 -1.019561,0.242753 -1.9177457,0.728258 -2.694554,1.468653 -0.7768084,0.740396 -1.2865888,1.626443 -1.5900296,2.646004 z m 1.9177456,10.414087 c 0,0.291303 0.1092387,0.521918 0.3155784,0.71612 0.2063397,0.218477 0.4490923,0.327716 0.7161202,0.327716 H 28.964344 c 0.279165,0 0.521918,-0.0971 0.71612,-0.303441 0.194202,-0.20634 0.291303,-0.449092 0.291303,-0.740395 0,-0.279166 -0.0971,-0.509781 -0.291303,-0.703983 -0.194202,-0.194202 -0.436955,-0.279165 -0.71612,-0.279165 H 6.3398007 c -0.2913031,0 -0.5340557,0.0971 -0.7282578,0.279165 -0.2063397,0.194202 -0.3155784,0.424817 -0.3155784,0.703983 z M 19.266377,7.294065 c 0.424817,-0.6918449 0.995286,-1.2380383 1.711406,-1.6143048 0.71612,-0.3762666 1.468653,-0.5340558 2.269737,-0.46123 -0.08496,1.2623136 0.20634,2.4518014 0.849634,3.5563258 0.655432,1.1045243 1.553617,1.917745 2.694554,2.451801 -0.182064,0.424817 -0.485505,0.861772 -0.910322,1.298727 -1.116662,-0.92246 -2.391113,-1.371553 -3.811216,-1.371553 H 21.681766 C 21.293361,9.5638019 20.492278,8.2772131 19.266377,7.294065 Z"
   id="path2"
   style="stroke-width:1.21376" />
</svg>
