<?xml version="1.0" encoding="UTF-8" standalone="no"?>
<!-- Generator: Adobe Illustrator 22.0.1, SVG Export Plug-In . SVG Version: 6.00 Build 0)  -->

<svg
   version="1.1"
   id="Layer_1"
   x="0px"
   y="0px"
   viewBox="0 0 30 30"
   style="enable-background:new 0 0 30 30;"
   xml:space="preserve"
   sodipodi:docname="night-cloudy-gusts-symbolic.svg"
   inkscape:version="1.2.2 (b0a8486541, 2022-12-01)"
   xmlns:inkscape="http://www.inkscape.org/namespaces/inkscape"
   xmlns:sodipodi="http://sodipodi.sourceforge.net/DTD/sodipodi-0.dtd"
   xmlns="http://www.w3.org/2000/svg"
   xmlns:svg="http://www.w3.org/2000/svg"><defs
   id="defs7" /><sodipodi:namedview
   id="namedview5"
   pagecolor="#ffffff"
   bordercolor="#666666"
   borderopacity="1.0"
   inkscape:showpageshadow="2"
   inkscape:pageopacity="0.0"
   inkscape:pagecheckerboard="0"
   inkscape:deskcolor="#d1d1d1"
   showgrid="false"
   inkscape:zoom="29.233333"
   inkscape:cx="14.982896"
   inkscape:cy="14.982896"
   inkscape:window-width="1920"
   inkscape:window-height="1014"
   inkscape:window-x="1080"
   inkscape:window-y="470"
   inkscape:window-maximized="1"
   inkscape:current-layer="Layer_1" />
<path
   d="m 0.05929145,21.367454 c 0,0.299939 0.11247712,0.549889 0.33743135,0.749848 0.22495423,0.224954 0.47490337,0.337431 0.7623449,0.337431 h 7.3485049 c 0.3249339,0 0.6123754,0.112477 0.8623245,0.349929 0.2499492,0.237452 0.3749237,0.524893 0.3749237,0.849827 0,0.324934 -0.1249745,0.599878 -0.3749237,0.849827 C 9.119948,24.754265 8.8325065,24.87924 8.52007,24.87924 c -0.3124364,0 -0.5998779,-0.124975 -0.8498271,-0.374924 -0.2374516,-0.212457 -0.4874008,-0.324934 -0.7748423,-0.324934 -0.2874415,0 -0.5373907,0.09998 -0.73735,0.312437 -0.1999593,0.212457 -0.299939,0.462406 -0.299939,0.762345 0,0.299939 0.09998,0.549888 0.299939,0.749847 0.6498678,0.649868 1.4372076,0.974802 2.349522,0.974802 0.9248118,0 1.7246494,-0.324934 2.3620194,-0.962304 0.649868,-0.649868 0.974802,-1.424711 0.974802,-2.349522 0,-0.924812 -0.324934,-1.72465 -0.974802,-2.374517 C 10.219725,20.642602 9.4323844,20.305171 8.5075726,20.305171 H 1.1590677 c -0.29993899,0 -0.54988813,0.09998 -0.77484236,0.312436 -0.22495423,0.212457 -0.32493389,0.462406 -0.32493389,0.749847 z m 0,-3.761734 c 0,0.287441 0.11247712,0.524893 0.33743135,0.724852 0.18746185,0.19996 0.437411,0.299939 0.7623449,0.299939 H 14.893774 c 0.924811,0 1.712151,-0.324934 2.362019,-0.974801 0.649868,-0.649868 0.974802,-1.437208 0.974802,-2.349522 0,-0.912315 -0.324934,-1.699654 -0.974802,-2.349522 -0.649868,-0.649868 -1.437208,-0.962304 -2.362019,-0.962304 -0.949807,0 -1.737147,0.312436 -2.36202,0.937309 -0.187462,0.212457 -0.287441,0.474903 -0.287441,0.78734 0,0.299939 0.09998,0.53739 0.287441,0.73735 0.187462,0.199959 0.437411,0.287441 0.749848,0.287441 0.312436,0 0.562385,-0.08748 0.762345,-0.287441 0.237451,-0.237452 0.524893,-0.349929 0.849827,-0.349929 0.324934,0 0.599878,0.112477 0.849827,0.349929 0.237451,0.237451 0.362426,0.524893 0.362426,0.849827 0,0.324934 -0.124975,0.624873 -0.362426,0.862324 -0.237452,0.237452 -0.524893,0.362427 -0.849827,0.362427 H 1.1590677 c -0.29993899,0 -0.54988813,0.09998 -0.77484236,0.312436 -0.22495423,0.224954 -0.32493389,0.474903 -0.32493389,0.762345 z M 3.3711177,14.681315 c 0,0.09998 0.074985,0.149969 0.2124567,0.149969 h 1.7871364 c 0.09998,0 0.1874619,-0.06249 0.2749441,-0.174964 0.2874415,-0.674863 0.712355,-1.237248 1.312233,-1.687157 0.5873805,-0.449908 1.2497457,-0.699857 1.9870957,-0.749847 l 0.6498678,-0.08748 c 0.1499694,0 0.2374516,-0.07498 0.2374516,-0.237452 l 0.087482,-0.624873 c 0.137473,-1.3497251 0.712356,-2.4869941 1.72465,-3.3868111 1.012294,-0.9123144 2.21205,-1.3622228 3.574273,-1.3622228 1.362222,0 2.549481,0.4499084 3.561775,1.3497254 1.012294,0.899817 1.587177,2.0370854 1.737146,3.3993085 l 0.08748,0.712355 c 0,0.14997 0.07498,0.224954 0.224954,0.224954 h 2.037085 c 1.124771,0 2.087076,0.399919 2.886913,1.187259 0.799837,0.78734 1.199756,1.737146 1.199756,2.84942 0,1.112274 -0.399919,2.074578 -1.199756,2.861918 -0.799837,0.78734 -1.762142,1.187258 -2.886913,1.187258 h -8.635743 c -0.137472,0 -0.212456,0.07499 -0.212456,0.224954 v 1.712152 c 0,0.149969 0.07498,0.224954 0.212456,0.224954 h 8.635743 c 1.112274,0 2.149563,-0.274944 3.09937,-0.837329 0.949806,-0.549889 1.699654,-1.312233 2.249542,-2.26204 0.549888,-0.949807 0.824832,-1.987096 0.824832,-3.111867 0,-0.924812 -0.174964,-1.774639 -0.524893,-2.524486 0.949807,-1.249746 1.42471,-2.636964 1.42471,-4.1616542 0,-0.8873191 -0.174964,-1.7371462 -0.524893,-2.5494809 C 29.06589,6.1955413 28.603484,5.508181 28.016104,4.9208007 27.428723,4.3334201 26.728866,3.8710142 25.929028,3.5335829 25.129191,3.1961516 24.254369,3.0211872 23.36705,3.0211872 c -1.924609,0 -3.549278,0.7248525 -4.849014,2.1620601 -0.974801,-0.5123958 -2.087075,-0.7623449 -3.311826,-0.7623449 -1.762141,0 -3.324324,0.5498881 -4.686546,1.6371669 C 9.1574403,7.1453479 8.3076133,8.5450632 7.9326895,10.244718 6.8704057,10.494667 5.9330964,11.007062 5.1082642,11.781905 4.283432,12.556747 3.7210465,13.469061 3.3961126,14.50635 v 0.04999 c -0.012497,0.06249 -0.024995,0.112477 -0.024995,0.124975 z M 20.280178,6.3955006 c 0.899817,-0.8498271 1.924608,-1.2747407 3.099369,-1.2747407 1.224751,0 2.26204,0.437411 3.136862,1.312233 0.874822,0.8748221 1.312233,1.912111 1.312233,3.124364 0,0.7623451 -0.212457,1.5246901 -0.63737,2.3120301 -1.199756,-1.199756 -2.636964,-1.787136 -4.336618,-1.787136 H 22.442238 C 22.142299,8.7450226 21.429944,7.5077743 20.280178,6.3955006 Z"
   id="path2"
   style="stroke-width:1.24975" />
</svg>
