<?xml version="1.0" encoding="UTF-8" standalone="no"?>
<!-- Generator: Adobe Illustrator 22.0.1, SVG Export Plug-In . SVG Version: 6.00 Build 0)  -->

<svg
   version="1.1"
   id="Layer_1"
   x="0px"
   y="0px"
   viewBox="0 0 30 30"
   style="enable-background:new 0 0 30 30;"
   xml:space="preserve"
   sodipodi:docname="night-alt-cloudy-windy-symbolic.svg"
   inkscape:version="1.2.2 (b0a8486541, 2022-12-01)"
   xmlns:inkscape="http://www.inkscape.org/namespaces/inkscape"
   xmlns:sodipodi="http://sodipodi.sourceforge.net/DTD/sodipodi-0.dtd"
   xmlns="http://www.w3.org/2000/svg"
   xmlns:svg="http://www.w3.org/2000/svg"><defs
   id="defs7" /><sodipodi:namedview
   id="namedview5"
   pagecolor="#ffffff"
   bordercolor="#666666"
   borderopacity="1.0"
   inkscape:showpageshadow="2"
   inkscape:pageopacity="0.0"
   inkscape:pagecheckerboard="0"
   inkscape:deskcolor="#d1d1d1"
   showgrid="false"
   inkscape:zoom="29.233333"
   inkscape:cx="14.982896"
   inkscape:cy="17.719498"
   inkscape:window-width="1920"
   inkscape:window-height="1014"
   inkscape:window-x="1080"
   inkscape:window-y="470"
   inkscape:window-maximized="1"
   inkscape:current-layer="Layer_1" />
<path
   d="m 0.07330873,21.932778 c 0,0.28297 0.0943235,0.506988 0.29476095,0.695635 0.20043745,0.188647 0.44803665,0.27118 0.74279762,0.27118 H 12.193879 c 0.28297,0 0.506989,-0.09432 0.695636,-0.27118 0.188647,-0.188647 0.27118,-0.412665 0.27118,-0.695635 0,-0.294761 -0.09432,-0.53057 -0.27118,-0.719217 C 12.700868,21.024914 12.476849,20.93059 12.193879,20.93059 H 1.1108673 c -0.29476097,0 -0.54236017,0.09432 -0.74279762,0.282971 -0.20043745,0.188647 -0.29476095,0.424456 -0.29476095,0.719217 z M 3.174194,18.336694 c 0,0.28297 0.1061139,0.518779 0.3065513,0.707426 0.1886471,0.200438 0.4244558,0.294761 0.7074263,0.294761 H 15.294764 c 0.27118,0 0.506989,-0.09432 0.695636,-0.294761 0.188647,-0.200437 0.28297,-0.436246 0.28297,-0.707426 0,-0.27118 -0.09432,-0.506989 -0.27118,-0.695636 -0.176856,-0.188647 -0.412665,-0.28297 -0.695636,-0.28297 H 4.1999621 c -0.2829705,0 -0.5187793,0.09432 -0.7192168,0.28297 -0.2004374,0.188647 -0.3065513,0.424456 -0.3065513,0.695636 z m 1.2262055,-2.758963 c 0,0.106114 0.070743,0.165067 0.2122279,0.165067 H 6.29866 c 0.106114,0 0.188647,-0.05895 0.2593897,-0.165067 0.27118,-0.636683 0.6720549,-1.167253 1.2262055,-1.591709 0.5541506,-0.424455 1.1672534,-0.660264 1.8628892,-0.707426 l 0.6484736,-0.08253 c 0.141485,0 0.212228,-0.07074 0.212228,-0.200437 l 0.08253,-0.613103 c 0.129695,-1.285158 0.672055,-2.358088 1.627081,-3.2069996 0.966816,-0.860702 2.086907,-1.2851577 3.383855,-1.2851577 1.285158,0 2.40525,0.4244557 3.348485,1.2733673 0.943235,0.848912 1.497385,1.910051 1.662452,3.195209 l 0.09432,0.683845 c 0,0.129695 0.07074,0.200438 0.212228,0.200438 h 1.89826 c 1.07293,0 1.980794,0.377294 2.735382,1.131882 0.754588,0.754588 1.131882,1.662452 1.131882,2.723591 0,1.037559 -0.377294,1.945422 -1.143672,2.70001 -0.766379,0.766379 -1.662452,1.143673 -2.711801,1.143673 h -8.147193 c -0.129695,0 -0.200437,0.07074 -0.200437,0.200437 v 1.579919 c 0,0.129695 0.07074,0.200437 0.200437,0.200437 h 8.147193 c 1.061139,0 2.039746,-0.259389 2.935819,-0.778169 0.896073,-0.518779 1.61529,-1.226205 2.134069,-2.122278 0.518779,-0.896074 0.78996,-1.87468 0.78996,-2.935819 0,-1.06114 -0.25939,-2.027956 -0.766379,-2.912239 0.848912,-0.754588 1.438434,-1.768565 1.780356,-3.041933 l 0.212228,-0.801749 c 0.01179,-0.01179 0.01179,-0.03537 0.01179,-0.08253 0,-0.09432 -0.05895,-0.153275 -0.176857,-0.188647 l -0.731,-0.2593964 C 28.500055,9.6471409 28.040227,9.4231226 27.651143,9.1283617 27.250268,8.8336007 26.943717,8.5034684 26.707908,8.1379649 26.472099,7.7724613 26.307033,7.4069577 26.189129,7.0296637 26.071224,6.6523697 26.012272,6.2868661 26.012272,5.9095721 c 0,-0.2829705 0.04716,-0.6248932 0.129695,-1.0257681 l 0.153276,-0.7192167 c 0.04716,-0.106114 0,-0.2004375 -0.153276,-0.2711801 L 25.15157,3.5986462 c -0.518779,-0.1296948 -1.002187,-0.188647 -1.473805,-0.188647 -0.448036,0 -0.884282,0.047162 -1.332319,0.1532757 -0.448037,0.106114 -0.907864,0.2593897 -1.391272,0.483408 -0.483408,0.2122279 -0.943235,0.5305697 -1.391271,0.943235 -0.448037,0.4126653 -0.837122,0.8842829 -1.167254,1.4384335 -0.907864,-0.3772941 -1.851099,-0.5659411 -2.794334,-0.5659411 -1.662451,0 -3.136256,0.5187793 -4.421414,1.5563378 C 9.8947436,8.4563067 9.0812034,9.7768358 8.7274903,11.403916 7.7017222,11.639725 6.8056489,12.123133 6.0392704,12.84235 5.2728919,13.573357 4.7305318,14.434059 4.4357708,15.448037 v 0.03537 c -0.023581,0.01179 -0.035371,0.04716 -0.035371,0.09432 z m 0.860702,10.010082 c 0,0.282971 0.094323,0.51878 0.2947609,0.707427 0.1886471,0.200437 0.4244558,0.294761 0.7074263,0.294761 H 17.381671 c 0.282971,0 0.51878,-0.09432 0.719217,-0.294761 0.200438,-0.200438 0.294761,-0.436247 0.294761,-0.707427 0,-0.27118 -0.09432,-0.506988 -0.294761,-0.695635 -0.200437,-0.188648 -0.436246,-0.282971 -0.719217,-0.282971 H 6.2632887 c -0.2829705,0 -0.5187792,0.09432 -0.7074263,0.282971 -0.2004374,0.188647 -0.2947609,0.424455 -0.2947609,0.695635 z M 20.093472,7.4659099 c 0.400875,-0.6484741 0.931445,-1.1554629 1.591709,-1.5091761 0.648474,-0.3537131 1.320529,-0.5305697 2.004375,-0.5187792 0.129695,0 0.235809,0 0.294761,0.01179 v 0.2829705 c 0,1.1436725 0.306551,2.2401832 0.931444,3.2895322 0.624894,1.0375587 1.473805,1.8275187 2.558525,2.3345077 -0.200437,0.471617 -0.506988,0.896073 -0.896073,1.261577 -1.037558,-0.931445 -2.299135,-1.391272 -3.77294,-1.391272 H 22.427979 C 22.133218,9.8122071 21.355049,8.5624206 20.093472,7.4659099 Z"
   id="path2"
   style="stroke-width:1.17904" />
</svg>
