<?xml version="1.0" encoding="UTF-8" standalone="no"?>
<!-- Generator: Adobe Illustrator 22.0.1, SVG Export Plug-In . SVG Version: 6.00 Build 0)  -->

<svg
   version="1.1"
   id="Layer_1"
   x="0px"
   y="0px"
   viewBox="0 0 30 30"
   style="enable-background:new 0 0 30 30;"
   xml:space="preserve"
   sodipodi:docname="night-alt-lightning-symbolic.svg"
   inkscape:version="1.2.2 (b0a8486541, 2022-12-01)"
   xmlns:inkscape="http://www.inkscape.org/namespaces/inkscape"
   xmlns:sodipodi="http://sodipodi.sourceforge.net/DTD/sodipodi-0.dtd"
   xmlns="http://www.w3.org/2000/svg"
   xmlns:svg="http://www.w3.org/2000/svg"><defs
   id="defs7" /><sodipodi:namedview
   id="namedview5"
   pagecolor="#ffffff"
   bordercolor="#666666"
   borderopacity="1.0"
   inkscape:showpageshadow="2"
   inkscape:pageopacity="0.0"
   inkscape:pagecheckerboard="0"
   inkscape:deskcolor="#d1d1d1"
   showgrid="false"
   inkscape:zoom="29.233333"
   inkscape:cx="14.982896"
   inkscape:cy="12.246294"
   inkscape:window-width="1920"
   inkscape:window-height="1014"
   inkscape:window-x="1080"
   inkscape:window-y="470"
   inkscape:window-maximized="1"
   inkscape:current-layer="Layer_1" />
<path
   d="m 0.1029386,16.75179 c 0,1.82022 0.62954961,3.394094 1.9023347,4.694251 1.2727851,1.300156 2.8192874,2.011821 4.6531928,2.093936 0.1505444,0 0.2326596,-0.08211 0.2326596,-0.232659 v -1.874963 c 0,-0.164231 -0.082115,-0.246346 -0.2326596,-0.246346 -1.1906699,-0.0958 -2.1897378,-0.56112 -2.9972036,-1.423329 -0.8074658,-0.848524 -1.2180416,-1.861277 -1.2180416,-3.024576 0,-1.149612 0.3832041,-2.14868 1.1632981,-2.997203 0.7800941,-0.848524 1.7244185,-1.327529 2.8740309,-1.42333 l 0.7253506,-0.0958 c 0.1779162,0 0.2737172,-0.08211 0.2737172,-0.232659 l 0.095801,-0.711665 C 7.7259632,9.7993731 8.341827,8.5539595 9.4503817,7.5685775 10.558936,6.5695097 11.859093,6.0768187 13.350852,6.0768187 c 1.491759,0 2.791915,0.492691 3.90047,1.4917588 1.108555,0.985382 1.738105,2.2307956 1.902335,3.7225545 l 0.0958,0.79378 c 0,0.16423 0.08211,0.246345 0.246345,0.246345 h 2.203424 c 1.245413,0 2.299225,0.437948 3.17512,1.300157 0.875895,0.862209 1.313842,1.902335 1.313842,3.120376 0,1.163298 -0.410575,2.176052 -1.218041,3.024576 -0.807466,0.848523 -1.806534,1.327528 -2.997204,1.423329 -0.177916,0 -0.273717,0.08211 -0.273717,0.246346 v 1.874963 c 0,0.150544 0.0958,0.232659 0.273717,0.232659 1.82022,-0.05474 3.366722,-0.752722 4.625821,-2.066565 1.259099,-1.313843 1.888649,-2.887717 1.888649,-4.721622 0,-1.218042 -0.314775,-2.353968 -0.930638,-3.394093 1.094868,-0.985382 1.806533,-2.162367 2.121308,-3.5309529 l 0.205288,-0.9853816 c 0.01369,-0.013686 0.01369,-0.041058 0.01369,-0.095801 0,-0.095801 -0.06843,-0.1779161 -0.218974,-0.2189737 L 28.884304,8.307614 C 28.10421,8.0886403 27.447289,7.7054361 26.899854,7.1853734 26.35242,6.6516248 25.969216,6.0905045 25.736556,5.5020125 25.503896,4.9135205 25.394409,4.3113426 25.394409,3.6954788 c 0,-0.3284606 0.04106,-0.6979789 0.123173,-1.081183 L 25.709184,1.7657724 C 25.750242,1.6425997 25.681813,1.5331128 25.517582,1.4646835 L 24.436399,1.1362228 C 23.834221,0.98567825 23.273101,0.91724895 22.725667,0.91724895 c -0.492691,0 -0.999068,0.054744 -1.532817,0.17791625 C 20.672787,1.218338 20.125353,1.3962542 19.564233,1.6562855 19.003112,1.902631 18.455678,2.2721493 17.921929,2.7511544 17.388181,3.2301596 16.936547,3.777594 16.553343,4.4208295 15.581647,4.0102536 14.527836,3.8049657 13.364538,3.8049657 c -1.929707,0 -3.640439,0.6021779 -5.1321979,1.7928478 C 6.7405812,6.7884834 5.782571,8.3212999 5.3583093,10.182577 3.8528645,10.538409 2.6074512,11.332189 1.6220692,12.563917 0.5956296,13.781958 0.1029386,15.177916 0.1029386,16.75179 Z m 10.4970554,6.363926 c -0.06843,0.191602 0,0.301089 0.191602,0.301089 h 2.956146 l -1.792848,5.665946 h 0.410576 l 5.707004,-7.650396 c 0.05474,-0.05474 0.06843,-0.123173 0.04106,-0.191602 -0.02737,-0.06843 -0.08211,-0.0958 -0.177916,-0.0958 h -3.010889 l 3.161434,-5.761748 c 0.0958,-0.191602 0.02737,-0.301089 -0.191602,-0.301089 h -4.023644 c -0.109486,0 -0.205287,0.06843 -0.301088,0.191602 z M 18.551479,5.6662428 c 0.451633,-0.780094 1.053811,-1.3685861 1.820219,-1.7791619 0.752723,-0.4105758 1.546503,-0.6158637 2.353969,-0.6158637 0.177916,0 0.301089,0.013686 0.369518,0.027372 v 0.4242617 c 0,1.3138426 0.355832,2.559256 1.067497,3.73624 0.711665,1.1769841 1.697047,2.0665652 2.969832,2.6824281 -0.218974,0.506377 -0.56112,0.999068 -1.02644,1.464387 -1.259099,-1.081183 -2.723486,-1.6149309 -4.406847,-1.6149309 h -0.437948 c -0.39689,-1.7244184 -1.300156,-3.1614338 -2.7098,-4.3247323 z"
   id="path2"
   style="stroke-width:1.36859" />
</svg>
