<?xml version="1.0" encoding="UTF-8" standalone="no"?>
<svg
   inkscape:version="1.2.2 (b0a8486541, 2022-12-01)"
   sodipodi:docname="night-alt-cloudy-symbolic.svg"
   xml:space="preserve"
   style="enable-background:new 0 0 30 30;"
   viewBox="0 0 30 30"
   y="0px"
   x="0px"
   id="Layer_1"
   version="1.1"
   xmlns:inkscape="http://www.inkscape.org/namespaces/inkscape"
   xmlns:sodipodi="http://sodipodi.sourceforge.net/DTD/sodipodi-0.dtd"
   xmlns="http://www.w3.org/2000/svg"
   xmlns:svg="http://www.w3.org/2000/svg"
   xmlns:rdf="http://www.w3.org/1999/02/22-rdf-syntax-ns#"
   xmlns:cc="http://creativecommons.org/ns#"
   xmlns:dc="http://purl.org/dc/elements/1.1/"><metadata
   id="metadata9"><rdf:RDF><cc:Work
       rdf:about=""><dc:format>image/svg+xml</dc:format><dc:type
         rdf:resource="http://purl.org/dc/dcmitype/StillImage" /></cc:Work></rdf:RDF></metadata><defs
   id="defs7" /><sodipodi:namedview
   inkscape:current-layer="Layer_1"
   inkscape:window-maximized="1"
   inkscape:window-y="470"
   inkscape:window-x="1080"
   inkscape:cy="18.603604"
   inkscape:cx="15"
   inkscape:zoom="22.2"
   showgrid="false"
   id="namedview5"
   inkscape:window-height="1014"
   inkscape:window-width="1920"
   inkscape:pageshadow="2"
   inkscape:pageopacity="0"
   guidetolerance="10"
   gridtolerance="10"
   objecttolerance="10"
   borderopacity="1"
   bordercolor="#666666"
   pagecolor="#ffffff"
   inkscape:showpageshadow="2"
   inkscape:pagecheckerboard="0"
   inkscape:deskcolor="#d1d1d1" />
<path
   style="stroke-width:1.36757"
   id="path2"
   d="m 0.14138479,19.506133 c 0,-1.586378 0.47864845,-2.981296 1.44962101,-4.212106 0.9709725,-1.23081 2.2154584,-2.010323 3.7471334,-2.352216 0.3145405,-1.408594 0.9572969,-2.639404 1.9145943,-3.6924301 0.9572959,-1.0530265 2.1197283,-1.8051884 3.4599435,-2.2564854 0.847892,-0.2871891 1.723134,-0.4376214 2.639404,-0.4376214 1.10773,0 2.188107,0.2188107 3.213782,0.656432 0.382919,-0.6427565 0.834216,-1.2034589 1.353892,-1.6684316 0.519675,-0.4649728 1.053026,-0.8342159 1.600053,-1.0803779 0.547027,-0.246162 1.094054,-0.4376215 1.61373,-0.5607025 0.519675,-0.123081 1.03935,-0.1777837 1.531674,-0.1777837 0.519676,0 1.080378,0.068379 1.682107,0.2188107 l 1.121405,0.3418918 c 0.191459,0.082054 0.246162,0.1777837 0.191459,0.3008647 l -0.191459,0.8205401 c -0.09573,0.4239458 -0.136756,0.8205402 -0.136756,1.1761076 0,0.4239458 0.06838,0.8615672 0.205134,1.2991887 0.136758,0.4376214 0.328217,0.8615671 0.60173,1.2855129 0.259837,0.4239457 0.62908,0.7931883 1.094054,1.1350801 0.464972,0.341891 0.984647,0.601729 1.572701,0.779513 l 0.847892,0.300865 c 0.136757,0.04103 0.205136,0.109402 0.205136,0.218811 0,0.02735 -0.01368,0.0547 -0.02735,0.09573 l -0.246162,0.916269 c -0.369243,1.476973 -1.066703,2.639406 -2.05135,3.514648 0.547027,0.957297 0.847891,1.982973 0.888918,3.06335 0.01367,0.06838 0.01367,0.164108 0.01367,0.31454 0,1.217135 -0.300864,2.352216 -0.916269,3.391567 -0.60173,1.039351 -1.435945,1.859891 -2.461621,2.46162 -1.039351,0.601729 -2.174431,0.91627 -3.391566,0.91627 H 6.8834898 c -1.2171346,0 -2.352215,-0.300865 -3.3915659,-0.91627 C 2.452573,24.743914 1.6457084,23.923374 1.043979,22.8977 0.44224952,21.872024 0.14138479,20.736943 0.14138479,19.506133 Z m 2.33853951,0 c 0,1.217135 0.4376214,2.270161 1.3128643,3.159079 0.8752428,0.888919 1.9009181,1.340216 3.0907012,1.340216 H 21.666888 c 1.217135,0 2.256486,-0.437621 3.118053,-1.326539 0.861567,-0.888919 1.299189,-1.941946 1.299189,-3.172756 0,-1.203458 -0.437622,-2.229134 -1.312864,-3.090701 -0.875244,-0.861567 -1.914595,-1.299189 -3.118053,-1.299189 h -2.43427 L 19.082186,14.090568 C 18.94543,12.709325 18.371052,11.519542 17.359052,10.548569 16.347053,9.5775974 15.143594,9.0305701 13.762351,8.9074891 c -0.04102,0 -0.109402,0 -0.205135,-0.013675 -0.09573,-0.013675 -0.150433,-0.013675 -0.205135,-0.013675 -0.697459,0 -1.394919,0.1367566 -2.106053,0.3965944 v -0.027352 c -0.998324,0.382918 -1.8462158,1.0119985 -2.5163232,1.8735655 -0.6837829,0.861568 -1.094053,1.846216 -1.23081,2.967621 l -0.095727,0.984648 -0.929946,0.04103 C 5.3244635,15.253 4.3671666,15.731648 3.6013292,16.565864 2.8354917,17.400079 2.4799243,18.371053 2.4799243,19.506133 Z M 18.548836,8.4151651 c 1.449621,1.244486 2.352214,2.6941069 2.694106,4.3488639 h 0.437621 c 1.695784,0 3.145405,0.53335 4.335188,1.613728 0.451297,-0.423945 0.793188,-0.91627 1.039351,-1.463296 C 25.810617,12.326407 24.825968,11.423812 24.101157,10.220353 23.390022,9.0168946 23.020779,7.7450572 23.020779,6.4185173 V 6.0903012 c -0.06838,-0.013675 -0.177783,-0.013675 -0.328215,-0.013675 -0.79319,-0.013675 -1.572703,0.1777837 -2.324864,0.6017294 -0.752162,0.41027 -1.367567,0.9846482 -1.818864,1.7368095 z" />
</svg>
