<?xml version="1.0" encoding="UTF-8" standalone="no"?>
<!-- Generator: Adobe Illustrator 22.0.1, SVG Export Plug-In . SVG Version: 6.00 Build 0)  -->

<svg
   version="1.1"
   id="Layer_1"
   x="0px"
   y="0px"
   viewBox="0 0 30 30"
   style="enable-background:new 0 0 30 30;"
   xml:space="preserve"
   sodipodi:docname="night-rain-wind-symbolic.svg"
   inkscape:version="1.2.2 (b0a8486541, 2022-12-01)"
   xmlns:inkscape="http://www.inkscape.org/namespaces/inkscape"
   xmlns:sodipodi="http://sodipodi.sourceforge.net/DTD/sodipodi-0.dtd"
   xmlns="http://www.w3.org/2000/svg"
   xmlns:svg="http://www.w3.org/2000/svg"><defs
   id="defs7" /><sodipodi:namedview
   id="namedview5"
   pagecolor="#ffffff"
   bordercolor="#666666"
   borderopacity="1.0"
   inkscape:showpageshadow="2"
   inkscape:pageopacity="0.0"
   inkscape:pagecheckerboard="0"
   inkscape:deskcolor="#d1d1d1"
   showgrid="false"
   inkscape:zoom="29.233333"
   inkscape:cx="14.982896"
   inkscape:cy="12.246294"
   inkscape:window-width="1920"
   inkscape:window-height="1014"
   inkscape:window-x="1080"
   inkscape:window-y="470"
   inkscape:window-maximized="1"
   inkscape:current-layer="Layer_1" />
<path
   d="m 0.10260481,14.917922 c 0,1.545827 0.45143622,2.913815 1.36798849,4.117645 0.9165523,1.203831 2.1067023,2.024624 3.58413,2.462379 0.1367988,0.01368 0.2462379,-0.01368 0.3419971,-0.109436 l 1.5458271,-1.997263 c -1.2175099,0 -2.270861,-0.437757 -3.1600536,-1.313269 -0.8891924,-0.875513 -1.3269488,-1.928864 -1.3269488,-3.160054 0,-1.17647 0.3967167,-2.202462 1.1764702,-3.064295 0.7797534,-0.861832 1.7647051,-1.340628 2.9274954,-1.436388 l 0.711354,-0.09576 c 0.1504788,0 0.2188782,-0.0684 0.2188782,-0.191519 L 7.5855017,9.3638933 C 7.7496603,7.8591057 8.3926148,6.6005562 9.5143655,5.5882447 10.636117,4.5759332 11.949386,4.0697774 13.454173,4.0697774 c 1.518467,0 2.845416,0.5061558 3.980846,1.5047874 1.135431,0.9986316 1.778386,2.2435012 1.915185,3.7482888 l 0.09576,0.8071124 c 0.02736,0.150479 0.123119,0.232559 0.287278,0.232559 h 2.229824 c 1.23119,0 2.28454,0.451436 3.173733,1.340629 0.889193,0.902872 1.340629,1.969903 1.340629,3.214772 0,1.149111 -0.383037,2.161423 -1.162791,3.023255 -0.779753,0.861833 -1.737345,1.340628 -2.872776,1.450068 -0.656634,0 -1.067031,0.123119 -1.244869,0.383036 l -2.982215,3.283173 c -0.218878,0.246238 -0.300957,0.533515 -0.259918,0.848153 0.04104,0.314638 0.177838,0.615595 0.424076,0.861833 0.17784,0.232558 0.451437,0.341997 0.807114,0.314638 0.355677,-0.02736 0.629274,-0.205199 0.820793,-0.519836 l 2.708617,-2.831737 c 1.121751,-0.109436 2.161423,-0.478796 3.119014,-1.12175 0.943912,-0.642955 1.696306,-1.463748 2.257181,-2.462379 0.560876,-0.998633 0.820794,-2.079343 0.820794,-3.228454 0,-0.861832 -0.191519,-1.805744 -0.588235,-2.845415 1.05335,-1.34063 1.573186,-2.8454172 1.573186,-4.5417225 0,-1.3406288 -0.328317,-2.5581387 -0.971272,-3.6798893 C 28.269493,2.7291442 27.39398,1.8536315 26.27223,1.2106769 25.150479,0.56772227 23.93297,0.25308486 22.60602,0.25308486 c -2.147742,0 -3.926126,0.77975344 -5.335155,2.33926044 -1.19015,-0.5882351 -2.448699,-0.8891925 -3.789328,-0.8891925 -1.956224,0 -3.6935694,0.6019149 -5.1846769,1.8194247 C 6.8057487,4.7400873 5.8344768,6.2995942 5.4104003,8.2147786 3.8508934,8.5704548 2.578664,9.3638887 1.5937123,10.608758 0.60876054,11.853627 0.10260481,13.290015 0.10260481,14.917922 Z M 5.3009612,25.177836 c 0,0.191519 0.02736,0.341997 0.0684,0.437757 0.1094395,0.287277 0.3146373,0.492476 0.6019149,0.601914 0.3146374,0.136799 0.6155949,0.150479 0.9302323,0.02736 0.3146374,-0.109436 0.5198357,-0.328317 0.6155948,-0.615595 0.1367988,-0.300957 0.1504788,-0.601915 0.02736,-0.916552 -0.123119,-0.314638 -0.3283173,-0.519836 -0.6292748,-0.629275 -0.3146373,-0.109436 -0.6019149,-0.109436 -0.9028725,0 -0.2872776,0.109436 -0.5061557,0.314637 -0.6429545,0.615594 -0.04104,0.109436 -0.0684,0.273599 -0.0684,0.478797 z m 2.5170989,-3.337892 c 0,0.314637 0.1504788,0.615595 0.4377564,0.916552 0.588235,0.492476 1.1491107,0.424076 1.7236659,-0.205198 l 2.9958946,-3.337892 c 0.205199,-0.232558 0.287278,-0.519836 0.246238,-0.834474 -0.04104,-0.314636 -0.177839,-0.574555 -0.424077,-0.779753 -0.246238,-0.191518 -0.533515,-0.259917 -0.861833,-0.218878 -0.328317,0.04104 -0.588234,0.177838 -0.807112,0.396717 l -3.0095753,3.255813 c -0.2051983,0.287277 -0.3009576,0.560875 -0.3009576,0.807113 z m 0.8755128,6.744183 c 0,0.164159 0.04104,0.314638 0.1094394,0.437757 0.123119,0.314637 0.3009576,0.519835 0.5608753,0.629275 0.1641586,0.0684 0.3283172,0.09576 0.5061553,0.09576 0.095757,0 0.2462381,-0.02736 0.4377571,-0.08208 0.287277,-0.123119 0.492476,-0.328317 0.601914,-0.615595 0.136799,-0.273597 0.150479,-0.560874 0.02736,-0.875512 -0.109436,-0.314638 -0.314638,-0.519836 -0.615595,-0.629274 -0.300957,-0.15048 -0.6019153,-0.164159 -0.9028724,-0.04104 -0.2872772,0.123119 -0.5198351,0.341997 -0.6703139,0.656635 -0.02736,0.136798 -0.054719,0.273596 -0.054719,0.424076 z m 2.2845411,-3.269493 v 0.17784 c 0.02736,0.328317 0.164158,0.601914 0.437756,0.820793 0.191518,0.246238 0.465116,0.355676 0.820794,0.328317 0.341996,-0.02736 0.615594,-0.205198 0.820793,-0.519836 l 5.772911,-6.716824 c 0.218878,-0.246238 0.300958,-0.533516 0.273598,-0.875512 -0.02736,-0.328318 -0.191519,-0.588235 -0.478797,-0.779754 -0.232557,-0.191519 -0.519835,-0.287277 -0.820793,-0.259917 -0.314636,0.02736 -0.574555,0.164158 -0.793433,0.410396 l -5.772912,6.730504 c -0.177838,0.177838 -0.259917,0.396716 -0.259917,0.683993 z m 4.965798,1.135431 c -0.09576,0.314638 -0.09576,0.588235 0,0.848154 0.123119,0.300957 0.328317,0.519834 0.615595,0.670314 0.150479,0.0684 0.314638,0.09576 0.492476,0.09576 0.08208,0 0.218878,-0.02736 0.410396,-0.08208 0.314638,-0.123119 0.519836,-0.328317 0.629275,-0.629274 0.136799,-0.314638 0.150479,-0.601916 0.04104,-0.902873 -0.109436,-0.287277 -0.314636,-0.492476 -0.601914,-0.601915 -0.314638,-0.150478 -0.615595,-0.164159 -0.902872,-0.04104 -0.300959,0.123119 -0.533516,0.341998 -0.683995,0.642955 z M 19.227085,3.9876935 c 0.930232,-0.9302322 2.065662,-1.3953483 3.392612,-1.3953483 1.381667,0 2.544458,0.478796 3.50205,1.4363879 0.957591,0.957592 1.436388,2.1340622 1.436388,3.5020508 0,0.8481533 -0.232559,1.6826259 -0.711354,2.4897391 -1.326949,-1.3406287 -2.954855,-1.9972632 -4.85636,-1.9972632 h -0.424076 c -0.341997,-1.559507 -1.12175,-2.9001357 -2.33926,-4.0355663 z"
   id="path2"
   style="stroke-width:1.36798" />
</svg>
