<?xml version="1.0" encoding="UTF-8" standalone="no"?>
<!-- Generator: Adobe Illustrator 22.0.1, SVG Export Plug-In . SVG Version: 6.00 Build 0)  -->

<svg
   version="1.1"
   id="Layer_1"
   x="0px"
   y="0px"
   viewBox="0 0 30 30"
   style="enable-background:new 0 0 30 30;"
   xml:space="preserve"
   sodipodi:docname="night-alt-rain-mix-symbolic.svg"
   inkscape:version="1.2.2 (b0a8486541, 2022-12-01)"
   xmlns:inkscape="http://www.inkscape.org/namespaces/inkscape"
   xmlns:sodipodi="http://sodipodi.sourceforge.net/DTD/sodipodi-0.dtd"
   xmlns="http://www.w3.org/2000/svg"
   xmlns:svg="http://www.w3.org/2000/svg"><defs
   id="defs7" /><sodipodi:namedview
   id="namedview5"
   pagecolor="#ffffff"
   bordercolor="#666666"
   borderopacity="1.0"
   inkscape:showpageshadow="2"
   inkscape:pageopacity="0.0"
   inkscape:pagecheckerboard="0"
   inkscape:deskcolor="#d1d1d1"
   showgrid="false"
   inkscape:zoom="29.233333"
   inkscape:cx="14.982896"
   inkscape:cy="12.246294"
   inkscape:window-width="1920"
   inkscape:window-height="1014"
   inkscape:window-x="1080"
   inkscape:window-y="470"
   inkscape:window-maximized="1"
   inkscape:current-layer="Layer_1" />
<path
   d="m 0.57418113,15.402553 c 0,1.755383 0.62032347,3.259998 1.84777207,4.527041 1.2274487,1.267044 2.7320631,1.940161 4.4874465,1.992955 0.1583805,0 0.2375707,-0.07919 0.2375707,-0.224373 v -1.768582 c 0,-0.145181 -0.07919,-0.224372 -0.2375707,-0.224372 -1.1218616,-0.0528 -2.0853428,-0.514737 -2.8772451,-1.359433 -0.7919022,-0.844696 -1.2010519,-1.834573 -1.2010519,-2.943236 0,-1.121862 0.3695545,-2.098542 1.1218617,-2.916841 0.7523072,-0.818299 1.6761932,-1.280241 2.7716581,-1.372631 l 0.6995137,-0.09239 c 0.1715789,0 0.2639676,-0.07919 0.2639676,-0.237571 l 0.092388,-0.673113 C 7.925674,8.6581865 8.5196008,7.4439358 9.5886702,6.4804546 10.657738,5.5169734 11.911583,5.0286336 13.363404,5.0286336 c 1.438623,0 2.692469,0.4883398 3.774735,1.451821 1.082267,0.9634812 1.702589,2.1645329 1.847771,3.5899564 l 0.09239,0.752308 c 0,0.15838 0.07919,0.250769 0.224372,0.250769 h 2.138137 c 1.201052,0 2.217326,0.422347 3.07522,1.280241 0.857895,0.844696 1.280243,1.860971 1.280243,3.048825 0,0.72591 -0.184778,1.412225 -0.541134,2.058946 -0.356356,0.646719 -0.857894,1.174655 -1.491416,1.583805 -0.633521,0.409149 -1.319837,0.633521 -2.058945,0.673116 -0.17158,0 -0.263968,0.07919 -0.263968,0.224372 v 1.768583 c 0,0.145181 0.09239,0.224372 0.263968,0.224372 1.161456,-0.0264 2.230524,-0.343157 3.194005,-0.937084 0.963481,-0.593928 1.728987,-1.38583 2.283319,-2.375708 0.554331,-0.989878 0.831497,-2.058946 0.831497,-3.207204 0,-1.161457 -0.303562,-2.27012 -0.897489,-3.312792 1.095465,-0.976679 1.794979,-2.1381359 2.085342,-3.4579725 l 0.184778,-0.8974896 c 0.0264,-0.026398 0.03959,-0.052796 0.03959,-0.092387 0,-0.079194 -0.07919,-0.1451821 -0.224372,-0.211174 L 28.475541,7.2063639 C 27.723233,6.9819916 27.063314,6.6124372 26.53538,6.0845022 25.994246,5.5565674 25.611493,5.0154341 25.387121,4.4347057 25.162749,3.8671757 25.043964,3.2996457 25.043964,2.7321158 25.017564,2.45495 25.057154,2.0853955 25.162749,1.6498492 l 0.171579,-0.76550551 c 0.05279,-0.1319837 0,-0.23757073 -0.171579,-0.30356258 L 24.106879,0.26402013 C 23.565746,0.11883803 22.998216,0.0396479 22.404289,0.0396479 c -0.475141,0 -0.976679,0.05279357 -1.478218,0.17157877 C 20.424533,0.33001198 19.896599,0.50159086 19.355465,0.75235999 18.814332,1.003129 18.286397,1.359485 17.77166,1.8214281 c -0.514736,0.461943 -0.950283,1.0030763 -1.319837,1.6233997 -1.069068,-0.4091495 -2.111739,-0.607125 -3.101617,-0.607125 -1.860971,0 -3.5239659,0.5807284 -4.9625885,1.742185 C 6.9489949,5.7413446 6.0119105,7.2195624 5.602761,9.0277392 4.1245432,9.4104916 2.910293,10.189195 1.9732086,11.36385 1.0361241,12.512109 0.57418113,13.871542 0.57418113,15.402553 Z m 7.14031927,9.304852 c 0,0.224372 0.065991,0.448745 0.211174,0.673117 0.1451821,0.224372 0.356356,0.369554 0.6203235,0.461943 0.3035626,0.09239 0.5807284,0.07919 0.8446958,-0.0528 0.2639679,-0.131983 0.4223486,-0.369555 0.5147368,-0.739108 l 0.1847775,-0.805102 c 0.06599,-0.303562 0.0264,-0.580728 -0.1187861,-0.831497 C 9.8262401,23.14999 9.601868,22.978412 9.2851067,22.886024 c -0.3035625,-0.09239 -0.5807283,-0.0528 -0.8446958,0.105591 -0.2639674,0.15838 -0.4487447,0.395951 -0.5279348,0.699513 l -0.1715789,0.765506 c -0.026397,0.0528 -0.026397,0.131984 -0.026397,0.250769 z m 1.0030763,-3.827528 c 0,0.277166 0.1055872,0.527935 0.3299594,0.752307 0.2111739,0.224372 0.4487448,0.329959 0.7391094,0.329959 0.3167605,0 0.5807285,-0.105591 0.7919025,-0.31676 0.211173,-0.211174 0.31676,-0.461943 0.31676,-0.778705 0,-0.303562 -0.105591,-0.56753 -0.31676,-0.778703 -0.211174,-0.211174 -0.475142,-0.316761 -0.7919025,-0.316761 -0.3035625,0 -0.5675306,0.105591 -0.7655062,0.303562 -0.1979756,0.197975 -0.3035626,0.501538 -0.3035626,0.805101 z m 0.805101,-2.996031 c -0.013193,0.211174 0.039591,0.40915 0.1847775,0.593927 0.1319839,0.197976 0.3431568,0.32996 0.6335218,0.422348 0.277166,0.07919 0.541134,0.0528 0.818299,-0.09239 0.277166,-0.145182 0.448744,-0.369555 0.541134,-0.673118 l 0.369554,-1.187853 c 0.09239,-0.316761 0.06599,-0.607125 -0.09239,-0.857894 -0.158381,-0.250769 -0.395952,-0.422348 -0.712713,-0.514736 -0.290364,-0.09239 -0.56753,-0.06599 -0.831498,0.09239 -0.263966,0.145182 -0.448744,0.369555 -0.5411322,0.659918 l -0.3167614,1.214251 c 0,0.0264 -0.013193,0.07919 -0.026398,0.15838 -0.026398,0.06599 -0.026398,0.131984 -0.026398,0.184777 z m 1.5310113,10.941452 c 0,0.237569 0.06599,0.448744 0.197975,0.659918 0.131984,0.211173 0.343159,0.356356 0.633522,0.435546 0.105592,0.0264 0.224373,0.03959 0.329959,0.03959 0.567531,0 0.910689,-0.263968 1.042672,-0.805101 l 0.184777,-0.778704 c 0.07919,-0.343157 0.03959,-0.633522 -0.105591,-0.89749 -0.145182,-0.263966 -0.382753,-0.422347 -0.686316,-0.488339 -0.277165,-0.09239 -0.554331,-0.06599 -0.831497,0.09239 -0.277165,0.158381 -0.448744,0.382753 -0.541133,0.673118 l -0.184778,0.778703 c -0.0264,0.118785 -0.03959,0.211175 -0.03959,0.290365 z m 1.029474,-3.827529 c 0,0.290364 0.10558,0.541134 0.329959,0.765506 0.211173,0.211173 0.461942,0.31676 0.752307,0.31676 0.316761,0 0.56753,-0.105591 0.778703,-0.303562 0.211174,-0.211173 0.303564,-0.461943 0.303564,-0.778704 0,-0.303562 -0.105592,-0.554331 -0.303564,-0.765505 -0.197975,-0.211175 -0.461942,-0.303563 -0.778703,-0.303563 -0.316762,0 -0.567531,0.105592 -0.778704,0.303563 -0.197976,0.197975 -0.303562,0.461943 -0.303562,0.765505 z m 0.831497,-2.99603 c -0.01321,0.197975 0.03959,0.409149 0.171578,0.620323 0.131984,0.211174 0.329959,0.343158 0.593927,0.395952 0.303563,0.07919 0.580728,0.0528 0.844696,-0.07919 0.250769,-0.131984 0.435547,-0.382753 0.541133,-0.739109 l 0.356356,-1.187854 c 0.09239,-0.290364 0.06599,-0.567529 -0.09239,-0.831497 -0.158381,-0.263968 -0.382753,-0.435547 -0.699513,-0.527935 -0.290365,-0.09239 -0.567531,-0.0528 -0.844696,0.105592 -0.277166,0.158379 -0.448746,0.395951 -0.541134,0.699513 l -0.290365,1.187854 c -0.0264,0.105581 -0.03959,0.224372 -0.03959,0.356356 z m 3.629551,2.83765 c 0,0.211174 0.06599,0.422347 0.197977,0.633521 0.131983,0.211175 0.343157,0.356356 0.607125,0.435547 0.03959,0 0.105592,0.0132 0.184776,0.0264 0.07919,0.0132 0.131984,0.0264 0.184778,0.0264 0.541133,0 0.871093,-0.290364 1.003076,-0.871092 l 0.184778,-0.791903 c 0.09239,-0.277165 0.06599,-0.554331 -0.09239,-0.831497 -0.145182,-0.277166 -0.369554,-0.448744 -0.673116,-0.541133 -0.32996,-0.07919 -0.633522,-0.0528 -0.89749,0.105591 -0.263968,0.158381 -0.448744,0.382753 -0.541134,0.699515 l -0.118785,0.778703 c 0,0.0264 -0.0132,0.09239 -0.0264,0.158381 0,0.06599 -0.0132,0.118785 -0.0132,0.171578 z m 0.97668,-3.906718 c 0,0.290364 0.105592,0.554331 0.32996,0.752307 0.197975,0.211174 0.448744,0.316761 0.752306,0.316761 0.316762,0 0.567531,-0.105591 0.778705,-0.303563 0.211174,-0.197976 0.303562,-0.461943 0.303562,-0.765505 0,-0.316761 -0.105591,-0.56753 -0.303562,-0.778705 -0.197975,-0.211174 -0.461943,-0.303562 -0.778705,-0.303562 -0.31676,0 -0.567529,0.105592 -0.778703,0.303562 -0.211174,0.197976 -0.303563,0.461944 -0.303563,0.778705 z m 0.805101,-3.048825 c 0,0.224372 0.06599,0.435547 0.211174,0.633522 0.145182,0.197976 0.356356,0.343158 0.646721,0.422349 0.0264,0 0.07919,0.01319 0.158379,0.0264 0.07919,0.01319 0.145183,0.0264 0.184778,0.0264 0.131984,0 0.290364,-0.03959 0.475142,-0.118786 0.277166,-0.145182 0.461942,-0.382753 0.541132,-0.686315 l 0.316762,-1.187853 c 0.07919,-0.303563 0.0528,-0.580728 -0.105592,-0.831497 -0.145182,-0.263968 -0.369554,-0.435547 -0.673117,-0.527936 -0.303563,-0.09239 -0.580728,-0.06599 -0.844695,0.07919 -0.263968,0.145183 -0.422349,0.356356 -0.514737,0.673117 l -0.369555,1.201052 c 0,0.0264 -0.01319,0.07919 -0.0264,0.15838 0.0132,0.03959 0,0.09239 0,0.131984 z m 0.09239,-13.2643629 c 0.422347,-0.7655056 1.003075,-1.3462339 1.728986,-1.768582 0.739109,-0.4223478 1.491416,-0.6203234 2.283318,-0.607125 0.118787,0 0.250769,0.013199 0.395952,0.039595 v 0.4091495 c -0.0132,1.2934405 0.329959,2.5076907 1.016275,3.6427507 0.699513,1.1350601 1.676193,1.9797564 2.930038,2.5604844 -0.25077,0.5411331 -0.607126,1.0294731 -1.05587,1.4650193 C 24.502828,9.3576985 23.077404,8.8561607 21.454005,8.8561607 H 21.044857 C 20.635708,7.1271737 19.764615,5.7149479 18.418381,4.619483 Z"
   id="path2"
   style="stroke-width:1.31984" />
</svg>
