<?xml version="1.0" encoding="UTF-8" standalone="no"?>
<!-- Generator: Adobe Illustrator 22.0.1, SVG Export Plug-In . SVG Version: 6.00 Build 0)  -->

<svg
   version="1.1"
   id="Layer_1"
   x="0px"
   y="0px"
   viewBox="0 0 30 30"
   style="enable-background:new 0 0 30 30;"
   xml:space="preserve"
   sodipodi:docname="night-rain-symbolic.svg"
   inkscape:version="1.2.2 (b0a8486541, 2022-12-01)"
   xmlns:inkscape="http://www.inkscape.org/namespaces/inkscape"
   xmlns:sodipodi="http://sodipodi.sourceforge.net/DTD/sodipodi-0.dtd"
   xmlns="http://www.w3.org/2000/svg"
   xmlns:svg="http://www.w3.org/2000/svg"><defs
   id="defs7" /><sodipodi:namedview
   id="namedview5"
   pagecolor="#ffffff"
   bordercolor="#666666"
   borderopacity="1.0"
   inkscape:showpageshadow="2"
   inkscape:pageopacity="0.0"
   inkscape:pagecheckerboard="0"
   inkscape:deskcolor="#d1d1d1"
   showgrid="false"
   inkscape:zoom="29.233333"
   inkscape:cx="14.982896"
   inkscape:cy="25.929304"
   inkscape:window-width="1920"
   inkscape:window-height="1014"
   inkscape:window-x="1080"
   inkscape:window-y="470"
   inkscape:window-maximized="1"
   inkscape:current-layer="Layer_1" />
<path
   d="m 0.05819578,15.041681 c 0,0.91693 0.16671475,1.77829 0.52792995,2.611864 0.36121521,0.833573 0.81968067,1.54211 1.41707507,2.153398 0.5973944,0.597395 1.3059318,1.097539 2.1256126,1.458754 0.8196806,0.361215 1.6810399,0.583501 2.5979708,0.62518 0.1528218,0 0.2361792,-0.08336 0.2361792,-0.236179 v -1.861647 c 0,-0.152822 -0.083357,-0.236181 -0.2361792,-0.236181 C 5.5181025,19.473515 4.5039213,18.987262 3.6842407,18.125903 2.8645601,17.264544 2.4477734,16.222577 2.4477734,15.041681 c 0,-1.167003 0.3890009,-2.181184 1.1808959,-3.042544 0.7918948,-0.861359 1.7505043,-1.34761 2.9175073,-1.44486 L 7.2825,10.470921 c 0.1806076,0 0.2778578,-0.08336 0.2778578,-0.263965 L 7.6437148,9.4984189 C 7.7965367,7.9840934 8.4217169,6.7337334 9.5470422,5.7334452 10.672367,4.733157 11.992191,4.2330128 13.520409,4.2330128 c 1.514326,0 2.848043,0.5001442 3.959474,1.4865395 1.125325,1.0002882 1.764398,2.2367562 1.91722,3.7371875 l 0.09725,0.8057882 c 0,0.166715 0.08336,0.250072 0.263965,0.250072 h 2.222862 c 1.250361,0 2.320113,0.444572 3.223151,1.333718 0.903039,0.889145 1.347611,1.945005 1.347611,3.181473 0,1.194788 -0.416786,2.222862 -1.236468,3.084221 -0.81968,0.86136 -1.847754,1.347611 -3.042543,1.430969 -0.180608,0 -0.277858,0.08336 -0.277858,0.236179 v 1.861647 c 0,0.152821 0.09725,0.236179 0.277858,0.236179 1.861648,-0.08335 3.431544,-0.791895 4.709691,-2.097826 1.278146,-1.319826 1.917218,-2.903615 1.917218,-4.751369 0,-1.000289 -0.1945,-1.91722 -0.583501,-2.764686 1.083645,-1.305933 1.625469,-2.8619361 1.625469,-4.6680127 0,-1.3059314 -0.319536,-2.5146131 -0.972503,-3.6399374 C 28.31634,2.8298285 27.427194,1.9406833 26.315763,1.2877173 25.204332,0.63475143 23.981757,0.30132204 22.675825,0.30132204 c -2.167291,0 -3.959474,0.80578776 -5.390442,2.40347036 -1.222575,-0.5973943 -2.472934,-0.903038 -3.751081,-0.903038 -1.958898,0 -3.6955098,0.6112872 -5.2098351,1.8338618 C 6.8101415,4.8581907 5.837639,6.4141947 5.4069594,8.3314144 3.8787412,8.6926295 2.6144881,9.4845236 1.6141997,10.734884 0.55833992,12.026923 0.05819578,13.443998 0.05819578,15.041681 Z m 7.62719812,9.280452 c 0,0.555716 0.3056436,0.916931 0.903038,1.083645 0.2917507,0.09725 0.5835015,0.06946 0.8752522,-0.08336 0.2917511,-0.152822 0.4862522,-0.389001 0.5696089,-0.694644 l 2.083934,-7.960627 c 0.08336,-0.305644 0.04168,-0.597395 -0.125036,-0.875252 -0.166715,-0.277858 -0.416787,-0.458467 -0.750216,-0.555717 -0.305643,-0.09725 -0.597395,-0.06946 -0.875253,0.09725 -0.277858,0.166715 -0.4584647,0.402894 -0.5418217,0.722431 L 7.7409654,23.97481 c -0.041679,0.152822 -0.055572,0.263965 -0.055572,0.347322 z m 3.5982601,4.237332 c 0,0.166715 0.04168,0.33343 0.111137,0.514037 0.138929,0.291751 0.375108,0.486251 0.708537,0.597394 0.02778,0 0.08336,0 0.138929,0.01389 0.05557,0.01389 0.111149,0.01389 0.152822,0.01389 0.04168,0 0.08336,0 0.125036,0 0.597395,0 0.944717,-0.305644 1.05586,-0.916931 l 3.195366,-12.142388 c 0.09725,-0.305644 0.06947,-0.597394 -0.08336,-0.875252 -0.152821,-0.277858 -0.389,-0.458465 -0.694644,-0.555716 -0.333429,-0.09725 -0.652967,-0.06947 -0.944717,0.09725 -0.291751,0.166714 -0.458466,0.402893 -0.52793,0.722431 l -3.209258,12.15628 c -0.01389,0.138929 -0.02778,0.263965 -0.02778,0.375108 z m 5.779442,-4.251225 c 0,0.222287 0.06946,0.43068 0.222287,0.652966 0.152821,0.222286 0.361216,0.361215 0.625181,0.444572 0.08336,0.02778 0.1945,0.04168 0.319536,0.04168 0.236179,0 0.458465,-0.06947 0.680752,-0.1945 0.222286,-0.125036 0.361215,-0.33343 0.444572,-0.62518 l 2.083934,-7.960628 c 0.111137,-0.291751 0.06947,-0.569609 -0.09725,-0.861359 -0.166715,-0.291751 -0.402894,-0.472359 -0.72243,-0.569609 -0.333429,-0.09725 -0.639073,-0.06946 -0.916932,0.09725 -0.277858,0.166716 -0.444572,0.402895 -0.500144,0.722432 l -2.083933,7.918948 c -0.04168,0.152822 -0.05558,0.263965 -0.05558,0.333429 z M 19.188709,4.1357603 c 0.930824,-0.9308237 2.070042,-1.3892893 3.445438,-1.3892893 1.361503,0 2.514614,0.4723584 3.45933,1.4170751 0.958609,0.9447167 1.430967,2.0978267 1.430967,3.445437 0,0.8752522 -0.236179,1.7227185 -0.72243,2.5701859 C 25.48219,8.8593435 23.870614,8.1924853 21.953395,8.1924853 H 21.522716 C 21.133715,6.5670165 20.355712,5.2194059 19.188709,4.1357603 Z"
   id="path2"
   style="stroke-width:1.38929" />
</svg>
