<?xml version="1.0" encoding="UTF-8" standalone="no"?>
<!-- Generator: Adobe Illustrator 22.0.1, SVG Export Plug-In . SVG Version: 6.00 Build 0)  -->

<svg
   version="1.1"
   id="Layer_1"
   x="0px"
   y="0px"
   viewBox="0 0 30 30"
   style="enable-background:new 0 0 30 30;"
   xml:space="preserve"
   sodipodi:docname="night-snow-symbolic.svg"
   inkscape:version="1.2.2 (b0a8486541, 2022-12-01)"
   xmlns:inkscape="http://www.inkscape.org/namespaces/inkscape"
   xmlns:sodipodi="http://sodipodi.sourceforge.net/DTD/sodipodi-0.dtd"
   xmlns="http://www.w3.org/2000/svg"
   xmlns:svg="http://www.w3.org/2000/svg"><defs
   id="defs7" /><sodipodi:namedview
   id="namedview5"
   pagecolor="#ffffff"
   bordercolor="#666666"
   borderopacity="1.0"
   inkscape:showpageshadow="2"
   inkscape:pageopacity="0.0"
   inkscape:pagecheckerboard="0"
   inkscape:deskcolor="#d1d1d1"
   showgrid="false"
   inkscape:zoom="29.233333"
   inkscape:cx="14.982896"
   inkscape:cy="9.5096921"
   inkscape:window-width="1920"
   inkscape:window-height="1014"
   inkscape:window-x="1080"
   inkscape:window-y="470"
   inkscape:window-maximized="1"
   inkscape:current-layer="Layer_1" />
<path
   d="m 0.04994477,15.034687 c 0,1.845343 0.65211378,3.440941 1.94246653,4.772918 1.2903528,1.331977 2.8720756,2.03959 4.7174189,2.122838 0.1664971,0 0.2497457,-0.08325 0.2497457,-0.235871 v -1.859218 c 0,-0.152622 -0.083249,-0.235871 -0.2497457,-0.235871 -1.1932295,-0.06937 -2.2060871,-0.541115 -3.0385727,-1.4291 -0.8324857,-0.887985 -1.2487286,-1.928592 -1.2487286,-3.135696 0,-1.151605 0.3884934,-2.150588 1.1793547,-3.010823 0.7908614,-0.846361 1.7620947,-1.345852 2.9136999,-1.4846 l 0.7353624,-0.0555 c 0.1803718,0 0.2774952,-0.08325 0.2774952,-0.249745 L 7.6255644,9.4847824 C 7.7781868,7.9863082 8.402551,6.7237049 9.5264067,5.7108474 10.650262,4.6979898 11.968365,4.1846236 13.480714,4.1846236 c 1.512349,0 2.830451,0.5133662 3.968181,1.5262238 1.137731,1.0128575 1.77597,2.2754608 1.942467,3.773935 l 0.110998,0.7908616 c 0,0.166497 0.08325,0.26362 0.235871,0.26362 h 2.247711 c 1.262604,0 2.33096,0.443993 3.23282,1.318103 0.887984,0.87411 1.345851,1.942466 1.345851,3.163445 0,1.19323 -0.416242,2.233837 -1.262603,3.121821 -0.84636,0.887985 -1.859218,1.373602 -3.038572,1.442976 -0.166498,0 -0.263621,0.08325 -0.263621,0.235871 v 1.859218 c 0,0.152622 0.08325,0.23587 0.263621,0.23587 1.859218,-0.0555 3.427066,-0.763111 4.717418,-2.095088 1.290353,-1.345852 1.928592,-2.94145 1.928592,-4.786793 0,-0.985108 -0.194247,-1.914717 -0.596615,-2.788827 1.096107,-1.331977 1.637222,-2.8720757 1.637222,-4.6064208 0,-1.3181024 -0.332994,-2.5390813 -0.985108,-3.662937 C 28.312833,2.8526465 27.424849,1.9646618 26.300993,1.312548 25.177137,0.66043426 23.970033,0.34131476 22.665806,0.34131476 c -2.150588,0 -3.954307,0.80473614 -5.397283,2.40033364 -1.123855,-0.5966147 -2.372584,-0.9018594 -3.76006,-0.9018594 -1.956341,0 -3.7045611,0.6104895 -5.2169101,1.8314685 C 6.779204,4.8922364 5.7940959,6.4462097 5.3639783,8.3331772 3.8238798,8.693921 2.5612766,9.4986572 1.5622937,10.747386 0.54943617,12.009989 0.04994477,13.439089 0.04994477,15.034687 Z m 8.86597243,5.716402 c 0,0.305244 0.1109981,0.568865 0.3329943,0.790861 0.2358709,0.235871 0.4994914,0.346869 0.8047365,0.346869 0.319119,0 0.596614,-0.110998 0.818611,-0.31912 0.221996,-0.208121 0.332994,-0.485616 0.332994,-0.81861 0,-0.332995 -0.110998,-0.596615 -0.31912,-0.818611 -0.221996,-0.221997 -0.485616,-0.31912 -0.818611,-0.31912 -0.3329939,0 -0.5966144,0.110998 -0.8186105,0.31912 -0.2219962,0.208121 -0.3329943,0.485616 -0.3329943,0.818611 z m 0,5.036538 c 0,0.332994 0.1109981,0.596615 0.3329943,0.804736 0.2219961,0.221996 0.4994914,0.332994 0.8047365,0.332994 0.332994,0 0.596614,-0.110998 0.818611,-0.319119 0.221996,-0.221996 0.319119,-0.485617 0.319119,-0.818611 0,-0.332994 -0.110998,-0.61049 -0.332994,-0.832486 -0.221996,-0.221996 -0.485617,-0.346869 -0.818611,-0.346869 -0.3191196,0 -0.5966149,0.110998 -0.8186111,0.346869 -0.2219961,0.235871 -0.3052447,0.499492 -0.3052447,0.832486 z m 4.4260488,-2.414209 c 0,0.31912 0.110998,0.61049 0.346869,0.846361 0.235871,0.235871 0.499491,0.374618 0.804736,0.374618 0.31912,0 0.596615,-0.124872 0.832486,-0.360743 0.235871,-0.235871 0.346869,-0.527241 0.346869,-0.860236 0,-0.305244 -0.110998,-0.568865 -0.346869,-0.804736 -0.235871,-0.235871 -0.513366,-0.346869 -0.832486,-0.346869 -0.305245,0 -0.568865,0.110998 -0.804736,0.346869 -0.235871,0.235871 -0.346869,0.499492 -0.346869,0.804736 z m 0,-4.981039 c 0,0.31912 0.110998,0.58274 0.332994,0.804736 0.221996,0.221996 0.499492,0.332995 0.818611,0.332995 0.332994,0 0.61049,-0.110999 0.832486,-0.332995 0.221996,-0.221996 0.346869,-0.485616 0.346869,-0.818611 0,-0.332994 -0.110998,-0.596614 -0.346869,-0.832485 -0.235871,-0.235871 -0.513366,-0.346869 -0.832486,-0.346869 -0.319119,0 -0.58274,0.110998 -0.818611,0.346869 -0.235871,0.235871 -0.332994,0.527241 -0.332994,0.84636 z m 0,10.086952 c 0,0.319119 0.110998,0.596614 0.346869,0.832485 0.235871,0.235871 0.499491,0.346869 0.818611,0.346869 0.319119,0 0.596615,-0.110998 0.832486,-0.346869 0.235871,-0.235871 0.346869,-0.513366 0.346869,-0.832485 0,-0.305245 -0.110998,-0.568866 -0.346869,-0.804737 -0.235871,-0.235871 -0.513367,-0.346869 -0.832486,-0.346869 -0.305245,0 -0.568865,0.110998 -0.804736,0.346869 -0.235871,0.235871 -0.360744,0.499492 -0.360744,0.804737 z m 4.495423,-7.728242 c 0,0.29137 0.110998,0.55499 0.332994,0.790861 0.235871,0.235871 0.513366,0.346869 0.832486,0.346869 0.319119,0 0.596614,-0.110998 0.818611,-0.31912 0.221996,-0.221996 0.332994,-0.485616 0.332994,-0.81861 0,-0.332995 -0.110998,-0.596615 -0.31912,-0.818611 -0.221996,-0.221997 -0.485616,-0.31912 -0.818611,-0.31912 -0.332994,0 -0.610489,0.110998 -0.832485,0.31912 -0.235871,0.208121 -0.346869,0.485616 -0.346869,0.818611 z m 0,5.036538 c 0,0.305245 0.110998,0.58274 0.332994,0.804736 0.221996,0.221996 0.499491,0.332994 0.832486,0.332994 0.332994,0 0.596614,-0.110998 0.818611,-0.319119 0.221996,-0.221996 0.319119,-0.485617 0.319119,-0.818611 0,-0.332994 -0.110998,-0.61049 -0.332994,-0.832486 -0.221996,-0.235871 -0.485617,-0.346869 -0.818611,-0.346869 -0.31912,0 -0.596615,0.110998 -0.832486,0.346869 -0.235871,0.235871 -0.319119,0.499492 -0.319119,0.832486 z M 19.197115,4.1152498 c 0.943484,-0.9434838 2.081214,-1.4013509 3.440941,-1.4013509 1.359727,0 2.511332,0.4856167 3.46869,1.4429752 0.957359,0.9573585 1.429101,2.1228385 1.429101,3.4964398 0,0.8186109 -0.235871,1.6649714 -0.707613,2.5529561 C 25.496257,8.8742929 23.87291,8.2083044 21.972068,8.2083044 H 21.54195 C 21.153457,6.5849573 20.362595,5.2252307 19.197115,4.1152498 Z"
   id="path2"
   style="stroke-width:1.38748" />
</svg>
