<?xml version="1.0" encoding="UTF-8" standalone="no"?>
<!-- Generator: Adobe Illustrator 22.0.1, SVG Export Plug-In . SVG Version: 6.00 Build 0)  -->

<svg
   version="1.1"
   id="Layer_1"
   x="0px"
   y="0px"
   viewBox="0 0 30 30"
   style="enable-background:new 0 0 30 30;"
   xml:space="preserve"
   sodipodi:docname="night-sleet-storm-symbolic.svg"
   inkscape:version="1.2.2 (b0a8486541, 2022-12-01)"
   xmlns:inkscape="http://www.inkscape.org/namespaces/inkscape"
   xmlns:sodipodi="http://sodipodi.sourceforge.net/DTD/sodipodi-0.dtd"
   xmlns="http://www.w3.org/2000/svg"
   xmlns:svg="http://www.w3.org/2000/svg"
   xmlns:rdf="http://www.w3.org/1999/02/22-rdf-syntax-ns#"
   xmlns:cc="http://creativecommons.org/ns#"
   xmlns:dc="http://purl.org/dc/elements/1.1/"><metadata
   id="metadata9"><rdf:RDF><cc:Work
       rdf:about=""><dc:format>image/svg+xml</dc:format><dc:type
         rdf:resource="http://purl.org/dc/dcmitype/StillImage" /></cc:Work></rdf:RDF></metadata><defs
   id="defs7" /><sodipodi:namedview
   pagecolor="#ffffff"
   bordercolor="#666666"
   borderopacity="1"
   objecttolerance="10"
   gridtolerance="10"
   guidetolerance="10"
   inkscape:pageopacity="0"
   inkscape:pageshadow="2"
   inkscape:window-width="1920"
   inkscape:window-height="1014"
   id="namedview5"
   showgrid="false"
   inkscape:zoom="15.733333"
   inkscape:cx="7.6271188"
   inkscape:cy="20.466102"
   inkscape:window-x="1080"
   inkscape:window-y="470"
   inkscape:window-maximized="1"
   inkscape:current-layer="Layer_1"
   inkscape:showpageshadow="2"
   inkscape:pagecheckerboard="0"
   inkscape:deskcolor="#d1d1d1" />
<path
   d="m 0.2201267,14.663626 c 0,1.537711 0.45307554,2.910667 1.3729562,4.118868 0.9198806,1.208202 2.1006229,2.018246 3.5422269,2.416403 l -0.906151,2.334026 c -0.068648,0.192214 0,0.30205 0.1922138,0.30205 h 2.9243967 l -1.9633274,5.780146 h 0.3981573 l 5.9860888,-7.770932 c 0.05492,-0.05492 0.05492,-0.123566 0.02746,-0.192214 -0.02746,-0.06865 -0.09611,-0.09611 -0.192214,-0.09611 H 8.5951594 L 12.01382,15.17162 c 0.09611,-0.192214 0.04119,-0.302051 -0.192214,-0.302051 H 7.7576561 c -0.123566,0 -0.2334025,0.06865 -0.3157799,0.205944 L 5.9728131,19.029626 C 4.9842847,18.782494 4.1742405,18.260771 3.5289511,17.436997 2.8836617,16.626953 2.5678818,15.707072 2.5678818,14.663626 c 0,-1.153283 0.3844277,-2.155541 1.1532832,-2.993045 0.7688554,-0.837503 1.7299248,-1.331767 2.8969375,-1.469063 l 0.7002077,-0.04119 c 0.1647547,0 0.2608616,-0.06865 0.3020503,-0.1922134 L 7.7164675,9.1580714 C 7.8674926,7.6752788 8.4853229,6.4258886 9.5974174,5.4236306 10.709512,4.4213726 12.01382,3.9133788 13.524072,3.9133788 c 1.496522,0 2.800831,0.5079938 3.926655,1.5102518 1.125824,1.002258 1.771113,2.2516482 1.922138,3.7344408 l 0.109837,0.8100442 c 0,0.1510254 0.08238,0.2334024 0.247132,0.2334024 h 2.210459 c 1.221932,0 2.279108,0.439346 3.171529,1.318038 0.892422,0.878692 1.331768,1.922139 1.331768,3.14407 0,1.194472 -0.411887,2.224189 -1.235661,3.102881 -0.823773,0.878692 -1.812302,1.345497 -2.993044,1.414145 -0.178485,0 -0.274592,0.08238 -0.274592,0.247132 v 1.839761 c 0,0.151025 0.09611,0.233403 0.274592,0.233403 1.208201,-0.02746 2.320296,-0.356969 3.322554,-0.988529 1.002258,-0.61783 1.798572,-1.455333 2.388943,-2.485051 0.590372,-1.029717 0.878692,-2.155541 0.878692,-3.363742 0,-1.002258 -0.192213,-1.922139 -0.590371,-2.773372 1.043447,-1.318038 1.56517,-2.8282895 1.56517,-4.5170256 0,-1.3043084 -0.329509,-2.5125098 -0.974799,-3.6246043 C 28.159785,2.6365296 27.281093,1.7578376 26.168999,1.1125482 25.056904,0.46725881 23.848703,0.13774933 22.544394,0.13774933 c -0.988528,0 -1.949598,0.20594343 -2.883208,0.61783028 C 18.727576,1.1674665 17.931261,1.7441081 17.244783,2.4717748 16.132689,1.8814037 14.897028,1.5793533 13.510343,1.5793533 11.560745,1.5793533 9.83082,2.183454 8.3342977,3.3916555 6.8377755,4.5998569 5.8629766,6.1375678 5.4510898,8.0185178 3.9271084,8.3754864 2.6777183,9.171801 1.6891898,10.407462 0.71439093,11.670581 0.2201267,13.084726 0.2201267,14.663626 Z M 11.039021,28.695238 c 0,0.233402 0.06865,0.453075 0.219673,0.672748 0.151026,0.219673 0.370699,0.370699 0.672749,0.453076 0.123566,0.02746 0.233402,0.04119 0.329509,0.04119 0.590372,0 0.96107,-0.274592 1.098365,-0.837504 l 0.178485,-0.810044 c 0.08238,-0.356968 0.04119,-0.659019 -0.109837,-0.93361 -0.164755,-0.274591 -0.398157,-0.439346 -0.727667,-0.507994 -0.28832,-0.09611 -0.576641,-0.06865 -0.864962,0.09611 -0.288321,0.164755 -0.466805,0.398157 -0.562912,0.700208 l -0.178484,0.810044 c -0.04119,0.164755 -0.05492,0.274591 -0.05492,0.31578 z m 1.084636,-3.981573 c 0,0.31578 0.109836,0.576642 0.329509,0.796315 0.219673,0.219673 0.494265,0.329509 0.796315,0.329509 0.329509,0 0.590371,-0.109836 0.810044,-0.31578 0.219673,-0.219673 0.31578,-0.480535 0.31578,-0.810044 0,-0.31578 -0.109837,-0.576642 -0.31578,-0.796315 -0.219673,-0.219673 -0.480535,-0.31578 -0.810044,-0.31578 -0.32951,0 -0.590371,0.109837 -0.810044,0.31578 -0.219673,0.205944 -0.31578,0.480535 -0.31578,0.796315 z m 0.851233,-3.116611 c -0.01373,0.205944 0.04119,0.425617 0.192213,0.64529 0.137296,0.219673 0.34324,0.356968 0.617831,0.411887 0.31578,0.08238 0.6041,0.05492 0.878692,-0.08238 0.274591,-0.137295 0.453075,-0.398157 0.562912,-0.768855 l 0.356968,-1.235661 c 0.09611,-0.30205 0.06865,-0.590371 -0.09611,-0.864962 -0.164754,-0.274591 -0.398157,-0.453076 -0.727666,-0.549183 -0.302051,-0.09611 -0.590371,-0.05492 -0.878692,0.109837 -0.288321,0.164755 -0.466805,0.411887 -0.562912,0.727667 l -0.302051,1.23566 c -0.02746,0.109837 -0.04119,0.233403 -0.04119,0.370698 z m 3.789359,2.951856 c 0,0.233403 0.06865,0.453076 0.205943,0.659019 0.137296,0.205944 0.343239,0.356969 0.63156,0.439346 0.04119,0 0.109836,0.01373 0.192214,0.02746 0.08238,0.01373 0.151025,0.02746 0.192214,0.02746 0.562912,0 0.906151,-0.30205 1.043446,-0.906151 l 0.192214,-0.823773 c 0.09611,-0.288321 0.06865,-0.576642 -0.09611,-0.864963 -0.164754,-0.288321 -0.398157,-0.466805 -0.700207,-0.562912 -0.343239,-0.08238 -0.659019,-0.05492 -0.933611,0.109837 -0.274591,0.164754 -0.466805,0.398157 -0.562912,0.727666 l -0.123566,0.810045 c 0,0.01373 0,0.06865 -0.01373,0.151025 -0.01373,0.09611 -0.02746,0.151025 -0.02746,0.205943 z m 1.015987,-4.06395 c 0,0.31578 0.109837,0.576642 0.32951,0.782585 0.205943,0.219673 0.466805,0.329509 0.796314,0.329509 0.32951,0 0.590371,-0.109836 0.810044,-0.315779 0.219673,-0.219673 0.31578,-0.480535 0.31578,-0.796315 0,-0.32951 -0.109836,-0.590371 -0.31578,-0.810044 -0.219673,-0.219673 -0.480534,-0.31578 -0.810044,-0.31578 -0.329509,0 -0.590371,0.109836 -0.810044,0.31578 -0.219673,0.205943 -0.31578,0.480534 -0.31578,0.810044 z M 19.208111,3.8721901 c 0.91988,-0.8786919 2.031975,-1.3317675 3.363742,-1.3317675 1.345497,0 2.498781,0.4668052 3.44612,1.4141449 0.94734,0.9336102 1.427875,2.0868934 1.427875,3.4323905 0,0.9061511 -0.219673,1.7299248 -0.64529,2.4850507 C 25.48252,8.5539707 23.876162,7.8949518 21.967753,7.8949518 H 21.542136 C 21.130249,6.2611339 20.347664,4.9156368 19.208111,3.8721901 Z"
   id="path2"
   style="stroke-width:1.37296" />
</svg>
