<?xml version="1.0" encoding="UTF-8" standalone="no"?>
<!-- Generator: Adobe Illustrator 22.0.1, SVG Export Plug-In . SVG Version: 6.00 Build 0)  -->

<svg
   version="1.1"
   id="Layer_1"
   x="0px"
   y="0px"
   viewBox="0 0 30 30"
   style="enable-background:new 0 0 30 30;"
   xml:space="preserve"
   sodipodi:docname="night-alt-sleet-storm-symbolic.svg"
   inkscape:version="1.2.2 (b0a8486541, 2022-12-01)"
   xmlns:inkscape="http://www.inkscape.org/namespaces/inkscape"
   xmlns:sodipodi="http://sodipodi.sourceforge.net/DTD/sodipodi-0.dtd"
   xmlns="http://www.w3.org/2000/svg"
   xmlns:svg="http://www.w3.org/2000/svg"><defs
   id="defs7" /><sodipodi:namedview
   id="namedview5"
   pagecolor="#ffffff"
   bordercolor="#666666"
   borderopacity="1.0"
   inkscape:showpageshadow="2"
   inkscape:pageopacity="0.0"
   inkscape:pagecheckerboard="0"
   inkscape:deskcolor="#d1d1d1"
   showgrid="false"
   inkscape:zoom="29.233333"
   inkscape:cx="14.982896"
   inkscape:cy="23.192702"
   inkscape:window-width="1920"
   inkscape:window-height="1014"
   inkscape:window-x="1080"
   inkscape:window-y="470"
   inkscape:window-maximized="1"
   inkscape:current-layer="Layer_1" />
<path
   d="m 0.53493443,15.319201 c 0,1.471697 0.43753171,2.784292 1.31259517,3.937785 0.8750634,1.153492 2.0152976,1.949004 3.4207025,2.373278 l -0.8618049,2.253952 c -0.053034,0.185619 0,0.278429 0.1856194,0.278429 h 2.8108099 l -1.7103512,5.542067 h 0.371239 l 5.6083607,-7.451297 c 0.05304,-0.05304 0.05304,-0.119327 0.02651,-0.18562 -0.03978,-0.06629 -0.09281,-0.09281 -0.18562,-0.09281 H 8.622642 L 11.8975,15.823024 c 0.09281,-0.185619 0.03977,-0.291688 -0.172361,-0.291688 H 7.8006126 c -0.1193268,0 -0.2121366,0.06629 -0.2916879,0.198878 l -1.4186633,3.81846 C 5.1489052,19.31002 4.3666516,18.792937 3.7302417,17.997425 3.093832,17.201912 2.7888857,16.31359 2.7888857,15.332459 c 0,-1.100459 0.371239,-2.055074 1.1269756,-2.877103 0.7557366,-0.80877 1.6838342,-1.286077 2.7842927,-1.418663 l 0.7027025,-0.09281 c 0.1723609,0 0.2651707,-0.07955 0.2651707,-0.238653 l 0.09281,-0.676186 C 7.9066808,8.5971214 8.503315,7.3905949 9.5772559,6.4227218 10.651198,5.4548486 11.910759,4.9642827 13.355939,4.9642827 c 1.445181,0 2.704742,0.4905659 3.791941,1.4584391 1.0872,0.9678731 1.697093,2.1743996 1.856196,3.5930642 l 0.09281,0.755736 c 0,0.159103 0.07955,0.251913 0.225395,0.251913 h 2.147882 c 1.206528,0 2.227435,0.424273 3.08924,1.25956 0.861804,0.835288 1.286078,1.856196 1.286078,3.022947 0,1.126975 -0.397757,2.108107 -1.193268,2.930136 -0.795512,0.82203 -1.763386,1.286079 -2.916879,1.36563 -0.159102,0 -0.251912,0.07955 -0.251912,0.251912 v 1.803161 c 0,0.159102 0.07955,0.238653 0.251912,0.238653 1.763386,-0.05304 3.261601,-0.729219 4.494644,-2.002038 1.233044,-1.286078 1.842937,-2.810811 1.842937,-4.574195 0,-1.153493 -0.291688,-2.227435 -0.875063,-3.248343 1.007649,-0.981131 1.683834,-2.1346235 2.002039,-3.4737366 l 0.251911,-0.9015796 c 0.01326,-0.013262 0.01326,-0.039775 0.01326,-0.092811 0,-0.1060683 -0.06629,-0.1723615 -0.198877,-0.2121371 L 28.444154,7.1651999 C 27.688418,6.9398047 27.038749,6.5685657 26.508407,6.0514828 25.978066,5.5343998 25.606827,4.9907998 25.381431,4.4339413 25.156037,3.8770828 25.049969,3.3202242 25.063228,2.7633657 c 0,-0.3712391 0.03977,-0.7424781 0.132585,-1.1269757 L 25.341656,0.82761926 C 25.368168,0.69503397 25.315143,0.58896565 25.156037,0.52267295 L 24.095354,0.20446809 C 23.472203,0.08514123 22.928603,0.01884853 22.451295,0.01884853 21.960729,0.00558999 21.456905,0.05862415 20.953081,0.17795101 20.449257,0.28401933 19.918915,0.46963879 19.375315,0.70829251 18.831715,0.94694613 18.314632,1.3049266 17.810807,1.7557169 17.306983,2.2065071 16.869452,2.7368486 16.498213,3.3467413 15.397754,2.9357266 14.350329,2.7368486 13.369197,2.7368486 c -1.869453,0 -3.5400288,0.5833756 -4.9852087,1.7501268 C 6.9388077,5.6537267 5.9974516,7.1386828 5.5864369,8.9418435 4.1147394,9.2865655 2.9082125,10.055561 1.9535979,11.24883 1.0122418,12.428839 0.53493443,13.794469 0.53493443,15.319201 Z M 10.982661,28.856166 c 0,0.225395 0.0663,0.437532 0.212137,0.649668 0.145844,0.212137 0.35798,0.357981 0.649668,0.437532 0.119327,0.02651 0.225395,0.03977 0.318205,0.03977 0.570118,0 0.928097,-0.265171 1.060682,-0.808771 l 0.172361,-0.782253 c 0.07955,-0.344722 0.03978,-0.63641 -0.106072,-0.901581 -0.159103,-0.265171 -0.384497,-0.424273 -0.702702,-0.490566 -0.278429,-0.09281 -0.556859,-0.06629 -0.835288,0.09281 -0.278429,0.159103 -0.45079,0.384498 -0.5436,0.676186 l -0.172361,0.782252 c -0.03978,0.159103 -0.05304,0.265171 -0.05304,0.304947 z m 1.047425,-3.844976 c 0,0.304947 0.106073,0.556859 0.318205,0.768996 0.212136,0.212136 0.477307,0.318205 0.768994,0.318205 0.318205,0 0.570117,-0.106073 0.782254,-0.304947 0.212137,-0.212136 0.304946,-0.464049 0.304946,-0.782254 0,-0.304946 -0.106072,-0.556858 -0.304946,-0.768994 -0.212137,-0.212137 -0.464049,-0.304946 -0.782254,-0.304946 -0.318204,0 -0.570116,0.106072 -0.782253,0.304946 -0.198878,0.198877 -0.304946,0.464048 -0.304946,0.768994 z m 0.822029,-3.009687 c -0.01326,0.198878 0.03978,0.411015 0.185619,0.623151 0.132585,0.212137 0.331463,0.344722 0.596634,0.397756 0.304947,0.07955 0.583376,0.05304 0.848547,-0.07955 0.265171,-0.132585 0.437532,-0.384497 0.5436,-0.742478 l 0.344722,-1.193268 c 0.09281,-0.291688 0.06629,-0.570118 -0.09281,-0.835287 -0.159102,-0.265171 -0.384498,-0.437532 -0.702703,-0.530342 -0.291688,-0.09281 -0.570117,-0.05304 -0.848546,0.106073 -0.27843,0.159102 -0.450791,0.397756 -0.5436,0.702701 l -0.304946,1.193269 c -0.01326,0.106073 -0.02651,0.225395 -0.02651,0.357981 z m 3.659356,2.850585 c 0,0.225395 0.06629,0.437532 0.198878,0.63641 0.132586,0.198878 0.331464,0.344722 0.609892,0.424273 0.03978,0 0.106073,0.01326 0.18562,0.02651 0.07955,0.01326 0.145844,0.02651 0.185619,0.02651 0.5436,0 0.875064,-0.291688 1.007649,-0.875063 l 0.18562,-0.795512 c 0.09281,-0.278429 0.06629,-0.556858 -0.09281,-0.835288 -0.159102,-0.278429 -0.384498,-0.45079 -0.676185,-0.5436 -0.331464,-0.07955 -0.63641,-0.05304 -0.901581,0.106073 -0.26517,0.159102 -0.450789,0.384498 -0.543599,0.702703 l -0.119327,0.782252 c 0,0.01326 0,0.0663 -0.01326,0.145844 -0.01326,0.09281 -0.02651,0.145844 -0.02651,0.198878 z m 0.981131,-3.924527 c 0,0.304946 0.106073,0.556859 0.318205,0.755737 0.198878,0.212136 0.450791,0.318205 0.768996,0.318205 0.318205,0 0.570117,-0.106073 0.782253,-0.304947 0.212137,-0.212136 0.304947,-0.464049 0.304947,-0.768995 0,-0.318205 -0.106073,-0.570117 -0.304947,-0.782253 -0.212136,-0.212136 -0.464048,-0.304946 -0.782253,-0.304946 -0.318205,0 -0.570118,0.106073 -0.782254,0.304946 -0.212137,0.198877 -0.304947,0.464048 -0.304947,0.782253 z M 18.433959,4.5532681 c 0.437531,-0.742478 1.034166,-1.3125952 1.776644,-1.7103513 0.742478,-0.3977561 1.524731,-0.5966341 2.333502,-0.5966341 h 0.291688 v 0.4242732 c 0,0.8485464 0.145844,1.6705757 0.45079,2.4660878 0.304947,0.7955122 0.742479,1.5247317 1.352371,2.2009171 0.596635,0.6761849 1.312595,1.2065265 2.134624,1.6042827 C 26.548183,9.4456685 26.21672,9.8964588 25.765929,10.307474 24.559403,9.273307 23.140739,8.7562239 21.49668,8.7562239 H 21.05915 C 20.674652,7.0856486 19.799588,5.6802437 18.433959,4.5532681 Z"
   id="path2"
   style="stroke-width:1.32585" />
</svg>
