<?xml version="1.0" encoding="UTF-8" standalone="no"?>
<!-- Generator: Adobe Illustrator 22.0.1, SVG Export Plug-In . SVG Version: 6.00 Build 0)  -->

<svg
   version="1.1"
   id="Layer_1"
   x="0px"
   y="0px"
   viewBox="0 0 30 30"
   style="enable-background:new 0 0 30 30;"
   xml:space="preserve"
   sodipodi:docname="night-storm-showers-symbolic.svg"
   inkscape:version="1.2.2 (b0a8486541, 2022-12-01)"
   xmlns:inkscape="http://www.inkscape.org/namespaces/inkscape"
   xmlns:sodipodi="http://sodipodi.sourceforge.net/DTD/sodipodi-0.dtd"
   xmlns="http://www.w3.org/2000/svg"
   xmlns:svg="http://www.w3.org/2000/svg"><defs
   id="defs7" /><sodipodi:namedview
   id="namedview5"
   pagecolor="#ffffff"
   bordercolor="#666666"
   borderopacity="1.0"
   inkscape:showpageshadow="2"
   inkscape:pageopacity="0.0"
   inkscape:pagecheckerboard="0"
   inkscape:deskcolor="#d1d1d1"
   showgrid="false"
   inkscape:zoom="29.233333"
   inkscape:cx="14.982896"
   inkscape:cy="9.5096921"
   inkscape:window-width="1920"
   inkscape:window-height="1014"
   inkscape:window-x="1080"
   inkscape:window-y="470"
   inkscape:window-maximized="1"
   inkscape:current-layer="Layer_1" />
<path
   d="m 0.09928322,14.847528 c 0,1.524724 0.45741735,2.896976 1.38611318,4.130617 0.9286958,1.219779 2.1068921,2.051447 3.5623109,2.495004 l -0.9009736,2.300947 c -0.055445,0.194056 0,0.291084 0.1940559,0.291084 h 2.9385599 l -1.580169,5.669203 h 0.4019728 l 5.6553417,-7.609761 c 0.05545,-0.05544 0.05545,-0.12475 0.01386,-0.194056 -0.04158,-0.06931 -0.110889,-0.09703 -0.207917,-0.09703 H 8.5545737 l 3.4236993,-6.473149 c 0.09703,-0.194055 0.04158,-0.304944 -0.180194,-0.304944 H 7.6951835 c -0.1247502,0 -0.2217781,0.0693 -0.2633615,0.194055 L 5.8932363,19.310812 C 4.909096,19.061312 4.0912892,18.520728 3.4259549,17.68906 2.7744817,16.857392 2.4418145,15.928696 2.4418145,14.889111 c 0,-1.164335 0.3881117,-2.176198 1.1781962,-3.035588 0.7900845,-0.85939 1.7603638,-1.34453 2.9108377,-1.455419 l 0.7207789,-0.09703 c 0.1801947,0 0.2772226,-0.08317 0.2772226,-0.235639 L 7.6258778,9.3446582 C 7.7783503,7.8337948 8.4021012,6.5724318 9.5248529,5.5744303 10.647605,4.5625677 11.964412,4.0635669 13.489137,4.0635669 c 1.510863,0 2.841532,0.4990008 3.964283,1.5108634 1.122752,1.0118626 1.774225,2.2732256 1.940559,3.7702279 l 0.09703,0.8039458 c 0,0.152472 0.08317,0.235639 0.2495,0.235639 h 2.245503 c 1.261363,0 2.328671,0.443556 3.229644,1.316808 0.887113,0.873251 1.34453,1.940558 1.34453,3.160338 0,1.192057 -0.415834,2.217781 -1.247502,3.091032 -0.831668,0.873251 -1.84353,1.34453 -3.049449,1.441558 -0.166333,0 -0.263361,0.08317 -0.263361,0.2495 v 1.912836 c 0,0.152473 0.08317,0.23564 0.263361,0.23564 1.843531,-0.05545 3.409839,-0.762363 4.698924,-2.106892 1.289085,-1.34453 1.926697,-2.93856 1.926697,-4.809813 0,-1.011863 -0.194056,-1.926698 -0.568306,-2.772227 1.053446,-1.386113 1.580169,-2.9108373 1.580169,-4.560312 0,-0.9841403 -0.194056,-1.9266973 -0.582168,-2.8276709 C 28.930438,3.8140666 28.403715,3.0517043 27.766102,2.4002311 27.12849,1.7487579 26.338406,1.235896 25.437432,0.84778434 24.536459,0.45967265 23.593902,0.2656168 22.623623,0.2656168 c -1.025724,0 -1.996003,0.20791698 -2.93856,0.62375093 C 18.756367,1.3052017 17.93856,1.8873692 17.273226,2.6358704 16.136613,2.0259805 14.889111,1.7210356 13.53072,1.7210356 c -1.968281,0 -3.7147833,0.6098899 -5.2256467,1.8158083 C 6.7942099,4.7427624 5.8100696,6.3090703 5.3803745,8.2080454 3.8417888,8.5684348 2.5804258,9.3585193 1.5824243,10.606021 0.58442283,11.853523 0.09928322,13.253497 0.09928322,14.847528 Z M 11.423828,28.528465 c 0,0.2495 0.06931,0.485139 0.221778,0.706917 0.152473,0.23564 0.36039,0.374251 0.637612,0.415834 0.02772,0 0.06931,0 0.110889,0.01386 0.04158,0.01386 0.09703,0.01386 0.12475,0.01386 0.02772,0 0.06931,0 0.110889,0 0.596029,-0.04158 0.956419,-0.318806 1.108891,-0.845529 l 0.401973,-1.46928 c 0.08317,-0.304945 0.04158,-0.596029 -0.12475,-0.873252 -0.166334,-0.277222 -0.415834,-0.471278 -0.73464,-0.568306 -0.304945,-0.08317 -0.596029,-0.04158 -0.873252,0.110889 -0.277222,0.166334 -0.471278,0.415834 -0.568306,0.73464 l -0.346528,1.386113 c -0.04158,0.249501 -0.06931,0.36039 -0.06931,0.374251 z m 1.857392,-6.61176 c 0,0.207917 0.0693,0.415834 0.207917,0.623751 0.138611,0.207917 0.360389,0.360389 0.637612,0.471278 0.304945,0.110889 0.596028,0.08317 0.873251,-0.0693 0.277223,-0.152473 0.457417,-0.401973 0.554445,-0.73464 l 0.415834,-1.441558 c 0.08317,-0.346528 0.05545,-0.665334 -0.110889,-0.942557 -0.166333,-0.277223 -0.401973,-0.443556 -0.73464,-0.512862 -0.304945,-0.09703 -0.60989,-0.06931 -0.887112,0.09703 -0.277223,0.166334 -0.471279,0.401973 -0.582168,0.73464 l -0.346528,1.413835 c 0,0.02772 0,0.06931 -0.01386,0.110889 -0.01386,0.04158 -0.01386,0.09703 -0.01386,0.124751 0,0.04158 0,0.08317 0,0.12475 z m 3.9227,2.245503 c 0,0.263362 0.06931,0.499001 0.221778,0.720779 0.152473,0.221778 0.36039,0.374251 0.651473,0.443556 0.221778,0.04158 0.346529,0.06931 0.374251,0.06931 0.540584,0 0.900973,-0.277223 1.067307,-0.831668 l 0.332667,-1.46928 c 0.09703,-0.304945 0.06931,-0.596029 -0.08317,-0.873251 -0.152472,-0.277223 -0.37425,-0.471279 -0.693056,-0.568307 -0.346529,-0.08317 -0.665335,-0.04158 -0.942557,0.12475 -0.291084,0.166334 -0.457418,0.415834 -0.526723,0.73464 l -0.388112,1.372253 c 0,0.0693 -0.01386,0.166333 -0.01386,0.277222 z m 1.885114,-6.584037 c 0,0.221778 0.06931,0.443556 0.221778,0.651473 0.152472,0.207917 0.374251,0.37425 0.679195,0.471278 0.23564,0.02772 0.36039,0.04158 0.36039,0.04158 0.166333,0 0.332667,-0.04158 0.526723,-0.110889 0.263361,-0.138612 0.457417,-0.374251 0.540584,-0.720779 l 0.401973,-1.441558 c 0.08317,-0.304945 0.04158,-0.596029 -0.12475,-0.873251 -0.166334,-0.277223 -0.415834,-0.471279 -0.73464,-0.568307 -0.318806,-0.09703 -0.60989,-0.0693 -0.887113,0.09703 -0.277222,0.166334 -0.457417,0.401973 -0.554445,0.73464 l -0.388112,1.413836 c -0.02772,0.12475 -0.04158,0.221778 -0.04158,0.304945 z M 19.241506,3.9249556 c 0.914835,-0.8871124 2.051448,-1.3306686 3.395978,-1.3306686 1.358391,0 2.522726,0.4851396 3.465283,1.4415577 0.956418,0.9564181 1.427696,2.1207532 1.427696,3.4791441 0,0.8732513 -0.221778,1.6910581 -0.679195,2.4672815 -1.372252,-1.3306687 -2.980144,-1.996003 -4.837535,-1.996003 H 21.570177 C 21.154343,6.378376 20.378119,5.019985 19.241506,3.9249556 Z"
   id="path2"
   style="stroke-width:1.38611" />
</svg>
