<?xml version="1.0" encoding="UTF-8" standalone="no"?>
<!-- Generator: Adobe Illustrator 22.0.1, SVG Export Plug-In . SVG Version: 6.00 Build 0)  -->

<svg
   version="1.1"
   id="Layer_1"
   x="0px"
   y="0px"
   viewBox="0 0 30 30"
   style="enable-background:new 0 0 30 30;"
   xml:space="preserve"
   sodipodi:docname="night-snow-thunderstorm-symbolic.svg"
   inkscape:version="1.2.2 (b0a8486541, 2022-12-01)"
   xmlns:inkscape="http://www.inkscape.org/namespaces/inkscape"
   xmlns:sodipodi="http://sodipodi.sourceforge.net/DTD/sodipodi-0.dtd"
   xmlns="http://www.w3.org/2000/svg"
   xmlns:svg="http://www.w3.org/2000/svg"><defs
   id="defs7" /><sodipodi:namedview
   id="namedview5"
   pagecolor="#ffffff"
   bordercolor="#666666"
   borderopacity="1.0"
   inkscape:showpageshadow="2"
   inkscape:pageopacity="0.0"
   inkscape:pagecheckerboard="0"
   inkscape:deskcolor="#d1d1d1"
   showgrid="false"
   inkscape:zoom="29.233333"
   inkscape:cx="14.982896"
   inkscape:cy="9.5096921"
   inkscape:window-width="1920"
   inkscape:window-height="1014"
   inkscape:window-x="1080"
   inkscape:window-y="470"
   inkscape:window-maximized="1"
   inkscape:current-layer="Layer_1" />
<path
   d="m 0.06799561,14.785101 c 0,1.552818 0.4575266,2.939262 1.38644419,4.159333 0.9289177,1.220071 2.1212597,2.038073 3.5770262,2.440142 l -0.9150532,2.356955 c -0.069322,0.194102 0,0.305018 0.1941022,0.305018 h 2.9531262 l -1.9687508,5.83693 h 0.4020688 l 6.0448968,-7.847275 c 0.05546,-0.05546 0.05546,-0.124779 0.02773,-0.194102 -0.02773,-0.06932 -0.09705,-0.09705 -0.194102,-0.09705 H 8.5391699 l 3.4522461,-6.446965 c 0.09705,-0.194103 0.04159,-0.305018 -0.194102,-0.305018 H 7.6795745 c -0.12478,0 -0.2356956,0.06932 -0.3188822,0.207966 l -1.4834954,3.99296 C 4.8789571,18.944434 4.060955,18.417585 3.4093262,17.585718 2.7576974,16.767716 2.4388153,15.838799 2.4388153,14.785101 c 0,-1.164613 0.3882043,-2.176717 1.1646131,-3.022448 0.7764088,-0.845731 1.7607842,-1.344851 2.9253973,-1.483496 l 0.7070866,-0.04159 c 0.1663733,0 0.2634244,-0.06932 0.3050177,-0.194102 L 7.6518456,9.2254598 C 7.8043544,7.7281 8.4282543,6.4664357 9.5512742,5.4543315 10.674294,4.4422272 11.991416,3.9292428 13.516505,3.9292428 c 1.511224,0 2.828346,0.5129844 3.96523,1.5250887 1.136884,1.0121042 1.788513,2.2737685 1.941022,3.7711283 l 0.110916,0.8180022 c 0,0.152509 0.08319,0.235695 0.24956,0.235695 h 2.232175 c 1.233935,0 2.301497,0.443663 3.202686,1.330987 0.901189,0.887324 1.344851,1.941022 1.344851,3.174957 0,1.206207 -0.415933,2.24604 -1.2478,3.133364 -0.831866,0.887324 -1.830106,1.358715 -3.022448,1.428038 -0.180238,0 -0.277289,0.08319 -0.277289,0.24956 v 1.857835 c 0,0.152509 0.09705,0.235695 0.277289,0.235695 1.220071,-0.02773 2.34309,-0.360475 3.355195,-0.998239 1.012104,-0.6239 1.816242,-1.469631 2.412413,-2.509464 0.596171,-1.039834 0.887324,-2.176718 0.887324,-3.396789 0,-1.012104 -0.194102,-1.941022 -0.596171,-2.800617 1.053698,-1.330987 1.580546,-2.8560753 1.580546,-4.5614017 0,-1.3171221 -0.332746,-2.537193 -0.984375,-3.6602128 C 28.296,2.6398497 27.408676,1.7525254 26.285656,1.1008966 25.162636,0.44926778 23.942565,0.11652116 22.625443,0.11652116 c -0.99824,0 -1.968751,0.20796664 -2.911533,0.62389991 C 18.771128,1.1563543 17.966991,1.7386609 17.273769,2.4734764 16.150749,1.8773053 14.902949,1.5722876 13.50264,1.5722876 c -1.968751,0 -3.7156703,0.6100355 -5.2268945,1.8301064 C 6.7645213,4.6224649 5.7801459,6.1752825 5.3642126,8.0747111 3.8252595,8.4351866 2.5635952,9.2393242 1.5653554,10.487124 0.56711554,11.762653 0.06799561,13.19069 0.06799561,14.785101 Z M 13.363996,23.214682 c 0,0.332747 0.110915,0.610036 0.332746,0.818002 0.221831,0.221831 0.49912,0.332747 0.804138,0.332747 0.332747,0 0.610036,-0.110916 0.845731,-0.332747 0.235696,-0.221831 0.346611,-0.49912 0.346611,-0.818002 0,-0.332747 -0.110915,-0.610035 -0.346611,-0.845731 -0.235695,-0.235695 -0.512984,-0.360475 -0.845731,-0.360475 -0.305018,0 -0.568442,0.12478 -0.804138,0.360475 -0.235695,0.235696 -0.332746,0.512984 -0.332746,0.845731 z m 0,-5.046657 c 0,0.332747 0.110915,0.596171 0.332746,0.804138 0.221831,0.221831 0.49912,0.332746 0.804138,0.332746 0.332747,0 0.6239,-0.110915 0.845731,-0.318882 0.221831,-0.207966 0.346611,-0.485255 0.346611,-0.818002 0,-0.318882 -0.110915,-0.596171 -0.346611,-0.831866 -0.235695,-0.235696 -0.512984,-0.346612 -0.845731,-0.346612 -0.318882,0 -0.582307,0.110916 -0.804138,0.346612 -0.221831,0.235695 -0.332746,0.512984 -0.332746,0.831866 z m 0,10.134907 c 0,0.305018 0.110915,0.568443 0.332746,0.790274 0.235696,0.235695 0.49912,0.346611 0.804138,0.346611 0.332747,0 0.610036,-0.110916 0.845731,-0.332747 0.235696,-0.221831 0.346611,-0.485255 0.346611,-0.818002 0,-0.332747 -0.110915,-0.610035 -0.346611,-0.845731 -0.235695,-0.235696 -0.512984,-0.360476 -0.845731,-0.360476 -0.305018,0 -0.568442,0.12478 -0.804138,0.360476 -0.221831,0.24956 -0.332746,0.540713 -0.332746,0.859595 z m 4.478215,-7.777952 c 0,0.332747 0.110915,0.610036 0.346611,0.831867 0.235695,0.221831 0.49912,0.346611 0.831866,0.346611 0.318882,0 0.596171,-0.110916 0.818002,-0.346611 0.221831,-0.235696 0.332747,-0.512985 0.332747,-0.831867 0,-0.305017 -0.110916,-0.582306 -0.332747,-0.804137 -0.221831,-0.221831 -0.485255,-0.332747 -0.818002,-0.332747 -0.318882,0 -0.596171,0.110916 -0.831866,0.332747 -0.235696,0.221831 -0.346611,0.485255 -0.346611,0.804137 z m 0,5.046657 c 0,0.318882 0.110915,0.582307 0.332746,0.804138 0.221831,0.221831 0.49912,0.332747 0.831867,0.332747 0.332746,0 0.596171,-0.110916 0.818002,-0.332747 0.221831,-0.221831 0.318882,-0.485256 0.318882,-0.818002 0,-0.332747 -0.110915,-0.596171 -0.318882,-0.818002 -0.221831,-0.221831 -0.485256,-0.318882 -0.818002,-0.318882 -0.332747,0 -0.610036,0.110915 -0.831867,0.318882 -0.221831,0.221831 -0.332746,0.49912 -0.332746,0.831866 z M 19.242519,3.8876495 c 0.928918,-0.8873243 2.051938,-1.3448509 3.396789,-1.3448509 1.358715,0 2.523328,0.471391 3.479975,1.4280375 0.956646,0.9427821 1.441902,2.1073953 1.441902,3.4661106 0,0.9150532 -0.221831,1.7469197 -0.651629,2.5094641 C 25.578569,8.6154243 23.95643,7.9499311 22.029272,7.9499311 H 21.599475 C 21.183541,6.3000624 20.393268,4.9413471 19.242519,3.8876495 Z"
   id="path2"
   style="stroke-width:1.38644" />
</svg>
