<?xml version="1.0" encoding="UTF-8" standalone="no"?>
<!-- Generator: Adobe Illustrator 22.0.1, SVG Export Plug-In . SVG Version: 6.00 Build 0)  -->

<svg
   version="1.1"
   id="Layer_1"
   x="0px"
   y="0px"
   viewBox="0 0 30 30"
   style="enable-background:new 0 0 30 30;"
   xml:space="preserve"
   sodipodi:docname="night-alt-storm-showers-symbolic.svg"
   inkscape:version="1.2.2 (b0a8486541, 2022-12-01)"
   xmlns:inkscape="http://www.inkscape.org/namespaces/inkscape"
   xmlns:sodipodi="http://sodipodi.sourceforge.net/DTD/sodipodi-0.dtd"
   xmlns="http://www.w3.org/2000/svg"
   xmlns:svg="http://www.w3.org/2000/svg"><defs
   id="defs7" /><sodipodi:namedview
   id="namedview5"
   pagecolor="#ffffff"
   bordercolor="#666666"
   borderopacity="1.0"
   inkscape:showpageshadow="2"
   inkscape:pageopacity="0.0"
   inkscape:pagecheckerboard="0"
   inkscape:deskcolor="#d1d1d1"
   showgrid="false"
   inkscape:zoom="29.233333"
   inkscape:cx="14.982896"
   inkscape:cy="20.4561"
   inkscape:window-width="1920"
   inkscape:window-height="1014"
   inkscape:window-x="1080"
   inkscape:window-y="470"
   inkscape:window-maximized="1"
   inkscape:current-layer="Layer_1" />
<path
   d="m 0.44404072,15.461295 c 0,1.480946 0.44028124,2.801789 1.32084358,3.96253 0.8805624,1.160742 2.0279618,1.961253 3.4421984,2.388192 l -0.8672205,2.268116 c -0.053368,0.186786 0,0.280178 0.1867859,0.280178 H 7.3551212 L 5.634022,29.937207 h 0.3735719 l 5.6436041,-7.498123 c 0.05336,-0.05336 0.05336,-0.120076 0.02669,-0.186786 -0.04003,-0.06671 -0.09339,-0.09339 -0.186786,-0.09339 H 8.5825718 l 3.2954372,-6.190621 c 0.09339,-0.186786 0.04003,-0.293521 -0.173444,-0.293521 H 7.7553769 c -0.1200768,0 -0.2134698,0.06671 -0.2935209,0.200128 L 6.0342776,19.717346 C 5.087006,19.477193 4.2998365,18.956861 3.6594275,18.15635 3.0190185,17.355838 2.712156,16.461934 2.712156,15.474637 c 0,-1.107374 0.3735718,-2.067988 1.1340576,-2.895183 0.7604856,-0.813853 1.6944154,-1.29416 2.8017892,-1.427578 l 0.7071184,-0.09339 c 0.1734441,0 0.2668371,-0.08005 0.2668371,-0.240154 l 0.093392,-0.680434 C 7.8621116,8.6969746 8.4624951,7.4828657 9.5431846,6.5089103 10.623875,5.5349549 11.891351,5.0413063 13.345613,5.0413063 c 1.454263,0 2.721738,0.4936486 3.815771,1.467604 1.094032,0.9739554 1.707757,2.1880643 1.867859,3.6156427 l 0.09339,0.760485 c 0,0.160103 0.08005,0.253495 0.226812,0.253495 h 2.16138 c 1.214109,0 2.241431,0.42694 3.108652,1.267477 0.86722,0.840537 1.294159,1.867859 1.294159,3.041943 0,1.134057 -0.400255,2.121355 -1.200766,2.948549 -0.800511,0.827196 -1.774467,1.29416 -2.935208,1.374212 -0.160102,0 -0.253495,0.08005 -0.253495,0.253495 v 1.814492 c 0,0.160102 0.08005,0.240153 0.253495,0.240153 1.774467,-0.05336 3.282096,-0.733802 4.522889,-2.014619 1.240792,-1.294161 1.854518,-2.828473 1.854518,-4.60294 0,-1.160742 -0.293521,-2.241432 -0.880564,-3.268754 1.013982,-0.987297 1.694416,-2.148039 2.014621,-3.4955664 l 0.253495,-0.9072464 c 0.01334,-0.013338 0.01334,-0.040026 0.01334,-0.09339 0,-0.1067352 -0.06671,-0.1734447 -0.200127,-0.2134702 L 28.528644,7.2560541 C 27.768157,7.0292426 27.114407,6.6556707 26.580733,6.1353384 26.047058,5.615006 25.673486,5.0679901 25.446676,4.5076321 25.219864,3.9472742 25.113129,3.3869164 25.126471,2.8265585 c 0,-0.3735719 0.04003,-0.7471438 0.133419,-1.1340576 L 25.40665,0.87864782 C 25.433337,0.74522924 25.379962,0.63849445 25.219864,0.57178516 L 24.152516,0.25158066 C 23.525449,0.13150391 22.978433,0.06479474 22.498126,0.06479474 22.004477,0.05145312 21.497487,0.10482069 20.990496,0.22489699 20.483505,0.33163212 19.949831,0.5184177 19.402816,0.75857108 18.8558,0.99872445 18.335467,1.3589546 17.828477,1.8125776 17.321486,2.2662006 16.881205,2.7998748 16.507632,3.4136001 15.40026,3.0000027 14.346252,2.7998748 13.358955,2.7998748 c -1.881201,0 -3.5622753,0.5870416 -5.0165366,1.7611248 C 6.8881563,5.7350828 5.9408845,7.2293705 5.5272871,9.0438621 4.0463413,9.3907507 2.8322326,10.164579 1.8716191,11.365345 0.92434747,12.55277 0.44404072,13.926982 0.44404072,15.461295 Z M 11.344336,28.629705 c 0,0.213469 0.06671,0.413597 0.200127,0.627067 0.133419,0.213469 0.333546,0.36023 0.600384,0.440281 0.213469,0.04003 0.333546,0.06671 0.360229,0.06671 0.120077,0 0.293521,-0.04003 0.493649,-0.133419 0.280179,-0.133418 0.466965,-0.36023 0.560359,-0.707118 l 0.373571,-1.400894 c 0.08005,-0.293521 0.05336,-0.573701 -0.106739,-0.840538 -0.160103,-0.266836 -0.386914,-0.453622 -0.707119,-0.547016 -0.29352,-0.08005 -0.573699,-0.04003 -0.840536,0.10674 -0.266838,0.160101 -0.453624,0.400255 -0.547016,0.707118 l -0.360231,1.334185 z m 1.787808,-6.350723 c 0,0.5737 0.266837,0.907246 0.813853,1.000639 0.186786,0.04003 0.306863,0.06671 0.36023,0.06671 0.50699,0 0.840536,-0.280179 1.027322,-0.840537 l 0.400256,-1.360869 c 0.08005,-0.293521 0.04003,-0.573699 -0.106739,-0.840537 -0.14676,-0.266837 -0.400255,-0.453623 -0.707118,-0.547015 -0.293521,-0.09339 -0.587042,-0.06671 -0.853879,0.09339 -0.266838,0.160103 -0.453623,0.386913 -0.547016,0.707119 l -0.333546,1.347526 c -0.04003,0.120077 -0.05336,0.240153 -0.05336,0.373572 z m 3.749061,2.22809 c 0.01334,0.226811 0.09339,0.440281 0.240153,0.640409 0.146761,0.200127 0.36023,0.36023 0.640409,0.453622 0.213469,0.05337 0.360231,0.08005 0.440281,0.08005 0.453623,0 0.773828,-0.306862 0.947272,-0.907246 l 0.320205,-1.360869 c 0.09339,-0.306863 0.06671,-0.600384 -0.08005,-0.880562 -0.14676,-0.28018 -0.373572,-0.453624 -0.667093,-0.547016 -0.333546,-0.08005 -0.640408,-0.04003 -0.907245,0.106739 -0.266838,0.160103 -0.440281,0.400256 -0.493649,0.707119 l -0.386914,1.374211 c 0,0.02669 -0.01334,0.08005 -0.02669,0.160102 -0.02669,0.09339 -0.02669,0.14676 -0.02669,0.173445 z M 18.455543,4.6277088 C 18.895824,3.8805651 19.496208,3.3068652 20.243352,2.9066096 20.990496,2.506354 21.777665,2.3062262 22.591518,2.3062262 h 0.293521 v 0.4269393 c 0,0.8538787 0.14676,1.6810736 0.453623,2.4815849 0.306862,0.8005112 0.747145,1.5343133 1.36087,2.2147478 0.600382,0.6804343 1.320843,1.2141088 2.148037,1.6143639 -0.22681,0.5069914 -0.560357,0.9606139 -1.01398,1.3742119 C 24.61948,9.3774091 23.191902,8.8570762 21.537512,8.8570762 H 21.097231 C 20.710317,7.176003 19.829754,5.7617664 18.455543,4.6277088 Z m 0.253496,13.4752732 c 0,0.5737 0.293521,0.947271 0.86722,1.094031 0.186786,0.02669 0.320205,0.05337 0.400256,0.05337 0.480307,0 0.813853,-0.29352 0.987297,-0.867221 l 0.373572,-1.387552 c 0.01334,-0.06671 0.01334,-0.160103 0.01334,-0.293521 0.01334,-0.226812 -0.04003,-0.440281 -0.186785,-0.653751 -0.14676,-0.21347 -0.360231,-0.360231 -0.653751,-0.440281 -0.01334,0 -0.06671,0 -0.133419,-0.01334 -0.06671,-0.01334 -0.133418,-0.01334 -0.173443,-0.01334 -0.213471,0 -0.42694,0.06671 -0.64041,0.200128 -0.213469,0.133418 -0.36023,0.346888 -0.440281,0.627066 l -0.386913,1.360869 c 0,0.01334 0,0.05336 -0.01334,0.133419 0,0.09339 -0.01334,0.160103 -0.01334,0.200128 z"
   id="path2"
   style="stroke-width:1.33418" />
</svg>
