<?xml version="1.0" encoding="UTF-8" standalone="no"?>
<!-- Generator: Adobe Illustrator 22.0.1, SVG Export Plug-In . SVG Version: 6.00 Build 0)  -->

<svg
   version="1.1"
   id="Layer_1"
   x="0px"
   y="0px"
   viewBox="0 0 30 30"
   style="enable-background:new 0 0 30 30;"
   xml:space="preserve"
   sodipodi:docname="night-alt-sprinkle-symbolic.svg"
   inkscape:version="1.2.2 (b0a8486541, 2022-12-01)"
   xmlns:inkscape="http://www.inkscape.org/namespaces/inkscape"
   xmlns:sodipodi="http://sodipodi.sourceforge.net/DTD/sodipodi-0.dtd"
   xmlns="http://www.w3.org/2000/svg"
   xmlns:svg="http://www.w3.org/2000/svg"><defs
   id="defs7" /><sodipodi:namedview
   id="namedview5"
   pagecolor="#ffffff"
   bordercolor="#666666"
   borderopacity="1.0"
   inkscape:showpageshadow="2"
   inkscape:pageopacity="0.0"
   inkscape:pagecheckerboard="0"
   inkscape:deskcolor="#d1d1d1"
   showgrid="false"
   inkscape:zoom="29.233333"
   inkscape:cx="14.982896"
   inkscape:cy="12.246294"
   inkscape:window-width="1920"
   inkscape:window-height="1014"
   inkscape:window-x="1080"
   inkscape:window-y="470"
   inkscape:window-maximized="1"
   inkscape:current-layer="Layer_1" />
<path
   d="m 0.06503087,17.977389 c 0,1.824851 0.63115158,3.40273 1.90717543,4.706195 1.2760238,1.317186 2.8264614,2.016941 4.6650334,2.112986 0.1646482,0 0.2469723,-0.08232 0.2469723,-0.246972 v -1.824851 c 0,-0.164649 -0.082324,-0.246973 -0.2469723,-0.246973 C 5.4572606,22.422891 4.4693712,21.956388 3.64613,21.078264 2.8228888,20.20014 2.4112682,19.171089 2.4112682,17.977389 2.4112682,16.838572 2.7954475,15.850683 3.5638059,15 4.3321643,14.163038 5.2926124,13.669093 6.4451501,13.531887 l 0.7134757,-0.05488 c 0.1783689,0 0.2744137,-0.08232 0.2744137,-0.246973 l 0.096045,-0.740917 C 7.6800118,11.00728 8.2974427,9.758698 9.4088183,8.7708084 10.520194,7.7691983 11.823659,7.2752536 13.319214,7.2752536 c 1.495555,0 2.79902,0.5076654 3.924116,1.5092755 1.125097,1.0016102 1.756248,2.2364719 1.920896,3.7183059 l 0.09605,0.782079 c 0,0.164648 0.08232,0.260693 0.246973,0.260693 H 21.73 c 1.221141,0 2.263913,0.439062 3.155758,1.317186 0.891844,0.878124 1.330906,1.920896 1.330906,3.114596 0,1.1937 -0.41162,2.222751 -1.234862,3.100875 -0.823241,0.878124 -1.824851,1.344627 -2.991109,1.39951 -0.164648,0 -0.260693,0.08232 -0.260693,0.246973 v 1.824851 c 0,0.164648 0.08232,0.246972 0.260693,0.246972 1.20742,-0.04116 2.305075,-0.370458 3.306685,-0.987889 1.00161,-0.617431 1.79741,-1.440672 2.373679,-2.469724 0.576269,-1.029051 0.864403,-2.154148 0.864403,-3.347847 0,-1.1937 -0.315576,-2.305076 -0.933006,-3.361569 1.070213,-1.01533 1.769968,-2.195309 2.112985,-3.539937 l 0.19209,-1.00161 c 0.01372,-0.01372 0.02744,-0.04116 0.02744,-0.096045 0,-0.096045 -0.0686,-0.1783689 -0.219531,-0.219531 L 28.933355,9.5391669 C 28.151276,9.3196359 27.478962,8.9354568 26.930135,8.4140706 26.367587,7.8926845 25.969687,7.3301363 25.736435,6.7538675 25.503184,6.163878 25.379697,5.5876092 25.379697,4.9976196 c 0,-0.3978999 0.05488,-0.7820791 0.150928,-1.1662583 L 25.708994,2.9943994 C 25.736435,2.8571925 25.681552,2.747427 25.530625,2.6788236 L 24.43297,2.3495271 c -0.617431,-0.1372068 -1.1937,-0.2058103 -1.742527,-0.2058103 -0.493945,0 -1.00161,0.054883 -1.536717,0.178369 -0.521386,0.1234861 -1.070214,0.3018551 -1.632762,0.5488274 -0.562548,0.2469724 -1.111375,0.6037102 -1.646482,1.0839343 -0.535107,0.480224 -0.98789,1.0153308 -1.372069,1.6464823 -1.111375,-0.4253412 -2.181589,-0.6311515 -3.19692,-0.6311515 -1.934617,0 -3.663423,0.6037102 -5.1589778,1.8111306 -1.4955548,1.2074204 -2.4697236,2.7441374 -2.8950649,4.6101501 -1.5229962,0.356738 -2.7715786,1.152538 -3.7457474,2.3874 -0.94672732,1.20742 -1.44067203,2.620651 -1.44067203,4.19853 z m 8.15008773,1.20742 c 0,0.521386 0.1920896,0.974169 0.5762689,1.344628 0.3841792,0.370458 0.8506825,0.548827 1.3995095,0.548827 0.548828,0 1.00161,-0.178369 1.372069,-0.548827 0.370459,-0.370459 0.548827,-0.809521 0.548827,-1.344628 0,-0.356737 -0.164648,-0.823241 -0.480224,-1.39951 -0.315575,-0.576268 -0.61743,-1.029051 -0.891844,-1.344627 -0.150928,-0.164648 -0.329297,-0.356738 -0.562548,-0.589989 l -0.4802242,0.562548 c -0.3704586,0.3979 -0.7134757,0.878124 -1.0290515,1.426951 -0.3155758,0.548828 -0.4527827,0.98789 -0.4527827,1.344627 z m 4.1024854,5.474554 c 0,0.905566 0.315576,1.660203 0.933006,2.277634 0.631152,0.617431 1.38579,0.919286 2.263914,0.919286 0.905565,0 1.660203,-0.315576 2.277634,-0.933006 0.617431,-0.631152 0.933006,-1.38579 0.933006,-2.263914 0,-0.754637 -0.370458,-1.673923 -1.097655,-2.744137 -0.60371,-0.7958 -1.193699,-1.481834 -1.756247,-2.044382 -0.109766,-0.08232 -0.233252,-0.178369 -0.356738,-0.315576 l -0.315576,0.315576 c -0.535107,0.493944 -1.125096,1.179979 -1.756248,2.030661 -0.329296,0.452783 -0.589989,0.933007 -0.80952,1.426952 -0.219531,0.507665 -0.315576,0.946727 -0.315576,1.330906 z m 2.016941,-9.151698 c 0,0.356738 0.137207,0.644873 0.3979,0.905566 0.260693,0.260693 0.576268,0.370458 0.960448,0.370458 0.356738,0 0.644872,-0.123486 0.905565,-0.370458 0.246972,-0.246973 0.370459,-0.548828 0.370459,-0.905566 0,-0.589989 -0.425342,-1.330906 -1.276024,-2.222751 l -0.343017,0.370459 c -0.246973,0.274413 -0.480225,0.589989 -0.686035,0.960448 -0.233251,0.370458 -0.329296,0.672313 -0.329296,0.891844 z m 4.184809,-8.6714733 c 0.480224,-0.7820791 1.097655,-1.3720686 1.838572,-1.7699685 0.740917,-0.3978999 1.536717,-0.6037102 2.359958,-0.6037102 0.164648,0 0.288135,0.013721 0.370459,0.027441 v 0.4116206 c 0,1.3171859 0.356738,2.5657684 1.083934,3.7594681 0.727196,1.1936998 1.715086,2.0855443 2.99111,2.7029753 -0.219531,0.521386 -0.562549,0.98789 -1.029052,1.413231 -1.276024,-1.042772 -2.730417,-1.564158 -4.40434,-1.564158 H 21.277212 C 20.865591,9.4156808 19.946305,7.9612879 18.519354,6.8361917 Z"
   id="path2"
   style="stroke-width:1.37207" />
</svg>
