<?xml version="1.0" encoding="UTF-8" standalone="no"?>
<!-- Generator: Adobe Illustrator 22.0.1, SVG Export Plug-In . SVG Version: 6.00 Build 0)  -->

<svg
   version="1.1"
   id="Layer_1"
   x="0px"
   y="0px"
   viewBox="0 0 30 30"
   style="enable-background:new 0 0 30 30;"
   xml:space="preserve"
   sodipodi:docname="night-alt-snow-thunderstorm-symbolic.svg"
   inkscape:version="1.2.2 (b0a8486541, 2022-12-01)"
   xmlns:inkscape="http://www.inkscape.org/namespaces/inkscape"
   xmlns:sodipodi="http://sodipodi.sourceforge.net/DTD/sodipodi-0.dtd"
   xmlns="http://www.w3.org/2000/svg"
   xmlns:svg="http://www.w3.org/2000/svg"><defs
   id="defs7" /><sodipodi:namedview
   id="namedview5"
   pagecolor="#ffffff"
   bordercolor="#666666"
   borderopacity="1.0"
   inkscape:showpageshadow="2"
   inkscape:pageopacity="0.0"
   inkscape:pagecheckerboard="0"
   inkscape:deskcolor="#d1d1d1"
   showgrid="false"
   inkscape:zoom="29.233333"
   inkscape:cx="14.982896"
   inkscape:cy="23.192702"
   inkscape:window-width="1920"
   inkscape:window-height="1014"
   inkscape:window-x="1080"
   inkscape:window-y="470"
   inkscape:window-maximized="1"
   inkscape:current-layer="Layer_1" />
<path
   d="m 0.46579373,15.460605 c 0,1.478732 0.43962307,2.797601 1.31886917,3.956607 0.8792462,1.159007 2.0249306,1.958322 3.4370532,2.384623 L 4.3557918,24.06656 c -0.053288,0.186506 0,0.27976 0.1865068,0.27976 h 2.8242452 l -1.7185265,5.568558 h 0.3730134 l 5.6351683,-7.486914 c 0.05329,-0.05328 0.05329,-0.119897 0.02665,-0.186506 -0.03997,-0.06661 -0.09325,-0.09325 -0.186507,-0.09325 H 8.5921597 l 3.2905123,-6.181367 c 0.09325,-0.186507 0.03997,-0.293083 -0.173185,-0.293083 H 7.7662011 c -0.1198971,0 -0.2131506,0.06661 -0.293082,0.19983 L 6.0476746,19.710295 C 5.1018188,19.4705 4.3158261,18.950946 3.6763744,18.151632 3.0369226,17.352317 2.7305187,16.459748 2.7305187,15.473927 c 0,-1.105719 0.3730135,-2.064897 1.1323624,-2.890855 0.7593489,-0.812636 1.6918827,-1.292225 2.7976014,-1.425444 l 0.7060613,-0.09325 c 0.1731848,0 0.2664382,-0.07993 0.2664382,-0.239794 L 7.726236,10.145166 C 7.8727767,8.7063969 8.4722626,7.4941034 9.551337,6.5216039 c 1.079075,-0.9724995 2.344656,-1.4654102 3.796745,-1.4654102 1.452089,0 2.71767,0.4929107 3.810066,1.4654102 1.092397,0.9724995 1.705205,2.184793 1.865069,3.6102381 l 0.09325,0.759348 c 0,0.159864 0.07993,0.253116 0.226473,0.253116 h 2.15815 c 1.212294,0 2.23808,0.426302 3.104005,1.265582 0.865925,0.839281 1.292226,1.865069 1.292226,3.037397 0,1.132362 -0.399658,2.118183 -1.198973,2.944142 -0.799314,0.825958 -1.771814,1.292225 -2.93082,1.372157 -0.159863,0 -0.253117,0.07993 -0.253117,0.253116 v 1.81178 c 0,0.159862 0.07993,0.239795 0.253117,0.239795 1.771814,-0.05328 3.27719,-0.732706 4.516128,-2.011609 1.238937,-1.292226 1.851745,-2.824245 1.851745,-4.59606 0,-1.159006 -0.293082,-2.238081 -0.879245,-3.263868 1.012464,-0.985821 1.691882,-2.144827 2.011608,-3.4903411 l 0.253117,-0.9058898 c 0.01332,-0.013323 0.01332,-0.03997 0.01332,-0.093254 0,-0.1065758 -0.06661,-0.1731849 -0.199828,-0.2131506 L 28.508417,7.2676298 C 27.749068,7.0411573 27.096294,6.6681439 26.563417,6.1485893 26.030542,5.6290347 25.657528,5.0828364 25.431055,4.5233161 25.204583,3.9637958 25.098008,3.4042755 25.11133,2.8447553 c 0,-0.3730136 0.03997,-0.7460271 0.133219,-1.1323625 l 0.14654,-0.81263664 c 0.02664,-0.13321907 -0.02664,-0.23979431 -0.186506,-0.3064039 L 24.13883,0.27362634 C 23.512701,0.15372919 22.966502,0.0871196 22.486913,0.0871196 21.994002,0.07379769 21.48777,0.12708536 20.981538,0.24698251 20.475304,0.35355785 19.942427,0.54006459 19.39623,0.779859 18.850032,1.0196534 18.330477,1.379345 17.824244,1.83229 17.318012,2.285235 16.878389,2.8181115 16.505374,3.4309193 15.399656,3.0179401 14.347225,2.8181115 13.361404,2.8181115 c -1.878389,0 -3.5569509,0.586164 -5.0090387,1.7584922 C 6.9002769,5.748932 5.9544212,7.240986 5.5414419,9.0527665 4.0627098,9.3991361 2.8504158,10.171807 1.8912382,11.370778 0.94538255,12.556428 0.46579373,13.928586 0.46579373,15.460605 Z M 13.241506,23.547006 c 0,0.319725 0.106576,0.586163 0.319726,0.785993 0.213151,0.21315 0.479589,0.319725 0.772671,0.319725 0.319726,0 0.586165,-0.106576 0.812637,-0.319725 0.226472,-0.213152 0.333048,-0.479589 0.333048,-0.785993 0,-0.319727 -0.106576,-0.586165 -0.333048,-0.812638 -0.226472,-0.226471 -0.492911,-0.346369 -0.812637,-0.346369 -0.293082,0 -0.546198,0.119898 -0.772671,0.346369 -0.226472,0.226473 -0.319726,0.492911 -0.319726,0.812638 z m 0,-4.849176 c 0,0.319726 0.106576,0.572842 0.319726,0.77267 0.213151,0.213151 0.479589,0.319726 0.772671,0.319726 0.319726,0 0.599487,-0.106575 0.812637,-0.306404 0.213151,-0.199828 0.333048,-0.466266 0.333048,-0.785992 0,-0.306404 -0.106576,-0.572843 -0.333048,-0.799316 -0.226472,-0.226471 -0.492911,-0.333047 -0.812637,-0.333047 -0.306404,0 -0.55952,0.106576 -0.772671,0.333047 -0.21315,0.226473 -0.319726,0.492912 -0.319726,0.799316 z m 0,9.738316 c 0,0.293083 0.106576,0.546199 0.319726,0.75935 0.226473,0.226473 0.479589,0.333047 0.772671,0.333047 0.319726,0 0.586165,-0.106576 0.812637,-0.319725 0.226472,-0.21315 0.333048,-0.466268 0.333048,-0.785993 0,-0.319726 -0.106576,-0.586164 -0.333048,-0.812637 -0.226472,-0.226472 -0.492911,-0.34637 -0.812637,-0.34637 -0.293082,0 -0.546198,0.119898 -0.772671,0.34637 -0.21315,0.239795 -0.319726,0.519554 -0.319726,0.825958 z m 4.302978,-7.473592 c 0,0.319727 0.106576,0.586165 0.333048,0.799316 0.226473,0.21315 0.479589,0.333047 0.799315,0.333047 0.306404,0 0.572841,-0.106576 0.785993,-0.333047 0.21315,-0.226473 0.319725,-0.492912 0.319725,-0.799316 0,-0.293081 -0.106576,-0.55952 -0.319725,-0.77267 -0.213152,-0.213151 -0.466268,-0.319726 -0.785993,-0.319726 -0.306404,0 -0.572842,0.106575 -0.799315,0.319726 -0.226473,0.21315 -0.333048,0.466266 -0.333048,0.77267 z m 0,4.849177 c 0,0.306404 0.106576,0.55952 0.319726,0.77267 0.21315,0.213151 0.479588,0.319726 0.799315,0.319726 0.319726,0 0.572842,-0.106575 0.785992,-0.319726 0.213151,-0.21315 0.306404,-0.466266 0.306404,-0.785993 0,-0.319726 -0.106575,-0.572842 -0.306404,-0.785992 -0.21315,-0.213151 -0.466266,-0.306404 -0.785992,-0.306404 -0.319727,0 -0.586165,0.106575 -0.799315,0.306404 -0.213151,0.21315 -0.319726,0.479588 -0.319726,0.799315 z m 0.90589,-21.1685177 c 0.439623,-0.746027 1.039109,-1.3188692 1.785136,-1.7185266 0.746028,-0.3996573 1.53202,-0.599486 2.344657,-0.599486 h 0.293081 v 0.4263012 c 0,0.8526023 0.146542,1.6785608 0.452946,2.4778755 0.306404,0.7993147 0.746027,1.5320198 1.358835,2.2114373 0.599486,0.6794175 1.318868,1.2122943 2.144827,1.6119518 -0.226472,0.506232 -0.55952,0.9591765 -1.012465,1.3721565 C 24.605097,9.3858139 23.179652,8.8662594 21.527735,8.8662594 H 21.088112 C 20.701777,7.1876983 19.822531,5.7755758 18.450374,4.6432133 Z"
   id="path2"
   style="stroke-width:1.33219" />
</svg>
