<?xml version="1.0" encoding="UTF-8" standalone="no"?>
<!-- Generator: Adobe Illustrator 22.0.1, SVG Export Plug-In . SVG Version: 6.00 Build 0)  -->

<svg
   version="1.1"
   id="Layer_1"
   x="0px"
   y="0px"
   viewBox="0 0 30 30"
   style="enable-background:new 0 0 30 30;"
   xml:space="preserve"
   sodipodi:docname="night-sleet-symbolic.svg"
   inkscape:version="1.2.2 (b0a8486541, 2022-12-01)"
   xmlns:inkscape="http://www.inkscape.org/namespaces/inkscape"
   xmlns:sodipodi="http://sodipodi.sourceforge.net/DTD/sodipodi-0.dtd"
   xmlns="http://www.w3.org/2000/svg"
   xmlns:svg="http://www.w3.org/2000/svg"><defs
   id="defs7" /><sodipodi:namedview
   id="namedview5"
   pagecolor="#ffffff"
   bordercolor="#666666"
   borderopacity="1.0"
   inkscape:showpageshadow="2"
   inkscape:pageopacity="0.0"
   inkscape:pagecheckerboard="0"
   inkscape:deskcolor="#d1d1d1"
   showgrid="false"
   inkscape:zoom="29.233333"
   inkscape:cx="14.982896"
   inkscape:cy="6.7730901"
   inkscape:window-width="1920"
   inkscape:window-height="1014"
   inkscape:window-x="1080"
   inkscape:window-y="470"
   inkscape:window-maximized="1"
   inkscape:current-layer="Layer_1" />
<path
   d="m 0.04429144,14.673517 v -0.02779 c 0,-1.611577 0.50014446,-3.042545 1.50043336,-4.292907 C 2.5450137,9.1024633 3.8231607,8.2827821 5.3513798,7.9354595 5.7820598,6.032132 6.7545629,4.476127 8.2688892,3.2535517 9.7832155,2.0309764 11.533721,1.4196887 13.506513,1.4196887 c 1.375397,0 2.639651,0.3056438 3.778869,0.9169315 0.694645,-0.7363238 1.514327,-1.3198256 2.445151,-1.73661269 0.930824,-0.41678705 1.903328,-0.62518057 2.903616,-0.62518057 1.319826,0 2.542401,0.33342963 3.667726,0.98639601 1.125325,0.65296635 2.014471,1.54211205 2.667438,2.66743715 0.652966,1.125325 0.986396,2.3479003 0.986396,3.667726 0,1.7088269 -0.527931,3.2370459 -1.583791,4.5707649 0.402894,0.847467 0.597395,1.778291 0.597395,2.806366 0,1.222575 -0.291751,2.361793 -0.889146,3.403761 -0.583502,1.041967 -1.38929,1.889434 -2.417365,2.514615 -1.014182,0.62518 -2.139507,0.95861 -3.362082,1.000289 -0.180608,0 -0.277858,-0.08336 -0.277858,-0.23618 v -1.861648 c 0,-0.166715 0.09725,-0.250073 0.277858,-0.250073 1.194789,-0.05557 2.195078,-0.541823 3.028652,-1.430968 0.833574,-0.889146 1.250361,-1.945007 1.250361,-3.139796 0,-1.236468 -0.444572,-2.292329 -1.347611,-3.181475 -0.889146,-0.889145 -1.958899,-1.333718 -3.20926,-1.333718 h -2.236757 c -0.166715,0 -0.250073,-0.08336 -0.250073,-0.2500724 L 19.424889,9.0885704 C 19.272067,7.588137 18.619101,6.323883 17.479883,5.3097011 16.340665,4.2955193 15.006946,3.781482 13.506513,3.781482 c -1.528219,0 -2.848045,0.5140373 -3.9733698,1.5282191 C 8.4078182,6.323883 7.7687447,7.588137 7.6298157,9.0885704 L 7.5186725,9.9082516 C 7.4769938,10.033288 7.3658506,10.102752 7.2130287,10.102752 l -0.708538,0.05557 C 5.3374869,10.297253 4.3510909,10.783504 3.5730884,11.630971 2.795086,12.478438 2.4060847,13.49262 2.4060847,14.659624 v 0.05557 c 0.013893,0.01389 0.027786,0.02778 0.041679,0.02778 0.013893,1.180897 0.43068,2.208972 1.2503612,3.084224 0.3890012,0.402895 0.8196812,0.722431 1.2781469,0.930825 v 0.02779 c 0.5279303,0.263965 1.0975392,0.43068 1.7227198,0.472358 0.1528219,0 0.2361793,0.08336 0.2361793,0.23618 v 1.861648 c 0,0.152822 -0.083357,0.23618 -0.2361793,0.23618 C 6.0182391,21.564396 5.3513798,21.425467 4.7123064,21.189288 3.6564459,20.814179 2.7395144,20.24457 1.9754048,19.438782 1.2112952,18.632994 0.65557911,17.716062 0.33604238,16.660202 0.14154175,16.007235 0.04429144,15.354269 0.04429144,14.673517 Z m 7.64109586,9.96121 c 0,-0.04168 0.013893,-0.09725 0.027786,-0.180607 0.013893,-0.08336 0.027786,-0.138929 0.027786,-0.166715 L 7.865995,23.481616 c 0.09725,-0.333429 0.291751,-0.583501 0.569609,-0.736323 0.2917509,-0.166715 0.5973948,-0.208394 0.9447173,-0.111144 0.3195367,0.09725 0.5418232,0.291751 0.7085377,0.569609 0.152822,0.291751 0.180608,0.583502 0.09725,0.875253 l -0.194501,0.833574 c -0.138929,0.611288 -0.4862516,0.916932 -1.0558605,0.916932 -0.041679,0 -0.1111433,0 -0.2083936,-0.01389 -0.09725,-0.01389 -0.1528219,-0.01389 -0.1806077,-0.01389 C 8.2549963,25.718374 8.0466028,25.565552 7.9076737,25.343265 7.7548518,25.093193 7.6853873,24.870907 7.6853873,24.634727 Z M 8.713462,20.536321 c 0,-0.333429 0.1111432,-0.597394 0.3195368,-0.819681 0.2083935,-0.222286 0.4862515,-0.319537 0.8196812,-0.319537 0.33343,0 0.597395,0.111144 0.819681,0.319537 0.222287,0.208394 0.319537,0.486252 0.319537,0.819681 0,0.319537 -0.111143,0.597395 -0.319537,0.805789 -0.208393,0.208393 -0.486251,0.319536 -0.819681,0.319536 -0.3195368,0 -0.5835019,-0.111143 -0.7918954,-0.333429 C 8.8384981,21.10593 8.713462,20.841965 8.713462,20.536321 Z m 2.278436,8.307955 c 0,-0.05557 0.01389,-0.152821 0.05557,-0.319536 l 0.180608,-0.819682 c 0.09725,-0.319536 0.291751,-0.541823 0.569609,-0.708537 0.291751,-0.152822 0.583502,-0.180608 0.875253,-0.09725 0.319537,0.05557 0.569609,0.23618 0.736324,0.514038 0.166715,0.277858 0.208393,0.597394 0.111143,0.944717 l -0.180608,0.805788 c -0.152822,0.569609 -0.514037,0.86136 -1.111432,0.86136 -0.06946,0 -0.180608,-0.01389 -0.33343,-0.05557 -0.305643,-0.08336 -0.52793,-0.236179 -0.680752,-0.458465 -0.152822,-0.222287 -0.222286,-0.43068 -0.222286,-0.66686 z m 1.097539,-4.042834 c 0,-0.319537 0.111143,-0.583502 0.319537,-0.805788 0.222286,-0.208394 0.486251,-0.319537 0.819681,-0.319537 0.33343,0 0.597395,0.111143 0.819681,0.319537 0.222287,0.208393 0.319537,0.486251 0.319537,0.805788 0,0.33343 -0.111143,0.597395 -0.319537,0.819681 -0.222286,0.222287 -0.486251,0.319537 -0.819681,0.319537 -0.319537,0 -0.583502,-0.111143 -0.805788,-0.33343 -0.222287,-0.222286 -0.33343,-0.486251 -0.33343,-0.805788 z m 0.86136,-3.153689 c 0,-0.125036 0.01389,-0.250072 0.04168,-0.361215 l 0.319536,-1.250361 c 0.09725,-0.33343 0.291751,-0.583502 0.569609,-0.736324 0.277858,-0.152822 0.583502,-0.208393 0.889146,-0.111143 0.33343,0.09725 0.569609,0.277858 0.736324,0.555716 0.166715,0.277858 0.194501,0.569609 0.09725,0.875253 l -0.361215,1.250361 c -0.111143,0.375108 -0.305644,0.639073 -0.569609,0.778002 -0.263965,0.138929 -0.569609,0.166715 -0.889146,0.08336 -0.277858,-0.05557 -0.486251,-0.194501 -0.62518,-0.416787 -0.166715,-0.23618 -0.222287,-0.458466 -0.208394,-0.66686 z m 3.834441,2.986974 c 0,-0.04168 0,-0.111143 0.01389,-0.1945 0.01389,-0.08336 0.01389,-0.138929 0.01389,-0.152822 l 0.125036,-0.805789 c 0.09725,-0.333429 0.291751,-0.583501 0.569609,-0.736323 0.291751,-0.166715 0.597395,-0.208394 0.930824,-0.111144 0.319537,0.09725 0.555716,0.291751 0.708538,0.569609 0.166715,0.291751 0.194501,0.583502 0.09725,0.875253 l -0.1945,0.833574 c -0.138929,0.611288 -0.486252,0.916932 -1.055861,0.916932 -0.04168,0 -0.111143,0 -0.208393,-0.01389 -0.09725,-0.01389 -0.152822,-0.01389 -0.180608,-0.01389 -0.277858,-0.08336 -0.486252,-0.236179 -0.625181,-0.458466 -0.138929,-0.222286 -0.1945,-0.472358 -0.1945,-0.708538 z m 1.028075,-4.098406 c 0,-0.333429 0.111143,-0.597394 0.319536,-0.819681 0.208394,-0.222286 0.486252,-0.319537 0.819682,-0.319537 0.333429,0 0.597394,0.111144 0.819681,0.319537 0.222286,0.222287 0.319536,0.486252 0.319536,0.819681 0,0.319537 -0.111143,0.597395 -0.319536,0.805789 -0.222287,0.222286 -0.486252,0.319536 -0.819681,0.319536 -0.33343,0 -0.597395,-0.111143 -0.805789,-0.333429 -0.208393,-0.208394 -0.333429,-0.472359 -0.333429,-0.791896 z M 19.258174,3.7120175 c 1.167004,1.0558605 1.945007,2.4173648 2.361794,4.0706201 h 0.43068 c 1.91722,0 3.542689,0.6668593 4.890301,2.0005779 0.43068,-0.7641096 0.652966,-1.5976837 0.652966,-2.5146152 0,-1.3615044 -0.486251,-2.5146152 -1.444861,-3.4732254 C 25.190443,2.8506576 24.02344,2.364406 22.661935,2.364406 21.314324,2.3782989 20.188999,2.8228718 19.258174,3.7120175 Z"
   id="path2"
   style="stroke-width:1.38929" />
</svg>
