<?xml version="1.0" encoding="UTF-8" standalone="no"?>
<!-- Generator: Adobe Illustrator 22.0.1, SVG Export Plug-In . SVG Version: 6.00 Build 0)  -->

<svg
   version="1.1"
   id="Layer_1"
   x="0px"
   y="0px"
   viewBox="0 0 30 30"
   style="enable-background:new 0 0 30 30;"
   xml:space="preserve"
   sodipodi:docname="night-cloudy-symbolic.svg"
   inkscape:version="1.2.2 (b0a8486541, 2022-12-01)"
   xmlns:inkscape="http://www.inkscape.org/namespaces/inkscape"
   xmlns:sodipodi="http://sodipodi.sourceforge.net/DTD/sodipodi-0.dtd"
   xmlns="http://www.w3.org/2000/svg"
   xmlns:svg="http://www.w3.org/2000/svg"><defs
   id="defs7" /><sodipodi:namedview
   id="namedview5"
   pagecolor="#ffffff"
   bordercolor="#666666"
   borderopacity="1.0"
   inkscape:showpageshadow="2"
   inkscape:pageopacity="0.0"
   inkscape:pagecheckerboard="0"
   inkscape:deskcolor="#d1d1d1"
   showgrid="false"
   inkscape:zoom="29.233333"
   inkscape:cx="14.982896"
   inkscape:cy="14.982896"
   inkscape:window-width="1920"
   inkscape:window-height="1014"
   inkscape:window-x="1080"
   inkscape:window-y="470"
   inkscape:window-maximized="1"
   inkscape:current-layer="Layer_1" />
<path
   d="m 0.05616778,18.903552 c 0,1.242992 0.30725637,2.402187 0.9217691,3.463618 0.61451272,1.061431 1.43851842,1.899403 2.49994952,2.513915 1.0614311,0.614513 2.2066594,0.935736 3.4636172,0.935736 H 22.038964 c 1.242992,0 2.402186,-0.307257 3.463617,-0.935736 1.061431,-0.628478 1.899403,-1.46645 2.513916,-2.513915 0.614513,-1.061431 0.935735,-2.220626 0.935735,-3.463618 0,-0.893836 -0.195526,-1.815605 -0.58658,-2.793239 1.061431,-1.298857 1.57818,-2.835139 1.57818,-4.608846 0,-1.326789 -0.321222,-2.5558142 -0.963667,-3.6731101 C 28.33772,6.7110611 27.443883,5.8172244 26.326587,5.160813 25.209291,4.5044017 23.980266,4.1831791 22.653477,4.1831791 c -2.080964,0 -3.882603,0.8100395 -5.404919,2.4301186 -1.061431,-0.6005466 -2.318389,-0.9078029 -3.756907,-0.9078029 -1.969234,0 -3.7010429,0.6005465 -5.2093923,1.8156058 C 6.7739093,8.7361599 5.8102416,10.286408 5.3772894,12.199777 3.8130752,12.548932 2.5421511,13.345005 1.550551,14.601963 0.55895093,15.858921 0.05616778,17.29744 0.05616778,18.903552 Z m 2.38821992,0 c 0,-1.159194 0.3910536,-2.16476 1.1591945,-3.016698 0.7821071,-0.851939 1.759741,-1.340755 2.9329017,-1.480417 l 0.9497015,-0.0419 0.097763,-1.005566 C 7.7794756,11.850622 8.4358869,10.579698 9.5531828,9.5741318 10.670478,8.5545993 11.983301,8.0518161 13.477684,8.0518161 c 1.522316,0 2.863071,0.5167494 3.994333,1.5362819 1.131262,1.019533 1.773707,2.27649 1.927336,3.78484 l 0.139662,1.047465 h 2.485983 c 1.229025,0 2.290456,0.446918 3.184293,1.326789 0.893837,0.87987 1.340755,1.941301 1.340755,3.15636 0,1.256958 -0.446918,2.332356 -1.326789,3.240159 -0.87987,0.907802 -1.955267,1.354721 -3.184293,1.354721 H 6.9415036 c -1.2150592,0 -2.2625241,-0.446919 -3.1563608,-1.354721 C 2.8913061,21.221941 2.4443877,20.146544 2.4443877,18.903552 Z M 19.245724,7.9680189 c 0.963668,-0.9217691 2.09493,-1.3826536 3.407753,-1.3826536 1.382653,0 2.555814,0.4748507 3.519482,1.4385184 0.963668,0.9497015 1.452484,2.1228623 1.452484,3.5055163 0,0.865904 -0.237425,1.717842 -0.726242,2.56978 -1.340755,-1.354721 -2.960834,-2.025099 -4.874203,-2.025099 H 21.592046 C 21.214958,10.523833 20.432851,9.1551458 19.245724,7.9680189 Z"
   id="path2"
   style="stroke-width:1.39662" />
</svg>
