<?xml version="1.0" encoding="UTF-8" standalone="no"?>
<svg
   inkscape:version="1.2.2 (b0a8486541, 2022-12-01)"
   sodipodi:docname="night-alt-partly-cloudy-symbolic.svg"
   xml:space="preserve"
   style="enable-background:new 0 0 30 30;"
   viewBox="0 0 30 30"
   y="0px"
   x="0px"
   id="Layer_1"
   version="1.1"
   xmlns:inkscape="http://www.inkscape.org/namespaces/inkscape"
   xmlns:sodipodi="http://sodipodi.sourceforge.net/DTD/sodipodi-0.dtd"
   xmlns="http://www.w3.org/2000/svg"
   xmlns:svg="http://www.w3.org/2000/svg"
   xmlns:rdf="http://www.w3.org/1999/02/22-rdf-syntax-ns#"
   xmlns:cc="http://creativecommons.org/ns#"
   xmlns:dc="http://purl.org/dc/elements/1.1/"><metadata
   id="metadata9"><rdf:RDF><cc:Work
       rdf:about=""><dc:format>image/svg+xml</dc:format><dc:type
         rdf:resource="http://purl.org/dc/dcmitype/StillImage" /></cc:Work></rdf:RDF></metadata><defs
   id="defs7" /><sodipodi:namedview
   inkscape:current-layer="Layer_1"
   inkscape:window-maximized="1"
   inkscape:window-y="470"
   inkscape:window-x="1080"
   inkscape:cy="15"
   inkscape:cx="15"
   inkscape:zoom="22.2"
   showgrid="false"
   id="namedview5"
   inkscape:window-height="1014"
   inkscape:window-width="1920"
   inkscape:pageshadow="2"
   inkscape:pageopacity="0"
   guidetolerance="10"
   gridtolerance="10"
   objecttolerance="10"
   borderopacity="1"
   bordercolor="#666666"
   pagecolor="#ffffff"
   inkscape:document-rotation="0"
   inkscape:showpageshadow="2"
   inkscape:pagecheckerboard="0"
   inkscape:deskcolor="#d1d1d1" />
<path
   d="M 18.644358,0.7983889 C 13.222919,0.86683474 8.4863381,5.8734987 8.5887574,11.27155 c -0.084348,0.49171 0.3050839,1.267578 -0.4011122,1.400966 -1.7098881,0.981289 -3.015935,2.674171 -3.4672228,4.601366 -3.5991381,0.751873 -5.7679552,5.34448 -3.87818729,8.552251 1.25484039,2.43051 4.15927809,3.712453 6.82102449,3.304997 4.3628904,-0.06992 8.7486774,0.205589 13.0946624,-0.220122 3.285746,-0.911487 5.263301,-4.931548 3.926808,-8.080848 0.119438,-0.97277 1.333693,-1.163034 1.869052,-1.878533 1.762447,-1.655374 2.75727,-3.95435 3.301526,-6.274885 C 26.192598,12.013665 22.913561,8.858415 22.809403,5.0215292 22.73878,3.8503693 22.922155,2.6804448 23.207767,1.5477131 21.760872,0.96579105 20.197675,0.76135938 18.644358,0.7983889 Z m 1.09146,2.2214689 c 1.073981,0.179271 0.735095,1.5304613 0.835971,2.3131518 0.317871,3.818243 2.880195,7.3532194 6.394645,8.8712944 -0.75348,1.830462 -2.095563,3.431653 -3.809265,4.4333 -1.144643,-1.052525 -2.724808,-1.604818 -4.27428,-1.529971 C 18.06373,13.83376 14.703612,11.446392 11.346278,11.691297 10.449931,11.182013 11.062889,10.01966 11.175365,9.2324889 12.123257,5.4969396 15.964336,2.9489733 19.735818,3.0198578 Z M 12.052234,13.946497 c 2.7118,0.122227 4.950763,2.746168 4.768206,5.433203 1.542314,0.04886 3.281659,-0.292389 4.564283,0.814004 1.938274,1.351311 1.795009,4.477571 -0.05285,5.83892 -1.403333,1.18343 -3.336208,0.616261 -5.001501,0.755997 C 12.672582,26.74938 9.0032728,26.917492 5.3540903,26.668146 2.3854759,26.210292 1.5132528,21.648966 4.0313285,20.059156 4.8279283,19.492271 5.814976,19.290079 6.7756376,19.247187 6.9618221,17.308162 7.8548108,15.274016 9.7199273,14.428383 10.443663,14.06364 11.247349,13.928685 12.052229,13.946502 Z"
   style="stroke-width:1.88284"
   id="path2" />
</svg>
