<?xml version="1.0" encoding="UTF-8" standalone="no"?>
<!-- Generator: Adobe Illustrator 22.0.1, SVG Export Plug-In . SVG Version: 6.00 Build 0)  -->

<svg
   version="1.1"
   id="Layer_1"
   x="0px"
   y="0px"
   viewBox="0 0 30 30"
   style="enable-background:new 0 0 30 30;"
   xml:space="preserve"
   sodipodi:docname="night-thunderstorm-symbolic.svg"
   inkscape:version="1.2.2 (b0a8486541, 2022-12-01)"
   xmlns:inkscape="http://www.inkscape.org/namespaces/inkscape"
   xmlns:sodipodi="http://sodipodi.sourceforge.net/DTD/sodipodi-0.dtd"
   xmlns="http://www.w3.org/2000/svg"
   xmlns:svg="http://www.w3.org/2000/svg"><defs
   id="defs7" /><sodipodi:namedview
   id="namedview5"
   pagecolor="#ffffff"
   bordercolor="#666666"
   borderopacity="1.0"
   inkscape:showpageshadow="2"
   inkscape:pageopacity="0.0"
   inkscape:pagecheckerboard="0"
   inkscape:deskcolor="#d1d1d1"
   showgrid="false"
   inkscape:zoom="29.233333"
   inkscape:cx="14.982896"
   inkscape:cy="12.246294"
   inkscape:window-width="1920"
   inkscape:window-height="1014"
   inkscape:window-x="1080"
   inkscape:window-y="470"
   inkscape:window-maximized="1"
   inkscape:current-layer="Layer_1" />
<path
   d="m 0.0482066,14.790591 c 0,1.549626 0.46069952,2.945685 1.3820985,4.160256 0.9213991,1.214572 2.1220099,2.038247 3.5739115,2.443104 L 4.1107387,23.73933 c -0.069803,0.195449 0,0.307133 0.1954483,0.307133 h 2.9596454 l -1.4519015,5.849488 h 0.3908965 l 5.5423546,-7.845852 c 0.05584,-0.05584 0.05584,-0.125646 0.01396,-0.195449 -0.04188,-0.0698 -0.111685,-0.09772 -0.209409,-0.09772 H 8.5222856 l 3.4482664,-6.435832 c 0.09772,-0.195449 0.02792,-0.307133 -0.195449,-0.307133 H 7.6706895 c -0.1256453,0 -0.2233695,0.0698 -0.3210936,0.195448 l -1.4937833,4.00669 C 4.8646106,18.978769 4.0409357,18.434305 3.3847879,17.624591 2.7286402,16.814877 2.4075465,15.865557 2.4075465,14.804552 c 0,-1.158729 0.3908966,-2.163892 1.1726897,-3.015488 0.7817931,-0.851596 1.7590345,-1.340217 2.9317242,-1.479823 l 0.7399114,-0.05584 c 0.1675271,0 0.2512906,-0.08376 0.2512906,-0.251291 l 0.097724,-0.7399111 c 0.097724,-0.991202 0.4188177,-1.8846798 0.9632808,-2.7083547 0.544463,-0.8097143 1.2564532,-1.4519015 2.1220098,-1.912601 0.865557,-0.4606995 1.800917,-0.6980296 2.806079,-0.6980296 1.507744,0 2.834,0.5165419 3.964808,1.5356651 1.130808,1.0191231 1.772995,2.2755764 1.940522,3.7833202 l 0.111685,0.7817931 c 0,0.167527 0.08376,0.265251 0.23733,0.265251 h 2.261616 c 1.242493,0 2.303497,0.446739 3.210936,1.340217 0.907438,0.893478 1.354177,1.940522 1.354177,3.169054 0,1.200611 -0.418817,2.247656 -1.256453,3.141133 -0.837635,0.893478 -1.856759,1.354178 -3.043409,1.423981 -0.181488,0 -0.279212,0.08376 -0.279212,0.25129 v 1.87072 c 0,0.153566 0.09772,0.23733 0.279212,0.23733 1.214572,-0.02792 2.331419,-0.362976 3.350542,-1.005163 1.019123,-0.628227 1.828838,-1.465862 2.401222,-2.512906 0.572384,-1.047045 0.879517,-2.177853 0.879517,-3.392424 0,-1.019123 -0.195448,-1.954483 -0.586345,-2.806079 1.088926,-1.298335 1.633389,-2.834 1.633389,-4.6209557 0,-0.991202 -0.195448,-1.9265616 -0.586344,-2.8200395 C 28.974552,3.691921 28.45801,2.9101278 27.801862,2.25398 27.145715,1.5978322 26.377882,1.0812904 25.470444,0.6903938 24.576966,0.29949724 23.627645,0.10404897 22.650404,0.10404897 c -2.149931,0 -3.950847,0.8097143 -5.388788,2.41518233 -1.130808,-0.6003055 -2.387261,-0.9074385 -3.76936,-0.9074385 -1.968443,0 -3.7135172,0.6142661 -5.2352217,1.8288375 C 6.7353299,4.6552018 5.7580885,6.218788 5.3253102,8.1174284 3.7896451,8.4804038 2.5192313,9.2761575 1.5140687,10.532611 0.50890612,11.789064 0.0482066,13.185123 0.0482066,14.790591 Z M 11.118956,28.583655 c 0,0.22337 0.0698,0.446739 0.209408,0.642188 0.139606,0.195448 0.349015,0.349014 0.628227,0.432778 l 0.349015,0.04188 c 0.586345,0 0.94932,-0.279212 1.116847,-0.837636 L 16.814877,16.4519 c 0.08376,-0.321094 0.05584,-0.628227 -0.09772,-0.893478 C 16.563586,15.279212 16.340217,15.097724 16.033084,15 c -0.321094,-0.09772 -0.628227,-0.0698 -0.907439,0.08376 -0.279212,0.153566 -0.47466,0.390896 -0.558423,0.698029 l -3.420345,12.424926 c -0.01396,0.237331 -0.02792,0.362976 -0.02792,0.376936 z m 5.779684,-4.230059 c 0,0.558424 0.293173,0.93536 0.865557,1.116848 0.23733,0.02792 0.362975,0.04188 0.362975,0.04188 0.153567,0 0.321094,-0.02792 0.488621,-0.111684 0.279212,-0.125646 0.47466,-0.376936 0.586345,-0.767833 l 2.289537,-8.166946 c 0.08376,-0.321094 0.05584,-0.628227 -0.111685,-0.893478 -0.153566,-0.279212 -0.390896,-0.460699 -0.71199,-0.558423 -0.321093,-0.09773 -0.628227,-0.0698 -0.907438,0.08376 -0.279212,0.153567 -0.4607,0.390897 -0.544463,0.69803 l -2.261616,8.222788 c -0.02792,0.195448 -0.05584,0.307133 -0.05584,0.335054 z M 19.230059,3.8315269 c 0.94932,-0.8934779 2.094089,-1.3402168 3.462227,-1.3402168 1.354177,0 2.512906,0.4746601 3.462227,1.4239803 0.96328,0.9493202 1.43794,2.1080493 1.43794,3.4622267 0,0.8795172 -0.23733,1.7450739 -0.71199,2.5827094 C 25.540247,8.6200097 23.920818,7.9499013 22.022177,7.9499013 h -0.446738 c -0.390897,-1.605468 -1.17269,-2.9736059 -2.34538,-4.1183744 z"
   id="path2"
   style="stroke-width:1.39606" />
</svg>
