<?xml version="1.0" encoding="UTF-8" standalone="no"?>
<!-- Generator: Adobe Illustrator 22.0.1, SVG Export Plug-In . SVG Version: 6.00 Build 0)  -->

<svg
   version="1.1"
   id="Layer_1"
   x="0px"
   y="0px"
   viewBox="0 0 30 30"
   style="enable-background:new 0 0 30 30;"
   xml:space="preserve"
   sodipodi:docname="night-alt-rain-symbolic.svg"
   inkscape:version="1.2.2 (b0a8486541, 2022-12-01)"
   xmlns:inkscape="http://www.inkscape.org/namespaces/inkscape"
   xmlns:sodipodi="http://sodipodi.sourceforge.net/DTD/sodipodi-0.dtd"
   xmlns="http://www.w3.org/2000/svg"
   xmlns:svg="http://www.w3.org/2000/svg"><defs
   id="defs7" /><sodipodi:namedview
   id="namedview5"
   pagecolor="#ffffff"
   bordercolor="#666666"
   borderopacity="1.0"
   inkscape:showpageshadow="2"
   inkscape:pageopacity="0.0"
   inkscape:pagecheckerboard="0"
   inkscape:deskcolor="#d1d1d1"
   showgrid="false"
   inkscape:zoom="29.233333"
   inkscape:cx="14.982896"
   inkscape:cy="17.719498"
   inkscape:window-width="1920"
   inkscape:window-height="1014"
   inkscape:window-x="1080"
   inkscape:window-y="470"
   inkscape:window-maximized="1"
   inkscape:current-layer="Layer_1" />
<path
   d="m 0.28357442,15.592158 c 0,1.789926 0.63253052,3.337607 1.88413328,4.629584 1.2516027,1.291977 2.7858254,1.97834 4.5757519,2.059088 0.1614972,0 0.2422457,-0.08074 0.2422457,-0.228788 v -1.803384 c 0,-0.148039 -0.080749,-0.228788 -0.2422457,-0.228788 C 5.5860635,19.952577 4.6036226,19.495004 3.796137,18.633687 2.9886514,17.772369 2.5849086,16.763011 2.5849086,15.592158 c 0,-1.117022 0.3768266,-2.086005 1.143938,-2.920407 0.7671113,-0.834402 1.7091779,-1.305435 2.8261997,-1.440016 l 0.713279,-0.05383 c 0.1749553,0 0.2691619,-0.08074 0.2691619,-0.228786 l 0.094206,-0.726738 C 7.7797325,8.7689067 8.3988048,7.5442204 9.4889107,6.5617795 10.579017,5.5793387 11.870994,5.0813892 13.337926,5.0813892 c 1.466932,0 2.745451,0.4979495 3.849015,1.4803903 1.103564,0.9824409 1.722636,2.2071272 1.884133,3.6606015 l 0.107671,0.767111 c 0,0.161498 0.08074,0.242246 0.228787,0.242246 h 2.180211 c 1.197771,0 2.247502,0.430659 3.122278,1.291977 0.874777,0.861318 1.318893,1.884133 1.318893,3.068446 0,1.170854 -0.403742,2.180211 -1.211228,3.041529 -0.807485,0.861318 -1.789926,1.318893 -2.947323,1.386183 -0.188413,0 -0.28262,0.08074 -0.28262,0.228788 v 1.803385 c 0,0.148039 0.09421,0.228788 0.28262,0.228788 1.789927,-0.05383 3.310691,-0.740196 4.548837,-2.032173 1.251602,-1.305435 1.870675,-2.853116 1.870675,-4.643043 0,-1.184312 -0.309537,-2.287875 -0.915151,-3.310691 1.090106,-0.98244 1.789926,-2.153295 2.126379,-3.5260203 l 0.188413,-0.9689826 c 0.01346,-0.013459 0.02691,-0.040374 0.02691,-0.094206 0,-0.094206 -0.06729,-0.1749552 -0.215329,-0.2153295 L 28.747444,7.248139 C 27.980332,7.0328094 27.320885,6.6559829 26.782562,6.1311172 26.23078,5.6062516 25.840496,5.0544697 25.611708,4.4757717 25.38292,3.8970736 25.261798,3.3183756 25.261798,2.7531356 c -0.02691,-0.2960781 0.01346,-0.6729047 0.10767,-1.1035637 l 0.188413,-0.82094376 c 0.05383,-0.13458099 0,-0.24224573 -0.188413,-0.32299424 L 24.306272,0.18263956 c -0.605614,-0.13458088 -1.170853,-0.20187131 -1.709177,-0.20187131 -0.511408,0 -1.022816,0.05383292 -1.534223,0.17495518 C 20.538006,0.27684624 19.999683,0.45180153 19.4479,0.70750533 18.896119,0.94975095 18.357796,1.3131195 17.832929,1.7841528 17.308064,2.2551861 16.863947,2.7935099 16.487121,3.4260403 15.383556,3.0222975 14.333826,2.8204261 13.351384,2.8204261 c -1.897591,0 -3.5933109,0.5921561 -5.0602436,1.7764684 C 6.8242082,5.7812068 5.8686835,7.2885132 5.4514826,9.132272 3.9576342,9.4821819 2.7329476,10.249294 1.7639649,11.460522 0.76806589,12.658293 0.28357442,14.044477 0.28357442,15.592158 Z m 7.48270028,9.205336 c 0,0.228787 0.06729,0.444116 0.2153296,0.659446 0.1480391,0.215329 0.3633685,0.363368 0.6594467,0.444117 0.309536,0.09421 0.6056143,0.06729 0.8613182,-0.05383 0.2691613,-0.134581 0.4441163,-0.376826 0.5383238,-0.753653 L 11.9652,17.193673 c 0.08075,-0.336453 0.04038,-0.645989 -0.10767,-0.901693 -0.161497,-0.269161 -0.390285,-0.430659 -0.69982,-0.497949 -0.296079,-0.09421 -0.578699,-0.06729 -0.847861,0.09421 -0.269161,0.14804 -0.4575752,0.376828 -0.5517815,0.686363 l -1.9379658,7.940275 c 0,0.01346 -0.013459,0.05383 -0.026916,0.121124 -0.013458,0.06729 -0.026916,0.121123 -0.026916,0.161497 z m 3.5125623,4.131635 c 0,0.215329 0.06729,0.4172 0.201872,0.619072 0.134581,0.201871 0.336452,0.336452 0.605614,0.417201 0.14804,0.04038 0.255704,0.05383 0.322995,0.05383 0.592156,0 0.955524,-0.269161 1.103563,-0.794026 l 3.028071,-12.018078 c 0.08075,-0.322995 0.05383,-0.619073 -0.09421,-0.874777 -0.148039,-0.255704 -0.376827,-0.430659 -0.672905,-0.524865 -0.309536,-0.09421 -0.605615,-0.06729 -0.888234,0.09421 -0.28262,0.161497 -0.457575,0.376826 -0.524866,0.672905 L 11.319208,28.57922 c 0,0.01346 0,0.06729 -0.01346,0.161498 -0.02692,0.08074 -0.02692,0.148039 -0.02692,0.188414 z m 5.598568,-4.02397 c 0,0.484491 0.28262,0.807485 0.84786,0.995898 0.188413,0.05383 0.322994,0.08074 0.403743,0.08074 0.148039,0 0.309535,-0.02691 0.471033,-0.09421 0.28262,-0.10767 0.457575,-0.376826 0.524865,-0.780569 l 1.924508,-7.8999 c 0.08075,-0.322995 0.05383,-0.605616 -0.10767,-0.874777 -0.148039,-0.255704 -0.376827,-0.430659 -0.686363,-0.524865 -0.309537,-0.09421 -0.605614,-0.06729 -0.888234,0.09421 -0.282621,0.148039 -0.444117,0.376826 -0.511408,0.686363 l -1.924508,7.940275 c -0.02691,0.21533 -0.05383,0.34991 -0.05383,0.376827 z M 18.46546,4.6507268 c 0.430659,-0.7805694 1.009357,-1.3727255 1.763011,-1.7899264 0.740194,-0.4037429 1.534222,-0.6056143 2.368624,-0.5921562 0.161497,0 0.28262,0 0.363369,0.013459 V 2.685846 c -0.01346,1.3054351 0.322994,2.5301216 1.036273,3.7009759 0.69982,1.157396 1.69572,2.0456303 2.974238,2.6512444 C 26.674897,9.6571386 26.311529,10.128171 25.907786,10.478082 24.669641,9.4552662 23.229625,8.9573169 21.560822,8.9573169 H 21.14362 C 20.780252,7.248139 19.892018,5.8215811 18.46546,4.6507268 Z"
   id="path2"
   style="stroke-width:1.34581" />
</svg>
