<?xml version="1.0" encoding="UTF-8" standalone="no"?>
<!-- Generator: Adobe Illustrator 22.0.1, SVG Export Plug-In . SVG Version: 6.00 Build 0)  -->

<svg
   version="1.1"
   id="Layer_1"
   x="0px"
   y="0px"
   viewBox="0 0 30 30"
   style="enable-background:new 0 0 30 30;"
   xml:space="preserve"
   sodipodi:docname="night-alt-rain-wind-symbolic.svg"
   inkscape:version="1.2.2 (b0a8486541, 2022-12-01)"
   xmlns:inkscape="http://www.inkscape.org/namespaces/inkscape"
   xmlns:sodipodi="http://sodipodi.sourceforge.net/DTD/sodipodi-0.dtd"
   xmlns="http://www.w3.org/2000/svg"
   xmlns:svg="http://www.w3.org/2000/svg"><defs
   id="defs7" /><sodipodi:namedview
   id="namedview5"
   pagecolor="#ffffff"
   bordercolor="#666666"
   borderopacity="1.0"
   inkscape:showpageshadow="2"
   inkscape:pageopacity="0.0"
   inkscape:pagecheckerboard="0"
   inkscape:deskcolor="#d1d1d1"
   showgrid="false"
   inkscape:zoom="29.233333"
   inkscape:cx="14.982896"
   inkscape:cy="14.982896"
   inkscape:window-width="1920"
   inkscape:window-height="1014"
   inkscape:window-x="1080"
   inkscape:window-y="470"
   inkscape:window-maximized="1"
   inkscape:current-layer="Layer_1" />
<path
   d="m 0.65793576,15.209371 c 0,1.465612 0.43183214,2.774195 1.30858244,3.925747 0.8767504,1.151553 1.9890455,1.923617 3.3630572,2.316191 0.1177724,0.02617 0.222459,-0.01308 0.3140597,-0.104691 l 1.4786983,-1.832011 c -1.1515526,0 -2.1329895,-0.418746 -2.9704824,-1.269325 -0.8374927,-0.850579 -1.2562391,-1.858186 -1.2562391,-3.035911 0,-1.099209 0.366403,-2.041389 1.0992093,-2.839624 0.7328061,-0.798235 1.6618997,-1.243154 2.761109,-1.347841 l 0.6542914,-0.09159 c 0.1570298,0 0.2486306,-0.07851 0.2486306,-0.248629 L 7.7635391,9.9881317 C 7.9205687,8.5617707 8.5356025,7.3709615 9.6086399,6.4156957 10.668592,5.4604307 11.924831,4.9762552 13.351186,4.9762552 c 1.426355,0 2.669508,0.4841755 3.742546,1.4394405 1.073038,0.9552658 1.688072,2.146075 1.845102,3.5593454 l 0.09161,0.7589769 c 0,0.143944 0.07851,0.22246 0.235545,0.22246 h 2.119904 c 1.151552,0 2.146075,0.418746 2.983567,1.256239 0.837494,0.837492 1.25624,1.832015 1.25624,2.983568 0,1.112295 -0.366403,2.080647 -1.09921,2.905053 -0.732805,0.824408 -1.635727,1.282411 -2.708766,1.374012 -0.588861,0.07851 -0.96835,0.196287 -1.125381,0.366403 l -3.048997,3.807976 c -0.209373,0.222458 -0.287888,0.49726 -0.248631,0.824406 0.02617,0.314061 0.170117,0.56269 0.405662,0.772064 0.235545,0.209373 0.484174,0.300973 0.745892,0.300973 0.300973,0 0.575776,-0.157029 0.837492,-0.49726 l 2.669509,-3.389229 c 0.81132,-0.07851 1.570298,-0.314061 2.303105,-0.680463 0.71972,-0.366403 1.34784,-0.850579 1.858187,-1.413269 0.510347,-0.575777 0.929094,-1.243153 1.230067,-2.002131 0.300975,-0.758978 0.458005,-1.544128 0.458005,-2.368535 0,-1.138467 -0.300974,-2.198419 -0.889837,-3.192941 1.059952,-0.968351 1.753501,-2.1068186 2.067561,-3.4284872 V 8.4570849 L 29.342064,7.4494761 28.347542,7.1092446 C 27.60165,6.8867857 26.960444,6.5203825 26.423926,6.0231211 25.887406,5.5258598 25.521004,4.9762552 25.298545,4.4135646 25.076085,3.850874 24.958313,3.2750977 24.958313,2.6993215 c 0,-0.3402315 0.03926,-0.6804629 0.104692,-1.046866 L 25.311634,0.6317611 24.225511,0.33078714 c -0.01309,0 -0.02617,0 -0.03926,-0.0130861 -0.01309,-0.0130861 -0.02617,-0.0261723 -0.05234,-0.0261723 -0.02617,0 -0.03925,-0.0130861 -0.05234,-0.0261711 -0.06543,-0.0130861 -0.07851,-0.0261712 -0.07851,-0.0261712 C 23.427289,0.0952423 22.890771,0.0298133 22.367338,0.0298133 21.870076,0.04289944 21.372815,0.09524286 20.862468,0.21301483 20.352121,0.33078726 19.841773,0.50090299 19.292169,0.74953364 18.742565,0.9981644 18.219131,1.3514817 17.721869,1.8094856 17.224609,2.2674895 16.77969,2.8040081 16.413287,3.4321279 15.431851,3.0002955 14.411155,2.7909223 13.351204,2.7909223 c -1.845101,0 -3.493915,0.5757765 -4.92027,1.7142432 C 7.004561,5.6436321 6.0754674,7.1092446 5.6698068,8.9020024 4.1911085,9.2553203 2.9872126,10.027384 2.058119,11.192023 1.1290254,12.356661 0.65793576,13.691415 0.65793576,15.209371 Z M 5.5127769,25.664945 c 0,0.170116 0.026171,0.300975 0.091601,0.40566 0.1177724,0.287889 0.3009741,0.484176 0.5626905,0.601949 0.2878882,0.130858 0.5757763,0.143944 0.8767503,0.03925 0.3009741,-0.104691 0.4972614,-0.300974 0.601948,-0.575776 0.1308582,-0.287888 0.1308582,-0.575777 0.013086,-0.87675 C 7.5410799,24.958306 7.3447926,24.762018 7.0699902,24.670418 6.782102,24.53956 6.4942139,24.526473 6.2063257,24.644248 5.9184376,24.74894 5.7221501,24.958308 5.6174636,25.23311 5.5389486,25.337801 5.5127768,25.494827 5.512777,25.664942 Z m 2.4077918,-3.206027 v 0.143944 c 0.026172,0.300974 0.1701157,0.536518 0.4318323,0.719721 0.1701157,0.196286 0.4056605,0.287887 0.7066345,0.287887 0.3009745,-0.01309 0.5888617,-0.143943 0.8636649,-0.418746 l 3.0489966,-3.821061 c 0.183202,-0.222459 0.248631,-0.497261 0.222459,-0.81132 -0.03925,-0.314061 -0.157029,-0.562692 -0.392574,-0.758978 -0.235545,-0.183202 -0.497262,-0.261717 -0.824408,-0.235545 -0.314059,0.02617 -0.56269,0.183201 -0.745892,0.444917 l -3.035911,3.742547 c -0.1832015,0.209372 -0.2748023,0.444917 -0.2748023,0.706634 z m 0.7589779,6.817715 c 0.1177725,0.274803 0.3140598,0.471089 0.6019479,0.588862 0.143944,0.06543 0.2878881,0.104692 0.4318322,0.104692 0.07851,0 0.2093737,-0.02617 0.3925753,-0.07852 0.274802,-0.117772 0.471089,-0.300973 0.575776,-0.575775 0.104692,-0.287888 0.104692,-0.562692 0.01309,-0.850579 -0.09161,-0.274803 -0.287888,-0.484176 -0.575776,-0.62812 -0.2878873,-0.104691 -0.5626905,-0.104691 -0.8244067,0 -0.2617164,0.104692 -0.4580038,0.300975 -0.5888621,0.575777 -0.143944,0.261716 -0.1570299,0.536518 -0.026171,0.863663 z m 2.0806464,-3.48083 v 0.104692 c 0.02617,0.287888 0.170115,0.549604 0.418746,0.758978 0.248631,0.209372 0.497261,0.314059 0.732806,0.314059 0.287888,0 0.549605,-0.143944 0.78515,-0.444917 l 5.63999,-7.014003 c 0.183202,-0.222459 0.274802,-0.497261 0.248631,-0.811321 -0.02617,-0.31406 -0.15703,-0.575776 -0.379489,-0.758978 -0.261716,-0.183202 -0.549604,-0.261717 -0.863665,-0.235544 -0.314059,0.02617 -0.56269,0.157029 -0.745892,0.392574 l -5.587646,7.014003 c -0.170117,0.196286 -0.248631,0.431831 -0.248631,0.680462 z m 4.593125,1.452527 c 0,0.143944 0.02617,0.287888 0.09161,0.431832 0.10468,0.300975 0.31406,0.497262 0.615034,0.615034 0.300973,0.117773 0.56269,0.117773 0.798235,0.02617 0.287889,-0.117773 0.484175,-0.314061 0.601948,-0.601949 0.130858,-0.287887 0.143944,-0.56269 0.03926,-0.837492 -0.104691,-0.274803 -0.300974,-0.47109 -0.588862,-0.601948 -0.287888,-0.104691 -0.575776,-0.104691 -0.850578,0 -0.287888,0.104691 -0.484176,0.287888 -0.615034,0.549604 -0.06542,0.143944 -0.09161,0.287888 -0.09161,0.418746 z M 18.336885,4.5836804 c 0.405661,-0.745892 0.981437,-1.3216685 1.701157,-1.7273289 0.719721,-0.3925748 1.491785,-0.5888622 2.303106,-0.5757764 0.15703,0 0.274803,0 0.340231,0.013086 v 0.3925745 c 0,1.2693251 0.353318,2.4732209 1.046866,3.5986018 0.693549,1.1384674 1.648814,1.9890461 2.865796,2.5648215 -0.327146,0.6150339 -0.667377,1.0992097 -1.03378,1.4656131 C 24.395623,9.2814914 22.99544,8.7711444 21.346625,8.7711444 H 20.927878 C 20.548389,7.1092446 19.684726,5.7090612 18.336885,4.5836804 Z"
   id="path2"
   style="stroke-width:1.30858" />
</svg>
