<?xml version="1.0" encoding="UTF-8" standalone="no"?>
<!-- Generator: Adobe Illustrator 22.0.1, SVG Export Plug-In . SVG Version: 6.00 Build 0)  -->

<svg
   version="1.1"
   id="Layer_1"
   x="0px"
   y="0px"
   viewBox="0 0 30 30"
   style="enable-background:new 0 0 30 30;"
   xml:space="preserve"
   sodipodi:docname="night-alt-hail-symbolic.svg"
   inkscape:version="1.2.2 (b0a8486541, 2022-12-01)"
   xmlns:inkscape="http://www.inkscape.org/namespaces/inkscape"
   xmlns:sodipodi="http://sodipodi.sourceforge.net/DTD/sodipodi-0.dtd"
   xmlns="http://www.w3.org/2000/svg"
   xmlns:svg="http://www.w3.org/2000/svg"><defs
   id="defs7" /><sodipodi:namedview
   id="namedview5"
   pagecolor="#ffffff"
   bordercolor="#666666"
   borderopacity="1.0"
   inkscape:showpageshadow="2"
   inkscape:pageopacity="0.0"
   inkscape:pagecheckerboard="0"
   inkscape:deskcolor="#d1d1d1"
   showgrid="false"
   inkscape:zoom="29.233333"
   inkscape:cx="14.982896"
   inkscape:cy="12.246294"
   inkscape:window-width="1920"
   inkscape:window-height="1014"
   inkscape:window-x="1080"
   inkscape:window-y="470"
   inkscape:window-maximized="1"
   inkscape:current-layer="Layer_1" />
<path
   d="m 0.21678738,15.650407 c 0,1.80217 0.62330697,3.360438 1.88347112,4.647703 1.2601642,1.287264 2.7913312,1.991872 4.6070517,2.073172 0.1626018,0 0.2439027,-0.0813 0.2439027,-0.230352 v -1.81572 c 0,-0.149052 -0.081301,-0.230353 -0.2439027,-0.230353 C 5.5419971,20.040657 4.5663861,19.579952 3.753377,18.712742 2.9403679,17.845533 2.5338633,16.829271 2.5338633,15.650407 c 0,-1.124662 0.3794043,-2.100273 1.1382129,-2.940382 0.7588084,-0.82656 1.7073191,-1.314365 2.8455318,-1.449866 l 0.7181581,-0.04065 c 0.176152,0 0.2710031,-0.0813 0.2710031,-0.243902 l 0.094851,-0.731708 C 7.7506718,8.7804802 8.3604287,7.5474167 9.4579912,6.5582556 10.555553,5.5690946 11.842818,5.0677389 13.319785,5.0677389 c 1.463416,0 2.750681,0.5013557 3.861793,1.4905167 1.111112,0.9891611 1.734419,2.2222246 1.897021,3.6856414 l 0.108396,0.785909 c 0,0.149052 0.0813,0.230353 0.230353,0.230353 h 2.181573 c 1.205964,0 2.249326,0.433605 3.130086,1.300814 0.88076,0.86721 1.327915,1.897021 1.327915,3.075885 0,1.178863 -0.406505,2.195124 -1.219514,3.062334 -0.813009,0.867209 -1.80217,1.327914 -2.953934,1.382115 -0.176151,0 -0.271002,0.0813 -0.271002,0.230352 v 1.815721 c 0,0.149052 0.09485,0.230353 0.271002,0.230353 1.802171,-0.0542 3.333338,-0.745259 4.579952,-2.046074 1.260164,-1.300814 1.883472,-2.859082 1.883472,-4.674801 0,-1.165314 -0.298104,-2.249326 -0.880761,-3.265587 1.070463,-1.002711 1.761521,-2.195124 2.100274,-3.5501399 l 0.176152,-0.9214106 c 0.0271,-0.013549 0.04065,-0.040649 0.04065,-0.094851 0,-0.094851 -0.06775,-0.1761519 -0.216802,-0.2168024 L 28.807608,7.3577146 C 28.035249,7.127362 27.384842,6.7479578 26.829286,6.2059517 26.28728,5.6639456 25.894325,5.1083894 25.663973,4.5121827 25.43362,3.9295262 25.325219,3.3333195 25.325219,2.7235626 25.311669,2.398359 25.352319,2.0325049 25.43362,1.6531006 L 25.623323,0.86719185 C 25.663973,0.74524041 25.596223,0.65038944 25.43362,0.56908849 L 24.349608,0.23033464 c -0.569106,-0.1626018 -1.165313,-0.25745288 -1.77507,-0.25745288 -0.474255,0 -0.96206,0.05420049 -1.463417,0.17615204 C 20.609766,0.27098512 20.08131,0.44713716 19.525754,0.69103981 18.970198,0.93494257 18.441742,1.3007966 17.913286,1.775052 17.39838,2.2493073 16.937675,2.7913133 16.558271,3.4281705 15.542009,2.9945656 14.471547,2.7642131 13.346885,2.7642131 c -1.910571,0 -3.6178914,0.5962067 -5.0948575,1.7750699 C 6.7750609,5.7181462 5.8265503,7.2357632 5.4064956,9.0921335 3.9024287,9.444438 2.6693649,10.216796 1.6937539,11.436311 0.71814302,12.655824 0.21678738,14.09214 0.21678738,15.650407 Z m 7.42548322,9.525757 c 0.1219515,0.284553 0.3252037,0.487805 0.623307,0.609757 0.2574529,0.135501 0.5420061,0.149052 0.8401095,0.0271 C 9.4037904,25.704625 9.6070419,25.501368 9.715444,25.203264 9.8509453,24.905161 9.8644948,24.620608 9.742543,24.322504 9.6341466,24.03795 9.4308896,23.834698 9.1327862,23.726297 8.8617832,23.590796 8.57723,23.577245 8.2926768,23.699198 8.0081236,23.821149 7.7913212,24.024402 7.6558196,24.322505 7.5338683,24.552857 7.5203182,24.83741 7.642269,25.176164 Z m 0.8401095,-3.834693 c 0,0.203252 0.067751,0.406505 0.2168024,0.609757 0.1490517,0.203252 0.352304,0.352304 0.623307,0.433605 0.3523036,0.135501 0.6504074,0.135501 0.9078605,0 0.257453,-0.135501 0.433605,-0.392954 0.542006,-0.772359 l 1.192413,-4.349598 c 0.09485,-0.338754 0.0542,-0.636858 -0.108396,-0.90786 -0.162602,-0.271004 -0.406505,-0.433605 -0.731709,-0.501356 -0.298103,-0.09485 -0.582656,-0.06775 -0.85366,0.09485 -0.271002,0.149051 -0.4471545,0.379404 -0.5420059,0.691057 l -1.1924129,4.363149 c 0,0.0271 -0.013551,0.0813 -0.0271,0.162602 -0.01355,0.06775 -0.0271,0.135502 -0.0271,0.176151 z m 2.5338779,7.588085 c 0,0.162603 0.0271,0.298104 0.0813,0.392954 0.121951,0.298104 0.325204,0.501357 0.609757,0.609758 0.121952,0.06775 0.271004,0.09485 0.447155,0.09485 0.0813,0 0.216803,-0.0271 0.406504,-0.0813 0.311654,-0.108408 0.528457,-0.311653 0.650409,-0.609757 0.135501,-0.298104 0.135501,-0.596207 0,-0.89431 -0.135503,-0.298103 -0.338755,-0.501356 -0.609758,-0.623307 -0.271003,-0.121952 -0.542006,-0.121952 -0.826559,0 -0.257453,0.108396 -0.447156,0.271003 -0.569106,0.487805 -0.135502,0.230353 -0.189703,0.433605 -0.189702,0.623307 z m 1.002712,-3.590789 c 0,0.514905 0.284553,0.867208 0.86721,1.056911 0.121951,0.04065 0.230352,0.06775 0.311653,0.06775 0.149052,0 0.311654,-0.04065 0.474255,-0.108396 0.311654,-0.108397 0.528456,-0.365854 0.636857,-0.772359 l 2.235776,-8.292693 c 0.0813,-0.325204 0.0542,-0.609757 -0.09485,-0.880759 -0.149051,-0.257453 -0.379404,-0.433606 -0.677508,-0.528457 -0.311653,-0.09485 -0.609757,-0.06775 -0.880759,0.09485 -0.271004,0.149052 -0.460705,0.379405 -0.542006,0.691058 l -2.276426,8.360444 c -0.04065,0.12195 -0.0542,0.230353 -0.0542,0.311653 z m 4.661252,-0.569107 c 0,0.176151 0.0271,0.311654 0.09485,0.420055 0.108396,0.271002 0.311653,0.474254 0.596206,0.596206 0.162602,0.06775 0.311654,0.108397 0.474256,0.108397 0.0813,0 0.216802,-0.0271 0.406504,-0.0813 0.298104,-0.121951 0.501356,-0.311653 0.609757,-0.596206 0.108397,-0.298104 0.108397,-0.582657 0,-0.85366 -0.108396,-0.271003 -0.298104,-0.474256 -0.569106,-0.609757 -0.298104,-0.135501 -0.596207,-0.149052 -0.88076,-0.0271 -0.298104,0.108397 -0.501356,0.325204 -0.636857,0.623307 -0.06775,0.108396 -0.09485,0.243903 -0.09485,0.420055 z m 0.975611,-3.468839 c 0,0.216802 0.06775,0.433605 0.203252,0.623307 0.135502,0.189702 0.338754,0.338753 0.609757,0.420054 0.230353,0.0271 0.352304,0.04065 0.365854,0.04065 0.555557,0 0.894311,-0.271004 1.043363,-0.826559 l 1.178862,-4.295399 c 0.0813,-0.325204 0.0542,-0.609757 -0.09485,-0.880759 -0.149052,-0.257453 -0.379405,-0.433605 -0.677508,-0.528457 -0.311654,-0.09485 -0.609756,-0.06775 -0.867209,0.09485 -0.271004,0.149052 -0.447156,0.379405 -0.542006,0.691058 l -1.178864,4.295399 c -0.0271,0.12195 -0.04065,0.243902 -0.04065,0.365853 z m 0.88076,-16.5989362 c 0.420055,-0.7723586 1.016262,-1.3685653 1.76152,-1.7750699 0.745258,-0.4065046 1.544717,-0.6097569 2.384827,-0.5962067 0.149051,0 0.271003,0.013551 0.338754,0.0271 v 0.4200547 c 0,1.3279149 0.352303,2.5609787 1.056911,3.7262918 0.704608,1.1653131 1.69377,2.0460726 2.940383,2.6422802 -0.257453,0.5962067 -0.596206,1.0704611 -1.016261,1.4498661 -1.192414,-1.0704625 -2.65583,-1.598918 -4.4038,-1.598918 H 21.165323 C 20.813019,7.303514 19.945809,5.8671979 18.536593,4.7018848 Z"
   id="path2"
   style="stroke-width:1.35501" />
</svg>
