<?xml version="1.0" encoding="UTF-8" standalone="no"?>
<!-- Generator: Adobe Illustrator 22.0.1, SVG Export Plug-In . SVG Version: 6.00 Build 0)  -->

<svg
   version="1.1"
   id="Layer_1"
   x="0px"
   y="0px"
   viewBox="0 0 30 30"
   style="enable-background:new 0 0 30 30;"
   xml:space="preserve"
   sodipodi:docname="night-alt-cloudy-gusts-symbolic.svg"
   inkscape:version="1.2.2 (b0a8486541, 2022-12-01)"
   xmlns:inkscape="http://www.inkscape.org/namespaces/inkscape"
   xmlns:sodipodi="http://sodipodi.sourceforge.net/DTD/sodipodi-0.dtd"
   xmlns="http://www.w3.org/2000/svg"
   xmlns:svg="http://www.w3.org/2000/svg"><defs
   id="defs7" /><sodipodi:namedview
   id="namedview5"
   pagecolor="#ffffff"
   bordercolor="#666666"
   borderopacity="1.0"
   inkscape:showpageshadow="2"
   inkscape:pageopacity="0.0"
   inkscape:pagecheckerboard="0"
   inkscape:deskcolor="#d1d1d1"
   showgrid="false"
   inkscape:zoom="29.233333"
   inkscape:cx="14.982896"
   inkscape:cy="20.4561"
   inkscape:window-width="1920"
   inkscape:window-height="1014"
   inkscape:window-x="1080"
   inkscape:window-y="470"
   inkscape:window-maximized="1"
   inkscape:current-layer="Layer_1" />
<path
   d="m 0.16747673,21.907453 c 0,0.283699 0.11101264,0.530394 0.33303793,0.740085 0.20969055,0.20969 0.45638531,0.308368 0.75241904,0.308368 h 7.0801397 c 0.3207032,0 0.6044021,0.123347 0.8510969,0.357707 0.2466948,0.23436 0.3700421,0.518059 0.3700421,0.838763 0,0.333038 -0.1233473,0.616737 -0.3700421,0.851097 -0.2466948,0.23436 -0.5303937,0.357707 -0.8510969,0.357707 -0.3207032,0 -0.5920675,-0.123347 -0.8387622,-0.370042 -0.2220253,-0.197356 -0.4687201,-0.296034 -0.752419,-0.296034 -0.2960338,0 -0.5427285,0.09868 -0.7400843,0.296034 -0.1973558,0.197356 -0.2960337,0.44405 -0.2960337,0.740084 0,0.271364 0.098678,0.518059 0.2960337,0.740084 0.6414064,0.653742 1.4308296,0.974445 2.3312655,0.974445 0.9004358,0 1.6898586,-0.320703 2.3312656,-0.96211 0.641406,-0.641406 0.962109,-1.418495 0.962109,-2.331265 0,-0.912771 -0.320703,-1.689859 -0.962109,-2.331266 C 10.022932,21.179704 9.245844,20.846666 8.3330734,20.846666 H 1.2529337 c -0.29603373,0 -0.54272849,0.111012 -0.76475378,0.320703 -0.20969055,0.209691 -0.32070319,0.456385 -0.32070319,0.740084 z m 0,-3.725091 c 0,0.271365 0.11101264,0.505725 0.33303793,0.715415 0.20969055,0.197356 0.46872005,0.296034 0.75241904,0.296034 H 14.636124 c 0.912771,0 1.689859,-0.320703 2.331266,-0.96211 0.641406,-0.641406 0.962109,-1.418495 0.962109,-2.31893 0,-0.912771 -0.320703,-1.677525 -0.962109,-2.318931 -0.641407,-0.641407 -1.418495,-0.949775 -2.331266,-0.949775 -0.93744,0 -1.714528,0.308368 -2.331265,0.93744 -0.185021,0.197356 -0.283699,0.444051 -0.283699,0.752419 0,0.308369 0.09868,0.555063 0.283699,0.740084 0.185021,0.185021 0.431716,0.283699 0.727749,0.283699 0.296034,0 0.542729,-0.08634 0.764754,-0.283699 0.23436,-0.23436 0.518059,-0.345372 0.838762,-0.345372 0.320703,0 0.592068,0.111012 0.826428,0.345372 0.23436,0.23436 0.357707,0.518059 0.357707,0.838763 0,0.320703 -0.123347,0.604402 -0.357707,0.838762 -0.23436,0.23436 -0.518059,0.357707 -0.826428,0.357707 H 1.2529337 c -0.29603373,0 -0.54272849,0.111013 -0.76475378,0.320703 -0.20969055,0.222026 -0.32070319,0.46872 -0.32070319,0.752419 z M 3.2758308,15.283699 c 0,0.111013 0.061674,0.160352 0.1973558,0.160352 h 1.7762023 c 0.098678,0 0.185021,-0.06167 0.2713642,-0.185022 0.2713642,-0.666075 0.7030801,-1.221139 1.2951475,-1.665189 0.5797327,-0.431716 1.2334738,-0.678411 1.9488886,-0.740084 l 0.6414064,-0.08634 c 0.1480168,0 0.23436,-0.07401 0.23436,-0.20969 l 0.098678,-0.641407 c 0.135682,-1.332155 0.7030794,-2.4546165 1.7021934,-3.3427176 0.999114,-0.9004359 2.183249,-1.3444866 3.527735,-1.3444866 1.344487,0 2.528621,0.4440507 3.515401,1.3444866 0.999113,0.8881011 1.566511,2.0105626 1.702193,3.3550486 l 0.08634,0.715415 c 0,0.148017 0.07401,0.222025 0.23436,0.222025 h 1.998227 c 1.122461,0 2.072236,0.394712 2.861659,1.1718 0.789424,0.777089 1.184135,1.714529 1.184135,2.812321 0,1.097791 -0.394711,2.035231 -1.184135,2.824655 -0.789423,0.789423 -1.739198,1.184135 -2.849324,1.184135 h -8.523304 c -0.135682,0 -0.209691,0.07401 -0.209691,0.222025 v 1.689859 c 0,0.135682 0.07401,0.209691 0.209691,0.209691 h 8.523304 c 1.097792,0 2.121575,-0.271365 3.059015,-0.826428 0.93744,-0.555063 1.677524,-1.295147 2.220253,-2.232588 0.542728,-0.93744 0.826427,-1.961223 0.826427,-3.059015 0,-1.085457 -0.283699,-2.10924 -0.838762,-3.059015 0.900436,-0.875766 1.517173,-1.936553 1.862545,-3.182362 l 0.148017,-0.8510971 c 0.02467,-0.02467 0.03701,-0.04934 0.03701,-0.08634 0,-0.04934 -0.06167,-0.1233475 -0.172687,-0.1973559 L 28.919751,9.2273425 C 27.883633,8.9066393 27.09421,8.3515761 26.551481,7.549818 26.008753,6.7480601 25.737388,5.9216326 25.737388,5.0582009 c 0,-0.2960337 0.03701,-0.6290716 0.111013,-0.9744443 L 26.008753,3.3190029 C 26.033422,3.1956556 25.984083,3.0969777 25.848401,3.0476387 L 24.861622,2.751605 C 24.318894,2.6159229 23.813169,2.5542492 23.31978,2.5542492 c -0.456385,0 -0.912771,0.049339 -1.381491,0.1603515 C 21.469569,2.8256134 20.988514,2.985965 20.48279,3.220325 19.989401,3.4423503 19.496011,3.7753882 19.027291,4.207104 18.558571,4.6388198 18.13919,5.1322093 17.793817,5.711942 16.918051,5.3418999 15.968276,5.1568788 14.932158,5.1568788 c -1.739198,0 -3.28104,0.5427285 -4.625527,1.6158507 C 8.962145,7.8458517 8.1233828,9.2273425 7.7533407,10.904867 6.6925532,11.151562 5.7674478,11.657286 4.9533551,12.42204 4.1392624,13.186794 3.5841992,14.087229 3.2758308,15.135682 v 0.037 c 0.012335,0.02467 0,0.06167 0,0.111013 z M 19.594689,6.7850643 c 0.382377,-0.6784107 0.912771,-1.1964697 1.591181,-1.554177 0.678411,-0.3577074 1.381491,-0.5427285 2.10924,-0.5427285 0.172687,0 0.296034,0 0.382377,0.012335 -0.01234,0.1110126 -0.02467,0.2590295 -0.02467,0.4440506 0,1.1594654 0.320703,2.2819265 0.974444,3.342714 0.641406,1.0607875 1.541842,1.8625456 2.676638,2.3929386 -0.197356,0.468721 -0.505724,0.888102 -0.925105,1.270479 -1.097792,-0.937441 -2.392939,-1.406161 -3.897777,-1.406161 H 22.073971 C 21.753268,9.1903383 20.926841,7.8705212 19.594689,6.7850643 Z"
   id="path2"
   style="stroke-width:1.23347" />
</svg>
