<?xml version="1.0" encoding="UTF-8" standalone="no"?>
<svg
   version="1.1"
   id="Layer_1"
   x="0px"
   y="0px"
   viewBox="0 0 30 30"
   style="enable-background:new 0 0 30 30;"
   xml:space="preserve"
   sodipodi:docname="night-clear-symbolic.svg"
   inkscape:version="1.2.2 (b0a8486541, 2022-12-01)"
   xmlns:inkscape="http://www.inkscape.org/namespaces/inkscape"
   xmlns:sodipodi="http://sodipodi.sourceforge.net/DTD/sodipodi-0.dtd"
   xmlns="http://www.w3.org/2000/svg"
   xmlns:svg="http://www.w3.org/2000/svg"
   xmlns:rdf="http://www.w3.org/1999/02/22-rdf-syntax-ns#"
   xmlns:cc="http://creativecommons.org/ns#"
   xmlns:dc="http://purl.org/dc/elements/1.1/"><metadata
   id="metadata9"><rdf:RDF><cc:Work
       rdf:about=""><dc:format>image/svg+xml</dc:format><dc:type
         rdf:resource="http://purl.org/dc/dcmitype/StillImage" /></cc:Work></rdf:RDF></metadata><defs
   id="defs7" /><sodipodi:namedview
   inkscape:document-rotation="0"
   pagecolor="#ffffff"
   bordercolor="#666666"
   borderopacity="1"
   objecttolerance="10"
   gridtolerance="10"
   guidetolerance="10"
   inkscape:pageopacity="0"
   inkscape:pageshadow="2"
   inkscape:window-width="1920"
   inkscape:window-height="1014"
   id="namedview5"
   showgrid="false"
   inkscape:zoom="22.2"
   inkscape:cx="15"
   inkscape:cy="15"
   inkscape:window-x="1080"
   inkscape:window-y="470"
   inkscape:window-maximized="1"
   inkscape:current-layer="Layer_1"
   inkscape:showpageshadow="2"
   inkscape:pagecheckerboard="0"
   inkscape:deskcolor="#d1d1d1" />
<path
   d="M 16.882683,0.01934884 C 12.715532,-0.07141292 8.3413367,0.93426819 5.204853,3.8264632 0.47682133,7.9253232 -1.3013804,15.146982 1.2820111,20.905291 c 2.1321843,5.284046 7.5438107,9.054571 13.2653089,9.071976 5.928741,0.212908 11.920878,-3.383884 14.102459,-8.974881 1.011442,-2.464973 1.463958,-5.219776 1.164284,-7.855368 -0.759915,-0.788304 -1.953807,-0.100516 -2.879152,-0.49544 C 21.762167,11.949544 17.59065,7.2153766 17.640293,1.9662168 17.582902,1.3996044 17.765738,-0.0499219 16.882683,0.01934884 Z M 15.062536,3.139178 c 0.596984,6.1274641 5.787277,11.303293 11.807169,12.268155 0.856731,0.623965 0.09121,1.822584 -0.02505,2.647191 C 25.045776,24.044531 18.349337,28.458823 12.15583,26.703446 6.4193136,25.259194 2.170767,19.164033 3.3096988,13.278077 4.1005344,7.8373183 8.9133701,2.9612131 14.54208,2.7539889 14.976945,2.6819339 15.112223,2.6347371 15.062536,3.139178 Z"
   style="stroke-width:2.17012"
   id="path2" />
</svg>
