<?xml version="1.0" encoding="UTF-8" standalone="no"?>
<!-- Generator: Adobe Illustrator 22.0.1, SVG Export Plug-In . SVG Version: 6.00 Build 0)  -->

<svg
   version="1.1"
   id="Layer_1"
   x="0px"
   y="0px"
   viewBox="0 0 30 30"
   style="enable-background:new 0 0 30 30;"
   xml:space="preserve"
   sodipodi:docname="night-alt-sleet-symbolic.svg"
   inkscape:version="1.2.2 (b0a8486541, 2022-12-01)"
   xmlns:inkscape="http://www.inkscape.org/namespaces/inkscape"
   xmlns:sodipodi="http://sodipodi.sourceforge.net/DTD/sodipodi-0.dtd"
   xmlns="http://www.w3.org/2000/svg"
   xmlns:svg="http://www.w3.org/2000/svg"><defs
   id="defs7" /><sodipodi:namedview
   id="namedview5"
   pagecolor="#ffffff"
   bordercolor="#666666"
   borderopacity="1.0"
   inkscape:showpageshadow="2"
   inkscape:pageopacity="0.0"
   inkscape:pagecheckerboard="0"
   inkscape:deskcolor="#d1d1d1"
   showgrid="false"
   inkscape:zoom="29.233333"
   inkscape:cx="14.982896"
   inkscape:cy="25.929304"
   inkscape:window-width="1920"
   inkscape:window-height="1014"
   inkscape:window-x="1080"
   inkscape:window-y="470"
   inkscape:window-maximized="1"
   inkscape:current-layer="Layer_1" />
<path
   d="M 0.54646404,15.55616 V 15.066209 C 0.59943165,13.583117 1.1026239,12.272168 2.042799,11.133364 2.9829739,9.9945614 4.1747451,9.2530148 5.5916287,8.9219667 6.0021276,7.1210684 6.9423027,5.6379754 8.38567,4.472688 9.8290374,3.3074006 11.497517,2.7379988 13.364625,2.7379988 c 0.979901,0 2.026011,0.1986285 3.151572,0.6091275 0.370774,-0.6091275 0.807757,-1.1388036 1.310949,-1.5890283 0.503192,-0.4502246 1.019626,-0.79451411 1.562544,-1.04611025 0.542919,-0.23835424 1.059352,-0.42374087 1.575787,-0.52967609 0.503192,-0.10593476 1.006385,-0.15890282 1.496335,-0.15890282 0.516434,0 1.059352,0.05296738 1.641995,0.17214473 l 1.059353,0.33104755 c 0.158903,0.0794516 0.225112,0.17214473 0.185386,0.30456375 L 25.189644,1.6521628 c -0.09269,0.3840152 -0.132419,0.7547884 -0.132419,1.1123198 0,0.410499 0.06621,0.8209979 0.198628,1.2579807 0.132419,0.4237409 0.317805,0.8474817 0.582643,1.2579807 0.264838,0.410499 0.609128,0.7812722 1.059353,1.1255617 0.450225,0.3442895 0.953417,0.5958856 1.53606,0.7680303 l 0.820999,0.2251124 c 0.132419,0.039726 0.198628,0.1059347 0.198628,0.2118707 0,0.052971 0,0.079456 -0.01324,0.092693 L 29.188699,8.604161 c -0.317805,1.3374317 -0.993142,2.50272 -1.999527,3.469379 0.582644,1.006385 0.873966,2.09222 0.873966,3.244265 0,1.774415 -0.609128,3.297234 -1.840625,4.568457 -1.231497,1.284465 -2.727832,1.94656 -4.489005,1.999527 -0.158902,0 -0.251595,-0.07946 -0.251595,-0.251596 v -1.800899 c 0,-0.158902 0.07946,-0.238354 0.251595,-0.238354 1.152047,-0.07946 2.118705,-0.542918 2.913219,-1.363916 0.794514,-0.820997 1.191771,-1.800899 1.191771,-2.92646 0,-1.17853 -0.42374,-2.198156 -1.284465,-3.032396 -0.860723,-0.83424 -1.880349,-1.25798 -3.085363,-1.25798 h -2.145187 c -0.145661,0 -0.225113,-0.07946 -0.225113,-0.238355 l -0.09269,-0.76803 C 18.860019,8.5909197 18.237649,7.3859065 17.151814,6.4192476 16.065977,5.4525887 14.807997,4.9626384 13.36463,4.9626384 c -1.443368,0 -2.714591,0.4899503 -3.773943,1.4566092 C 8.5180891,7.3859065 7.9089616,8.5909197 7.7765426,10.021045 l -0.092693,0.688579 c 0,0.145661 -0.092693,0.225112 -0.264838,0.225112 l -0.7018208,0.09269 C 5.604871,11.159845 4.6779378,11.636554 3.9363913,12.44431 3.1816029,13.265308 2.8108296,14.218724 2.8108296,15.317802 v 0.02649 l 0.013242,0.01324 h 0.026484 c 0,0.688579 0.1589029,1.350674 0.4767085,1.959801 0.3178057,0.609128 0.7415466,1.112321 1.2844645,1.509578 h 0.013242 l 0.013242,0.01324 0.013241,0.01324 c 0.2913219,0.21187 0.5561599,0.357531 0.820998,0.463467 0.4502246,0.198628 0.9136912,0.304564 1.4168835,0.317805 0.1456609,0 0.2251123,0.07946 0.2251123,0.225113 v 1.774414 c 0,0.158904 -0.079452,0.238355 -0.2251123,0.238355 C 5.6578382,21.819579 4.5322765,21.448806 3.51265,20.786711 H 3.4994081 C 2.6254426,20.217309 1.9236219,19.475762 1.3939458,18.548829 0.86426969,17.621896 0.58618974,16.628754 0.54646404,15.55616 Z m 7.28304626,9.229606 c 0,-0.03972 0.013242,-0.09269 0.026484,-0.172145 0.013242,-0.07946 0.026484,-0.119177 0.026484,-0.158903 l 0.119177,-0.781273 c 0.092693,-0.317805 0.2648381,-0.542917 0.542918,-0.701819 0.2780799,-0.158904 0.5694018,-0.185388 0.9004492,-0.105931 0.3045639,0.09269 0.5164345,0.27808 0.6753375,0.542918 0.145661,0.278081 0.172145,0.55616 0.09269,0.83424 l -0.185388,0.794514 c -0.1324192,0.569402 -0.4634662,0.860724 -1.0063843,0.860724 -0.039726,0 -0.1059347,0 -0.1986285,-0.01324 -0.092693,-0.01325 -0.1456608,-0.01325 -0.1721445,-0.01325 C 8.3724281,25.79215 8.1737996,25.646489 8.0413806,25.434618 7.8957196,25.222749 7.8295103,25.010878 7.8295103,24.785766 Z m 0.9799006,-3.89312 c 0,-0.317806 0.1059348,-0.569401 0.3045638,-0.781272 0.1986285,-0.21187 0.4634662,-0.304563 0.7812716,-0.304563 0.3178067,0 0.5694017,0.10593 0.7812727,0.304563 0.211871,0.198628 0.304564,0.463466 0.304564,0.781272 0,0.304564 -0.10593,0.569402 -0.304564,0.768031 -0.198628,0.198628 -0.463466,0.304564 -0.7812727,0.304564 -0.3045638,0 -0.5561593,-0.10593 -0.7547878,-0.331048 C 8.9285881,21.435565 8.8094109,21.183968 8.8094109,20.892646 Z m 2.1716721,7.945141 c 0,-0.05297 0.01324,-0.14566 0.05297,-0.291321 l 0.172144,-0.781272 c 0.09269,-0.304564 0.27808,-0.529677 0.542918,-0.675337 0.278081,-0.158903 0.55616,-0.185387 0.83424,-0.09269 0.304564,0.05297 0.542919,0.225112 0.701821,0.48995 0.158903,0.264838 0.198629,0.569402 0.105941,0.900449 l -0.172144,0.781272 c -0.132419,0.542918 -0.489951,0.807756 -1.059353,0.807756 -0.09269,0 -0.21187,-0.01324 -0.317806,-0.03972 -0.291321,-0.07946 -0.503192,-0.225113 -0.648853,-0.436983 -0.132419,-0.225112 -0.21187,-0.436983 -0.21187,-0.662095 z m 1.04611,-3.853393 c 0,-0.304564 0.105931,-0.556159 0.304564,-0.76803 0.21187,-0.21187 0.463466,-0.304564 0.781272,-0.304564 0.317805,0 0.569402,0.105931 0.781272,0.304564 0.211871,0.211871 0.304564,0.463466 0.304564,0.76803 0,0.317805 -0.10593,0.569402 -0.304564,0.781273 -0.21187,0.21187 -0.463467,0.304563 -0.781272,0.304563 -0.304564,0 -0.55616,-0.10593 -0.76803,-0.317805 -0.211871,-0.211871 -0.317806,-0.463467 -0.317806,-0.768031 z m 0.820998,-3.005912 c 0,-0.119177 0.01325,-0.238353 0.03972,-0.357531 l 0.304564,-1.191771 c 0.09269,-0.304564 0.27808,-0.542918 0.542918,-0.701821 0.27808,-0.158903 0.55616,-0.198628 0.847482,-0.10593 0.317806,0.09269 0.542918,0.264838 0.70182,0.529676 0.158903,0.264838 0.185388,0.542917 0.09269,0.83424 l -0.344289,1.191771 c -0.105931,0.370773 -0.291323,0.609127 -0.542919,0.741546 -0.251596,0.132419 -0.542918,0.158903 -0.847482,0.07946 -0.264838,-0.05297 -0.463466,-0.185387 -0.595885,-0.397257 -0.158903,-0.211871 -0.21187,-0.423741 -0.198629,-0.62237 z m 3.654765,2.833767 c 0,-0.03972 0,-0.10593 0.01324,-0.172145 0.01324,-0.06621 0.01324,-0.119176 0.01324,-0.14566 l 0.119176,-0.781273 c 0.09269,-0.317805 0.264838,-0.542917 0.542919,-0.701821 0.27808,-0.158902 0.569402,-0.185386 0.900449,-0.10593 0.304564,0.09269 0.529676,0.27808 0.675337,0.542918 0.158903,0.27808 0.185387,0.55616 0.09269,0.83424 l -0.185387,0.794514 c -0.132419,0.582643 -0.463466,0.873966 -1.006384,0.873966 -0.03972,0 -0.105931,-0.01324 -0.185387,-0.02649 -0.07946,-0.01324 -0.14566,-0.02649 -0.185386,-0.02649 -0.264838,-0.07946 -0.463466,-0.225112 -0.595885,-0.436983 -0.132419,-0.211871 -0.198629,-0.423741 -0.198629,-0.648854 z m 0.9799,-3.893119 c 0,-0.317805 0.105931,-0.569402 0.304564,-0.781272 0.198629,-0.21187 0.463467,-0.304564 0.781273,-0.304564 0.317805,0 0.569402,0.10593 0.781272,0.304564 0.21187,0.21187 0.304563,0.463467 0.304563,0.781272 0,0.304564 -0.10593,0.556161 -0.304563,0.76803 -0.21187,0.211871 -0.463467,0.304564 -0.781272,0.304564 -0.317806,0 -0.569402,-0.10593 -0.768031,-0.317806 -0.198628,-0.198627 -0.317806,-0.450224 -0.317806,-0.754788 z M 18.423032,4.5521394 c 1.377158,1.1255617 2.251124,2.5159614 2.621896,4.1844409 h 0.436983 c 1.628754,0 3.045638,0.5164345 4.263892,1.5625447 C 26.196029,9.8886255 26.527076,9.4384011 26.752188,8.9219667 25.931191,8.5247096 25.22937,7.9950335 24.620242,7.319697 24.024356,6.6443599 23.574131,5.9160553 23.269568,5.1215412 22.965004,4.3270271 22.819343,3.5060291 22.819343,2.6585474 V 2.2612903 h -0.291322 c -0.820997,0 -1.60227,0.1986285 -2.343817,0.5958856 -0.741545,0.3972571 -1.32419,0.9666589 -1.761172,1.6949635 z"
   id="path2"
   style="stroke-width:1.32419" />
</svg>
