<?xml version="1.0" encoding="UTF-8" standalone="no"?>
<!-- Generator: Adobe Illustrator 22.0.1, SVG Export Plug-In . SVG Version: 6.00 Build 0)  -->

<svg
   version="1.1"
   id="Layer_1"
   x="0px"
   y="0px"
   viewBox="0 0 30 30"
   style="enable-background:new 0 0 30 30;"
   xml:space="preserve"
   sodipodi:docname="night-sprinkle-symbolic.svg"
   inkscape:version="1.2.2 (b0a8486541, 2022-12-01)"
   xmlns:inkscape="http://www.inkscape.org/namespaces/inkscape"
   xmlns:sodipodi="http://sodipodi.sourceforge.net/DTD/sodipodi-0.dtd"
   xmlns="http://www.w3.org/2000/svg"
   xmlns:svg="http://www.w3.org/2000/svg"><defs
   id="defs7" /><sodipodi:namedview
   id="namedview5"
   pagecolor="#ffffff"
   bordercolor="#666666"
   borderopacity="1.0"
   inkscape:showpageshadow="2"
   inkscape:pageopacity="0.0"
   inkscape:pagecheckerboard="0"
   inkscape:deskcolor="#d1d1d1"
   showgrid="false"
   inkscape:zoom="29.233333"
   inkscape:cx="14.982896"
   inkscape:cy="25.929304"
   inkscape:window-width="1920"
   inkscape:window-height="1014"
   inkscape:window-x="1080"
   inkscape:window-y="470"
   inkscape:window-maximized="1"
   inkscape:current-layer="Layer_1" />
<path
   d="m 0.08038861,17.390741 c 0,1.843296 0.63753101,3.437124 1.92645239,4.767623 1.2889214,1.3305 2.8550301,2.037328 4.726045,2.120484 0.1524531,0 0.2356093,-0.08316 0.2356093,-0.235609 v -1.898734 c 0,-0.180172 -0.083156,-0.263328 -0.2356093,-0.263328 C 5.5132615,21.798021 4.5015275,21.312943 3.6699653,20.453662 2.8384032,19.594381 2.4226221,18.568788 2.4226221,17.390741 c 0,-1.164187 0.3880623,-2.18978 1.1780464,-3.049061 0.7899841,-0.859281 1.7601399,-1.344359 2.924327,-1.441374 l 0.7206872,-0.09702 c 0.1663124,0 0.263328,-0.08316 0.263328,-0.263328 l 0.097016,-0.692969 C 7.7584794,10.350181 8.3960104,9.0889789 9.5186193,8.0772449 10.641228,7.0655109 11.971728,6.5527142 13.496258,6.5527142 c 1.510672,0 2.841171,0.4989373 3.96378,1.5106713 1.122609,1.011734 1.773999,2.2729365 1.940312,3.7697485 l 0.08316,0.789984 c 0,0.166313 0.08316,0.249469 0.263328,0.249469 h 2.217499 c 1.261203,0 2.328374,0.4435 3.215374,1.31664 0.887,0.87314 1.344359,1.940312 1.344359,3.159936 0,1.178047 -0.415781,2.20364 -1.233484,3.062921 -0.817703,0.859281 -1.843296,1.344359 -3.035202,1.427515 -0.194031,0 -0.291047,0.08316 -0.291047,0.263328 v 1.898734 c 0,0.152453 0.09702,0.235609 0.291047,0.235609 1.843296,-0.05544 3.409405,-0.762265 4.698326,-2.092765 1.288922,-1.344359 1.926453,-2.938186 1.926453,-4.781482 0,-1.025594 -0.194032,-1.954172 -0.595953,-2.785734 1.09489,-1.330499 1.635405,-2.868889 1.635405,-4.656748 0,-1.3027807 -0.332624,-2.5224052 -0.984015,-3.6450142 C 28.28421,5.1529179 27.39721,4.2659182 26.274601,3.6145279 25.151992,2.9631375 23.946227,2.6305126 22.643446,2.6305126 c -2.106624,0 -3.922201,0.8038435 -5.446732,2.4253897 -1.150328,-0.526656 -2.383811,-0.8177028 -3.700452,-0.8177028 -1.954171,0 -3.7004513,0.6098123 -5.2111226,1.8155774 -1.5106713,1.2057652 -2.4946865,2.7718739 -2.9104676,4.6706071 -1.53839,0.360344 -2.7995927,1.164188 -3.7974673,2.411531 -0.99787458,1.233484 -1.49681189,2.660999 -1.49681189,4.254826 z m 8.21860619,1.219625 c 0,0.526656 0.1940312,0.970156 0.5959529,1.358218 0.3880623,0.374203 0.8592809,0.568234 1.4136553,0.568234 0.554375,0 1.011734,-0.180172 1.385937,-0.554375 0.374203,-0.374203 0.568235,-0.831562 0.568235,-1.358218 0,-0.360343 -0.166313,-0.831562 -0.485078,-1.413656 -0.318766,-0.582093 -0.623672,-1.053312 -0.914719,-1.385937 -0.02772,-0.02772 -0.110875,-0.124734 -0.249468,-0.277187 -0.138594,-0.152453 -0.23561,-0.263328 -0.291047,-0.332625 l -0.4989375,0.554375 c -0.3880624,0.415781 -0.7345466,0.900859 -1.0394528,1.455234 -0.3187655,0.554375 -0.4850779,1.025593 -0.4850779,1.385937 z m 4.1439512,5.529888 c 0,0.873141 0.318766,1.635406 0.956297,2.272937 0.637531,0.637531 1.399796,0.956296 2.286796,0.956296 0.886999,0 1.663124,-0.318765 2.300655,-0.956296 0.637531,-0.637531 0.956297,-1.399796 0.956297,-2.272937 0,-0.374203 -0.110875,-0.817703 -0.318766,-1.344359 -0.22175,-0.526656 -0.471218,-0.997874 -0.776125,-1.441374 -0.637531,-0.817703 -1.233483,-1.510671 -1.787858,-2.065046 -0.08316,-0.05544 -0.194031,-0.180172 -0.360344,-0.332625 l -0.817703,0.803843 c -0.609812,0.582094 -1.178046,1.316641 -1.676983,2.162062 -0.512797,0.859281 -0.762266,1.593828 -0.762266,2.217499 z m 2.051187,-9.285777 c 0,0.374203 0.124734,0.679109 0.388062,0.928577 0.263328,0.249469 0.595953,0.374203 0.984016,0.374203 0.360343,0 0.665249,-0.124734 0.914718,-0.374203 0.249469,-0.249468 0.374203,-0.554374 0.374203,-0.928577 0,-0.568235 -0.42964,-1.302781 -1.288921,-2.231359 l -0.346485,0.360344 c -0.263328,0.277187 -0.498937,0.595953 -0.706827,0.970156 -0.22175,0.360343 -0.318766,0.665249 -0.318766,0.900859 z m 4.698326,-8.3710596 c 0.928578,-0.9147184 2.078906,-1.3720776 3.437124,-1.3720776 1.358218,0 2.508546,0.4712185 3.450983,1.4136557 0.942437,0.9424371 1.427515,2.0927648 1.427515,3.4371236 0,0.8731399 -0.235609,1.7324209 -0.706828,2.5639839 -1.385937,-1.3305 -3.007483,-1.99575 -4.864639,-1.99575 H 21.534693 C 21.14663,8.8949477 20.356646,7.5505888 19.192459,6.4834174 Z"
   id="path2"
   style="stroke-width:1.38594" />
</svg>
