<?xml version="1.0" encoding="UTF-8" standalone="no"?>
<!-- Generator: Adobe Illustrator 22.0.1, SVG Export Plug-In . SVG Version: 6.00 Build 0)  -->

<svg
   version="1.1"
   id="Layer_1"
   x="0px"
   y="0px"
   viewBox="0 0 30 30"
   style="enable-background:new 0 0 30 30;"
   xml:space="preserve"
   sodipodi:docname="night-alt-thunderstorm-symbolic.svg"
   inkscape:version="1.2.2 (b0a8486541, 2022-12-01)"
   xmlns:inkscape="http://www.inkscape.org/namespaces/inkscape"
   xmlns:sodipodi="http://sodipodi.sourceforge.net/DTD/sodipodi-0.dtd"
   xmlns="http://www.w3.org/2000/svg"
   xmlns:svg="http://www.w3.org/2000/svg"><defs
   id="defs7" /><sodipodi:namedview
   id="namedview5"
   pagecolor="#ffffff"
   bordercolor="#666666"
   borderopacity="1.0"
   inkscape:showpageshadow="2"
   inkscape:pageopacity="0.0"
   inkscape:pagecheckerboard="0"
   inkscape:deskcolor="#d1d1d1"
   showgrid="false"
   inkscape:zoom="29.233333"
   inkscape:cx="14.982896"
   inkscape:cy="9.5096921"
   inkscape:window-width="1920"
   inkscape:window-height="1014"
   inkscape:window-x="1080"
   inkscape:window-y="470"
   inkscape:window-maximized="1"
   inkscape:current-layer="Layer_1" />
<path
   d="m 0.34092655,15.658384 c 0,1.491435 0.44339998,2.821635 1.33019975,4.004036 0.8867998,1.182399 2.0423269,1.975144 3.4665812,2.405108 l -0.8867999,2.270745 c -0.040309,0.18811 0.026872,0.282164 0.2015454,0.282164 h 2.8485085 l -1.3033269,4.716162 h 0.3896545 l 5.2536179,-6.637563 c 0.05374,-0.06718 0.05374,-0.134363 0.01344,-0.201545 -0.0403,-0.06718 -0.107485,-0.09406 -0.201545,-0.09406 H 8.5236704 l 3.3322176,-6.221035 c 0.09406,-0.188109 0.0403,-0.2956 -0.174673,-0.2956 H 7.7040524 c -0.1209272,0 -0.2149818,0.06718 -0.3090363,0.18811 L 5.9573255,19.94458 C 4.9899074,19.702728 4.1971622,19.178711 3.5656533,18.372529 2.9341442,17.566347 2.6251079,16.66611 2.6251079,15.67182 c 0,-1.115218 0.3762182,-2.082636 1.1420908,-2.91569 0.7658725,-0.833054 1.7064178,-1.303327 2.8216358,-1.43769 l 0.6986907,-0.107496 c 0.1746727,0 0.2687272,-0.08062 0.2687272,-0.228418 L 7.650307,10.283835 C 7.7981069,8.832713 8.4027431,7.6100035 9.4910884,6.6291493 10.579434,5.6482949 11.855888,5.1511495 13.320451,5.1511495 c 1.451128,0 2.727582,0.4971454 3.829363,1.4779998 1.101782,0.9808542 1.733291,2.2035637 1.894527,3.6412547 l 0.09406,0.792745 c 0,0.147799 0.08062,0.228417 0.241855,0.228417 h 2.176691 c 1.222708,0 2.257308,0.429964 3.130671,1.276455 0.873363,0.84649 1.303327,1.88109 1.303327,3.076927 0,1.142091 -0.40309,2.136381 -1.209273,2.969436 -0.806181,0.833053 -1.787035,1.303326 -2.955999,1.39738 -0.161236,0 -0.25529,0.08062 -0.25529,0.228419 v 1.854218 c 0,0.161236 0.08062,0.241855 0.25529,0.241855 1.1824,-0.04031 2.257309,-0.362782 3.238163,-0.967418 0.980854,-0.604637 1.760164,-1.410818 2.324491,-2.418546 0.564326,-1.007727 0.84649,-2.109509 0.84649,-3.291908 0,-1.168963 -0.2956,-2.257309 -0.886799,-3.291909 1.061472,-1.021163 1.760163,-2.190126 2.096072,-3.5203258 l 0.188109,-0.9674184 c 0.01344,-0.013436 0.02688,-0.053745 0.02688,-0.094055 0,-0.094054 -0.06718,-0.1612363 -0.214982,-0.2015454 L 28.691648,7.3412763 C 27.925776,7.1262946 27.267394,6.7500764 26.72994,6.2394948 26.179049,5.7289131 25.789395,5.1645859 25.560976,4.5868223 25.332558,3.9956224 25.211631,3.4044227 25.211631,2.8132228 c 0,-0.3493455 0.0403,-0.7121272 0.107485,-1.074909 l 0.18811,-0.81961793 c 0.05374,-0.1343636 0,-0.24185457 -0.18811,-0.30903637 -0.282158,-0.12092718 -0.685248,-0.22841804 -1.209267,-0.34934533 -0.524017,-0.12092729 -1.0346,-0.17467266 -1.545181,-0.17467266 -0.483709,0 -0.980854,0.05374482 -1.504873,0.17467266 C 20.549214,0.38124146 20.011759,0.55591412 19.460869,0.81120501 18.909978,1.0530595 18.372523,1.4158412 17.848505,1.8861138 17.324487,2.3563865 16.881088,2.8938409 16.504869,3.5253498 15.403087,3.122259 14.328179,2.9207136 13.307015,2.9207136 c -1.894527,0 -3.5875079,0.5911999 -5.0520718,1.7601633 C 6.7903799,5.8498403 5.8363982,7.3547128 5.419871,9.1954938 3.9284349,9.5448397 2.7057262,10.324148 1.7383081,11.533421 0.82463559,12.715821 0.34092655,14.099766 0.34092655,15.658384 Z M 11.22438,28.85289 c 0,0.214982 0.06718,0.429963 0.201545,0.618073 0.134363,0.201545 0.335909,0.335909 0.604636,0.403091 0.147799,0.02688 0.282164,0.0403 0.403091,0.0403 0.550891,0 0.886799,-0.282163 1.021163,-0.84649 L 16.57205,17.257307 c 0.08062,-0.322473 0.05374,-0.604637 -0.09406,-0.873365 -0.1478,-0.268726 -0.376217,-0.443399 -0.671818,-0.524017 -0.309036,-0.09406 -0.604636,-0.06718 -0.873364,0.08062 -0.268727,0.1478 -0.456835,0.362782 -0.537454,0.658382 L 11.278118,28.47667 c -0.0403,0.134363 -0.05374,0.255291 -0.05374,0.376218 z m 5.602962,-4.057781 c 0,0.214982 0.06718,0.429964 0.201545,0.618073 0.134364,0.188109 0.33591,0.335909 0.618073,0.416527 0.0403,0 0.107485,0 0.201545,0.01344 0.09406,0.01344 0.174673,0.01344 0.214982,0.01344 0.510581,0 0.833055,-0.282164 0.967418,-0.846491 l 2.015454,-7.75278 c 0.08062,-0.322474 0.05374,-0.618074 -0.107485,-0.886801 -0.1478,-0.25529 -0.376219,-0.429963 -0.685255,-0.510581 -0.309036,-0.09406 -0.604636,-0.06718 -0.873363,0.08062 -0.268727,0.147799 -0.4434,0.362782 -0.524019,0.671818 l -2.015454,7.819962 c 0,0.134364 -0.01344,0.255291 -0.01344,0.362781 z M 18.493451,4.7346224 c 0.443399,-0.7658726 1.034599,-1.3436362 1.787035,-1.746727 0.739,-0.4030907 1.531745,-0.6046361 2.3648,-0.6046361 0.161237,0 0.2956,0 0.362782,0.013436 v 0.4299636 c 0,1.2898906 0.349345,2.5125994 1.048036,3.6681264 0.698691,1.1555271 1.679545,2.0288904 2.91569,2.6469636 C 26.72994,9.7060764 26.380594,10.176349 25.910322,10.57944 24.674176,9.5179673 23.236486,8.9939485 21.583814,8.9939485 H 21.15385 C 20.777631,7.3009673 19.890832,5.8901494 18.493451,4.7346224 Z"
   id="path2"
   style="stroke-width:1.34363" />
</svg>
