<?xml version="1.0" encoding="UTF-8" standalone="no"?>
<svg
   inkscape:version="1.2.2 (b0a8486541, 2022-12-01)"
   sodipodi:docname="night-alt-wind-symbolic.svg"
   xml:space="preserve"
   style="enable-background:new 0 0 30 30;"
   viewBox="0 0 30 30"
   y="0px"
   x="0px"
   id="Layer_1"
   version="1.1"
   xmlns:inkscape="http://www.inkscape.org/namespaces/inkscape"
   xmlns:sodipodi="http://sodipodi.sourceforge.net/DTD/sodipodi-0.dtd"
   xmlns="http://www.w3.org/2000/svg"
   xmlns:svg="http://www.w3.org/2000/svg"
   xmlns:rdf="http://www.w3.org/1999/02/22-rdf-syntax-ns#"
   xmlns:cc="http://creativecommons.org/ns#"
   xmlns:dc="http://purl.org/dc/elements/1.1/"><metadata
   id="metadata9"><rdf:RDF><cc:Work
       rdf:about=""><dc:format>image/svg+xml</dc:format><dc:type
         rdf:resource="http://purl.org/dc/dcmitype/StillImage" /><dc:title /></cc:Work></rdf:RDF></metadata><defs
   id="defs7" /><sodipodi:namedview
   inkscape:current-layer="layer3"
   inkscape:window-maximized="1"
   inkscape:window-y="470"
   inkscape:window-x="1080"
   inkscape:cy="6.1971831"
   inkscape:cx="26.197183"
   inkscape:zoom="14.2"
   showgrid="false"
   id="namedview5"
   inkscape:window-height="1014"
   inkscape:window-width="1920"
   inkscape:pageshadow="2"
   inkscape:pageopacity="0"
   guidetolerance="10"
   gridtolerance="10"
   objecttolerance="10"
   borderopacity="1"
   bordercolor="#666666"
   pagecolor="#ffffff"
   inkscape:showpageshadow="2"
   inkscape:pagecheckerboard="0"
   inkscape:deskcolor="#d1d1d1" />

<g
   inkscape:label="Layer 1"
   id="layer1"
   inkscape:groupmode="layer" /><g
   inkscape:label="Layer 2"
   id="layer2"
   inkscape:groupmode="layer" /><g
   inkscape:label="Layer 3"
   id="layer3"
   inkscape:groupmode="layer"><g
     id="g174"
     transform="matrix(1.1167509,0,0,1.1167509,0.0193958,-1.1635739)"><path
       d="m 18.943131,2.0002229 c -4.607993,-0.096399 -8.9747979,4.1383212 -8.55018,8.8220301 0.01647,0.271012 0.04903,0.539736 0.09427,0.806787 H 12.66642 C 12.141419,8.9479866 13.326996,5.8997653 15.873836,4.7033948 16.64869,4.2514006 17.552559,3.9769564 18.438889,3.99088 c 0.02631,0.1739267 0.05261,0.3478535 0.07893,0.5217802 0.614781,3.0823735 3.240727,5.5932518 6.294246,6.2240918 0.09209,2.360034 -1.803945,4.327735 -3.816886,5.26384 -0.784797,0.328708 -1.641488,0.462479 -2.497092,0.449433 v 2.11343 c 0.01252,-4.07e-4 0.02474,4.74e-4 0.03727,0 4.041397,-0.0026 7.962435,-3.257782 8.223518,-7.381655 0.09819,-0.71291 0.08758,-1.5420486 -0.306929,-2.1441221 C 24.160812,8.8784952 21.64688,7.8369221 20.771553,5.5408739 20.284669,4.4930711 20.25631,3.3038482 19.997653,2.2019195 19.710571,1.9457344 19.295321,2.001486 18.943131,2.0002229 Z"
       style="stroke-width:1.16424"
       id="path2-6" /><path
       id="path2"
       d="m 0.0182084,21.911616 c 0,0.269397 0.10102365,0.493894 0.30307095,0.673491 0.19082246,0.190823 0.41531946,0.280622 0.68471585,0.280622 h 6.6002119 c 0.2918461,0 0.5387928,0.101023 0.7632898,0.314295 0.224497,0.213272 0.3367455,0.471444 0.3367455,0.76329 0,0.291846 -0.1122485,0.561243 -0.3367455,0.774515 -0.224497,0.213272 -0.4714437,0.32552 -0.7632898,0.32552 -0.2918461,0 -0.5387928,-0.112248 -0.7632898,-0.336745 C 6.64087,24.527006 6.416373,24.437208 6.1582014,24.437208 c -0.2693964,0 -0.4938934,0.0898 -0.673491,0.269396 -0.1795976,0.179598 -0.2693964,0.404095 -0.2693964,0.673491 0,0.269396 0.089799,0.493893 0.2693964,0.673491 0.5949171,0.594917 1.3020826,0.897988 2.1214967,0.897988 0.8306389,0 1.5378044,-0.291846 2.1102718,-0.875538 0.5724671,-0.583693 0.8755381,-1.290858 0.8755381,-2.121497 0,-0.830639 -0.291846,-1.537804 -0.8755381,-2.121497 C 9.1327867,21.24935 8.4256211,20.957504 7.6062071,20.957504 H 1.0059952 c -0.26939639,0 -0.49389339,0.0898 -0.6959407,0.280621 -0.19082245,0.190823 -0.2918461,0.41532 -0.2918461,0.673491 z"
       style="stroke-width:1.12249" /><path
       id="path19"
       d="m 0.0182084,18.532936 c 0,0.258172 0.10102365,0.471444 0.30307095,0.651042 0.17959761,0.179597 0.41531946,0.269396 0.68471585,0.269396 H 13.319656 c 0.830639,0 1.537804,-0.291846 2.121496,-0.875538 0.583693,-0.583692 0.875539,-1.290858 0.875539,-2.121497 0,-0.830639 -0.291846,-1.526579 -0.875539,-2.110272 -0.583692,-0.572467 -1.290857,-0.864313 -2.121496,-0.864313 -0.853089,0 -1.54903,0.280621 -2.110272,0.853088 -0.179598,0.179598 -0.258172,0.41532 -0.258172,0.684716 0,0.269397 0.0898,0.493894 0.258172,0.673491 0.168373,0.168373 0.39287,0.258172 0.673491,0.258172 0.269396,0 0.493893,-0.0898 0.695941,-0.258172 0.213272,-0.213272 0.460219,-0.314295 0.763289,-0.314295 0.303071,0 0.550018,0.101023 0.76329,0.314295 0.213272,0.213272 0.325521,0.471444 0.325521,0.76329 0,0.303071 -0.112249,0.561243 -0.325521,0.774515 -0.213272,0.213272 -0.471443,0.32552 -0.76329,0.32552 H 1.0059952 c -0.26939639,0 -0.49389339,0.101024 -0.6959407,0.291847 -0.19082245,0.202047 -0.2918461,0.426544 -0.2918461,0.684715 z"
       style="stroke-width:1.12249" /></g></g></svg>
