<?xml version="1.0" encoding="UTF-8" standalone="no"?>
<!-- Generator: Adobe Illustrator 22.0.1, SVG Export Plug-In . SVG Version: 6.00 Build 0)  -->

<svg
   version="1.1"
   id="Layer_1"
   x="0px"
   y="0px"
   viewBox="0 0 30 30"
   style="enable-background:new 0 0 30 30;"
   xml:space="preserve"
   sodipodi:docname="night-lightning-symbolic.svg"
   inkscape:version="1.2.2 (b0a8486541, 2022-12-01)"
   xmlns:inkscape="http://www.inkscape.org/namespaces/inkscape"
   xmlns:sodipodi="http://sodipodi.sourceforge.net/DTD/sodipodi-0.dtd"
   xmlns="http://www.w3.org/2000/svg"
   xmlns:svg="http://www.w3.org/2000/svg"><defs
   id="defs7" /><sodipodi:namedview
   id="namedview5"
   pagecolor="#ffffff"
   bordercolor="#666666"
   borderopacity="1.0"
   inkscape:showpageshadow="2"
   inkscape:pageopacity="0.0"
   inkscape:pagecheckerboard="0"
   inkscape:deskcolor="#d1d1d1"
   showgrid="false"
   inkscape:zoom="29.233333"
   inkscape:cx="14.982896"
   inkscape:cy="12.246294"
   inkscape:window-width="1920"
   inkscape:window-height="1014"
   inkscape:window-x="1080"
   inkscape:window-y="470"
   inkscape:window-maximized="1"
   inkscape:current-layer="Layer_1" />
<path
   d="m 0.09352404,16.092075 c 0,0.918178 0.16694142,1.780708 0.52864781,2.615416 0.36170639,0.834707 0.82079535,1.544208 1.41900205,2.156326 0.5982067,0.612119 1.3077077,1.099031 2.1145912,1.460737 0.8068835,0.361707 1.6833259,0.584295 2.6015037,0.626031 0.1669414,0 0.2504121,-0.08347 0.2504121,-0.236501 v -1.864179 c 0,-0.153029 -0.083471,-0.2365 -0.2504121,-0.2365 C 5.5469435,20.529934 4.5313833,20.043022 3.710588,19.180491 2.8897927,18.317961 2.4724392,17.274577 2.4724392,16.092075 c 0,-1.16859 0.38953,-2.18415 1.1825017,-3.032769 0.7929717,-0.862531 1.7528848,-1.349443 2.9214747,-1.446825 l 0.7234128,-0.08347 c 0.1669414,0 0.2643239,-0.08347 0.2643239,-0.250412 L 7.6754465,10.555185 C 7.772829,9.567448 8.0928001,8.6631822 8.6353597,7.8562987 9.1779193,7.0494152 9.8874203,6.4094732 10.749951,5.9642961 c 0.862531,-0.4451771 1.79462,-0.6816775 2.81018,-0.6816775 1.516385,0 2.838004,0.5008243 3.964859,1.5024727 1.126854,1.0016485 1.766796,2.2537087 1.933738,3.7422697 l 0.09738,0.806884 c 0,0.153029 0.08347,0.2365 0.264324,0.2365 h 2.225886 c 1.25206,0 2.323268,0.445177 3.227534,1.335531 0.890354,0.890355 1.349443,1.94765 1.349443,3.185799 0,1.196414 -0.417354,2.225886 -1.238149,3.088416 -0.820795,0.862531 -1.850267,1.349443 -3.046681,1.432914 -0.180853,0 -0.278235,0.08347 -0.278235,0.2365 v 1.864179 c 0,0.15303 0.09738,0.236501 0.278235,0.236501 1.864179,-0.08347 3.436211,-0.792972 4.702183,-2.10068 1.224237,-1.321619 1.864179,-2.907563 1.864179,-4.75783 0,-0.890354 -0.222588,-1.836355 -0.653853,-2.865828 1.099031,-1.377266 1.655502,-2.893651 1.655502,-4.549153 0,-1.3216195 -0.333883,-2.5458565 -0.987737,-3.6587993 C 28.264887,3.8914402 27.374533,3.0149978 26.26159,2.3611439 25.148648,1.7072901 23.924411,1.387319 22.616703,1.387319 c -2.211974,0 -4.006594,0.8068835 -5.383861,2.4067387 C 16.105988,3.195851 14.867839,2.9037035 13.532308,2.9037035 11.570746,2.9037035 9.8317731,3.515822 8.3153886,4.740059 6.7990041,5.9642961 5.8251792,7.5224159 5.3939139,9.42833 3.8357941,9.790037 2.5698217,10.583008 1.582085,11.821157 0.5804365,13.059306 0.09352404,14.478308 0.09352404,16.092075 Z M 10.736039,22.519319 c -0.02782,0.194765 0.02782,0.292148 0.194765,0.292148 h 3.018857 l -1.836355,5.801214 h 0.403441 l 5.815126,-7.762776 c 0.05565,-0.05565 0.06956,-0.125206 0.02782,-0.194765 -0.04173,-0.06956 -0.09738,-0.09738 -0.194765,-0.09738 h -3.032769 l 3.19971,-5.898597 c 0.09738,-0.194765 0.04174,-0.306059 -0.194765,-0.306059 H 14.04704 c -0.111295,0 -0.194765,0.06956 -0.292148,0.194765 z M 19.16658,5.129589 c 0.93209,-0.9181778 2.072856,-1.3772666 3.436211,-1.3772666 1.363355,0 2.518033,0.4730006 3.477946,1.4329137 0.959913,0.9460014 1.432914,2.1145913 1.432914,3.4918579 0,0.820795 -0.2365,1.655502 -0.723413,2.504121 C 25.440795,9.887419 23.84094,9.233565 21.990673,9.233565 H 21.559407 C 21.169877,7.5780631 20.362994,6.2147082 19.16658,5.129589 Z"
   id="path2"
   style="stroke-width:1.39118" />
</svg>
