<?xml version="1.0" encoding="UTF-8" standalone="no"?>
<!-- Generator: Adobe Illustrator 22.0.1, SVG Export Plug-In . SVG Version: 6.00 Build 0)  -->

<svg
   version="1.1"
   id="Layer_1"
   x="0px"
   y="0px"
   viewBox="0 0 30 30"
   style="enable-background:new 0 0 30 30;"
   xml:space="preserve"
   sodipodi:docname="night-snow-wind-symbolic.svg"
   inkscape:version="1.2.2 (b0a8486541, 2022-12-01)"
   xmlns:inkscape="http://www.inkscape.org/namespaces/inkscape"
   xmlns:sodipodi="http://sodipodi.sourceforge.net/DTD/sodipodi-0.dtd"
   xmlns="http://www.w3.org/2000/svg"
   xmlns:svg="http://www.w3.org/2000/svg"><defs
   id="defs7" /><sodipodi:namedview
   id="namedview5"
   pagecolor="#ffffff"
   bordercolor="#666666"
   borderopacity="1.0"
   inkscape:showpageshadow="2"
   inkscape:pageopacity="0.0"
   inkscape:pagecheckerboard="0"
   inkscape:deskcolor="#d1d1d1"
   showgrid="false"
   inkscape:zoom="29.233333"
   inkscape:cx="14.982896"
   inkscape:cy="9.5096921"
   inkscape:window-width="1920"
   inkscape:window-height="1014"
   inkscape:window-x="1080"
   inkscape:window-y="470"
   inkscape:window-maximized="1"
   inkscape:current-layer="Layer_1" />
<path
   d="m 0.09859195,15.069148 c 0,1.839339 0.64999181,3.429744 1.93614585,4.757387 1.286154,1.327643 2.8627299,2.032953 4.7020684,2.115931 0.1659554,0 0.248933,-0.08298 0.248933,-0.235104 v -1.853168 c 0,-0.152126 -0.082978,-0.235103 -0.248933,-0.235103 C 5.5474595,19.549943 4.5378977,19.079736 3.708121,18.194641 2.8783442,17.309545 2.4634558,16.272324 2.4634558,15.069148 c 0,-1.147858 0.3872291,-2.14359 1.1755171,-3.001026 0.7882879,-0.843606 1.7563608,-1.341472 2.9042187,-1.479769 l 0.7329695,-0.05532 c 0.179785,0 0.2765923,-0.08298 0.2765923,-0.248933 L 7.6495607,9.5373028 C 7.8016864,8.0437046 8.424019,6.7852099 9.5442177,5.7756481 10.664416,4.7660863 11.97823,4.2543907 13.485657,4.2543907 c 1.507428,0 2.821241,0.5116956 3.95527,1.5212574 1.134028,1.0095618 1.77019,2.2680565 1.936146,3.7616547 l 0.110636,0.7882882 c 0,0.165955 0.08298,0.262762 0.235104,0.262762 h 2.240397 c 1.258495,0 2.323375,0.442548 3.2223,1.313814 0.885095,0.871265 1.341472,1.936146 1.341472,3.153151 0,1.189347 -0.414888,2.226568 -1.258494,3.111663 -0.843607,0.885096 -1.853168,1.369132 -3.028686,1.43828 -0.165955,0 -0.262762,0.08298 -0.262762,0.235104 v 1.853168 c 0,0.152125 0.08298,0.235103 0.262762,0.235103 1.853169,-0.05532 3.415915,-0.760629 4.702069,-2.088271 1.286154,-1.341473 1.922316,-2.931878 1.922316,-4.771217 0,-0.981902 -0.193615,-1.908487 -0.594673,-2.779752 1.092539,-1.327643 1.631894,-2.8627301 1.631894,-4.5914317 0,-1.3138132 -0.331911,-2.5308192 -0.981902,-3.6510178 C 28.269514,2.9267478 27.384418,2.0416526 26.26422,1.3916608 25.144021,0.74166895 23.940845,0.42358785 22.640861,0.42358785 c -2.14359,0 -3.94144,0.80211755 -5.379719,2.39252305 -1.120199,-0.5946734 -2.364864,-0.8989248 -3.747825,-0.8989248 -1.949976,0 -3.6925071,0.6085029 -5.1999349,1.8255089 C 6.8059543,4.9597009 5.8240517,6.5086176 5.3953337,8.389445 3.8602467,8.7490149 2.6017519,9.5511325 1.6060198,10.795798 0.59645802,12.054292 0.09859195,13.478743 0.09859195,15.069148 Z M 7.6910495,25.745609 c 0,0.290422 0.1106369,0.553185 0.3319107,0.788288 0.2489331,0.221274 0.5116957,0.331911 0.8021176,0.331911 0.3319107,0 0.5946733,-0.110637 0.8159471,-0.318081 0.2212739,-0.221274 0.3180811,-0.484037 0.3180811,-0.802118 0,-0.33191 -0.1106369,-0.594673 -0.3319107,-0.815947 -0.2212738,-0.221274 -0.4840364,-0.318081 -0.8159471,-0.318081 -0.3180811,0 -0.5946734,0.110637 -0.8159472,0.318081 -0.1936146,0.207444 -0.3042515,0.484037 -0.3042515,0.815947 z M 8.8803962,20.72546 c 0,0.331911 0.1106369,0.608503 0.3319107,0.843606 0.2212739,0.235104 0.4840365,0.345741 0.8159471,0.345741 0.318081,0 0.594673,-0.110637 0.815947,-0.345741 0.221274,-0.235103 0.331911,-0.511695 0.331911,-0.843606 0,-0.318081 -0.110637,-0.580844 -0.331911,-0.802118 -0.221274,-0.221274 -0.484036,-0.33191 -0.815947,-0.33191 -0.318081,0 -0.5946732,0.110636 -0.8159471,0.33191 -0.2212738,0.221274 -0.3319107,0.497866 -0.3319107,0.802118 z m 2.6137968,7.716924 c 0,0.304251 0.110637,0.567014 0.331911,0.788288 0.235103,0.235103 0.497866,0.34574 0.802117,0.34574 0.331911,0 0.608503,-0.110637 0.829777,-0.318081 0.235104,-0.221274 0.34574,-0.484036 0.34574,-0.815947 0,-0.331911 -0.110636,-0.608503 -0.34574,-0.829777 -0.235103,-0.235103 -0.511696,-0.34574 -0.829777,-0.34574 -0.304251,0 -0.567014,0.110637 -0.802117,0.34574 -0.207444,0.235104 -0.331911,0.511696 -0.331911,0.829777 z m 1.189347,-5.061638 c 0,0.304251 0.110637,0.580843 0.34574,0.829776 0.221274,0.221274 0.484037,0.331911 0.788288,0.331911 0.331911,0 0.608503,-0.110637 0.843606,-0.331911 0.235104,-0.221274 0.345741,-0.497866 0.345741,-0.829776 0,-0.318082 -0.110637,-0.594674 -0.345741,-0.829777 -0.235103,-0.235104 -0.511695,-0.345741 -0.843606,-0.345741 -0.318081,0 -0.580844,0.110637 -0.802117,0.345741 -0.221274,0.235103 -0.331911,0.511695 -0.331911,0.829777 z m 0.594673,-4.978661 c 0,0.318081 0.110637,0.580844 0.331911,0.802117 0.221274,0.221274 0.497866,0.331911 0.802117,0.331911 0.331911,0 0.608503,-0.110637 0.829777,-0.331911 0.235104,-0.221273 0.345741,-0.484036 0.345741,-0.815947 0,-0.318081 -0.110637,-0.594673 -0.345741,-0.815947 -0.235103,-0.221274 -0.511695,-0.331911 -0.829777,-0.331911 -0.304251,0 -0.580843,0.110637 -0.802117,0.331911 -0.221274,0.221274 -0.331911,0.511696 -0.331911,0.829777 z m 3.277618,7.343524 c 0,0.290422 0.110637,0.553185 0.318082,0.788288 0.235103,0.221274 0.525525,0.331911 0.829776,0.331911 0.331911,0 0.594674,-0.110637 0.815948,-0.318081 0.221273,-0.221274 0.318081,-0.484037 0.318081,-0.802118 0,-0.33191 -0.110637,-0.594673 -0.318081,-0.815947 -0.221274,-0.221274 -0.484037,-0.318081 -0.815948,-0.318081 -0.33191,0 -0.608503,0.110637 -0.829776,0.331911 -0.207445,0.207444 -0.318082,0.484036 -0.318082,0.802117 z m 1.175518,-5.020149 c 0,0.331911 0.110636,0.608503 0.33191,0.843606 0.221274,0.235104 0.497866,0.345741 0.815947,0.345741 0.318082,0 0.594674,-0.110637 0.815948,-0.345741 0.221273,-0.235103 0.33191,-0.511695 0.33191,-0.843606 0,-0.318081 -0.110637,-0.580844 -0.33191,-0.802118 -0.221274,-0.221274 -0.484037,-0.33191 -0.815948,-0.33191 -0.318081,0 -0.594673,0.110636 -0.815947,0.33191 -0.221274,0.221274 -0.33191,0.497866 -0.33191,0.802118 z M 19.183458,4.1852426 c 0.940414,-0.9404137 2.074442,-1.3967909 3.429744,-1.3967909 1.355302,0 2.50316,0.4840364 3.457403,1.4382797 0.954244,0.9542433 1.42445,2.1159308 1.42445,3.4850625 0,0.8159472 -0.235103,1.6595536 -0.70531,2.5446491 C 25.462102,8.9287999 23.844038,8.2649784 21.949381,8.2649784 H 21.520663 C 21.133433,6.6469137 20.345145,5.2916116 19.183458,4.1852426 Z"
   id="path2"
   style="stroke-width:1.38296" />
</svg>
