<?xml version="1.0" encoding="UTF-8" standalone="no"?>
<!-- Generator: Adobe Illustrator 22.0.1, SVG Export Plug-In . SVG Version: 6.00 Build 0)  -->

<svg
   version="1.1"
   id="Layer_1"
   x="0px"
   y="0px"
   viewBox="0 0 30 30"
   style="enable-background:new 0 0 30 30;"
   xml:space="preserve"
   sodipodi:docname="night-hail-symbolic.svg"
   inkscape:version="1.2.2 (b0a8486541, 2022-12-01)"
   xmlns:inkscape="http://www.inkscape.org/namespaces/inkscape"
   xmlns:sodipodi="http://sodipodi.sourceforge.net/DTD/sodipodi-0.dtd"
   xmlns="http://www.w3.org/2000/svg"
   xmlns:svg="http://www.w3.org/2000/svg"><defs
   id="defs7" /><sodipodi:namedview
   id="namedview5"
   pagecolor="#ffffff"
   bordercolor="#666666"
   borderopacity="1.0"
   inkscape:showpageshadow="2"
   inkscape:pageopacity="0.0"
   inkscape:pagecheckerboard="0"
   inkscape:deskcolor="#d1d1d1"
   showgrid="false"
   inkscape:zoom="29.233333"
   inkscape:cx="14.982896"
   inkscape:cy="6.7730901"
   inkscape:window-width="1920"
   inkscape:window-height="1014"
   inkscape:window-x="1080"
   inkscape:window-y="470"
   inkscape:window-maximized="1"
   inkscape:current-layer="Layer_1" />
<path
   d="m 0.04973772,14.993053 c 0,1.847941 0.63913764,3.445785 1.93130718,4.765743 1.2921695,1.333852 2.8622248,2.042461 4.7240605,2.139722 0.1667317,0 0.2500974,-0.08337 0.2500974,-0.250097 v -1.847942 c 0,-0.166731 -0.083366,-0.250097 -0.2500974,-0.250097 C 5.5101959,19.494801 4.5098067,19.022398 3.6761489,18.133164 2.8424912,17.243929 2.4256623,16.201857 2.4256623,14.993053 c 0,-1.153227 0.3890403,-2.153616 1.1671208,-3.015063 0.7780806,-0.847552 1.7506813,-1.347746 2.9178022,-1.486689 l 0.7225034,-0.09726 c 0.1806259,0 0.2778859,-0.08337 0.2778859,-0.250097 L 7.6221289,9.4353355 C 7.7749663,7.9347522 8.4002096,6.6703712 9.5256475,5.6699818 10.651085,4.6556982 11.971044,4.1555036 13.485521,4.1555036 c 1.514479,0 2.834437,0.514089 3.973769,1.5283725 1.139332,1.0142837 1.778471,2.2647698 1.945202,3.7653543 l 0.09726,0.8058686 c 0,0.166731 0.08337,0.250097 0.250099,0.250097 h 2.250875 c 1.264381,0 2.334242,0.444618 3.223477,1.319959 0.889234,0.87534 1.333853,1.931307 1.333853,3.181794 0,1.208803 -0.41683,2.250875 -1.250487,3.14011 -0.833658,0.889235 -1.847942,1.361641 -3.028957,1.417218 -0.180626,0 -0.263991,0.08337 -0.263991,0.250097 v 1.847942 c 0,0.166731 0.08337,0.250097 0.263991,0.250097 1.222698,-0.04168 2.334242,-0.375145 3.348526,-1.000389 1.014283,-0.625243 1.820152,-1.458901 2.403713,-2.500973 0.58356,-1.042072 0.87534,-2.181404 0.87534,-3.390209 0,-1.028178 -0.19452,-1.959095 -0.597454,-2.792753 1.097649,-1.333852 1.639526,-2.8622239 1.639526,-4.6129059 0,-1.3060636 -0.333463,-2.5287617 -0.986495,-3.6403054 C 28.310736,2.8494398 27.4215,1.9602048 26.296063,1.3071729 25.170625,0.65414095 23.961821,0.32067791 22.655757,0.32067791 c -2.16751,0 -3.959874,0.80586919 -5.390987,2.40371319 -1.139332,-0.6113491 -2.389819,-0.9170235 -3.765354,-0.9170235 -1.959096,0 -3.7097765,0.611349 -5.2242551,1.834047 C 6.7606827,4.8641115 5.7741875,6.4202727 5.3434644,8.3098973 3.8150919,8.6711487 2.550711,9.4770178 1.5503218,10.727505 0.5499324,11.964096 0.04973772,13.395209 0.04973772,14.993053 Z m 7.46123698,9.698219 c 0.1250486,0.305674 0.3334631,0.514088 0.6391376,0.639137 0.2778859,0.138943 0.5696662,0.152838 0.8614464,0.02779 0.3056745,-0.111152 0.500194,-0.319569 0.6252431,-0.625243 0.1250491,-0.305674 0.1250491,-0.611349 0.013893,-0.903129 -0.111152,-0.305674 -0.3195681,-0.514089 -0.6113483,-0.653032 -0.2778859,-0.111152 -0.5557718,-0.111152 -0.847552,0.01389 -0.2917803,0.125049 -0.5001947,0.319569 -0.6391376,0.597454 -0.1528374,0.236204 -0.1667315,0.541878 -0.041682,0.90313 z m 0.8753406,-3.932086 c 0,0.222308 0.069472,0.430723 0.2084145,0.639138 0.138943,0.208414 0.3612516,0.347356 0.6391377,0.430722 0.3056738,0.09726 0.6113491,0.06947 0.9031285,-0.08337 0.291781,-0.152836 0.486301,-0.402933 0.597455,-0.764186 l 1.361641,-4.321125 c 0.09726,-0.333464 0.06947,-0.653032 -0.111152,-0.930919 -0.166732,-0.277886 -0.430724,-0.458512 -0.764186,-0.527983 -0.305675,-0.09726 -0.597455,-0.06947 -0.861446,0.08337 -0.277887,0.152838 -0.458512,0.38904 -0.5557725,0.694714 l -1.3894294,4.418387 z m 2.5843387,7.780806 c 0,0.09726 0.02778,0.236203 0.08337,0.402934 0.125049,0.305675 0.347358,0.527983 0.639138,0.625244 0.111152,0.06947 0.263991,0.111152 0.458511,0.111152 0.08337,0 0.22231,-0.02779 0.41683,-0.08337 0.305674,-0.111152 0.527983,-0.319569 0.653032,-0.625243 0.138942,-0.305675 0.138942,-0.61135 0,-0.917024 -0.138943,-0.305675 -0.347358,-0.514089 -0.625244,-0.639137 -0.277887,-0.12505 -0.569666,-0.12505 -0.861446,-0.01389 -0.263992,0.111152 -0.458512,0.277886 -0.58356,0.500194 -0.12505,0.22231 -0.180627,0.430724 -0.180627,0.639138 z m 1.028178,-3.709777 c 0,0.250097 0.06948,0.458512 0.208414,0.666925 0.138943,0.19452 0.361253,0.333463 0.666927,0.38904 0.02778,0 0.08337,0.01389 0.152838,0.02779 0.06947,0.01389 0.138942,0.02779 0.180625,0.02779 0.597454,-0.04169 0.972601,-0.333464 1.125437,-0.861447 l 2.445397,-8.433838 c 0.09726,-0.333463 0.06947,-0.639137 -0.08337,-0.903129 -0.152837,-0.263992 -0.38904,-0.444618 -0.694715,-0.541877 -0.319569,-0.09726 -0.625243,-0.06948 -0.903129,0.08337 -0.277886,0.152838 -0.458512,0.38904 -0.555772,0.694715 l -2.500973,8.433837 c 0,0.02779 0,0.08337 -0.01389,0.138943 -0.01389,0.05558 -0.01389,0.111152 -0.01389,0.152838 -0.01389,0.05558 -0.01389,0.09726 -0.01389,0.125049 z m 4.779638,-0.555773 c 0,0.138943 0.02779,0.291781 0.06947,0.444619 0.111152,0.291779 0.319569,0.500194 0.639137,0.611348 0.125049,0.05558 0.29178,0.09726 0.500195,0.09726 0.166732,0 0.305674,-0.02779 0.402935,-0.08337 0.319568,-0.125049 0.527983,-0.319569 0.639137,-0.597455 0.111152,-0.305676 0.111152,-0.597455 0,-0.90313 -0.111152,-0.29178 -0.305674,-0.514088 -0.58356,-0.666926 -0.305675,-0.111152 -0.61135,-0.111152 -0.90313,0.01389 -0.305674,0.125049 -0.514088,0.319569 -0.653032,0.597454 -0.06947,0.152838 -0.111152,0.305676 -0.111152,0.486301 z m 1.000389,-3.52915 c 0,0.500194 0.291781,0.847552 0.861447,1.042072 0.19452,0.05558 0.333463,0.08337 0.416828,0.08337 0.166732,0 0.319569,-0.04169 0.472406,-0.111152 0.236203,-0.12505 0.430723,-0.375147 0.555773,-0.764187 l 1.36164,-4.321126 c 0.111153,-0.319569 0.06948,-0.625243 -0.08337,-0.889235 -0.166732,-0.277886 -0.402935,-0.458512 -0.708609,-0.555772 -0.319569,-0.09726 -0.61135,-0.06947 -0.889236,0.08337 -0.263992,0.152838 -0.458512,0.38904 -0.555771,0.694716 l -1.361641,4.348913 c -0.05558,0.222309 -0.06947,0.361253 -0.06947,0.389041 z M 19.209972,4.0582424 c 0.958706,-0.9170236 2.098039,-1.3755353 3.445785,-1.3755353 1.347747,0 2.514868,0.4863003 3.473574,1.4450068 0.958706,0.9587064 1.445007,2.1258273 1.445007,3.4735743 0,0.8614457 -0.236203,1.7089976 -0.722504,2.5565498 C 25.490193,8.7961978 23.878455,8.1153773 22.002725,8.1153773 H 21.544213 C 21.113491,6.5036384 20.33541,5.1558917 19.209972,4.0582424 Z"
   id="path2"
   style="stroke-width:1.38943" />
</svg>
