<?xml version="1.0" encoding="UTF-8" standalone="no"?>
<!-- Generator: Adobe Illustrator 22.0.1, SVG Export Plug-In . SVG Version: 6.00 Build 0)  -->

<svg
   version="1.1"
   id="Layer_1"
   x="0px"
   y="0px"
   viewBox="0 0 30 30"
   style="enable-background:new 0 0 30 30;"
   xml:space="preserve"
   sodipodi:docname="night-partly-cloudy-symbolic.svg"
   inkscape:version="1.2.2 (b0a8486541, 2022-12-01)"
   xmlns:inkscape="http://www.inkscape.org/namespaces/inkscape"
   xmlns:sodipodi="http://sodipodi.sourceforge.net/DTD/sodipodi-0.dtd"
   xmlns="http://www.w3.org/2000/svg"
   xmlns:svg="http://www.w3.org/2000/svg"><defs
   id="defs7" /><sodipodi:namedview
   id="namedview5"
   pagecolor="#ffffff"
   bordercolor="#666666"
   borderopacity="1.0"
   inkscape:showpageshadow="2"
   inkscape:pageopacity="0.0"
   inkscape:pagecheckerboard="0"
   inkscape:deskcolor="#d1d1d1"
   showgrid="false"
   inkscape:zoom="29.233333"
   inkscape:cx="14.982896"
   inkscape:cy="12.246294"
   inkscape:window-width="1920"
   inkscape:window-height="1014"
   inkscape:window-x="1080"
   inkscape:window-y="470"
   inkscape:window-maximized="1"
   inkscape:current-layer="Layer_1" />
<path
   d="m 0.10536215,22.795917 c 0,1.756571 0.63381437,3.277725 1.91955215,4.563463 1.2857377,1.285738 2.8068921,1.919552 4.5634635,1.919552 H 18.993031 c 1.756571,0 3.259616,-0.633814 4.509136,-1.901443 1.24952,-1.267629 1.883334,-2.788783 1.883334,-4.581572 0,-0.869231 -0.126763,-1.6117 -0.380288,-2.227405 1.503045,-0.959776 2.698238,-2.245514 3.567469,-3.839104 0.869231,-1.593591 1.321956,-3.313944 1.321956,-5.142951 0,-1.466828 -0.289744,-2.8793281 -0.851122,-4.2193928 C 28.464028,6.0269996 27.703451,4.8680248 26.725566,3.9082487 25.747681,2.9484727 24.606815,2.1697864 23.26675,1.590299 21.926686,1.0108116 20.532294,0.72106785 19.065466,0.72106785 c -1.973879,0 -3.802886,0.48894255 -5.468912,1.46682755 C 11.930528,3.1657805 10.608572,4.4877361 9.6487957,6.1356535 8.6890197,7.8016799 8.2181861,9.6125781 8.2181861,11.586457 v 0.615705 c -1.8290071,1.032212 -3.0242,2.553367 -3.6036874,4.509137 -1.3762826,0.434615 -2.4628215,1.195193 -3.2777257,2.299841 -0.81490426,1.104647 -1.23141085,2.372276 -1.23141085,3.784777 z m 3.58557845,0 c 0,-0.760577 0.2354168,-1.412501 0.7243593,-1.95577 0.4889425,-0.54327 1.1046479,-0.851122 1.8471162,-0.923558 l 1.1408658,-0.144872 c 0.2173078,0 0.3440707,-0.144872 0.3440707,-0.416507 l 0.1810897,-1.014103 c 0.126763,-1.050321 0.5613786,-1.919552 1.3219557,-2.607693 0.760577,-0.706251 1.647918,-1.050321 2.68013,-1.050321 1.050321,0 1.973879,0.34407 2.734456,1.050321 0.778686,0.70625 1.231411,1.575481 1.358173,2.607693 l 0.144872,1.177084 c 0.108654,0.271635 0.271635,0.416507 0.452725,0.416507 h 2.372277 c 0.778686,0 1.448718,0.289743 2.028206,0.851122 0.579487,0.561378 0.851122,1.231411 0.851122,2.028206 0,0.814904 -0.289744,1.503045 -0.851122,2.082533 -0.561379,0.579487 -1.24952,0.869231 -2.028206,0.869231 H 6.5883778 c -0.8149042,0 -1.5030455,-0.289744 -2.064424,-0.869231 C 3.9625754,24.317071 3.6909406,23.610821 3.6909406,22.795917 Z M 11.71322,11.224277 c 0.126763,-1.9738786 0.88734,-3.6399049 2.29984,-4.9980786 1.412501,-1.3400647 3.096636,-2.028206 5.070515,-2.028206 2.010097,0 3.730451,0.7243593 5.142951,2.1549689 1.412501,1.4306096 2.118751,3.1871808 2.118751,5.2334957 0,1.267629 -0.307852,2.444712 -0.923558,3.531251 -0.615705,1.086539 -1.448718,1.95577 -2.499039,2.625803 -1.06843,-0.88734 -2.299841,-1.321956 -3.676124,-1.321956 -0.52516,-1.59359 -1.466827,-2.84311 -2.788783,-3.784777 -1.321956,-0.941667 -2.825001,-1.412501 -4.509136,-1.412501 z"
   id="path2"
   style="stroke-width:1.8109" />
</svg>
