<?xml version="1.0" encoding="UTF-8" standalone="no"?>
<!-- Generator: Adobe Illustrator 22.0.1, SVG Export Plug-In . SVG Version: 6.00 Build 0)  -->

<svg
   version="1.1"
   id="Layer_1"
   x="0px"
   y="0px"
   viewBox="0 0 30 30"
   style="enable-background:new 0 0 30 30;"
   xml:space="preserve"
   sodipodi:docname="night-alt-showers-symbolic.svg"
   inkscape:version="1.2.2 (b0a8486541, 2022-12-01)"
   xmlns:inkscape="http://www.inkscape.org/namespaces/inkscape"
   xmlns:sodipodi="http://sodipodi.sourceforge.net/DTD/sodipodi-0.dtd"
   xmlns="http://www.w3.org/2000/svg"
   xmlns:svg="http://www.w3.org/2000/svg"><defs
   id="defs7" /><sodipodi:namedview
   id="namedview5"
   pagecolor="#ffffff"
   bordercolor="#666666"
   borderopacity="1.0"
   inkscape:showpageshadow="2"
   inkscape:pageopacity="0.0"
   inkscape:pagecheckerboard="0"
   inkscape:deskcolor="#d1d1d1"
   showgrid="false"
   inkscape:zoom="29.233333"
   inkscape:cx="14.982896"
   inkscape:cy="9.5096921"
   inkscape:window-width="1920"
   inkscape:window-height="1014"
   inkscape:window-x="1080"
   inkscape:window-y="470"
   inkscape:window-maximized="1"
   inkscape:current-layer="Layer_1" />
<path
   d="m 0.26576478,15.538976 c 0,1.792093 0.61982148,3.341646 1.87293892,4.621713 1.2531174,1.280066 2.7757225,1.980734 4.5812895,2.06158 0.1482181,0 0.2290645,-0.08085 0.2290645,-0.229064 v -1.84599 c 0,-0.161693 -0.080846,-0.242539 -0.2290645,-0.242539 C 5.547722,19.810357 4.5640923,19.352226 3.7691037,18.50334 2.9741153,17.667928 2.5698838,16.670825 2.5698838,15.525502 c 0,-1.118374 0.3772828,-2.075055 1.131848,-2.910466 0.7545654,-0.835412 1.6977721,-1.307015 2.8296201,-1.441759 l 0.7141422,-0.09432 c 0.1751669,0 0.2694875,-0.08085 0.2694875,-0.229065 l 0.094321,-0.700668 C 7.7575208,8.6939927 8.363868,7.4678246 9.4552923,6.4976692 10.546717,5.5140393 11.826783,5.0289616 13.295491,5.0289616 c 1.468708,0 2.748773,0.4850777 3.840199,1.4687076 1.091424,0.9701554 1.72472,2.1963235 1.872938,3.6650308 l 0.107799,0.781515 c 0,0.161692 0.08085,0.242538 0.242539,0.242538 h 2.169375 c 1.212694,0 2.250221,0.431181 3.126056,1.280067 0.862361,0.848886 1.307015,1.872938 1.307015,3.072159 0,1.145322 -0.404232,2.142426 -1.199219,2.977837 -0.794989,0.835413 -1.792093,1.307016 -2.95089,1.401337 -0.175167,0 -0.269487,0.08085 -0.269487,0.242538 v 1.845991 c 0,0.148217 0.09432,0.229064 0.269487,0.229064 1.792093,-0.0539 3.314698,-0.741091 4.554341,-2.034631 1.239643,-1.293541 1.859464,-2.843095 1.859464,-4.648663 0,-1.17227 -0.296437,-2.263695 -0.875834,-3.274274 1.091424,-0.98363 1.805567,-2.1559 2.128951,-3.5302867 V 8.5727219 l 0.25601,-1.0644764 -1.024052,-0.282962 C 27.618757,6.9018983 26.769871,6.2820768 26.163525,5.406242 25.557177,4.516933 25.260741,3.600675 25.260741,2.6709428 c 0,-0.3503339 0.04042,-0.7006678 0.107799,-1.0510018 L 25.638024,0.54199058 24.492701,0.20513101 24.290585,0.15123348 C 23.65729,0.02996406 23.10484,-0.03740783 22.606288,-0.03740783 c -0.512027,0 -1.024053,0.05389742 -1.53608,0.17516695 -0.5255,0.12126943 -1.064476,0.29643639 -1.616925,0.55244959 -0.565924,0.25601332 -1.104899,0.60634719 -1.616926,1.07795049 -0.512026,0.4716033 -0.970156,1.024053 -1.347438,1.6573488 -0.997104,-0.4446545 -2.06158,-0.6602446 -3.179954,-0.6602446 -1.899887,0 -3.5841856,0.5928728 -5.0528923,1.7651439 C 6.7873651,5.7026784 5.8711072,7.2118091 5.4668758,9.0577998 3.9577452,9.408133 2.7046277,10.176173 1.7344722,11.375392 0.75084248,12.601561 0.26576478,13.989423 0.26576478,15.538976 Z m 7.27616572,9.122157 c 0,0.202115 0.067372,0.40423 0.2021156,0.606346 0.1347438,0.202116 0.3368596,0.350334 0.6063472,0.444654 0.2964363,0.09432 0.5793984,0.08085 0.8623604,-0.06737 C 9.4957159,25.496545 9.670882,25.26748 9.7652031,24.95757 l 0.3772829,-1.428284 c 0.09432,-0.282962 0.06737,-0.552451 -0.09432,-0.835413 -0.1616919,-0.282962 -0.3907566,-0.458128 -0.6871929,-0.552449 -0.3099108,-0.08085 -0.6063472,-0.04042 -0.8758348,0.1078 -0.2694876,0.148218 -0.4581289,0.404231 -0.565924,0.714142 L 7.6093036,24.29733 c -0.040424,0.21559 -0.067372,0.33686 -0.067372,0.363808 z m 1.7516694,-6.373382 c 0,0.148217 0.040424,0.30991 0.1347437,0.485076 0.094319,0.229065 0.3368595,0.404232 0.7141424,0.512027 0.323385,0.08085 0.619822,0.0539 0.889309,-0.08085 0.256013,-0.134744 0.444654,-0.377284 0.538975,-0.700668 l 0.377283,-1.387858 c 0.09432,-0.309911 0.06737,-0.606347 -0.09432,-0.86236 -0.161692,-0.269488 -0.390757,-0.444655 -0.687193,-0.525502 -0.323385,-0.08085 -0.633296,-0.0539 -0.902784,0.09432 -0.2694871,0.148219 -0.4446543,0.377283 -0.5389753,0.700668 l -0.3638076,1.360913 c -0.040424,0.175167 -0.067372,0.30991 -0.067372,0.404231 z m 1.6842971,10.577388 c 0,0.229065 0.06737,0.444655 0.202116,0.660244 0.134744,0.215591 0.33686,0.363808 0.606347,0.444656 0.148218,0.04042 0.242539,0.06737 0.309911,0.06737 0.121269,0 0.282962,-0.04042 0.512026,-0.134744 0.269488,-0.107799 0.458129,-0.363808 0.579399,-0.741091 l 0.404231,-1.41481 c 0.09432,-0.282962 0.06737,-0.565924 -0.09432,-0.848886 -0.161693,-0.282962 -0.390757,-0.458128 -0.687194,-0.552449 -0.323384,-0.08085 -0.633295,-0.0539 -0.902783,0.107799 -0.269487,0.161692 -0.45813,0.390757 -0.55245,0.714142 l -0.336859,1.360913 c -0.02695,0.107799 -0.04042,0.229065 -0.04042,0.33686 z m 1.792094,-6.42728 c 0,0.202116 0.06737,0.404232 0.202114,0.606348 0.134745,0.202115 0.33686,0.350334 0.619822,0.444654 0.296437,0.09432 0.592873,0.06737 0.862361,-0.08085 0.269487,-0.148218 0.444654,-0.377283 0.538975,-0.700667 l 0.363808,-1.401335 c 0.09432,-0.282963 0.06737,-0.565925 -0.08085,-0.835413 -0.148219,-0.269487 -0.363808,-0.458129 -0.660245,-0.552449 -0.323385,-0.08085 -0.633296,-0.04042 -0.916258,0.107799 -0.282962,0.148219 -0.471604,0.404232 -0.565924,0.714143 l -0.323385,1.347438 z m 3.7863,2.371491 c 0,0.512027 0.282962,0.835412 0.862361,1.010579 0.121269,0.02695 0.229064,0.04042 0.323384,0.04042 0.202116,0 0.363808,-0.02695 0.498553,-0.09432 0.282962,-0.1078 0.485077,-0.36381 0.592873,-0.76804 l 0.363808,-1.374388 c 0.08085,-0.336859 0.0539,-0.633295 -0.107799,-0.902783 -0.161694,-0.269487 -0.390758,-0.43118 -0.714143,-0.498552 -0.309911,-0.09432 -0.606348,-0.06737 -0.862361,0.09432 -0.256012,0.161692 -0.444654,0.390757 -0.538974,0.687192 l -0.363809,1.401337 c 0,0.02695 -0.01347,0.09432 -0.02695,0.202116 -0.02695,0.09432 -0.02695,0.161692 -0.02695,0.202114 z m 1.872939,-6.481177 c 0,0.21559 0.06737,0.417706 0.202116,0.619822 0.134743,0.202115 0.350333,0.350334 0.619821,0.43118 0.188641,0.04042 0.296436,0.06737 0.309911,0.06737 0.12127,0 0.282962,-0.04042 0.512027,-0.134743 0.282962,-0.1078 0.471603,-0.363809 0.592872,-0.741092 l 0.377282,-1.401335 c 0.08085,-0.296436 0.04042,-0.579398 -0.107799,-0.848886 -0.148218,-0.269487 -0.404231,-0.444654 -0.714142,-0.538975 -0.296436,-0.09432 -0.579398,-0.06737 -0.848885,0.09432 -0.269489,0.161693 -0.444656,0.390757 -0.538976,0.700668 l -0.350334,1.428285 c -0.04042,0.121269 -0.0539,0.242539 -0.0539,0.323385 z M 18.46965,4.6247279 c 0.431179,-0.7545652 1.024052,-1.347438 1.792092,-1.7651438 0.76804,-0.4177058 1.576502,-0.6332959 2.438863,-0.6332959 h 0.282962 c -0.01347,0.1212694 -0.01347,0.282962 -0.01347,0.5120265 0,1.2800661 0.350334,2.4927604 1.051002,3.6515572 0.700667,1.1587967 1.684297,2.0346315 2.92394,2.6409792 -0.296436,0.5793977 -0.64677,1.0779499 -1.051002,1.4821809 C 24.640925,9.4216078 23.172218,8.8826326 21.514869,8.8826326 H 21.083683 C 20.746824,7.279181 19.884463,5.864371 18.469654,4.6247279 Z"
   id="path2"
   style="stroke-width:1.34744" />
</svg>
