<?xml version="1.0" encoding="UTF-8" standalone="no"?>
<!-- Generator: Adobe Illustrator 22.0.1, SVG Export Plug-In . SVG Version: 6.00 Build 0)  -->

<svg
   version="1.1"
   id="Layer_1"
   x="0px"
   y="0px"
   viewBox="0 0 30 30"
   style="enable-background:new 0 0 30 30;"
   xml:space="preserve"
   sodipodi:docname="night-alt-snow-wind-symbolic.svg"
   inkscape:version="1.2.2 (b0a8486541, 2022-12-01)"
   xmlns:inkscape="http://www.inkscape.org/namespaces/inkscape"
   xmlns:sodipodi="http://sodipodi.sourceforge.net/DTD/sodipodi-0.dtd"
   xmlns="http://www.w3.org/2000/svg"
   xmlns:svg="http://www.w3.org/2000/svg"><defs
   id="defs7" /><sodipodi:namedview
   id="namedview5"
   pagecolor="#ffffff"
   bordercolor="#666666"
   borderopacity="1.0"
   inkscape:showpageshadow="2"
   inkscape:pageopacity="0.0"
   inkscape:pagecheckerboard="0"
   inkscape:deskcolor="#d1d1d1"
   showgrid="false"
   inkscape:zoom="29.233333"
   inkscape:cx="14.982896"
   inkscape:cy="12.246294"
   inkscape:window-width="1920"
   inkscape:window-height="1014"
   inkscape:window-x="1080"
   inkscape:window-y="470"
   inkscape:window-maximized="1"
   inkscape:current-layer="Layer_1" />
<path
   d="m 0.18082853,15.732146 c 0,1.803248 0.63723786,3.348888 1.89815527,4.65048 1.2609175,1.301593 2.8065583,1.993064 4.6098059,2.047297 0.162699,0 0.2440486,-0.08135 0.2440486,-0.230491 v -1.816806 c 0,-0.14914 -0.08135,-0.23049 -0.2440486,-0.23049 -1.1524514,-0.05423 -2.1422039,-0.528771 -2.9556991,-1.3965 -0.8270534,-0.867728 -1.233801,-1.884598 -1.233801,-3.037049 0,-1.152451 0.3796312,-2.142204 1.1524515,-2.982815 0.7728204,-0.840611 1.7218981,-1.301593 2.8472331,-1.3965 l 0.7185873,-0.0949 c 0.1762574,0 0.2711651,-0.08135 0.2711651,-0.23049 l 0.094908,-0.705028 c 0.1491402,-1.4778544 0.7592616,-2.7252139 1.85748,-3.7285247 1.0982194,-1.0033106 2.3862534,-1.504966 3.8776604,-1.504966 1.47785,0 2.765884,0.5016554 3.877661,1.4914079 1.111776,0.9897523 1.735456,2.2235529 1.898155,3.6878438 l 0.108468,0.772821 c 0,0.162699 0.08135,0.244049 0.230491,0.244049 h 2.196437 c 1.233801,0 2.277786,0.433864 3.159072,1.31515 0.881287,0.867728 1.315151,1.911713 1.315151,3.131956 0,1.152451 -0.406748,2.169321 -1.233801,3.037049 -0.827054,0.867729 -1.803248,1.328709 -2.955699,1.3965 -0.189816,0 -0.284723,0.08135 -0.284723,0.23049 v 1.816806 c 0,0.149141 0.0949,0.230491 0.284723,0.230491 1.193126,-0.02712 2.277786,-0.352516 3.267539,-0.962637 0.989752,-0.610121 1.776131,-1.423616 2.345578,-2.440485 0.569446,-1.016869 0.85417,-2.115087 0.85417,-3.294655 0,-1.233802 -0.298283,-2.359136 -0.881287,-3.362447 1.003311,-0.894844 1.681224,-2.060854 2.060854,-3.498029 l 0.230491,-0.9761941 c 0.01355,-0.013559 0.02712,-0.054233 0.02712,-0.1084658 0,-0.094907 -0.06779,-0.1762572 -0.216932,-0.216932 L 28.775183,7.3395874 C 28.17862,7.1633302 27.649849,6.9057234 27.188868,6.5667672 26.727888,6.2278108 26.361815,5.8481797 26.090649,5.4278738 25.819484,5.0075681 25.629668,4.5872623 25.494087,4.13984 25.358504,3.7059759 25.290712,3.2721117 25.290712,2.8518059 c 0,-0.3660727 0.04067,-0.7592621 0.135583,-1.1660097 l 0.14914,-0.84061168 C 25.602552,0.72316026 25.548319,0.61469427 25.38562,0.546903 L 24.30096,0.22150493 c -0.596563,-0.1491407 -1.152451,-0.21693197 -1.694781,-0.21693197 -0.501656,0 -1.003311,0.05423288 -1.518524,0.17625726 C 20.572441,0.30285448 20.043669,0.47911174 19.487781,0.73671854 18.931892,0.99432534 18.40312,1.34684 17.887907,1.8213787 17.372693,2.2959176 16.925271,2.8382477 16.54564,3.4754855 15.447422,3.0280632 14.376319,2.7975729 13.318775,2.7975729 c -1.911713,0 -3.6200523,0.5965631 -5.0979029,1.7896894 C 6.7430226,5.7803885 5.7803867,7.2989127 5.3600809,9.1563929 3.8415565,9.5360241 2.5941973,10.335961 1.6315614,11.542645 0.66892547,12.762889 0.18082842,14.159389 0.18082853,15.732146 Z M 7.6785421,26.212675 c 0,0.31184 0.1084658,0.569447 0.3253981,0.786378 0.2169321,0.216933 0.488097,0.325399 0.7863787,0.325399 0.3253979,0 0.596563,-0.108468 0.8134954,-0.31184 0.2169326,-0.216933 0.3253984,-0.474539 0.3253984,-0.799937 0,-0.325399 -0.108468,-0.583006 -0.3253984,-0.799937 -0.2169324,-0.216932 -0.4880975,-0.31184 -0.8134954,-0.31184 -0.3253981,0 -0.5694466,0.0949 -0.7863787,0.31184 -0.2169321,0.203374 -0.3253981,0.474538 -0.3253981,0.799937 z M 8.261547,21.277471 c 0,0.325398 0.1084657,0.596563 0.325398,0.813495 0.216932,0.216932 0.4745388,0.338957 0.7999369,0.338957 0.3253982,0 0.5965637,-0.108468 0.8134951,-0.338957 0.216933,-0.23049 0.325399,-0.501656 0.325399,-0.813495 0,-0.298282 -0.108468,-0.569447 -0.325399,-0.786379 -0.2169314,-0.216932 -0.4880969,-0.325397 -0.8134951,-0.325397 -0.3118398,0 -0.5830049,0.108468 -0.7999369,0.325397 -0.216932,0.216932 -0.325398,0.474539 -0.325398,0.786379 z m 3.18619,7.606179 c 0,0.298283 0.108468,0.555889 0.325398,0.772821 0.23049,0.23049 0.488097,0.338956 0.786379,0.338956 0.325398,0 0.596562,-0.108468 0.827052,-0.325397 0.230492,-0.216933 0.338957,-0.47454 0.338957,-0.799937 0,-0.325399 -0.108468,-0.596564 -0.338957,-0.827054 -0.23049,-0.23049 -0.501654,-0.352515 -0.827052,-0.352515 -0.298282,0 -0.555889,0.122025 -0.786379,0.352515 -0.216932,0.244048 -0.325398,0.528771 -0.325398,0.840611 z m 0.867728,-4.975878 c 0,0.325398 0.108468,0.583005 0.338956,0.799937 0.216933,0.216932 0.47454,0.325398 0.772821,0.325398 0.325397,0 0.596563,-0.108468 0.827053,-0.325398 0.23049,-0.216932 0.352514,-0.488097 0.352514,-0.799937 0,-0.325398 -0.122024,-0.596564 -0.352514,-0.827054 -0.23049,-0.23049 -0.515213,-0.352514 -0.827053,-0.352514 -0.298281,0 -0.555888,0.122024 -0.786379,0.352514 -0.230491,0.23049 -0.325398,0.501656 -0.325398,0.827054 z m 0.867728,-4.935204 c 0,0.325398 0.108468,0.583005 0.325398,0.786378 0.216932,0.216933 0.488097,0.325399 0.786379,0.325399 0.325398,0 0.610122,-0.108468 0.827053,-0.31184 0.216932,-0.203374 0.338956,-0.474539 0.338956,-0.799937 0,-0.31184 -0.108468,-0.583005 -0.338956,-0.813496 -0.23049,-0.23049 -0.501655,-0.338955 -0.827053,-0.338955 -0.298282,0 -0.569447,0.108468 -0.786379,0.338955 -0.216932,0.230491 -0.325398,0.501656 -0.325398,0.813496 z m 3.240423,7.240107 c 0,0.31184 0.108468,0.569447 0.325397,0.786378 0.216933,0.216933 0.488097,0.325399 0.813495,0.325399 0.31184,0 0.583006,-0.108468 0.799937,-0.325399 0.216933,-0.216931 0.325399,-0.474538 0.325399,-0.799937 0,-0.325397 -0.108468,-0.583004 -0.31184,-0.799937 -0.216933,-0.216931 -0.474539,-0.31184 -0.799937,-0.31184 -0.325399,0 -0.596563,0.108468 -0.813496,0.31184 -0.23049,0.216933 -0.338955,0.488097 -0.338955,0.813496 z m 0.569445,-4.935204 c 0,0.311839 0.108468,0.583005 0.338957,0.813495 0.23049,0.23049 0.501656,0.338957 0.813496,0.338957 0.31184,0 0.583004,-0.108468 0.799937,-0.338957 0.216931,-0.23049 0.325397,-0.501656 0.325397,-0.813495 0,-0.298282 -0.108468,-0.569447 -0.325397,-0.786379 -0.216933,-0.216932 -0.47454,-0.325397 -0.799937,-0.325397 -0.325399,0 -0.583006,0.108468 -0.813496,0.338955 -0.23049,0.216933 -0.338957,0.474539 -0.338957,0.772821 z M 18.498028,4.6686117 c 0.420306,-0.7321456 1.016869,-1.3015922 1.762573,-1.7083398 0.745704,-0.4067475 1.518524,-0.6101213 2.318461,-0.6236796 0.203374,0 0.352515,0.013559 0.447422,0.027117 v 0.4203058 c 0,1.3151505 0.352515,2.5489515 1.057544,3.7149612 0.705029,1.1660097 1.694781,2.0472953 2.942141,2.6574166 C 26.809236,9.6444898 26.470281,10.132587 25.995742,10.607127 24.789057,9.5360241 23.338324,9.0072527 21.616426,9.0072527 H 21.19612 c -0.366072,-1.6676653 -1.260918,-3.10484 -2.698092,-4.338641 z"
   id="path2"
   style="stroke-width:1.35583" />
</svg>
