<?xml version="1.0" encoding="UTF-8" standalone="no"?>
<!-- Generator: Adobe Illustrator 22.0.1, SVG Export Plug-In . SVG Version: 6.00 Build 0)  -->

<svg
   version="1.1"
   id="Layer_1"
   x="0px"
   y="0px"
   viewBox="0 0 30 30"
   style="enable-background:new 0 0 30 30;"
   xml:space="preserve"
   sodipodi:docname="night-rain-mix-symbolic.svg"
   inkscape:version="1.2.2 (b0a8486541, 2022-12-01)"
   xmlns:inkscape="http://www.inkscape.org/namespaces/inkscape"
   xmlns:sodipodi="http://sodipodi.sourceforge.net/DTD/sodipodi-0.dtd"
   xmlns="http://www.w3.org/2000/svg"
   xmlns:svg="http://www.w3.org/2000/svg"><defs
   id="defs7" /><sodipodi:namedview
   id="namedview5"
   pagecolor="#ffffff"
   bordercolor="#666666"
   borderopacity="1.0"
   inkscape:showpageshadow="2"
   inkscape:pageopacity="0.0"
   inkscape:pagecheckerboard="0"
   inkscape:deskcolor="#d1d1d1"
   showgrid="false"
   inkscape:zoom="29.233333"
   inkscape:cx="14.982896"
   inkscape:cy="12.246294"
   inkscape:window-width="1920"
   inkscape:window-height="1014"
   inkscape:window-x="1080"
   inkscape:window-y="470"
   inkscape:window-maximized="1"
   inkscape:current-layer="Layer_1" />
<path
   d="m 0.09736047,14.74496 c 0,1.199379 0.28950544,2.316043 0.88230249,3.349992 0.57901104,1.033948 1.39238354,1.861107 2.39875974,2.481475 1.0063764,0.634156 2.1230404,0.965019 3.3499922,0.992591 0.1654318,0 0.2619336,-0.08272 0.2619336,-0.234362 v -1.847321 c 0,-0.165431 -0.082716,-0.248147 -0.2619336,-0.248147 C 5.5428211,19.184044 4.5364447,18.701535 3.7092862,17.819232 2.8821277,16.93693 2.4547624,15.902982 2.4547624,14.731173 c 0,-1.171808 0.3860073,-2.191969 1.1718079,-3.0467 0.7858007,-0.854731 1.7508191,-1.33724 2.908841,-1.433741 l 0.7168707,-0.09651 c 0.1792178,0 0.2757196,-0.08272 0.2757196,-0.2343621 L 7.6245029,9.2029913 C 7.7761486,7.6865328 8.4103035,6.4182235 9.5269673,5.3980613 10.643631,4.377899 11.967085,3.867818 13.483543,3.867818 c 1.502671,0 2.812339,0.510081 3.942789,1.5164572 1.13045,1.0063764 1.764604,2.2746864 1.930037,3.7635721 l 0.110287,0.7995869 c 0,0.1516458 0.08272,0.2343618 0.248148,0.2343618 h 2.233328 c 1.240738,0 2.302258,0.441151 3.198346,1.33724 0.896089,0.896087 1.33724,1.957607 1.33724,3.198346 0,1.171808 -0.413579,2.205756 -1.254523,3.088058 -0.840946,0.882303 -1.833536,1.351025 -3.005344,1.419956 -0.179217,0 -0.275719,0.08272 -0.275719,0.248147 v 1.847321 c 0,0.151646 0.0965,0.234361 0.275719,0.234361 1.213166,-0.02757 2.32983,-0.358435 3.336207,-0.99259 1.006375,-0.620369 1.805963,-1.447527 2.384973,-2.481475 0.579011,-1.033948 0.868516,-2.150612 0.868516,-3.349993 0,-1.006375 -0.193002,-1.930036 -0.57901,-2.784766 1.116664,-1.364812 1.668103,-2.9226285 1.668103,-4.6458746 0,-1.3234541 -0.330863,-2.53662 -0.978804,-3.6532841 C 28.275896,2.530584 27.393593,1.6482816 26.276929,1.0003407 25.160266,0.35239986 23.9471,0.02153643 22.637432,0.02153643 c -1.020162,0 -2.012752,0.20678958 -2.963984,0.63415491 -0.937447,0.46872316 -1.75082,1.04773416 -2.440118,1.80596286 -1.213167,-0.5927971 -2.453905,-0.8960884 -3.736,-0.8960884 -1.957609,0 -3.694642,0.6065828 -5.2110997,1.8197488 C 6.7697729,4.5984805 5.7909687,6.1425098 5.3636033,8.0311883 3.819574,8.4309814 2.5512643,9.244355 1.558674,10.485092 0.57986958,11.725831 0.09736047,13.145786 0.09736047,14.74496 Z m 7.34792523,9.746685 c 0,0.234361 0.06893,0.468723 0.2205756,0.703085 0.1516458,0.234361 0.3722215,0.386006 0.647941,0.482509 0.3170774,0.0965 0.6065829,0.08272 0.8823032,-0.05515 0.2619328,-0.124073 0.441151,-0.386006 0.5376523,-0.772015 L 9.9267616,24.00913 C 9.9956894,23.692053 9.9543304,23.402546 9.802688,23.140614 9.651042,22.864895 9.4166804,22.685676 9.085817,22.589175 8.7825255,22.492666 8.479234,22.534025 8.2035145,22.699461 7.9277949,22.864894 7.7347913,23.113043 7.6520754,23.430119 l -0.1930037,0.813373 c 0,0.04136 -0.013786,0.124073 -0.013786,0.248147 z m 1.0477342,-3.997934 c 0,0.289506 0.1102881,0.551439 0.3446495,0.785801 0.2205756,0.234361 0.4687241,0.344649 0.7720148,0.344649 0.3308641,0 0.6065838,-0.110286 0.8271588,-0.330862 0.220576,-0.220577 0.330864,-0.482511 0.330864,-0.813373 0,-0.317078 -0.110287,-0.592797 -0.330864,-0.813374 -0.220575,-0.220574 -0.4962947,-0.330862 -0.8271588,-0.330862 -0.3170774,0 -0.5790111,0.110286 -0.7995868,0.317077 -0.2067897,0.248147 -0.3170775,0.523867 -0.3170775,0.840944 z m 0.8409448,-3.129416 c -0.01379,0.220575 0.041359,0.427365 0.1930037,0.620369 0.1378604,0.206788 0.3584353,0.344649 0.6617276,0.441151 0.289505,0.08272 0.565224,0.05514 0.85473,-0.0965 0.289506,-0.151645 0.468724,-0.386006 0.565225,-0.703084 l 0.386008,-1.240739 c 0.0965,-0.330862 0.06893,-0.634153 -0.09651,-0.896087 -0.165431,-0.261933 -0.413578,-0.441151 -0.744443,-0.537653 -0.30329,-0.0965 -0.592796,-0.06893 -0.868516,0.0965 -0.27572,0.151646 -0.4687233,0.386008 -0.5652246,0.689299 l -0.330863,1.26831 c 0,0.02757 -0.01379,0.08272 -0.027569,0.165432 -0.01379,0.06893 -0.027569,0.13786 -0.027569,0.193003 z m 1.5991733,11.428574 c 0,0.248147 0.06893,0.468724 0.20679,0.689297 0.13786,0.220576 0.358435,0.372223 0.661727,0.454938 0.110287,0.02757 0.234361,0.04136 0.34465,0.04136 0.592796,0 0.951232,-0.275719 1.089091,-0.840944 L 13.4284,28.324146 c 0.08272,-0.358435 0.04136,-0.661727 -0.110287,-0.937447 -0.151646,-0.275719 -0.399793,-0.441151 -0.716871,-0.510081 -0.289505,-0.0965 -0.579011,-0.06893 -0.868516,0.09651 -0.289505,0.165432 -0.468723,0.399794 -0.565225,0.703085 l -0.193004,0.813372 c -0.02757,0.124074 -0.04136,0.220576 -0.04136,0.303292 z m 1.075306,-3.997932 c 0,0.303289 0.110287,0.565223 0.34465,0.799586 0.220575,0.220575 0.482509,0.330862 0.785801,0.330862 0.330863,0 0.592797,-0.110287 0.813371,-0.317078 0.220577,-0.220575 0.317078,-0.482509 0.317078,-0.81337 0,-0.31708 -0.110287,-0.579012 -0.317078,-0.799589 -0.220574,-0.220575 -0.482508,-0.317077 -0.813371,-0.317077 -0.330865,0 -0.592797,0.110287 -0.813373,0.317077 -0.20679,0.206789 -0.317078,0.482509 -0.317078,0.799589 z m 0.868517,-3.129418 c -0.01379,0.20679 0.04136,0.427366 0.179218,0.647942 0.137859,0.220575 0.344648,0.358435 0.620368,0.413579 0.317077,0.08272 0.606584,0.05514 0.882303,-0.08272 0.27572,-0.137861 0.454937,-0.399795 0.565225,-0.772016 l 0.372222,-1.240737 c 0.0965,-0.303292 0.06893,-0.592797 -0.09651,-0.868516 C 15.234362,19.487333 15,19.308115 14.669137,19.211614 c -0.303292,-0.0965 -0.592797,-0.05515 -0.882303,0.110287 -0.289505,0.165431 -0.468723,0.413579 -0.565225,0.730656 l -0.317077,1.240738 c -0.01379,0.110287 -0.02757,0.234362 -0.02757,0.372221 z m 3.791143,2.963985 c 0,0.220576 0.06893,0.441152 0.20679,0.661727 0.13786,0.220576 0.358436,0.372222 0.634155,0.454938 0.04136,0 0.110287,0.01379 0.193004,0.02757 0.08272,0.01379 0.137859,0.02757 0.193003,0.02757 0.565225,0 0.909875,-0.303293 1.047734,-0.909875 l 0.193004,-0.827152 c 0.0965,-0.289505 0.06893,-0.579011 -0.0965,-0.868516 -0.151644,-0.289505 -0.386006,-0.468723 -0.703083,-0.565225 -0.34465,-0.08272 -0.661728,-0.05515 -0.937447,0.110287 -0.27572,0.165433 -0.468723,0.399794 -0.565225,0.730657 l -0.124074,0.813373 c 0,0.02757 -0.01379,0.0965 -0.02757,0.165432 -0.01379,0.06893 -0.01379,0.124074 -0.01379,0.179217 z m 1.020162,-4.080648 c 0,0.30329 0.110287,0.57901 0.34465,0.7858 0.206789,0.220575 0.468723,0.330863 0.785801,0.330863 0.330863,0 0.592797,-0.110287 0.813373,-0.317077 0.220575,-0.220576 0.317077,-0.482509 0.317077,-0.799586 0,-0.330864 -0.110287,-0.592797 -0.317077,-0.813373 -0.220576,-0.220575 -0.48251,-0.317078 -0.813373,-0.317078 -0.330864,0 -0.592797,0.110287 -0.813373,0.317078 -0.220575,0.206789 -0.317078,0.482509 -0.317078,0.813373 z m 0.840946,-3.184561 c 0,0.234362 0.06893,0.454938 0.220574,0.661727 0.151646,0.206789 0.372222,0.358435 0.675513,0.441151 0.02757,0 0.08272,0.01379 0.165432,0.02757 0.08272,0.01379 0.151646,0.02757 0.193003,0.02757 0.137861,0 0.303292,-0.04136 0.496296,-0.124074 0.289505,-0.151646 0.482509,-0.399793 0.565225,-0.71687 l 0.330864,-1.240738 c 0.08272,-0.317077 0.05514,-0.606583 -0.0965,-0.868516 -0.151646,-0.27572 -0.386007,-0.454938 -0.703085,-0.551439 -0.317077,-0.0965 -0.606582,-0.06893 -0.882302,0.08272 -0.261934,0.151645 -0.441151,0.372221 -0.537653,0.703084 L 18.570575,17.061 c 0,0.02757 -0.01379,0.08272 -0.02757,0.165431 0,0.04136 -0.01379,0.0965 -0.01379,0.13786 z m 0.64794,-13.5102573 c 0.951232,-0.9512323 2.109254,-1.4337415 3.46028,-1.4337415 1.351025,0 2.509047,0.4825092 3.46028,1.4475276 0.951233,0.9650182 1.433741,2.1230402 1.433741,3.4740663 0,0.9236599 -0.234361,1.764604 -0.703084,2.5504053 -1.323454,-1.3234536 -2.9502,-1.9851807 -4.880236,-1.9851807 H 21.506982 C 21.120974,6.2803696 20.34896,4.9293439 19.177152,3.8540377 Z"
   id="path2"
   style="stroke-width:1.37859" />
</svg>
