<?xml version="1.0" encoding="UTF-8" standalone="no"?>
<!-- Generator: Adobe Illustrator 22.0.1, SVG Export Plug-In . SVG Version: 6.00 Build 0)  -->

<svg
   version="1.1"
   id="Layer_1"
   x="0px"
   y="0px"
   viewBox="0 0 30 30"
   style="enable-background:new 0 0 30 30;"
   xml:space="preserve"
   sodipodi:docname="night-showers-symbolic.svg"
   inkscape:version="1.2.2 (b0a8486541, 2022-12-01)"
   xmlns:inkscape="http://www.inkscape.org/namespaces/inkscape"
   xmlns:sodipodi="http://sodipodi.sourceforge.net/DTD/sodipodi-0.dtd"
   xmlns="http://www.w3.org/2000/svg"
   xmlns:svg="http://www.w3.org/2000/svg"><defs
   id="defs7" /><sodipodi:namedview
   id="namedview5"
   pagecolor="#ffffff"
   bordercolor="#666666"
   borderopacity="1.0"
   inkscape:showpageshadow="2"
   inkscape:pageopacity="0.0"
   inkscape:pagecheckerboard="0"
   inkscape:deskcolor="#d1d1d1"
   showgrid="false"
   inkscape:zoom="29.233333"
   inkscape:cx="14.982896"
   inkscape:cy="12.246294"
   inkscape:window-width="1920"
   inkscape:window-height="1014"
   inkscape:window-x="1080"
   inkscape:window-y="470"
   inkscape:window-maximized="1"
   inkscape:current-layer="Layer_1" />
<path
   d="m 0.0803411,14.847475 c 0,0.915146 0.16639022,1.774829 0.52690238,2.60678 0.34664636,0.831951 0.81808532,1.539109 1.41431702,2.149207 0.5962317,0.610098 1.3033902,1.095403 2.1214755,1.46978 0.8180854,0.374379 1.6916341,0.582366 2.6067805,0.623963 0.1663902,0 0.2495853,-0.0832 0.2495853,-0.235719 v -1.858024 c 0,-0.152524 -0.083195,-0.235719 -0.2495853,-0.235719 C 5.5712189,19.312279 4.5590116,18.826975 3.7270605,17.93956 2.8951092,17.052145 2.4791337,16.012207 2.4791337,14.833608 c 0,-1.178597 0.3882438,-2.190805 1.1647317,-3.050487 0.7764877,-0.859683 1.7470975,-1.331123 2.9118291,-1.428183 l 0.7348903,-0.09706 c 0.1386585,0 0.2079877,-0.06933 0.2079877,-0.207987 L 7.6094991,9.3149967 C 7.7620235,7.8036187 8.4137186,6.5418262 9.5507184,5.529619 10.687719,4.5174117 12.01884,4.0182409 13.544085,4.0182409 c 1.511378,0 2.828633,0.4991708 3.951767,1.4975122 1.137001,0.9983414 1.774829,2.246268 1.94122,3.743781 l 0.09706,0.7903529 c 0,0.16639 0.0832,0.263451 0.249586,0.263451 h 2.246268 c 1.234061,0 2.287865,0.443708 3.17528,1.331122 0.887415,0.887415 1.331122,1.955085 1.331122,3.203012 0,1.178598 -0.415976,2.218537 -1.234061,3.105952 -0.818086,0.887414 -1.830292,1.358852 -3.008891,1.428183 -0.180255,0 -0.26345,0.0832 -0.26345,0.235719 v 1.858024 c 0,0.152524 0.0832,0.235719 0.26345,0.235719 1.858026,-0.0832 3.424866,-0.790353 4.700525,-2.107609 1.289525,-1.317257 1.927354,-2.897964 1.927354,-4.742122 0,-0.887414 -0.194123,-1.816427 -0.5685,-2.773171 1.053804,-1.372719 1.566841,-2.8979629 1.566841,-4.5618652 0,-1.3033901 -0.33278,-2.5235851 -0.984476,-3.6467193 C 28.283487,2.7564506 27.396072,1.869036 26.272937,1.2173409 25.149804,0.56564586 23.943474,0.2328653 22.640084,0.2328653 c -2.121476,0 -3.910171,0.7764878 -5.35222,2.3155975 C 16.081536,1.9522311 14.833608,1.6471824 13.544085,1.6471824 11.575133,1.6471824 9.8280354,2.25728 8.3166578,3.477475 6.8052799,4.69767 5.8346701,6.2645116 5.4048286,8.1641334 3.8379873,8.5246457 2.5623288,9.3288652 1.5778532,10.54906 0.59337768,11.769255 0.0803411,13.211304 0.0803411,14.847475 Z m 7.4736948,9.35945 c 0,0.23572 0.069329,0.457574 0.2079878,0.665561 0.1386586,0.207988 0.3605122,0.374378 0.6655609,0.47144 0.1525245,0.0832 0.3327806,0.11093 0.5130366,0.09706 0.1802562,-0.01387 0.3743777,-0.11093 0.5546344,-0.277317 0.1802556,-0.166391 0.3189147,-0.388244 0.3882437,-0.665561 L 10.271743,23.09766 c 0.0832,-0.346646 0.05546,-0.66556 -0.11093,-0.929011 -0.1663906,-0.277317 -0.40211,-0.443708 -0.7348909,-0.513038 -0.2911824,-0.09706 -0.5823652,-0.06933 -0.8735482,0.09706 -0.2911829,0.166391 -0.4714389,0.388244 -0.5685,0.693293 l -0.3882438,1.442048 c -0.027731,0.124793 -0.041598,0.23572 -0.041598,0.318915 z m 1.8164269,-6.614011 c 0.013866,0.263451 0.083197,0.513036 0.2357194,0.721024 0.1525242,0.207987 0.3743774,0.346646 0.6655608,0.388244 0.249586,0.0416 0.374378,0.06933 0.415976,0.06933 0.526902,0 0.873549,-0.305048 1.053804,-0.915146 l 0.388244,-1.386585 c 0.0832,-0.318915 0.05546,-0.623963 -0.11093,-0.915147 -0.16639,-0.291183 -0.40211,-0.485305 -0.73489,-0.582365 -0.305049,-0.0832 -0.610098,-0.05546 -0.887415,0.11093 -0.277317,0.16639 -0.4575734,0.40211 -0.5546338,0.721024 l -0.4159761,1.455915 c -0.027732,0.16639 -0.055465,0.277317 -0.055465,0.33278 z m 1.7193652,10.954023 c 0,0.249586 0.06933,0.471439 0.207988,0.693294 0.138659,0.221853 0.360512,0.374377 0.665561,0.457572 0.194122,0.0416 0.318914,0.06933 0.388244,0.06933 0.124793,0 0.291182,-0.0416 0.526902,-0.138658 0.235719,-0.11093 0.415976,-0.374379 0.526903,-0.762623 l 0.415976,-1.400451 c 0.0832,-0.346646 0.0416,-0.665561 -0.11093,-0.942878 -0.16639,-0.277317 -0.402109,-0.457574 -0.721024,-0.513036 -0.305049,-0.09706 -0.596231,-0.06933 -0.887415,0.09706 -0.291183,0.16639 -0.485305,0.402109 -0.582365,0.707159 l -0.388245,1.442048 c -0.02773,0.11093 -0.0416,0.207988 -0.0416,0.291183 z m 1.844159,-6.655609 c 0,0.23572 0.06933,0.457573 0.221853,0.679426 0.152525,0.221855 0.374378,0.374379 0.679427,0.457574 0.305049,0.09706 0.610098,0.06933 0.873549,-0.06933 0.277317,-0.138659 0.457573,-0.40211 0.5685,-0.776489 l 0.388244,-1.400451 c 0.09706,-0.346646 0.06933,-0.651695 -0.09706,-0.929012 -0.166391,-0.263452 -0.40211,-0.429841 -0.734891,-0.499171 -0.305048,-0.11093 -0.596232,-0.06933 -0.887414,0.0832 -0.291183,0.152524 -0.47144,0.402109 -0.5685,0.707159 l -0.388244,1.442048 c -0.02773,0.138659 -0.05546,0.235719 -0.05546,0.305049 z m 3.951768,2.426524 c -0.01387,0.221854 0.0416,0.429842 0.194122,0.637829 0.152524,0.207988 0.360513,0.360512 0.63783,0.457574 l 0.346646,0.0416 c 0.152524,0.01387 0.332779,-0.02773 0.526902,-0.09706 0.291182,-0.11093 0.485304,-0.360512 0.582366,-0.748756 l 0.388243,-1.455914 c 0.09706,-0.318915 0.06933,-0.623965 -0.09706,-0.887415 -0.166391,-0.277317 -0.40211,-0.457573 -0.70716,-0.554634 -0.346646,-0.0832 -0.651694,-0.0416 -0.929011,0.11093 -0.277317,0.152524 -0.443708,0.415976 -0.499172,0.73489 l -0.402109,1.386586 c -0.02773,0.235719 -0.0416,0.360512 -0.0416,0.374377 z m 1.87189,-6.655609 c 0,0.235719 0.06933,0.471439 0.221854,0.693293 0.152524,0.221853 0.374377,0.360511 0.665561,0.415975 l 0.346646,0.0416 c 0.596231,0 0.97061,-0.291184 1.123134,-0.859683 l 0.388244,-1.428183 c 0.0832,-0.346647 0.0416,-0.665561 -0.11093,-0.942879 C 21.239629,15.305049 20.976179,15.13866 20.657264,15.06933 20.338349,14.97227 20.0333,15 19.769849,15.16639 19.492532,15.33278 19.312275,15.5685 19.229081,15.901279 L 18.813105,17.3156 c -0.02773,0.166391 -0.05547,0.277317 -0.05547,0.346646 z m 0.47144,-13.7271949 c 0.929011,-0.8874145 2.052146,-1.3449877 3.397133,-1.3449877 1.358854,0 2.50972,0.4853049 3.452597,1.4559145 0.956744,0.9706098 1.428183,2.1214756 1.428183,3.4803292 0,0.887415 -0.221853,1.7054998 -0.66556,2.4542555 C 25.510315,8.6494385 23.901877,7.9838777 22.002255,7.9838777 H 21.558548 C 21.225767,6.4586334 20.449279,5.1136457 19.229085,3.9350481 Z"
   id="path2"
   style="stroke-width:1.38659" />
</svg>
