<?xml version="1.0" encoding="UTF-8" standalone="no"?>
<!-- Generator: Adobe Illustrator 22.0.1, SVG Export Plug-In . SVG Version: 6.00 Build 0)  -->

<svg
   version="1.1"
   id="Layer_1"
   x="0px"
   y="0px"
   viewBox="0 0 30 30"
   style="enable-background:new 0 0 30 30;"
   xml:space="preserve"
   sodipodi:docname="night-alt-cloudy-high-symbolic.svg"
   inkscape:version="1.2.2 (b0a8486541, 2022-12-01)"
   xmlns:inkscape="http://www.inkscape.org/namespaces/inkscape"
   xmlns:sodipodi="http://sodipodi.sourceforge.net/DTD/sodipodi-0.dtd"
   xmlns="http://www.w3.org/2000/svg"
   xmlns:svg="http://www.w3.org/2000/svg"><defs
   id="defs7" /><sodipodi:namedview
   id="namedview5"
   pagecolor="#ffffff"
   bordercolor="#666666"
   borderopacity="1.0"
   inkscape:showpageshadow="2"
   inkscape:pageopacity="0.0"
   inkscape:pagecheckerboard="0"
   inkscape:deskcolor="#d1d1d1"
   showgrid="false"
   inkscape:zoom="29.233333"
   inkscape:cx="14.982896"
   inkscape:cy="20.4561"
   inkscape:window-width="1920"
   inkscape:window-height="1014"
   inkscape:window-x="1080"
   inkscape:window-y="470"
   inkscape:window-maximized="1"
   inkscape:current-layer="Layer_1" />
<path
   d="m 0.15087193,14.323276 c 0,-1.496607 0.46850293,-2.837046 1.40550877,-4.008303 C 2.4933866,9.1437155 3.6776579,8.3889052 5.1091947,8.050542 5.5256417,6.267628 6.4366197,4.8100633 7.8681564,3.6648339 9.2996932,2.5196045 10.92644,1.9600038 12.76141,1.9600038 c 1.795928,0 3.396646,0.5596007 4.802155,1.6657882 1.405508,1.1061875 2.316486,2.5377243 2.732933,4.2815963 h 0.429462 c 1.171257,0 2.251416,0.2863074 3.240478,0.8459081 0.989062,0.5596007 1.782914,1.3404386 2.355529,2.3295006 0.572614,0.989062 0.871936,2.056207 0.871936,3.227465 0,1.496606 -0.455489,2.837045 -1.379481,4.008302 0.832894,0.715769 1.821956,1.093174 2.941157,1.132216 l 0.858922,0.07808 c 0.156168,0 0.234252,0.07808 0.234252,0.247265 v 1.002076 c 0.01301,1.314411 -0.312336,2.537724 -0.95002,3.643912 -0.637685,1.119201 -1.522635,1.991137 -2.628822,2.641836 -1.106188,0.650698 -2.316487,0.976047 -3.630898,0.976047 -1.002076,0 -1.952095,-0.195209 -2.850059,-0.572614 -0.897964,-0.377405 -1.665789,-0.897964 -2.316487,-1.548663 -0.637685,-0.650698 -1.158243,-1.418523 -1.535649,-2.316487 -0.377405,-0.897963 -0.572614,-1.834969 -0.572614,-2.824031 H 6.3975777 C 4.6537057,20.700121 3.183127,20.036409 1.9728278,18.787067 0.76252854,17.537726 0.15087193,16.054134 0.15087193,14.323276 Z m 2.22538897,0 c 0,1.132215 0.3904191,2.108263 1.1712573,2.941157 0.7808382,0.832894 1.7308581,1.275369 2.8500595,1.327425 H 20.960211 c 1.119201,-0.05206 2.069221,-0.494531 2.85006,-1.327425 0.780838,-0.832894 1.171257,-1.808942 1.171257,-2.941157 0,-1.14523 -0.416447,-2.121278 -1.262355,-2.967186 -0.845908,-0.832894 -1.847984,-1.262355 -3.006227,-1.262355 h -2.108264 c -0.143153,0 -0.221237,-0.07808 -0.221237,-0.2212372 l -0.0911,-0.7548102 C 18.149193,7.7121787 17.537537,6.5279074 16.470391,5.5909016 15.403246,4.6538957 14.166918,4.1723788 12.748396,4.1723788 c -1.431537,0 -2.667864,0.4685029 -3.7219962,1.4185228 -1.0541316,0.9500198 -1.6397603,2.1212771 -1.7699,3.526786 l -0.091098,0.7548102 c 0,0.1431532 -0.091098,0.2212372 -0.2602794,0.2212372 H 6.2153822 C 5.1222086,10.223875 4.2112307,10.692378 3.4824484,11.48623 2.753666,12.280082 2.3762609,13.230102 2.3762609,14.323276 Z m 14.8749681,6.454929 c 0,1.028104 0.26028,1.978123 0.780839,2.824031 0.520558,0.845909 1.184271,1.496607 2.004151,1.952096 0.81988,0.455489 1.678802,0.676726 2.58978,0.676726 0.806866,0 1.600719,-0.195209 2.368543,-0.585628 0.780838,-0.390419 1.457565,-0.976048 2.056207,-1.7699 0.598643,-0.793852 0.976048,-1.70483 1.119202,-2.732934 -1.405509,-0.286307 -2.576767,-0.845908 -3.5398,-1.691816 -1.093174,0.845908 -2.316487,1.288383 -3.66994,1.314411 h -3.708982 z"
   id="path2"
   style="stroke-width:1.3014" />
</svg>
