<?xml version="1.0" encoding="UTF-8" standalone="no"?>
<!-- Generator: Adobe Illustrator 22.0.1, SVG Export Plug-In . SVG Version: 6.00 Build 0)  -->

<svg
   version="1.1"
   id="Layer_1"
   x="0px"
   y="0px"
   viewBox="0 0 30 30"
   style="enable-background:new 0 0 30 30;"
   xml:space="preserve"
   sodipodi:docname="night-cloudy-high-symbolic.svg"
   inkscape:version="1.2.2 (b0a8486541, 2022-12-01)"
   xmlns:inkscape="http://www.inkscape.org/namespaces/inkscape"
   xmlns:sodipodi="http://sodipodi.sourceforge.net/DTD/sodipodi-0.dtd"
   xmlns="http://www.w3.org/2000/svg"
   xmlns:svg="http://www.w3.org/2000/svg"><defs
   id="defs11" /><sodipodi:namedview
   id="namedview9"
   pagecolor="#ffffff"
   bordercolor="#666666"
   borderopacity="1.0"
   inkscape:showpageshadow="2"
   inkscape:pageopacity="0.0"
   inkscape:pagecheckerboard="0"
   inkscape:deskcolor="#d1d1d1"
   showgrid="false"
   inkscape:zoom="29.233333"
   inkscape:cx="14.982896"
   inkscape:cy="14.982896"
   inkscape:window-width="1920"
   inkscape:window-height="1014"
   inkscape:window-x="1080"
   inkscape:window-y="470"
   inkscape:window-maximized="1"
   inkscape:current-layer="Layer_1" />
<style
   type="text/css"
   id="style2">
	.st0{fill:#FFFFFF;}
</style>
<rect
   class="st0"
   width="30"
   height="30"
   id="rect4" />
<path
   d="m 0.08385966,14.327631 c 0,-1.501406 0.47000534,-2.846143 1.41001594,-4.008101 C 2.4338863,9.144517 3.6219554,8.3872862 5.0711385,8.0478379 5.4758653,6.2592065 6.4028203,4.7969676 7.825892,3.6480657 c 1.4230717,-1.148902 3.06809,-1.7233529 4.908944,-1.7233529 1.801688,0 3.407539,0.5613952 4.817555,1.6711301 1.410016,1.1097348 2.323915,2.5458622 2.741698,4.2953265 h 0.430838 c 1.175013,0 2.258637,0.2872255 3.25087,0.8486208 0.992234,0.5613953 1.788632,1.3447378 2.363083,2.3369708 0.574451,0.992233 0.874732,2.062801 0.874732,3.237815 0,0.261114 -0.01306,0.522228 -0.03917,0.796397 0.848621,0.665841 1.514462,1.501406 2.010578,2.49364 0.496117,0.992233 0.73112,2.049745 0.73112,3.172536 0,1.005289 -0.195836,1.958356 -0.587507,2.859199 -0.391671,0.900844 -0.913899,1.67113 -1.566684,2.323915 -0.652786,0.63973 -1.436128,1.161958 -2.336971,1.540573 -0.900844,0.378616 -1.840855,0.574451 -2.833088,0.574451 -0.979178,0 -1.919189,-0.195835 -2.820032,-0.574451 -0.900844,-0.378615 -1.67113,-0.900843 -2.323916,-1.553628 -0.652785,-0.652786 -1.161957,-1.423072 -1.553628,-2.323916 -0.391671,-0.900843 -0.587507,-1.840854 -0.587507,-2.820032 H 6.3505975 C 4.6011332,20.724926 3.1258386,20.059085 1.9116582,18.805738 0.69747774,17.578502 0.08385966,16.077096 0.08385966,14.327631 Z m 2.23252534,0 c 0,1.135846 0.3916711,2.115024 1.1750133,2.950589 0.7833423,0.835565 1.7364087,1.279459 2.8591992,1.344738 H 20.95993 c 1.12279,-0.05222 2.075857,-0.509173 2.859199,-1.344738 0.796398,-0.835565 1.188069,-1.827798 1.188069,-2.950589 0,-1.148902 -0.430838,-2.128079 -1.279459,-2.963645 -0.848621,-0.835564 -1.85391,-1.253347 -3.028923,-1.253347 h -2.115024 c -0.143613,0 -0.221947,-0.07833 -0.221947,-0.2219469 L 18.270455,9.1314613 C 18.126842,7.7214453 17.513224,6.5333762 16.442656,5.5803099 15.372089,4.6272435 14.131797,4.1441824 12.708725,4.1441824 c -1.423072,0 -2.676419,0.4830611 -3.7208753,1.4361275 C 7.9433934,6.5333762 7.342831,7.7214453 7.2122739,9.1314613 L 7.1078283,9.8886921 c 0,0.1436129 -0.09139,0.2219469 -0.2611141,0.2219469 H 6.1678176 C 5.0711385,10.241196 4.1572392,10.711202 3.4261198,11.507599 2.6819447,12.303997 2.316385,13.244008 2.316385,14.327631 Z m 14.700722,6.671465 c 0.07833,1.462239 0.678897,2.702531 1.788632,3.694764 1.109735,0.992234 2.376138,1.48835 3.79921,1.48835 0.783342,0 1.527517,-0.156668 2.219469,-0.456949 0.691952,-0.300281 1.279459,-0.718064 1.749464,-1.214181 0.470006,-0.509172 0.848621,-1.083623 1.109735,-1.736408 0.27417,-0.652786 0.404727,-1.305571 0.404727,-1.984467 0,-0.63973 -0.130557,-1.279459 -0.391671,-1.919189 -0.261114,-0.639729 -0.626674,-1.227236 -1.109735,-1.76252 -0.509172,1.070568 -1.266403,1.958356 -2.271692,2.637252 -1.005289,0.678897 -2.12808,1.031401 -3.355316,1.083624 h -3.955878 c 0,0.01306 0,0.05222 0.01306,0.169724 z"
   id="path6"
   style="stroke-width:1.30557" />
</svg>
