<?xml version="1.0" encoding="UTF-8" standalone="no"?>
<!-- Generator: Adobe Illustrator 22.0.1, SVG Export Plug-In . SVG Version: 6.00 Build 0)  -->

<svg
   version="1.1"
   id="Layer_1"
   x="0px"
   y="0px"
   viewBox="0 0 30 30"
   style="enable-background:new 0 0 30 30;"
   xml:space="preserve"
   sodipodi:docname="night-cloudy-windy-symbolic.svg"
   inkscape:version="1.2.2 (b0a8486541, 2022-12-01)"
   xmlns:inkscape="http://www.inkscape.org/namespaces/inkscape"
   xmlns:sodipodi="http://sodipodi.sourceforge.net/DTD/sodipodi-0.dtd"
   xmlns="http://www.w3.org/2000/svg"
   xmlns:svg="http://www.w3.org/2000/svg"><defs
   id="defs7" /><sodipodi:namedview
   id="namedview5"
   pagecolor="#ffffff"
   bordercolor="#666666"
   borderopacity="1.0"
   inkscape:showpageshadow="2"
   inkscape:pageopacity="0.0"
   inkscape:pagecheckerboard="0"
   inkscape:deskcolor="#d1d1d1"
   showgrid="false"
   inkscape:zoom="29.233333"
   inkscape:cx="14.982896"
   inkscape:cy="20.4561"
   inkscape:window-width="1920"
   inkscape:window-height="1014"
   inkscape:window-x="1080"
   inkscape:window-y="470"
   inkscape:window-maximized="1"
   inkscape:current-layer="Layer_1" />
<path
   d="m 0.080393,21.373772 c 0,0.29673 0.10682299,0.534115 0.32046897,0.712153 0.20177676,0.201777 0.43916119,0.3086 0.72402253,0.3086 H 12.448121 c 0.272993,0 0.510377,-0.09495 0.700284,-0.296731 0.189908,-0.201777 0.284862,-0.439161 0.284862,-0.724022 0,-0.284862 -0.09495,-0.522246 -0.284862,-0.724023 -0.189907,-0.201776 -0.415422,-0.29673 -0.700284,-0.29673 H 1.1248845 c -0.28486134,0 -0.52224577,0.106823 -0.73589175,0.308599 C 0.18721599,20.863395 0.080393,21.10078 0.080393,21.373772 Z m 3.1334744,-3.596374 c 0,0.272992 0.106823,0.498507 0.320469,0.688415 0.1899075,0.189907 0.4272919,0.284861 0.7121532,0.284861 H 15.581596 c 0.284861,0 0.510376,-0.09495 0.700284,-0.272992 0.189907,-0.189908 0.272992,-0.415423 0.272992,-0.700284 0,-0.284862 -0.09495,-0.522246 -0.284861,-0.712154 -0.189908,-0.201776 -0.415423,-0.29673 -0.700284,-0.29673 H 4.2464896 c -0.2848613,0 -0.5222457,0.09495 -0.7240225,0.29673 -0.2136459,0.201777 -0.3085997,0.439162 -0.3085997,0.712154 z m 1.3530912,-2.765529 c 0,0.08309 0.083085,0.130562 0.2373844,0.130562 h 1.6854294 c 0.106823,0 0.1899076,-0.05935 0.2729921,-0.166169 0.2611229,-0.640938 0.6765456,-1.175053 1.2462682,-1.602345 0.5578534,-0.427292 1.1869222,-0.664677 1.875337,-0.712154 l 0.6409383,-0.08308 c 0.14243,0 0.213646,-0.07122 0.213646,-0.213646 l 0.08308,-0.60533 c 0.130562,-1.281876 0.676546,-2.3619749 1.637953,-3.2284284 0.961407,-0.8664532 2.100852,-1.3056144 3.406466,-1.3056144 1.305614,0 2.44506,0.427292 3.406467,1.2937451 0.961407,0.8545838 1.51926,1.9346827 1.649821,3.2402977 l 0.09495,0.676545 c 0,0.142431 0.07121,0.225515 0.201777,0.225515 h 1.922814 c 1.080099,0 2.005898,0.379816 2.765528,1.127576 0.75963,0.747761 1.139445,1.649822 1.139445,2.718052 0,1.056361 -0.379815,1.958422 -1.139445,2.718052 -0.75963,0.75963 -1.685429,1.139445 -2.765528,1.139445 H 14.94065 c -0.130562,0 -0.201777,0.07121 -0.201777,0.201777 v 1.637952 c 0,0.142431 0.07121,0.213646 0.201777,0.213646 h 8.201632 c 1.080099,0 2.065244,-0.261123 2.979174,-0.795238 0.91393,-0.522245 1.626084,-1.246268 2.160198,-2.148329 0.534115,-0.90206 0.795238,-1.887206 0.795238,-2.955436 0,-0.842714 -0.178038,-1.626083 -0.522245,-2.385713 0.91393,-1.198791 1.36496,-2.492537 1.36496,-3.904974 0,-1.1275758 -0.284861,-2.1720673 -0.842715,-3.1334742 C 28.519047,6.1336919 27.759417,5.3740617 26.79801,4.8162083 25.836603,4.258355 24.792111,3.9853629 23.664535,3.9853629 c -1.804121,0 -3.335251,0.6646763 -4.55778,1.9821599 -1.020753,-0.4985073 -2.088983,-0.7358917 -3.228429,-0.7358917 -1.103837,0 -2.148329,0.2373844 -3.121605,0.700284 -0.973276,0.4628997 -1.792252,1.127576 -2.456929,1.9702907 C 9.635116,8.7449205 9.1840856,9.7063271 8.9585704,10.786426 7.914079,11.023811 7.0120182,11.49858 6.2405188,12.210733 5.4690194,12.922886 4.9230352,13.789339 4.6263047,14.786354 Z m 0.7358917,10.029492 c 0,0.272992 0.106823,0.510377 0.3085998,0.688415 0.1899075,0.189907 0.4272919,0.284861 0.7121532,0.284861 H 17.670579 c 0.284861,0 0.522245,-0.09495 0.712153,-0.272992 0.189908,-0.178038 0.296731,-0.415423 0.296731,-0.700284 0,-0.284861 -0.09495,-0.522246 -0.296731,-0.724022 -0.201777,-0.201777 -0.439161,-0.296731 -0.712153,-0.296731 H 6.3236033 c -0.2729921,0 -0.5103765,0.106823 -0.7121532,0.3086 -0.2017768,0.201777 -0.3085998,0.439161 -0.3085998,0.712153 z M 20.732838,7.1544449 c 0.795238,-0.7714994 1.780383,-1.1631837 2.931697,-1.1631837 1.175053,0 2.172068,0.4154228 2.991044,1.234399 0.818976,0.8189763 1.234399,1.8159909 1.234399,2.9910438 0,0.747761 -0.189907,1.448045 -0.581592,2.100852 -1.163183,-1.139445 -2.551882,-1.697299 -4.177966,-1.697299 H 22.750605 C 22.477613,9.3146432 21.801068,8.1633287 20.732838,7.1544449 Z"
   id="path2"
   style="stroke-width:1.18692" />
</svg>
