<?xml version="1.0" encoding="UTF-8" standalone="no"?>
<svg
   inkscape:version="1.2.2 (b0a8486541, 2022-12-01)"
   sodipodi:docname="rain-wind-symbolic.svg"
   xml:space="preserve"
   style="enable-background:new 0 0 30 30;"
   viewBox="0 0 30 30"
   y="0px"
   x="0px"
   id="Layer_1"
   version="1.1"
   xmlns:inkscape="http://www.inkscape.org/namespaces/inkscape"
   xmlns:sodipodi="http://sodipodi.sourceforge.net/DTD/sodipodi-0.dtd"
   xmlns="http://www.w3.org/2000/svg"
   xmlns:svg="http://www.w3.org/2000/svg"
   xmlns:rdf="http://www.w3.org/1999/02/22-rdf-syntax-ns#"
   xmlns:cc="http://creativecommons.org/ns#"
   xmlns:dc="http://purl.org/dc/elements/1.1/"><metadata
   id="metadata9"><rdf:RDF><cc:Work
       rdf:about=""><dc:format>image/svg+xml</dc:format><dc:type
         rdf:resource="http://purl.org/dc/dcmitype/StillImage" /></cc:Work></rdf:RDF></metadata><defs
   id="defs7" /><sodipodi:namedview
   inkscape:current-layer="Layer_1"
   inkscape:window-maximized="1"
   inkscape:window-y="470"
   inkscape:window-x="1080"
   inkscape:cy="15"
   inkscape:cx="15.045045"
   inkscape:zoom="22.2"
   showgrid="false"
   id="namedview5"
   inkscape:window-height="1014"
   inkscape:window-width="1920"
   inkscape:pageshadow="2"
   inkscape:pageopacity="0"
   guidetolerance="10"
   gridtolerance="10"
   objecttolerance="10"
   borderopacity="1"
   bordercolor="#666666"
   pagecolor="#ffffff"
   inkscape:showpageshadow="2"
   inkscape:pagecheckerboard="0"
   inkscape:deskcolor="#d1d1d1" />
<path
   style="stroke-width:1.43709"
   id="path2"
   d="m 0.09015185,13.792844 c 0,1.609546 0.47424093,3.032269 1.40835205,4.296911 0.934111,1.250272 2.1556408,2.112528 3.6645894,2.572399 0.1293384,0.02874 0.244306,-0.01437 0.3449025,-0.114972 l 1.6670284,-2.055044 c -1.2790131,0 -2.3712044,-0.459869 -3.2765736,-1.37961 -0.9053691,-0.91974 -1.3652391,-2.026302 -1.3652391,-3.319687 0,-1.207158 0.4023862,-2.270608 1.2071589,-3.161606 C 4.5451429,9.7402371 5.5511086,9.2372531 6.7582675,9.1366575 L 7.519927,9.0360668 c 0.15808,0 0.2299352,-0.057486 0.2299352,-0.1868236 L 7.8648335,8.0588421 C 8.0372842,6.4780386 8.712719,5.1702839 9.8623937,4.1355755 11.012068,3.100868 12.377309,2.5835143 13.958111,2.5835143 c 1.580804,0 2.960414,0.5173537 4.12446,1.566432 1.178417,1.0490792 1.825109,2.3568339 1.968819,3.9088958 l 0.100591,0.8335148 c 0.02875,0.1580807 0.14371,0.2443067 0.316161,0.2443067 h 2.328092 c 1.293384,0 2.399946,0.4598691 3.305316,1.3652394 0.905369,0.905368 1.365239,1.99756 1.365239,3.290944 0,1.192788 -0.402387,2.241866 -1.207159,3.132865 -0.804773,0.890998 -1.796368,1.408352 -2.974784,1.552061 -0.172452,0 -0.402386,0.02875 -0.704176,0.08622 -0.273048,0.02874 -0.474241,0.129339 -0.589209,0.330532 l -3.391541,4.009492 c -0.201194,0.258677 -0.287418,0.560467 -0.229935,0.905368 0.04312,0.344903 0.201193,0.617951 0.445499,0.819144 0.15808,0.172451 0.416757,0.273048 0.804772,0.273048 0.373645,0 0.675435,-0.172451 0.876627,-0.502983 l 3.04664,-3.506508 c 1.781996,-0.186823 3.290945,-0.948483 4.526846,-2.313722 1.235901,-1.365239 1.839479,-2.960413 1.839479,-4.785523 0,-0.962852 -0.186821,-1.896963 -0.560466,-2.77359 C 28.975739,10.142627 28.472756,9.3809671 27.840435,8.748644 27.208114,8.1163229 26.446453,7.6133401 25.569826,7.2396957 24.693199,6.8660513 23.773459,6.6792297 22.796235,6.6792297 h -0.45987 C 21.862124,4.782265 20.841787,3.2158332 19.289726,1.9943034 17.737665,0.77277356 15.955668,0.16919411 13.943737,0.16919411 c -1.336498,0 -2.60114,0.28741874 -3.779557,0.86225639 C 8.9857629,1.6062879 7.9941682,2.3966896 7.1750242,3.4170259 6.3558811,4.4373635 5.8241564,5.601409 5.5511086,6.8947929 3.9415635,7.2540665 2.6194371,8.0732105 1.5991004,9.3665951 0.59313474,10.645609 0.09015185,12.125816 0.09015185,13.792844 Z M 4.9475291,25.318338 c 0,0.08622 0.028742,0.229935 0.086226,0.431128 0.1293385,0.30179 0.3305317,0.517353 0.6323214,0.632321 0.3161606,0.143709 0.6323213,0.158081 0.9628526,0.02875 0.330532,-0.12934 0.5460951,-0.344903 0.6610627,-0.646693 C 7.433701,25.447684 7.448073,25.145893 7.3187408,24.829733 7.1894012,24.527943 6.973838,24.31238 6.6576769,24.211783 6.3415168,24.053702 6.0253562,24.039331 5.7235664,24.168663 c -0.3017897,0.129338 -0.5173538,0.344902 -0.6610631,0.675434 -0.071855,0.14371 -0.1149676,0.30179 -0.1149676,0.474242 z m 2.6586239,-3.50651 v 0.14371 c 0.028737,0.330532 0.1724508,0.589208 0.4311276,0.804773 0.330532,0.186821 0.6179504,0.273047 0.8909992,0.273047 0.3161599,0 0.6179503,-0.15808 0.8766271,-0.474241 l 3.3340581,-3.98075 c 0.201192,-0.244306 0.301789,-0.560466 0.287418,-0.948482 -0.02874,-0.301789 -0.172451,-0.560466 -0.402386,-0.76166 -0.229935,-0.201192 -0.474241,-0.316159 -0.747289,-0.316159 -0.08622,0 -0.143709,0 -0.201193,0.01437 -0.330532,0.05749 -0.60358,0.215564 -0.804772,0.474241 l -3.3915424,3.98075 C 7.692379,21.25136 7.606153,21.510037 7.606153,21.811826 Z m 1.1065624,6.783084 c 0,0.172452 0.043117,0.330532 0.1149712,0.45987 0.1149713,0.301789 0.3305308,0.531724 0.6323212,0.675434 0.15808,0.07185 0.3161599,0.10059 0.4742411,0.10059 0.1724511,0 0.3305311,-0.02874 0.4454981,-0.10059 0.330532,-0.129339 0.560467,-0.330531 0.675435,-0.589208 0.143709,-0.316161 0.15808,-0.632321 0.02874,-0.962853 -0.114971,-0.330532 -0.330532,-0.546097 -0.646692,-0.661064 -0.316161,-0.143709 -0.6323213,-0.15808 -0.9628533,-0.02874 -0.330532,0.129339 -0.5460952,0.344903 -0.646692,0.646692 -0.086222,0.12934 -0.1149712,0.28742 -0.1149712,0.459871 z m 2.3999466,-3.377171 v 0.15808 c 0.02874,0.316162 0.186822,0.574838 0.445499,0.790403 0.258677,0.215563 0.531725,0.31616 0.790401,0.31616 0.330532,0 0.617951,-0.15808 0.90537,-0.474241 l 6.251358,-7.530372 c 0.158081,-0.172451 0.244306,-0.431128 0.244306,-0.747289 v -0.172451 c -0.02874,-0.330532 -0.172451,-0.574838 -0.388015,-0.761659 -0.215565,-0.186823 -0.474241,-0.28742 -0.747289,-0.28742 H 18.42747 c -0.330532,0.01437 -0.603579,0.172452 -0.790402,0.445499 l -6.251359,7.472888 c -0.201192,0.258678 -0.273047,0.517355 -0.273047,0.790402 z m 5.044199,1.652658 c 0,0.129338 0.02874,0.273048 0.08622,0.431129 0.129338,0.31616 0.344902,0.546095 0.661062,0.675433 0.201194,0.05749 0.344903,0.08622 0.4455,0.08622 0.201192,0 0.373644,-0.04312 0.488612,-0.114972 0.31616,-0.129338 0.546095,-0.330532 0.661063,-0.603579 0.143709,-0.244306 0.15808,-0.560466 0.02874,-0.962853 -0.114971,-0.30179 -0.33053,-0.502983 -0.632321,-0.632321 L 17.378383,25.62012 c -0.129339,0.02874 -0.273048,0.05749 -0.459871,0.100591 -0.31616,0.114971 -0.531724,0.330532 -0.646692,0.632321 -0.07185,0.186823 -0.114971,0.359274 -0.114971,0.517354 z" />
</svg>
