<?xml version="1.0" encoding="UTF-8" standalone="no"?>
<svg
   inkscape:version="1.2.2 (b0a8486541, 2022-12-01)"
   sodipodi:docname="rain-mix-symbolic.svg"
   xml:space="preserve"
   style="enable-background:new 0 0 30 30;"
   viewBox="0 0 30 30"
   y="0px"
   x="0px"
   id="Layer_1"
   version="1.1"
   xmlns:inkscape="http://www.inkscape.org/namespaces/inkscape"
   xmlns:sodipodi="http://sodipodi.sourceforge.net/DTD/sodipodi-0.dtd"
   xmlns="http://www.w3.org/2000/svg"
   xmlns:svg="http://www.w3.org/2000/svg"
   xmlns:rdf="http://www.w3.org/1999/02/22-rdf-syntax-ns#"
   xmlns:cc="http://creativecommons.org/ns#"
   xmlns:dc="http://purl.org/dc/elements/1.1/"><metadata
   id="metadata9"><rdf:RDF><cc:Work
       rdf:about=""><dc:format>image/svg+xml</dc:format><dc:type
         rdf:resource="http://purl.org/dc/dcmitype/StillImage" /></cc:Work></rdf:RDF></metadata><defs
   id="defs7" /><sodipodi:namedview
   inkscape:current-layer="Layer_1"
   inkscape:window-maximized="1"
   inkscape:window-y="470"
   inkscape:window-x="1080"
   inkscape:cy="15"
   inkscape:cx="15"
   inkscape:zoom="22.2"
   showgrid="false"
   id="namedview5"
   inkscape:window-height="1014"
   inkscape:window-width="1920"
   inkscape:pageshadow="2"
   inkscape:pageopacity="0"
   guidetolerance="10"
   gridtolerance="10"
   objecttolerance="10"
   borderopacity="1"
   bordercolor="#666666"
   pagecolor="#ffffff"
   inkscape:showpageshadow="2"
   inkscape:pagecheckerboard="0"
   inkscape:deskcolor="#d1d1d1" />
<path
   style="stroke-width:1.44018"
   id="path2"
   d="m 0.07258407,13.934272 c 0,1.901031 0.67688261,3.542831 2.01624593,4.910999 1.3393635,1.382568 2.9667619,2.102656 4.8677943,2.160263 0.172821,0 0.2592315,-0.08641 0.2592315,-0.244829 v -1.915434 c 0,-0.172822 -0.086407,-0.259233 -0.2592315,-0.259233 C 5.7468762,18.528432 4.6955479,18.038773 3.8314425,17.117061 2.9673371,16.195348 2.5208827,15.14402 2.5208827,13.919871 c 0,-1.209749 0.4032491,-2.261077 1.2241493,-3.153986 C 4.5659322,9.8729767 5.5596534,9.3689145 6.7694009,9.2681015 L 7.5326944,9.1672946 c 0.1728211,0 0.2736328,-0.086394 0.2736328,-0.2592307 L 7.9071353,8.1879718 C 8.0511526,6.6181809 8.6992306,5.2932182 9.8657738,4.2274883 11.032315,3.1617586 12.400482,2.6288937 13.984676,2.6288937 c 1.555389,0 2.923557,0.5328649 4.090098,1.5841934 1.166543,1.0513275 1.843427,2.3474868 2.016247,3.9028763 l 0.100807,0.8353058 c 0,0.1728213 0.08641,0.2592308 0.273634,0.2592308 h 2.304281 c 1.296157,0 2.405092,0.4608557 3.341207,1.39697 0.921712,0.921713 1.396971,2.030649 1.396971,3.312405 0,1.209747 -0.432053,2.275478 -1.296158,3.19719 -0.864106,0.90731 -1.915435,1.39697 -3.139584,1.468979 -0.187222,0 -0.288036,0.08639 -0.288036,0.259231 v 1.915435 c 0,0.158418 0.100807,0.244829 0.288036,0.244829 1.915434,-0.0576 3.542833,-0.777695 4.867794,-2.160264 1.324962,-1.382569 1.987443,-3.009967 1.987443,-4.9254 0,-1.281756 -0.31684,-2.477103 -0.964919,-3.571637 C 28.328821,9.2537042 27.450315,8.3895998 26.355781,7.7559225 25.261247,7.1222452 24.065901,6.8054067 22.784144,6.8054067 H 22.3377 C 21.862442,4.8755665 20.854319,3.3057748 19.298929,2.0672237 17.757941,0.84307433 15.986525,0.22379892 13.999082,0.22379892 c -2.030647,0 -3.830867,0.63367736 -5.4006574,1.88663018 C 7.0286325,3.3633818 6.0205095,4.9763782 5.574055,6.9350181 3.9466566,7.3526682 2.6360968,8.2023725 1.613572,9.4841284 0.59104728,10.765885 0.07258407,12.263667 0.07258407,13.934272 Z M 7.8495332,24.044305 c 0,0.244829 0.072005,0.489659 0.230428,0.734489 0.1584187,0.244831 0.3888468,0.403249 0.6768818,0.504062 0.3312414,0.100807 0.6336765,0.08639 0.9217131,-0.0576 0.2736332,-0.129616 0.4752579,-0.403248 0.5616689,-0.806499 l 0.201623,-0.878507 c 0.072,-0.331239 0.02881,-0.633677 -0.129616,-0.907309 C 10.153814,22.359305 9.9089827,22.157682 9.563341,22.05687 9.2465024,21.956063 8.929663,21.99927 8.6416293,22.172078 8.3535938,22.3449 8.1519693,22.604129 8.0655588,22.935371 L 7.8639342,23.78507 c 0,0.0432 -0.014401,0.129615 -0.014401,0.259232 z m 1.0945326,-4.176509 c 0,0.302436 0.1152079,0.57607 0.3600442,0.820898 0.2304278,0.244832 0.4896588,0.360045 0.806497,0.360045 0.345643,0 0.633678,-0.115207 0.864107,-0.345641 0.230427,-0.230429 0.345641,-0.504062 0.345641,-0.849705 0,-0.33124 -0.115208,-0.619274 -0.345641,-0.849703 -0.230429,-0.230429 -0.518464,-0.345643 -0.864107,-0.345643 -0.3312392,0 -0.6048724,0.115208 -0.8353014,0.331241 C 9.05928,19.24852 8.9440658,19.536555 8.9440658,19.867796 Z m 0.8785062,-3.2692 c -0.014401,0.230428 0.043203,0.446454 0.201625,0.648078 0.144018,0.216027 0.374446,0.360045 0.691284,0.460857 0.302439,0.08641 0.590473,0.0576 0.892908,-0.100807 0.302438,-0.158419 0.489662,-0.403248 0.590473,-0.73449 l 0.403251,-1.296158 c 0.100807,-0.345641 0.07201,-0.662481 -0.100807,-0.936113 -0.17282,-0.273634 -0.432051,-0.460855 -0.777694,-0.561669 -0.316839,-0.100807 -0.619274,-0.072 -0.907311,0.100806 -0.288035,0.15842 -0.489658,0.40325 -0.590471,0.720087 L 9.8801868,16.22415 c 0,0.02881 -0.014401,0.08642 -0.028814,0.172822 -0.014401,0.072 -0.028802,0.144015 -0.028802,0.201623 z m 1.685007,11.939056 c 0,0.259232 0.07201,0.48966 0.216026,0.720088 0.144017,0.230428 0.374446,0.388847 0.691283,0.475258 0.115208,0.02881 0.244831,0.0432 0.360045,0.0432 0.619276,0 0.993722,-0.288035 1.137738,-0.878507 l 0.201626,-0.849704 c 0.08641,-0.374446 0.0432,-0.691284 -0.115208,-0.979319 -0.17282,-0.288035 -0.417651,-0.460856 -0.748892,-0.532864 -0.302436,-0.100807 -0.604873,-0.072 -0.90731,0.100807 -0.302438,0.172821 -0.489659,0.417651 -0.590473,0.734491 l -0.201624,0.849701 c -0.02881,0.129618 -0.0432,0.230429 -0.0432,0.31684 z m 1.108935,-4.176509 c 0,0.316839 0.115208,0.590471 0.360044,0.835302 0.230428,0.230428 0.504062,0.345642 0.820901,0.345642 0.345641,0 0.619273,-0.115208 0.849702,-0.33124 0.230428,-0.230429 0.331241,-0.504062 0.331241,-0.849704 0,-0.331242 -0.115208,-0.604874 -0.331241,-0.835303 -0.230429,-0.230426 -0.504061,-0.33124 -0.849702,-0.33124 -0.345643,0 -0.619277,0.115208 -0.849706,0.33124 -0.230427,0.216027 -0.331239,0.504061 -0.331239,0.835303 z m 0.90731,-3.269198 c -0.0144,0.216025 0.0432,0.446455 0.187224,0.676882 0.144018,0.230428 0.360044,0.374446 0.648078,0.432053 0.331242,0.08641 0.633678,0.0576 0.921712,-0.08641 0.288036,-0.144017 0.475258,-0.417652 0.590473,-0.806498 l 0.388846,-1.296158 c 0.100807,-0.316839 0.07201,-0.619276 -0.100807,-0.907312 -0.172821,-0.288034 -0.417651,-0.475259 -0.763294,-0.576069 -0.316837,-0.100807 -0.619274,-0.0576 -0.921712,0.115208 -0.302437,0.172821 -0.489659,0.432052 -0.590471,0.763293 l -0.331241,1.296159 c -0.0144,0.115207 -0.0288,0.244828 -0.0288,0.388847 z m 3.974886,3.096378 c 0,0.230427 0.07201,0.460856 0.216026,0.691284 0.144018,0.230427 0.374445,0.388848 0.662481,0.475259 0.0432,0 0.115208,0.0144 0.201624,0.02879 0.08642,0.0144 0.144019,0.0288 0.201625,0.0288 0.590472,0 0.950515,-0.316839 1.094533,-0.950517 l 0.201624,-0.864104 c 0.100807,-0.302438 0.072,-0.604875 -0.100806,-0.907312 -0.158422,-0.302436 -0.403251,-0.489658 -0.734492,-0.590473 -0.360042,-0.08639 -0.691283,-0.0576 -0.979319,0.115208 -0.288034,0.172822 -0.48966,0.417652 -0.590471,0.763294 l -0.12962,0.849717 c 0,0.02881 -0.0144,0.100807 -0.0288,0.172821 -0.0144,0.07201 -0.0144,0.129618 -0.0144,0.187224 z m 1.065728,-4.262921 c 0,0.316839 0.115208,0.604874 0.360045,0.8209 0.216028,0.230428 0.48966,0.345643 0.820901,0.345643 0.345642,0 0.619275,-0.115208 0.849703,-0.33124 0.230428,-0.216027 0.33124,-0.504062 0.33124,-0.835303 0,-0.345641 -0.115207,-0.619276 -0.33124,-0.849704 -0.216026,-0.230427 -0.504061,-0.33124 -0.849703,-0.33124 -0.345643,0 -0.619276,0.115207 -0.849705,0.33124 -0.216026,0.230428 -0.331241,0.504063 -0.331241,0.849704 z m 0.878508,-3.326806 c 0,0.24483 0.07201,0.475258 0.230428,0.691285 0.158421,0.216026 0.388848,0.374445 0.705687,0.460856 0.0288,0 0.08641,0.0144 0.172822,0.02881 0.0864,0.0144 0.158418,0.0288 0.201624,0.0288 0.144017,0 0.316839,-0.0432 0.518463,-0.129617 0.302436,-0.158419 0.504061,-0.41765 0.590472,-0.748891 l 0.345641,-1.296158 c 0.08642,-0.33124 0.0576,-0.633677 -0.115208,-0.907309 -0.15842,-0.288037 -0.40325,-0.475259 -0.734489,-0.576071 -0.331241,-0.100807 -0.633677,-0.072 -0.921713,0.08641 -0.273634,0.158419 -0.475259,0.388848 -0.561669,0.73449 l -0.403248,1.310559 c 0,0.02881 -0.0144,0.08641 -0.02881,0.172822 0,0.0432 0,0.100807 0,0.144018 z" />
</svg>
