<?xml version="1.0" encoding="UTF-8" standalone="no"?>
<svg
   inkscape:version="1.2.2 (b0a8486541, 2022-12-01)"
   sodipodi:docname="rain-symbolic.svg"
   xml:space="preserve"
   style="enable-background:new 0 0 30 30;"
   viewBox="0 0 30 30"
   y="0px"
   x="0px"
   id="Layer_1"
   version="1.1"
   xmlns:inkscape="http://www.inkscape.org/namespaces/inkscape"
   xmlns:sodipodi="http://sodipodi.sourceforge.net/DTD/sodipodi-0.dtd"
   xmlns="http://www.w3.org/2000/svg"
   xmlns:svg="http://www.w3.org/2000/svg"
   xmlns:rdf="http://www.w3.org/1999/02/22-rdf-syntax-ns#"
   xmlns:cc="http://creativecommons.org/ns#"
   xmlns:dc="http://purl.org/dc/elements/1.1/"><metadata
   id="metadata9"><rdf:RDF><cc:Work
       rdf:about=""><dc:format>image/svg+xml</dc:format><dc:type
         rdf:resource="http://purl.org/dc/dcmitype/StillImage" /></cc:Work></rdf:RDF></metadata><defs
   id="defs7" /><sodipodi:namedview
   inkscape:current-layer="Layer_1"
   inkscape:window-maximized="1"
   inkscape:window-y="470"
   inkscape:window-x="1080"
   inkscape:cy="15"
   inkscape:cx="15"
   inkscape:zoom="22.2"
   showgrid="false"
   id="namedview5"
   inkscape:window-height="1014"
   inkscape:window-width="1920"
   inkscape:pageshadow="2"
   inkscape:pageopacity="0"
   guidetolerance="10"
   gridtolerance="10"
   objecttolerance="10"
   borderopacity="1"
   bordercolor="#666666"
   pagecolor="#ffffff"
   inkscape:showpageshadow="2"
   inkscape:pagecheckerboard="0"
   inkscape:deskcolor="#d1d1d1" />
<path
   style="stroke-width:1.43962"
   id="path2"
   d="m 0.0783255,14.193813 c 0,-1.655565 0.51826364,-3.123978 1.554791,-4.4196371 C 2.6696439,8.478516 3.9796992,7.6579318 5.5632826,7.2836308 6.0095652,5.3257455 7.0316967,3.7133694 8.6008839,2.446503 10.17007,1.1796363 11.969597,0.56059909 13.999463,0.56059909 c 1.986677,0 3.743015,0.61903721 5.297806,1.84271531 1.554791,1.2236782 2.562526,2.8072614 3.023205,4.7363537 h 0.460679 c 1.281262,0 2.476149,0.3167173 3.570261,0.9357549 1.094112,0.6190366 1.972281,1.4828094 2.605715,2.562526 0.633433,1.079715 0.964545,2.274601 0.964545,3.555864 0,1.266867 -0.30232,2.43296 -0.90696,3.512677 -0.604642,1.079715 -1.439622,1.943488 -2.490545,2.591317 -1.050924,0.64783 -2.202621,0.993339 -3.455092,1.022132 -0.187151,0 -0.287924,-0.08637 -0.287924,-0.244735 v -1.914697 c 0,-0.172754 0.100772,-0.259132 0.287924,-0.259132 1.223678,-0.05759 2.274602,-0.547056 3.138374,-1.468414 0.863773,-0.921357 1.29566,-2.001074 1.29566,-3.253544 0,-1.252471 -0.475075,-2.332186 -1.41083,-3.253544 -0.935753,-0.921358 -2.044262,-1.3820365 -3.325524,-1.3820365 h -2.317791 c -0.172754,0 -0.259131,-0.086373 -0.259131,-0.2447354 L 20.074663,8.4641201 C 19.916307,6.9093286 19.239684,5.5992739 18.073591,4.5627464 16.893102,3.5118228 15.539858,2.9935591 13.97067,2.9935591 c -1.569187,0 -2.951223,0.5182637 -4.10292,1.5691873 C 8.7016577,5.6136698 8.0538271,6.9093286 7.9098655,8.4641201 l -0.1007726,0.762999 c 0,0.1727546 -0.1007726,0.2735284 -0.2879243,0.2735284 L 6.7581694,9.543834 c -1.1948856,0.1439616 -2.2026205,0.662225 -3.0232047,1.540394 -0.8205841,0.87817 -1.2236781,1.914697 -1.2236781,3.109583 0,1.252471 0.4318864,2.332186 1.2956593,3.253544 0.8637728,0.921358 1.9146963,1.410828 3.138374,1.468413 0.1583586,0 0.2447365,0.08637 0.2447365,0.259133 v 1.914696 c 0,0.158359 -0.086373,0.244735 -0.2447365,0.244735 C 5.0162265,21.247959 3.3894545,20.513751 2.0506066,19.131714 0.71175886,17.749677 0.0783255,16.10851 0.0783255,14.193813 Z m 7.7019743,9.631067 c 0,-0.05759 0.0144,-0.158359 0.057586,-0.287925 l 2.3465812,-8.306614 c 0.08637,-0.273529 0.244736,-0.489472 0.460679,-0.633434 0.215944,-0.143963 0.446283,-0.215943 0.662227,-0.215943 0.100772,0 0.215942,0.0144 0.345509,0.04319 0.345508,0.05759 0.60464,0.244736 0.777395,0.53266 0.172755,0.287924 0.215943,0.604642 0.115172,0.964547 l -2.346583,8.24903 c -0.172755,0.619037 -0.5758478,0.921357 -1.1804894,0.921357 -0.057586,0 -0.1007726,-0.0144 -0.1583583,-0.0288 -0.086373,-0.02879 -0.1295657,-0.04319 -0.1439612,-0.04319 C 8.3993397,24.933386 8.1690003,24.775022 8.0106428,24.544683 7.8522842,24.299947 7.7803034,24.069608 7.7803034,23.824873 Z m 3.7718072,4.045336 3.512675,-12.625479 c 0.05759,-0.273529 0.201548,-0.489471 0.431887,-0.633434 0.23034,-0.143961 0.460679,-0.215943 0.705415,-0.215943 0.129565,0 0.259131,0.0144 0.388698,0.04319 0.316716,0.08637 0.547055,0.273528 0.705414,0.561453 0.158359,0.287924 0.18715,0.590244 0.100773,0.921358 l -3.498281,12.639875 c -0.05759,0.244735 -0.187151,0.446282 -0.41749,0.619036 -0.23034,0.172755 -0.460679,0.259133 -0.734207,0.259133 -0.129566,0 -0.259132,-0.0288 -0.359905,-0.07199 -0.287925,-0.07199 -0.53266,-0.259132 -0.748604,-0.561453 -0.158357,-0.259132 -0.18715,-0.561452 -0.08637,-0.935753 z m 5.945635,-4.016543 c 0,-0.05759 0.0144,-0.158359 0.05759,-0.331113 l 2.346584,-8.306615 c 0.08637,-0.273529 0.230339,-0.489472 0.431886,-0.633434 0.215943,-0.143962 0.431887,-0.215943 0.662226,-0.215943 0.115172,0 0.244736,0.0144 0.374301,0.04319 0.30232,0.08637 0.518264,0.23034 0.662226,0.446282 0.143962,0.215944 0.215943,0.446283 0.215943,0.676622 0,0.04319 -0.0144,0.115173 -0.02879,0.201548 -0.0144,0.08637 -0.02879,0.143962 -0.02879,0.172755 l -2.346582,8.24903 c -0.05759,0.273527 -0.187152,0.503866 -0.403094,0.662225 -0.215944,0.158359 -0.460679,0.244735 -0.734207,0.244735 l -0.34551,-0.07199 c -0.287924,-0.08637 -0.503867,-0.23034 -0.662225,-0.460679 -0.129566,-0.215944 -0.201548,-0.446283 -0.201548,-0.676621 z" />
</svg>
