<?xml version="1.0" encoding="UTF-8" standalone="no"?>
<!-- Generator: Adobe Illustrator 22.0.1, SVG Export Plug-In . SVG Version: 6.00 Build 0)  -->

<svg
   version="1.1"
   id="Layer_1"
   x="0px"
   y="0px"
   viewBox="0 0 30 30"
   style="enable-background:new 0 0 30 30;"
   xml:space="preserve"
   sodipodi:docname="sandstorm-symbolic.svg"
   inkscape:version="1.2.2 (b0a8486541, 2022-12-01)"
   xmlns:inkscape="http://www.inkscape.org/namespaces/inkscape"
   xmlns:sodipodi="http://sodipodi.sourceforge.net/DTD/sodipodi-0.dtd"
   xmlns="http://www.w3.org/2000/svg"
   xmlns:svg="http://www.w3.org/2000/svg"><defs
   id="defs7" /><sodipodi:namedview
   id="namedview5"
   pagecolor="#ffffff"
   bordercolor="#666666"
   borderopacity="1.0"
   inkscape:showpageshadow="2"
   inkscape:pageopacity="0.0"
   inkscape:pagecheckerboard="0"
   inkscape:deskcolor="#d1d1d1"
   showgrid="false"
   inkscape:zoom="29.233333"
   inkscape:cx="14.982896"
   inkscape:cy="20.4561"
   inkscape:window-width="1920"
   inkscape:window-height="1014"
   inkscape:window-x="1080"
   inkscape:window-y="470"
   inkscape:window-maximized="1"
   inkscape:current-layer="Layer_1" />
<path
   d="m 0.09377149,17.793352 c 0,0.30063 0.11273618,0.563681 0.35073479,0.776627 0.20041988,0.237999 0.46347097,0.350735 0.78915332,0.350735 H 19.63471 c 0.363261,0 0.663891,0.125262 0.914415,0.375787 0.250525,0.250525 0.375788,0.563681 0.375788,0.926942 0,0.363261 -0.125263,0.663891 -0.375788,0.90189 -0.250524,0.237998 -0.551154,0.363261 -0.926942,0.363261 -0.363261,0 -0.676417,-0.125263 -0.914415,-0.363261 -0.20042,-0.225473 -0.450945,-0.325683 -0.751575,-0.325683 -0.313156,0 -0.576207,0.112736 -0.801679,0.325683 -0.225473,0.212946 -0.338209,0.475997 -0.338209,0.7641 0,0.313156 0.112736,0.576207 0.350735,0.789154 0.70147,0.688943 1.528202,1.039678 2.455143,1.039678 0.977047,0 1.816306,-0.338209 2.517775,-1.014626 0.70147,-0.676417 1.039678,-1.490623 1.039678,-2.46767 0,-0.977047 -0.350734,-1.803779 -1.052204,-2.505248 -0.70147,-0.70147 -1.540728,-1.052205 -2.505249,-1.052205 H 1.2336596 c -0.31315611,0 -0.5762072,0.112737 -0.80167956,0.325683 -0.22547237,0.212946 -0.33820855,0.475997 -0.33820855,0.789153 z m 0,-4.108607 c 0,0.288103 0.11273618,0.538628 0.35073479,0.7641 0.21294612,0.225473 0.47599721,0.325683 0.78915332,0.325683 H 26.336249 c 0.977047,0 1.816306,-0.338209 2.517775,-1.027152 0.70147,-0.676417 1.052205,-1.503149 1.052205,-2.46767 0,-0.964521 -0.350735,-1.8037789 -1.052205,-2.4927223 -0.701469,-0.6889433 -1.540728,-1.0396781 -2.517775,-1.0396781 -0.96452,0 -1.778726,0.3382086 -2.442617,1.0020994 -0.225472,0.2004199 -0.338208,0.4759972 -0.338208,0.8392583 0,0.3256823 0.112736,0.5887337 0.325682,0.7891537 0.212946,0.200419 0.475997,0.300629 0.789153,0.300629 0.30063,0 0.563681,-0.10021 0.789153,-0.300629 0.237999,-0.263052 0.526103,-0.388314 0.876837,-0.388314 0.363261,0 0.663891,0.125262 0.914416,0.375787 0.250525,0.250525 0.375787,0.551155 0.375787,0.914416 0,0.363261 -0.125262,0.663891 -0.375787,0.901889 -0.250525,0.237999 -0.551155,0.363261 -0.914416,0.363261 H 1.2336596 c -0.31315611,0 -0.5762072,0.112737 -0.80167956,0.325683 -0.22547237,0.237998 -0.33820855,0.501049 -0.33820855,0.814206 z m 1.96662011,8.668159 c 0,0.30063 0.1002099,0.538629 0.3006298,0.726522 0.2004199,0.20042 0.4509447,0.30063 0.726522,0.30063 0.3006299,0 0.5636809,-0.10021 0.7766271,-0.288103 0.2129461,-0.187894 0.313156,-0.438419 0.313156,-0.739049 0,-0.288103 -0.1127362,-0.538628 -0.3256823,-0.751574 -0.2129461,-0.212946 -0.4759972,-0.313156 -0.7641008,-0.313156 -0.2755773,0 -0.5261021,0.10021 -0.726522,0.313156 -0.2004199,0.212946 -0.3006298,0.463471 -0.3006298,0.751574 z M 3.2503846,9.9143456 c 0,0.3006294 0.1002099,0.5386284 0.3006298,0.7265224 0.2004199,0.20042 0.4509447,0.300629 0.7265221,0.300629 0.3006298,0 0.5636809,-0.100209 0.7641008,-0.288103 0.2129461,-0.20042 0.313156,-0.438419 0.313156,-0.7390484 0,-0.2881036 -0.1002099,-0.5386285 -0.313156,-0.7515746 C 4.8412174,8.9623511 4.5781663,8.849615 4.2900627,8.849615 c -0.2755773,0 -0.5261022,0.1002099 -0.7265221,0.313156 -0.2129461,0.2129461 -0.313156,0.463471 -0.313156,0.7515746 z M 7.045836,7.0207836 c 0,0.3006298 0.10021,0.5386284 0.3006299,0.726522 0.2004198,0.2129461 0.4509447,0.3131561 0.726522,0.3131561 0.3006298,0 0.5636809,-0.10021 0.7766271,-0.2881036 C 9.0625611,7.5719382 9.162771,7.3339396 9.162771,7.0333098 9.162771,6.7452062 9.0500348,6.4946814 8.8370887,6.2817353 8.6366688,6.0687891 8.3736177,5.9685792 8.0729879,5.9685792 c -0.2755773,0 -0.5261022,0.1002099 -0.726522,0.3131561 C 7.146046,6.4821551 7.045836,6.73268 7.045836,7.0207836 Z M 7.1585722,21.551225 c 0,0.288103 0.10021,0.538628 0.3131561,0.726522 0.2004199,0.20042 0.4384185,0.30063 0.7139958,0.30063 0.3006298,0 0.5636809,-0.10021 0.776627,-0.288104 0.2129462,-0.20042 0.3131561,-0.438418 0.3131561,-0.739048 0,-0.288104 -0.1127362,-0.538629 -0.3256823,-0.751575 -0.2129461,-0.212946 -0.4759972,-0.313156 -0.7641008,-0.313156 -0.2755773,0 -0.5261022,0.10021 -0.7265221,0.313156 -0.2004198,0.212946 -0.3006298,0.463471 -0.3006298,0.751575 z M 12.394542,9.2379285 c 0,0.3006298 0.10021,0.5386284 0.300629,0.726522 0.20042,0.2004195 0.450945,0.3006295 0.726522,0.3006295 0.30063,0 0.563681,-0.10021 0.776627,-0.2881032 0.212947,-0.1878937 0.313157,-0.4384185 0.313157,-0.7390483 0,-0.2881036 -0.112737,-0.5386284 -0.325683,-0.7515746 -0.212946,-0.2129461 -0.475997,-0.313156 -0.764101,-0.313156 -0.288103,0 -0.526102,0.1002099 -0.726522,0.313156 -0.200419,0.2129462 -0.300629,0.463471 -0.300629,0.7515746 z m 0.400839,13.7663405 c 0,0.288103 0.10021,0.526102 0.313156,0.726522 0.20042,0.20042 0.438419,0.30063 0.713996,0.30063 0.30063,0 0.563681,-0.10021 0.776627,-0.288104 0.212946,-0.20042 0.313156,-0.438418 0.313156,-0.739048 0,-0.288104 -0.112736,-0.538629 -0.325682,-0.751575 -0.212946,-0.212946 -0.475997,-0.313156 -0.764101,-0.313156 -0.275577,0 -0.526102,0.10021 -0.726522,0.313156 -0.20042,0.212946 -0.30063,0.463471 -0.30063,0.751575 z M 18.407138,9.0375086 c 0,0.2881036 0.10021,0.5261022 0.30063,0.7139958 0.212946,0.2129461 0.450944,0.3131556 0.726522,0.3131556 0.30063,0 0.563681,-0.1002095 0.776627,-0.2881031 0.212946,-0.2004199 0.313156,-0.4384185 0.313156,-0.7390483 0,-0.2881036 -0.112736,-0.5386284 -0.325682,-0.7515746 -0.212947,-0.2129461 -0.475998,-0.313156 -0.764101,-0.313156 -0.275578,0 -0.513576,0.1002099 -0.726522,0.313156 -0.187894,0.2129462 -0.30063,0.463471 -0.30063,0.7515746 z m 6.375857,8.8435274 c 0,0.30063 0.10021,0.538628 0.30063,0.726522 0.20042,0.20042 0.450945,0.30063 0.726522,0.30063 0.30063,0 0.563681,-0.10021 0.764101,-0.288104 0.212946,-0.20042 0.313156,-0.438418 0.313156,-0.739048 0,-0.288104 -0.10021,-0.538629 -0.313156,-0.751575 -0.212946,-0.212946 -0.463471,-0.313156 -0.764101,-0.313156 -0.288103,0 -0.526102,0.10021 -0.726522,0.313156 -0.187893,0.212946 -0.30063,0.463471 -0.30063,0.751575 z"
   id="path2"
   style="stroke-width:1.25262" />
</svg>
