<?xml version="1.0" encoding="UTF-8" standalone="no"?>
<svg
   inkscape:version="1.2.2 (b0a8486541, 2022-12-01)"
   sodipodi:docname="showers-symbolic.svg"
   xml:space="preserve"
   style="enable-background:new 0 0 30 30;"
   viewBox="0 0 30 30"
   y="0px"
   x="0px"
   id="Layer_1"
   version="1.1"
   xmlns:inkscape="http://www.inkscape.org/namespaces/inkscape"
   xmlns:sodipodi="http://sodipodi.sourceforge.net/DTD/sodipodi-0.dtd"
   xmlns="http://www.w3.org/2000/svg"
   xmlns:svg="http://www.w3.org/2000/svg"
   xmlns:rdf="http://www.w3.org/1999/02/22-rdf-syntax-ns#"
   xmlns:cc="http://creativecommons.org/ns#"
   xmlns:dc="http://purl.org/dc/elements/1.1/"><metadata
   id="metadata9"><rdf:RDF><cc:Work
       rdf:about=""><dc:format>image/svg+xml</dc:format><dc:type
         rdf:resource="http://purl.org/dc/dcmitype/StillImage" /></cc:Work></rdf:RDF></metadata><defs
   id="defs7" /><sodipodi:namedview
   inkscape:current-layer="Layer_1"
   inkscape:window-maximized="1"
   inkscape:window-y="470"
   inkscape:window-x="1080"
   inkscape:cy="15"
   inkscape:cx="15.045045"
   inkscape:zoom="22.2"
   showgrid="false"
   id="namedview5"
   inkscape:window-height="1014"
   inkscape:window-width="1920"
   inkscape:pageshadow="2"
   inkscape:pageopacity="0"
   guidetolerance="10"
   gridtolerance="10"
   objecttolerance="10"
   borderopacity="1"
   bordercolor="#666666"
   pagecolor="#ffffff"
   inkscape:showpageshadow="2"
   inkscape:pagecheckerboard="0"
   inkscape:deskcolor="#d1d1d1" />
<path
   style="stroke-width:1.43095"
   id="path2"
   d="m 0.11804194,14.127116 c 0,-1.659912 0.51514473,-3.119487 1.55974356,-4.4073495 C 2.708075,8.4319049 4.0388653,7.6019507 5.6558472,7.2442104 6.0708249,5.2694895 7.0581859,3.666817 8.6179286,2.3932653 10.177673,1.1197131 11.96637,0.49009184 13.998329,0.49009184 c 1.989032,0 3.763418,0.61531166 5.323162,1.83162556 1.545434,1.2163138 2.561414,2.7903665 3.03363,4.7221595 h 0.486525 c 1.287863,0 2.475556,0.3148101 3.548775,0.9444314 1.087528,0.6296203 1.931793,1.4881946 2.561414,2.5757227 0.615311,1.087527 0.930123,2.275222 0.930123,3.563085 0,1.917483 -0.658241,3.548774 -1.960412,4.922493 -1.316482,1.37372 -2.919154,2.089198 -4.822327,2.146436 -0.171715,0 -0.257573,-0.08586 -0.257573,-0.243263 v -1.917483 c 0,-0.157405 0.08586,-0.243263 0.257573,-0.243263 1.202005,-0.100157 2.246604,-0.601002 3.105178,-1.502506 0.858574,-0.901502 1.287861,-1.960411 1.287861,-3.176725 0,-1.273552 -0.457907,-2.375388 -1.373719,-3.305512 C 25.202726,9.8914818 24.115198,9.4192649 22.841646,9.4192649 h -2.33246 c -0.171714,0 -0.271882,-0.085864 -0.314811,-0.2575725 L 20.094211,8.3460482 C 19.994036,7.3300685 19.66492,6.3999463 19.092537,5.5699903 18.520154,4.7400355 17.790366,4.096105 16.903173,3.6238886 16.01598,3.1516727 15.042929,2.9227195 14.012639,2.9227195 c -1.574053,0 -2.933462,0.5151448 -4.0925381,1.5597431 C 8.7610249,5.5270625 8.1027846,6.829233 7.9596882,8.3746667 L 7.8595249,9.1473836 c 0,0.1287862 -0.071552,0.2003331 -0.2289532,0.2003331 l -0.772718,0.1574065 c -1.2020041,0.1001569 -2.2179838,0.5866918 -3.01932,1.4738848 -0.8156458,0.887195 -1.2163138,1.931794 -1.2163138,3.148108 0,1.244933 0.4292871,2.318151 1.2735521,3.219654 0.8442648,0.901503 1.8745542,1.388028 3.105178,1.459576 0.1717149,0 0.2575717,0.08586 0.2575717,0.243263 v 1.917482 c 0,0.157407 -0.085858,0.243263 -0.2575717,0.243263 C 6.0565153,21.167426 5.1693218,20.952782 4.3107472,20.566424 3.4521728,20.180066 2.7223845,19.664922 2.1213825,19.035299 1.5060707,18.405678 1.0195452,17.67589 0.66180582,16.817315 0.30406632,15.95874 0.11804194,15.071547 0.11804194,14.127116 Z m 7.75578946,9.687581 c 0,-0.04293 0.014305,-0.114476 0.028623,-0.186024 0.014306,-0.07156 0.028623,-0.128787 0.028623,-0.157406 L 8.317437,21.997381 c 0.1001633,-0.31481 0.2861917,-0.572383 0.5723832,-0.729788 0.2861914,-0.171716 0.5866917,-0.200335 0.9158123,-0.10017 0.3291195,0.10017 0.5723825,0.286192 0.7440975,0.572383 0.171715,0.286191 0.200334,0.586693 0.100169,0.915814 l -0.34343,1.445266 c -0.186025,0.629622 -0.5437631,0.944431 -1.0875282,0.944431 -0.042932,0 -0.071557,0 -0.1287862,0 -0.042932,0 -0.100157,-0.01431 -0.1574053,-0.01431 -0.057238,-0.01431 -0.1001569,-0.01431 -0.1430951,-0.01431 C 8.4891478,24.930854 8.2601951,24.759139 8.1027895,24.530185 7.9453837,24.301232 7.8738362,24.043661 7.8738362,23.814707 Z m 1.8888642,-6.897214 c 0,-0.02863 0,-0.08586 0.014306,-0.157406 0.014306,-0.07156 0.014306,-0.114476 0.014306,-0.128787 l 0.4292874,-1.502504 c 0.08586,-0.271882 0.243262,-0.486527 0.457907,-0.643932 0.214642,-0.143095 0.443595,-0.214642 0.672549,-0.214642 0.02862,0 0.07156,0 0.114476,0 0.04293,0 0.08586,0.01431 0.128787,0.01431 0.04293,0.01431 0.08586,0.01431 0.114476,0.01431 0.32912,0.100157 0.572383,0.286192 0.729788,0.572383 0.171715,0.286192 0.200335,0.586692 0.100157,0.915813 l -0.343429,1.430957 c -0.10017,0.400669 -0.286193,0.67255 -0.572384,0.844265 C 11.33673,18.233966 11.021921,18.233966 10.6928,18.09088 10.37799,18.005004 10.149036,17.847606 9.9916323,17.604343 9.8342284,17.361082 9.7626802,17.146439 9.7626802,16.917487 Z m 1.7600764,11.376111 c 0,-0.04293 0.01431,-0.100157 0.02863,-0.186025 0.01431,-0.08586 0.02862,-0.128785 0.02862,-0.171715 l 0.414979,-1.416647 c 0.08586,-0.34343 0.286192,-0.601003 0.572383,-0.772718 0.286191,-0.171714 0.601002,-0.214642 0.930122,-0.114476 0.32912,0.100157 0.558072,0.286191 0.729787,0.586694 0.171716,0.3005 0.186026,0.601001 0.100157,0.930121 l -0.357738,1.488197 c -0.157407,0.586692 -0.529454,0.872883 -1.144766,0.872883 -0.07156,0 -0.186024,-0.01431 -0.343431,-0.05724 -0.314809,-0.05724 -0.543762,-0.200334 -0.701169,-0.429288 -0.171714,-0.228953 -0.257572,-0.472215 -0.257572,-0.729788 z m 1.917485,-6.825667 c 0,-0.08586 0.01431,-0.200334 0.05724,-0.357739 l 0.386357,-1.473887 c 0.10017,-0.32912 0.286191,-0.572383 0.586694,-0.729788 0.286192,-0.171715 0.601002,-0.200334 0.930122,-0.10017 0.32912,0.08586 0.558074,0.271882 0.729789,0.558073 0.157404,0.286191 0.186024,0.586694 0.08586,0.930124 l -0.34343,1.416647 c -0.186025,0.64393 -0.529454,0.97305 -1.030289,0.97305 -0.05724,0 -0.214644,-0.02862 -0.443598,-0.08585 -0.314809,-0.05724 -0.543762,-0.200336 -0.701169,-0.429288 -0.171714,-0.214645 -0.257571,-0.457907 -0.257571,-0.701169 z m 4.035299,2.404009 c 0,-0.10017 0.01431,-0.214644 0.04293,-0.343431 l 0.400666,-1.416648 c 0.100157,-0.343429 0.286191,-0.601001 0.586692,-0.772716 0.3005,-0.171715 0.586691,-0.214643 0.901503,-0.128787 0.329119,0.100169 0.586692,0.286191 0.758407,0.586694 0.171716,0.286191 0.214643,0.586692 0.128786,0.901502 l -0.414977,1.516816 c -0.143097,0.586691 -0.515145,0.872883 -1.130457,0.872883 -0.128786,0 -0.257571,-0.01431 -0.372049,-0.04293 -0.286191,-0.05724 -0.500834,-0.200333 -0.658241,-0.429286 -0.143095,-0.257573 -0.228953,-0.500835 -0.243262,-0.744097 z m 1.974721,-6.811358 c 0,-0.04293 0.02863,-0.171715 0.07156,-0.372048 l 0.429287,-1.473887 c 0.05724,-0.300501 0.186024,-0.529455 0.414977,-0.672551 0.228954,-0.143095 0.457907,-0.214642 0.701169,-0.200333 0.05724,-0.01431 0.186026,0 0.34343,0.04293 0.314812,0.07156 0.558074,0.257571 0.744098,0.543762 0.171716,0.243264 0.200335,0.543765 0.100157,0.930123 l -0.343429,1.473886 c -0.186025,0.615312 -0.543764,0.930123 -1.087528,0.930123 -0.08586,0 -0.243262,-0.02863 -0.486525,-0.08586 -0.300501,-0.08586 -0.515145,-0.243263 -0.658241,-0.443597 -0.157405,-0.228953 -0.228953,-0.443598 -0.228953,-0.67255 z" />
</svg>
