<?xml version="1.0" encoding="UTF-8" standalone="no"?>
<svg
   inkscape:version="1.2.2 (b0a8486541, 2022-12-01)"
   sodipodi:docname="sleet-symbolic.svg"
   xml:space="preserve"
   style="enable-background:new 0 0 30 30;"
   viewBox="0 0 30 30"
   y="0px"
   x="0px"
   id="Layer_1"
   version="1.1"
   xmlns:inkscape="http://www.inkscape.org/namespaces/inkscape"
   xmlns:sodipodi="http://sodipodi.sourceforge.net/DTD/sodipodi-0.dtd"
   xmlns="http://www.w3.org/2000/svg"
   xmlns:svg="http://www.w3.org/2000/svg"
   xmlns:rdf="http://www.w3.org/1999/02/22-rdf-syntax-ns#"
   xmlns:cc="http://creativecommons.org/ns#"
   xmlns:dc="http://purl.org/dc/elements/1.1/"><metadata
   id="metadata9"><rdf:RDF><cc:Work
       rdf:about=""><dc:format>image/svg+xml</dc:format><dc:type
         rdf:resource="http://purl.org/dc/dcmitype/StillImage" /></cc:Work></rdf:RDF></metadata><defs
   id="defs7" /><sodipodi:namedview
   inkscape:current-layer="Layer_1"
   inkscape:window-maximized="1"
   inkscape:window-y="470"
   inkscape:window-x="1080"
   inkscape:cy="15"
   inkscape:cx="15.045045"
   inkscape:zoom="22.2"
   showgrid="false"
   id="namedview5"
   inkscape:window-height="1014"
   inkscape:window-width="1920"
   inkscape:pageshadow="2"
   inkscape:pageopacity="0"
   guidetolerance="10"
   gridtolerance="10"
   objecttolerance="10"
   borderopacity="1"
   bordercolor="#666666"
   pagecolor="#ffffff"
   inkscape:showpageshadow="2"
   inkscape:pagecheckerboard="0"
   inkscape:deskcolor="#d1d1d1" />
<path
   style="stroke-width:1.43376"
   id="path2"
   d="m 0.07455917,13.888835 c 0,-1.663163 0.51615388,-3.139937 1.54846153,-4.430321 C 2.6553283,8.1681294 3.974388,7.3222106 5.5515247,6.9637707 5.9959906,4.9995189 6.999623,3.3937068 8.5624215,2.1319974 10.125221,0.87028818 11.93176,0.23943348 13.967699,0.23943348 c 1.161347,0 2.222329,0.18638891 3.154274,0.57350422 0,0.014337 0,0.014337 0.01433,0.0286752 1.204359,0.4588034 2.265341,1.204359 3.168611,2.222329 h 0.04301 c 0.974958,1.0466447 1.62015,2.2940169 1.964253,3.7564527 h 0.444465 c 1.548462,0 2.896197,0.4157903 4.057543,1.2330339 v -0.014336 c 0.759893,0.5161529 1.405086,1.1470084 1.921239,1.9069015 0.516154,0.759893 0.860257,1.591474 1.046645,2.494743 0.05736,0.301091 0.08603,0.54483 0.114699,0.745557 v 0.08603 c 0,0.01434 0,0.08603 0.01433,0.243738 0.01434,0.157715 0.01434,0.272415 0.01434,0.344103 v 0.04301 c 0,1.261711 -0.301089,2.437394 -0.917606,3.512715 -0.60218,1.075319 -1.433761,1.949913 -2.494745,2.595106 -1.046644,0.645192 -2.20799,0.989295 -3.469699,1.032308 -0.18639,0 -0.286753,-0.08603 -0.286753,-0.24374 V 18.87832 c 0,-0.18639 0.100363,-0.272416 0.286753,-0.272416 1.233033,-0.05735 2.265341,-0.544828 3.125598,-1.462435 0.860256,-0.917607 1.290384,-1.992927 1.290384,-3.2403 0,-1.276046 -0.458804,-2.365705 -1.390748,-3.283311 C 25.151018,9.7022516 24.047023,9.2434479 22.756638,9.2434479 h -2.308355 c -0.172051,0 -0.258077,-0.086027 -0.258077,-0.2437389 L 20.075508,8.1537899 c -0.143376,-1.4337606 -0.745555,-2.6667945 -1.820876,-3.71344 -0.01433,-0.014336 -0.01433,-0.028671 -0.02867,-0.043007 -0.01434,-0.014336 -0.02867,-0.028671 -0.02867,-0.043007 -0.01434,-0.014336 -0.02867,-0.028671 -0.05736,-0.028671 0,-0.028671 -0.01434,-0.043007 -0.02867,-0.043007 -1.046646,-0.9462816 -2.265343,-1.4911106 -3.670428,-1.6058114 -0.100363,-0.014338 -0.258076,-0.014338 -0.487478,-0.014338 -1.577137,0 -2.93921,0.5304914 -4.1005563,1.5771375 C 8.6914556,5.2862904 8.0319252,6.5910118 7.8885491,8.1394733 L 7.7738507,8.9853924 C 7.7308435,9.1144316 7.6161375,9.186119 7.4584238,9.186119 L 6.755881,9.2291262 C 5.5515221,9.3725011 4.5335521,9.8886553 3.7306462,10.763249 2.9277403,11.637843 2.5262873,12.684488 2.5262873,13.888848 v 0.05736 h 0.043012 c 0.014337,0.688205 0.1577137,1.333397 0.4301282,1.935577 0.2867522,0.616517 0.6595299,1.132671 1.1470086,1.562798 0.3010897,0.258076 0.6451923,0.487478 1.0609828,0.688205 v 0.01433 c 0.5735043,0.272416 1.1470085,0.430129 1.7348503,0.458803 0.1577137,0 0.2437394,0.08603 0.2437394,0.258078 v 1.921239 c 0,0.157713 -0.086026,0.24374 -0.2437394,0.24374 -0.7455555,-0.04301 -1.4480981,-0.186389 -2.1219657,-0.43013 v 0.01434 C 3.6302855,20.197382 2.6123154,19.509176 1.795072,18.562895 0.97782836,17.616612 0.43299937,16.498279 0.20359761,15.250907 V 15.2079 C 0.18925931,15.19356 0.18925931,15.17921 0.18925931,15.15054 0.10323364,14.777766 0.0745584,14.347639 0.07455917,13.888835 Z M 7.9602429,24.168899 c 0,-0.04302 0.014336,-0.100363 0.028671,-0.18639 0.014336,-0.07169 0.028671,-0.129038 0.028671,-0.172051 l 0.1290379,-0.845919 c 0.1003627,-0.344102 0.2867524,-0.587842 0.5878416,-0.759893 0.3010907,-0.172052 0.616517,-0.200727 0.9749581,-0.114698 0.3297645,0.100362 0.5591665,0.30109 0.7312175,0.587843 0.157713,0.301089 0.186389,0.602178 0.100363,0.903268 l -0.200727,0.860257 c -0.143376,0.630854 -0.5018156,0.946281 -1.0896573,0.946281 -0.043007,0 -0.1146984,-0.01434 -0.2007267,-0.02867 C 8.9638659,25.34459 8.9065167,25.330254 8.8491662,25.330254 8.548077,25.244227 8.333012,25.086515 8.1896371,24.857114 8.0319227,24.64205 7.9602352,24.412648 7.9602352,24.168909 Z m 1.0609823,-4.215257 c 0,-0.344102 0.1146984,-0.616517 0.3297646,-0.845919 0.2150649,-0.229401 0.501816,-0.329765 0.8459192,-0.329765 0.344103,0 0.616517,0.114699 0.845919,0.329765 0.229401,0.215065 0.329764,0.501817 0.329764,0.845919 0,0.329766 -0.114698,0.60218 -0.329764,0.831582 -0.215064,0.229402 -0.501816,0.329764 -0.845919,0.329764 -0.3297649,0 -0.602179,-0.114698 -0.8172439,-0.344103 C 9.1502632,20.541483 9.0212252,20.269069 9.0212252,19.953642 Z m 2.3513668,8.588226 c 0,-0.05736 0.01434,-0.157713 0.05736,-0.329764 l 0.186389,-0.845919 c 0.100363,-0.329765 0.30109,-0.573505 0.587842,-0.731218 0.301089,-0.172052 0.60218,-0.200727 0.903269,-0.100363 0.329765,0.05736 0.587842,0.24374 0.759894,0.530493 0.172051,0.286751 0.215063,0.616517 0.114698,0.974956 l -0.18639,0.845919 c -0.143376,0.587842 -0.530491,0.874594 -1.147008,0.874594 -0.100363,0 -0.229402,-0.01433 -0.344103,-0.04301 -0.315426,-0.08603 -0.544828,-0.243739 -0.702542,-0.473141 -0.143377,-0.229401 -0.229402,-0.458803 -0.229402,-0.702542 z m 1.132671,-4.172244 c 0,-0.329764 0.114699,-0.616517 0.329765,-0.83158 0.229402,-0.229402 0.501817,-0.329765 0.845919,-0.329765 0.344103,0 0.616518,0.114699 0.845919,0.329765 0.229401,0.229402 0.329765,0.501816 0.329765,0.83158 0,0.344103 -0.114698,0.616517 -0.329765,0.845919 -0.229401,0.229402 -0.501816,0.329766 -0.845919,0.329766 -0.329765,0 -0.602179,-0.114698 -0.831581,-0.344103 -0.229402,-0.229402 -0.344103,-0.501816 -0.344103,-0.831582 z m 0.888933,-3.254636 c 0,-0.143376 0.01433,-0.272414 0.04301,-0.387115 l 0.329764,-1.290384 c 0.100363,-0.329766 0.301091,-0.587842 0.587842,-0.759893 0.301091,-0.172052 0.60218,-0.215065 0.917608,-0.114699 0.344102,0.100363 0.587841,0.286753 0.759893,0.573504 0.172051,0.286752 0.200726,0.587843 0.100362,0.903269 l -0.372776,1.290384 c -0.114699,0.401454 -0.315428,0.659531 -0.587843,0.802907 -0.272414,0.143376 -0.587842,0.172051 -0.917607,0.08603 -0.286752,-0.05736 -0.501816,-0.200727 -0.645192,-0.430129 -0.172051,-0.229401 -0.229402,-0.458803 -0.215063,-0.673867 z m 3.957178,3.068248 c 0,-0.04301 0,-0.114698 0.01434,-0.186388 0.01434,-0.07169 0.01434,-0.12904 0.01434,-0.157715 l 0.129038,-0.845919 c 0.100363,-0.344101 0.286752,-0.587841 0.587842,-0.759893 0.30109,-0.172051 0.616518,-0.200727 0.974958,-0.114698 0.329764,0.100362 0.573503,0.30109 0.731217,0.587843 0.172052,0.301089 0.200727,0.602178 0.100363,0.903268 l -0.200726,0.860257 c -0.143375,0.630854 -0.501816,0.946281 -1.089658,0.946281 -0.04301,0 -0.114699,-0.01433 -0.200727,-0.02867 -0.08603,-0.01434 -0.157713,-0.02867 -0.200727,-0.02867 -0.286751,-0.08603 -0.501816,-0.243739 -0.645192,-0.473141 -0.129038,-0.229402 -0.215063,-0.458804 -0.215063,-0.702543 z m 1.060983,-4.215256 c 0,-0.344103 0.114698,-0.616517 0.329766,-0.845919 0.2294,-0.229402 0.501816,-0.329764 0.845917,-0.329764 0.344103,0 0.616519,0.114698 0.845919,0.329764 0.229402,0.229402 0.329766,0.501816 0.329766,0.845919 0,0.329765 -0.114698,0.616517 -0.329766,0.831581 -0.215063,0.215065 -0.487478,0.329765 -0.83158,0.329765 -0.344103,0 -0.616517,-0.114698 -0.831581,-0.344102 -0.229402,-0.215065 -0.358441,-0.487479 -0.358441,-0.817244 z" />
</svg>
