<?xml version="1.0" encoding="UTF-8" standalone="no"?>
<svg
   inkscape:version="1.2.2 (b0a8486541, 2022-12-01)"
   sodipodi:docname="snow-wind-symbolic.svg"
   xml:space="preserve"
   style="enable-background:new 0 0 30 30;"
   viewBox="0 0 30 30"
   y="0px"
   x="0px"
   id="Layer_1"
   version="1.1"
   xmlns:inkscape="http://www.inkscape.org/namespaces/inkscape"
   xmlns:sodipodi="http://sodipodi.sourceforge.net/DTD/sodipodi-0.dtd"
   xmlns="http://www.w3.org/2000/svg"
   xmlns:svg="http://www.w3.org/2000/svg"
   xmlns:rdf="http://www.w3.org/1999/02/22-rdf-syntax-ns#"
   xmlns:cc="http://creativecommons.org/ns#"
   xmlns:dc="http://purl.org/dc/elements/1.1/"><metadata
   id="metadata9"><rdf:RDF><cc:Work
       rdf:about=""><dc:format>image/svg+xml</dc:format><dc:type
         rdf:resource="http://purl.org/dc/dcmitype/StillImage" /></cc:Work></rdf:RDF></metadata><defs
   id="defs7" /><sodipodi:namedview
   inkscape:current-layer="Layer_1"
   inkscape:window-maximized="1"
   inkscape:window-y="470"
   inkscape:window-x="1080"
   inkscape:cy="15"
   inkscape:cx="15.045045"
   inkscape:zoom="22.2"
   showgrid="false"
   id="namedview5"
   inkscape:window-height="1014"
   inkscape:window-width="1920"
   inkscape:pageshadow="2"
   inkscape:pageopacity="0"
   guidetolerance="10"
   gridtolerance="10"
   objecttolerance="10"
   borderopacity="1"
   bordercolor="#666666"
   pagecolor="#ffffff"
   inkscape:showpageshadow="2"
   inkscape:pagecheckerboard="0"
   inkscape:deskcolor="#d1d1d1" />
<path
   style="stroke-width:1.43209"
   id="path2"
   d="m 0.17065881,14.298274 c 0,-1.661231 0.5012332,-3.121968 1.51802039,-4.4108519 C 2.7054665,8.5985366 4.0086727,7.7679217 5.6126188,7.3669352 6.0565682,5.4192863 7.0590346,3.8153402 8.6200184,2.5550968 10.181001,1.2948534 11.97112,0.67905265 13.990374,0.67905265 c 1.97629,0 3.723446,0.61580075 5.270109,1.83308135 1.546661,1.2172804 2.549128,2.7925846 3.007398,4.7115917 h 0.458271 c 1.274563,0 2.463203,0.3150608 3.551594,0.9451824 1.088393,0.6301214 1.96197,1.4893789 2.592093,2.5777699 0.630121,1.088393 0.959503,2.277031 0.959503,3.551596 0,1.890364 -0.658765,3.537273 -1.990612,4.897764 -1.317527,1.37481 -2.935794,2.090857 -4.840481,2.148141 -0.186172,0 -0.286418,-0.08593 -0.286418,-0.243456 v -1.904685 c 0,-0.171851 0.100241,-0.257778 0.286418,-0.257778 1.217282,-0.05728 2.26271,-0.544196 3.121967,-1.460736 0.859257,-0.91654 1.288886,-1.976291 1.288886,-3.193571 0,-1.274565 -0.458271,-2.362957 -1.389133,-3.293819 C 25.089108,10.059273 23.986394,9.6010029 22.69751,9.6010029 h -2.305673 c -0.171851,0 -0.257777,-0.085926 -0.257777,-0.2434561 L 20.019492,8.5269319 C 19.861962,6.9802696 19.188878,5.6770633 18.028881,4.6316342 16.854563,3.586205 15.508394,3.05633 13.947411,3.05633 c -1.575304,0 -2.935794,0.529875 -4.0957909,1.5896251 C 8.6916225,5.7057052 8.032859,7.0089114 7.8896495,8.5842157 l -0.085926,0.716047 c 0,0.1718523 -0.1002472,0.2720982 -0.2864191,0.2720982 L 6.7582942,9.6726144 c -1.1886387,0.1002408 -2.191105,0.5871576 -3.007399,1.4893776 -0.816294,0.90222 -1.2172806,1.933329 -1.2172806,3.136288 0,1.217281 0.4296285,2.277031 1.2888853,3.193571 0.8592568,0.916541 1.9046861,1.389132 3.1219665,1.460737 0.1575305,0 0.2434562,0.08593 0.2434562,0.257777 v 1.904686 c 0,0.15753 -0.085926,0.243456 -0.2434562,0.243456 C 5.0254595,21.301223 3.4071925,20.585175 2.0753443,19.210365 0.82942184,17.835553 0.1706583,16.188645 0.1706583,14.29828 Z M 8.04718,25.325403 c 0,-0.329382 0.1145669,-0.6158 0.3580236,-0.859256 0.2291348,-0.214816 0.5012329,-0.329382 0.8162941,-0.329382 0.3293823,0 0.6158014,0.114568 0.8449363,0.329382 0.229135,0.214814 0.343703,0.501232 0.343703,0.844935 0,0.343703 -0.114568,0.615801 -0.343703,0.844936 -0.2291349,0.229135 -0.501233,0.329381 -0.8449363,0.329381 -0.3293822,0 -0.6158003,-0.114568 -0.844936,-0.329381 C 8.1617475,25.941204 8.04718,25.654785 8.04718,25.325403 Z m 1.2316018,-5.198504 c 0,-0.315061 0.1145682,-0.601479 0.3437033,-0.830616 0.229135,-0.229135 0.5012329,-0.343701 0.8449349,-0.343701 0.329382,0 0.615802,0.114568 0.844937,0.343701 0.229135,0.229137 0.343702,0.515555 0.343702,0.830616 0,0.343703 -0.114569,0.630122 -0.343702,0.859257 -0.229135,0.243456 -0.501234,0.358023 -0.844937,0.358023 -0.329381,0 -0.6157999,-0.114568 -0.8449349,-0.358023 C 9.3933487,20.757021 9.2787818,20.470602 9.2787818,20.126899 Z m 2.7209802,8.00541 c 0,-0.329382 0.114568,-0.615801 0.358024,-0.873578 0.229135,-0.229135 0.501233,-0.343702 0.816293,-0.343702 0.343704,0 0.630123,0.114568 0.873579,0.358023 0.243456,0.243456 0.358023,0.529875 0.358023,0.859257 0,0.329381 -0.114568,0.6158 -0.358023,0.844935 -0.243456,0.229135 -0.529875,0.343704 -0.873579,0.343704 -0.329381,0 -0.601479,-0.114569 -0.830614,-0.343704 -0.214814,-0.243456 -0.343703,-0.515554 -0.343703,-0.844935 z m 1.245922,-5.241467 c 0,-0.343703 0.114569,-0.630122 0.343704,-0.887898 0.229135,-0.229137 0.515554,-0.343703 0.830614,-0.343703 0.329382,0 0.615801,0.114568 0.859257,0.358023 0.243456,0.243456 0.358023,0.529875 0.358023,0.873578 0,0.329382 -0.114568,0.6158 -0.358023,0.859256 -0.243456,0.243456 -0.529875,0.358024 -0.859257,0.358024 -0.329381,0 -0.601479,-0.114568 -0.830614,-0.358024 -0.229135,-0.243456 -0.343704,-0.529874 -0.343704,-0.859256 z m 0.601481,-5.184183 c 0,-0.329382 0.114568,-0.615801 0.358023,-0.859257 0.257777,-0.229136 0.529875,-0.343702 0.816294,-0.343702 0.343702,0 0.630121,0.114568 0.873577,0.358023 0.243456,0.243456 0.358025,0.515554 0.358025,0.859257 0,0.329382 -0.114569,0.6158 -0.358025,0.844935 -0.243456,0.229137 -0.529875,0.343703 -0.873577,0.343703 -0.329382,0 -0.60148,-0.114568 -0.830615,-0.343703 -0.229135,-0.243456 -0.343702,-0.529874 -0.343702,-0.859256 z m 3.394064,7.618744 c 0,-0.329382 0.114568,-0.6158 0.343702,-0.859256 0.229135,-0.214816 0.515554,-0.329382 0.859257,-0.329382 0.343704,0 0.615801,0.114568 0.844937,0.329382 0.229135,0.229135 0.329381,0.501232 0.329381,0.844935 0,0.343703 -0.114568,0.615801 -0.329381,0.844936 -0.229136,0.229135 -0.501233,0.329381 -0.844937,0.329381 -0.343703,0 -0.630122,-0.114568 -0.859257,-0.343702 -0.229135,-0.214814 -0.343702,-0.486912 -0.343702,-0.816294 z m 1.21728,-5.198504 c 0,-0.315061 0.114569,-0.587159 0.358023,-0.830616 0.243457,-0.243456 0.529876,-0.358023 0.859258,-0.358023 0.329382,0 0.6158,0.114569 0.844936,0.343704 0.229135,0.229135 0.343702,0.515553 0.343702,0.830614 0,0.343703 -0.114568,0.630122 -0.343702,0.859257 -0.229136,0.243456 -0.501233,0.358023 -0.844936,0.358023 -0.343703,0 -0.630121,-0.114568 -0.859258,-0.358023 -0.229135,-0.229135 -0.358023,-0.515554 -0.358023,-0.844936 z" />
</svg>
