<?xml version="1.0" encoding="UTF-8" standalone="no"?>
<svg
   inkscape:version="1.2.2 (b0a8486541, 2022-12-01)"
   sodipodi:docname="snow-symbolic.svg"
   xml:space="preserve"
   style="enable-background:new 0 0 30 30;"
   viewBox="0 0 30 30"
   y="0px"
   x="0px"
   id="Layer_1"
   version="1.1"
   xmlns:inkscape="http://www.inkscape.org/namespaces/inkscape"
   xmlns:sodipodi="http://sodipodi.sourceforge.net/DTD/sodipodi-0.dtd"
   xmlns="http://www.w3.org/2000/svg"
   xmlns:svg="http://www.w3.org/2000/svg"
   xmlns:rdf="http://www.w3.org/1999/02/22-rdf-syntax-ns#"
   xmlns:cc="http://creativecommons.org/ns#"
   xmlns:dc="http://purl.org/dc/elements/1.1/"><metadata
   id="metadata9"><rdf:RDF><cc:Work
       rdf:about=""><dc:format>image/svg+xml</dc:format><dc:type
         rdf:resource="http://purl.org/dc/dcmitype/StillImage" /></cc:Work></rdf:RDF></metadata><defs
   id="defs7" /><sodipodi:namedview
   inkscape:current-layer="Layer_1"
   inkscape:window-maximized="1"
   inkscape:window-y="470"
   inkscape:window-x="1080"
   inkscape:cy="15"
   inkscape:cx="15.045045"
   inkscape:zoom="22.2"
   showgrid="false"
   id="namedview5"
   inkscape:window-height="1014"
   inkscape:window-width="1920"
   inkscape:pageshadow="2"
   inkscape:pageopacity="0"
   guidetolerance="10"
   gridtolerance="10"
   objecttolerance="10"
   borderopacity="1"
   bordercolor="#666666"
   pagecolor="#ffffff"
   inkscape:showpageshadow="2"
   inkscape:pagecheckerboard="0"
   inkscape:deskcolor="#d1d1d1" />
<path
   style="stroke-width:1.43665"
   id="path2"
   d="m 0.12352545,14.296044 c 0,-1.666509 0.50282626,-3.13189 1.52284535,-4.4248709 C 2.6663898,8.5781902 3.9737382,7.7449344 5.5827823,7.3426732 6.0281428,5.3888341 7.0337953,3.7797904 8.5997397,2.5155413 10.165686,1.2512924 11.961494,0.6335345 13.987166,0.6335345 c 1.982573,0 3.73528,0.6177579 5.286858,1.8389076 1.55158,1.2211494 2.557232,2.8014607 3.016958,4.7265674 h 0.459727 c 1.278617,0 2.471032,0.3160622 3.562885,0.9481861 1.091851,0.632125 1.968205,1.4941137 2.60033,2.5859654 0.632123,1.091851 0.962552,2.284268 0.962552,3.562883 0,1.896373 -0.660858,3.548517 -1.996938,4.913331 -1.321715,1.379181 -2.945125,2.097504 -4.855865,2.15497 -0.186764,0 -0.28733,-0.0862 -0.28733,-0.24423 v -1.91074 c 0,-0.172397 0.100567,-0.258597 0.28733,-0.258597 1.221148,-0.05748 2.269901,-0.545926 3.131889,-1.465379 0.861988,-0.919454 1.292981,-1.982571 1.292981,-3.203722 0,-1.278614 -0.459726,-2.370466 -1.393546,-3.304287 -0.93382,-0.93382 -2.040039,-1.3935464 -3.33302,-1.3935464 h -2.313002 c -0.172397,0 -0.258595,-0.086195 -0.258595,-0.2442297 L 20.035454,8.5063575 C 19.877421,6.9547787 19.202198,5.6474304 18.038514,4.5986784 16.860464,3.5499269 15.510016,3.0183677 13.944073,3.0183677 c -1.580312,0 -2.945126,0.5315591 -4.10881,1.5946774 C 8.6715775,5.6761639 8.0107195,6.9835122 7.8670559,8.5638232 l -0.086199,0.7183251 c 0,0.1723969 -0.100568,0.2729625 -0.2873298,0.2729625 L 6.7321054,9.6556776 C 5.5396887,9.7562443 4.5340362,10.244702 3.7151476,11.14979 c -0.8188885,0.905086 -1.2211495,1.939472 -1.2211495,3.146255 0,1.221151 0.430994,2.284268 1.2929818,3.203722 0.8619879,0.919453 1.9107399,1.393547 3.1318895,1.46538 0.1580311,0 0.2442294,0.08619 0.2442294,0.258596 v 1.91074 c 0,0.15803 -0.086199,0.24423 -0.2442294,0.24423 C 4.9937566,21.321237 3.370346,20.60292 2.0342647,19.22374 0.78438226,17.844559 0.12352482,16.192414 0.12352482,14.296041 Z m 9.13707345,5.847151 c 0,-0.316061 0.1149389,-0.603392 0.3447952,-0.833254 0.2298639,-0.229864 0.5028249,-0.344796 0.8476219,-0.344796 0.330428,0 0.617757,0.114927 0.84762,0.344796 0.229865,0.229862 0.344796,0.517193 0.344796,0.833254 0,0.344797 -0.114926,0.632125 -0.344796,0.861989 -0.229863,0.244229 -0.502825,0.359161 -0.84762,0.359161 -0.33043,0 -0.617758,-0.114927 -0.8476219,-0.359161 C 9.3755315,20.77532 9.2605989,20.487992 9.2605989,20.143195 Z m 0,5.215027 c 0,-0.344796 0.1149389,-0.632124 0.3447952,-0.861988 0.2298639,-0.215497 0.5028249,-0.330429 0.8332549,-0.330429 0.330428,0 0.617759,0.114926 0.847621,0.330429 0.229864,0.229864 0.344795,0.502827 0.344795,0.847622 0,0.344795 -0.114926,0.617758 -0.344795,0.84762 -0.229862,0.229865 -0.502826,0.33043 -0.847621,0.33043 -0.33043,0 -0.617758,-0.114927 -0.8476219,-0.33043 C 9.3755315,25.975981 9.2605989,25.688651 9.2605989,25.358222 Z m 4.5829021,-2.4423 c 0,-0.330428 0.114939,-0.632123 0.359162,-0.89072 0.229863,-0.229862 0.502826,-0.344795 0.818888,-0.344795 0.330429,0 0.617758,0.129297 0.861988,0.373529 0.24423,0.244229 0.373528,0.531558 0.373528,0.861986 0,0.33043 -0.114926,0.617759 -0.359161,0.861989 -0.244229,0.244231 -0.531559,0.359162 -0.876355,0.359162 -0.330429,0 -0.603391,-0.114926 -0.833255,-0.359162 -0.229863,-0.24423 -0.344795,-0.531559 -0.344795,-0.861989 z m 0,-5.200659 c 0,-0.330429 0.114939,-0.617759 0.359162,-0.861989 0.258597,-0.229862 0.531559,-0.344795 0.818888,-0.344795 0.344796,0 0.632126,0.114926 0.876355,0.359162 0.24423,0.24423 0.359161,0.517193 0.359161,0.861989 0,0.330428 -0.114926,0.617756 -0.359161,0.847622 -0.244229,0.229862 -0.531559,0.344794 -0.876355,0.344794 -0.330429,0 -0.603391,-0.114927 -0.833255,-0.344794 -0.229863,-0.244231 -0.344795,-0.531561 -0.344795,-0.861989 z m 0,10.458786 c 0,-0.330428 0.114939,-0.617757 0.359162,-0.876354 0.229863,-0.229863 0.502826,-0.344794 0.818888,-0.344794 0.344796,0 0.632126,0.114926 0.876355,0.359161 0.24423,0.24423 0.359161,0.531559 0.359161,0.861987 0,0.330429 -0.114926,0.617759 -0.359161,0.847622 -0.244229,0.229863 -0.531559,0.344795 -0.876355,0.344795 -0.330429,0 -0.603391,-0.114927 -0.833255,-0.344795 -0.229863,-0.24423 -0.344795,-0.517193 -0.344795,-0.847622 z m 4.626003,-8.030854 c 0,-0.316061 0.114926,-0.589025 0.359161,-0.833254 0.244229,-0.244231 0.531559,-0.359163 0.861987,-0.359163 0.33043,0 0.617758,0.114927 0.847622,0.344797 0.229862,0.229862 0.344796,0.517192 0.344796,0.833254 0,0.344796 -0.114926,0.632124 -0.344796,0.861988 -0.229864,0.244229 -0.502825,0.359161 -0.847622,0.359161 -0.344795,0 -0.632123,-0.114927 -0.861987,-0.359161 -0.229863,-0.229864 -0.359161,-0.517192 -0.359161,-0.847622 z m 0,5.215027 c 0,-0.316061 0.114926,-0.603392 0.359161,-0.861988 0.229864,-0.215497 0.517192,-0.330429 0.861987,-0.330429 0.344797,0 0.617758,0.114926 0.847622,0.330429 0.229862,0.215497 0.330429,0.502827 0.330429,0.847622 0,0.344795 -0.114926,0.617758 -0.330429,0.84762 -0.229864,0.229865 -0.502825,0.33043 -0.847622,0.33043 -0.344795,0 -0.632123,-0.114927 -0.861987,-0.344794 -0.229863,-0.215498 -0.359161,-0.488461 -0.359161,-0.81889 z" />
</svg>
