<?xml version="1.0" encoding="UTF-8" standalone="no"?>
<!-- Generator: Adobe Illustrator 22.0.1, SVG Export Plug-In . SVG Version: 6.00 Build 0)  -->

<svg
   version="1.1"
   id="Layer_1"
   x="0px"
   y="0px"
   viewBox="0 0 30 30"
   style="enable-background:new 0 0 30 30;"
   xml:space="preserve"
   sodipodi:docname="sprinkle-symbolic.svg"
   inkscape:version="1.2.2 (b0a8486541, 2022-12-01)"
   xmlns:inkscape="http://www.inkscape.org/namespaces/inkscape"
   xmlns:sodipodi="http://sodipodi.sourceforge.net/DTD/sodipodi-0.dtd"
   xmlns="http://www.w3.org/2000/svg"
   xmlns:svg="http://www.w3.org/2000/svg"><defs
   id="defs7" /><sodipodi:namedview
   id="namedview5"
   pagecolor="#ffffff"
   bordercolor="#666666"
   borderopacity="1.0"
   inkscape:showpageshadow="2"
   inkscape:pageopacity="0.0"
   inkscape:pagecheckerboard="0"
   inkscape:deskcolor="#d1d1d1"
   showgrid="false"
   inkscape:zoom="29.233333"
   inkscape:cx="14.982896"
   inkscape:cy="23.192702"
   inkscape:window-width="1920"
   inkscape:window-height="1014"
   inkscape:window-x="1080"
   inkscape:window-y="470"
   inkscape:window-maximized="1"
   inkscape:current-layer="Layer_1" />
<path
   d="m 0.08767903,16.625752 c 0,-1.654526 0.51793879,-3.12202 1.55381637,-4.416867 C 2.677373,10.914038 3.9866071,10.093969 5.5691979,9.7199018 6.0152007,7.7632441 7.0223039,6.151879 8.5905075,4.9001936 10.158711,3.6485082 11.971497,3.0154719 14.00009,3.0154719 c 1.985432,0 3.740669,0.6186491 5.294486,1.827173 1.539429,1.222911 2.560919,2.7911145 3.035697,4.7189978 h 0.446002 c 1.28046,0 2.474597,0.3165182 3.568023,0.9351673 1.093427,0.618649 1.971045,1.48188 2.604081,2.56092 0.633037,1.079039 0.963942,2.273175 0.963942,3.553635 0,1.927883 -0.661811,3.58241 -1.985432,4.96358 -1.323621,1.38117 -2.949374,2.114917 -4.86287,2.172466 -0.187033,0 -0.287744,-0.08632 -0.287744,-0.244583 v -1.913496 c 0,-0.172646 0.100711,-0.258969 0.287744,-0.258969 1.237298,-0.05755 2.273176,-0.546713 3.136407,-1.467493 0.863232,-0.92078 1.294847,-1.999819 1.294847,-3.251505 0,-1.251685 -0.46039,-2.330724 -1.409944,-3.251504 C 25.150162,12.43908 24.042348,11.97869 22.761888,11.97869 h -2.30195 c -0.172646,0 -0.273357,-0.08632 -0.273357,-0.244582 l -0.10071,-0.834457 C 19.927612,9.3602221 19.265801,8.0509879 18.100439,7.0007231 16.92069,5.9504584 15.553907,5.4181324 14.00009,5.4181324 c -1.568203,0 -2.949373,0.5179388 -4.1147355,1.5682036 -1.1653623,1.0502647 -1.827173,2.3451117 -1.9854321,3.898928 l -0.086323,0.776908 c 0,0.172647 -0.1007103,0.25897 -0.2877438,0.25897 l -0.762521,0.04316 c -1.1797494,0.05755 -2.1724654,0.532326 -3.0069224,1.438719 -0.8344569,0.906393 -1.2372982,1.971045 -1.2372982,3.193956 0,1.251685 0.4316157,2.330724 1.294847,3.251505 0.8632313,0.92078 1.9134961,1.409944 3.1364071,1.467493 0.1582591,0 0.2445822,0.08632 0.2445822,0.258969 v 1.913496 c 0,0.158259 -0.086323,0.244582 -0.2445822,0.244582 C 5.0224847,23.6467 3.3967324,22.912954 2.0587239,21.531784 0.72071533,20.150614 0.08767903,18.539248 0.08767903,16.625752 Z m 8.53160287,1.266073 c 0,-0.345293 0.1726462,-0.82007 0.5323259,-1.424332 0.3452926,-0.604262 0.6761979,-1.079039 0.9783292,-1.453106 0.302131,-0.345292 0.489164,-0.546713 0.546713,-0.604262 l 0.517939,0.575488 c 0.374067,0.402841 0.719359,0.877618 1.035877,1.467493 0.316518,0.575488 0.474777,1.064652 0.474777,1.438719 0,0.5611 -0.187033,1.035877 -0.575487,1.409944 -0.388454,0.374067 -0.863231,0.561101 -1.438719,0.561101 -0.5611,0 -1.0502647,-0.187034 -1.453106,-0.575488 C 8.8207025,18.913315 8.6192819,18.438538 8.6192819,17.891825 Z m 4.2873821,5.740488 c 0,-0.402841 0.115098,-0.848844 0.345293,-1.38117 0.230195,-0.532326 0.503551,-1.007103 0.848844,-1.467493 0.258969,-0.374067 0.575487,-0.776908 0.963941,-1.208524 0.374067,-0.431616 0.661811,-0.748134 0.863232,-0.935167 0.10071,-0.08632 0.215807,-0.201421 0.345292,-0.330906 l 0.345293,0.330906 c 0.546713,0.474777 1.150975,1.179749 1.827173,2.100529 0.345292,0.474777 0.618649,0.978329 0.848844,1.496268 0.230195,0.517939 0.330905,0.978329 0.330905,1.395557 0,0.92078 -0.330905,1.712076 -0.978329,2.373886 -0.647423,0.661811 -1.453106,0.978329 -2.388273,0.978329 -0.92078,0 -1.712075,-0.330905 -2.373886,-0.963942 -0.661811,-0.66181 -0.978329,-1.453106 -0.978329,-2.388273 z m 2.114917,-9.581867 c 0,-0.604262 0.46039,-1.366783 1.395557,-2.301951 l 0.345293,0.35968 c 0.258969,0.302131 0.474777,0.647424 0.690585,1.02149 0.20142,0.374067 0.316518,0.676198 0.316518,0.920781 0,0.374066 -0.129485,0.690585 -0.402841,0.949554 -0.25897,0.258969 -0.575488,0.402841 -0.949555,0.402841 -0.388454,0 -0.719359,-0.129484 -0.992716,-0.402841 -0.273357,-0.258969 -0.402841,-0.575488 -0.402841,-0.949554 z"
   id="path2"
   style="stroke-width:1.43872" />
</svg>
