<?xml version="1.0" encoding="UTF-8" standalone="no"?>
<!-- Generator: Adobe Illustrator 22.0.1, SVG Export Plug-In . SVG Version: 6.00 Build 0)  -->

<svg
   version="1.1"
   id="Layer_1"
   x="0px"
   y="0px"
   viewBox="0 0 30 30"
   style="enable-background:new 0 0 30 30;"
   xml:space="preserve"
   sodipodi:docname="storm-showers-symbolic.svg"
   inkscape:version="1.2.2 (b0a8486541, 2022-12-01)"
   xmlns:inkscape="http://www.inkscape.org/namespaces/inkscape"
   xmlns:sodipodi="http://sodipodi.sourceforge.net/DTD/sodipodi-0.dtd"
   xmlns="http://www.w3.org/2000/svg"
   xmlns:svg="http://www.w3.org/2000/svg"><defs
   id="defs7" /><sodipodi:namedview
   id="namedview5"
   pagecolor="#ffffff"
   bordercolor="#666666"
   borderopacity="1.0"
   inkscape:showpageshadow="2"
   inkscape:pageopacity="0.0"
   inkscape:pagecheckerboard="0"
   inkscape:deskcolor="#d1d1d1"
   showgrid="false"
   inkscape:zoom="29.233333"
   inkscape:cx="14.982896"
   inkscape:cy="12.246294"
   inkscape:window-width="1920"
   inkscape:window-height="1014"
   inkscape:window-x="1080"
   inkscape:window-y="470"
   inkscape:window-maximized="1"
   inkscape:current-layer="Layer_1" />
<path
   d="m 0.09784995,14.115365 c 0,1.596659 0.47468239,3.020706 1.42404715,4.272141 0.9493648,1.251435 2.1720315,2.114494 3.6823846,2.574792 l -0.9349805,2.416565 c -0.043153,0.201381 0.028769,0.316455 0.2013804,0.316455 h 3.0638591 l -1.4959688,5.437271 h 0.4027608 l 5.7105733,-7.508612 c 0.05754,-0.05754 0.05754,-0.129459 0.02877,-0.20138 -0.02877,-0.07192 -0.10069,-0.100691 -0.20138,-0.100691 H 8.8435133 l 3.5673097,-6.674322 c 0.08631,-0.20138 0.02877,-0.30207 -0.20138,-0.30207 H 7.9804544 c -0.1294588,0 -0.2445333,0.07192 -0.3164549,0.20138 L 6.0961092,18.675192 C 5.0748228,18.416275 4.2261483,17.855286 3.5500855,17.006612 2.8740227,16.157937 2.5431835,15.194188 2.5431835,14.115365 c 0,-1.193898 0.4027608,-2.229569 1.2082824,-3.107012 C 4.5569875,10.130909 5.5638895,9.6274585 6.772172,9.4836153 L 7.5201563,9.3829251 c 0.1869961,0 0.2876863,-0.086306 0.2876863,-0.2445333 L 7.9085328,8.3904074 C 8.052376,6.8369014 8.6996702,5.5279288 9.8647996,4.4778738 11.029929,3.4278188 12.396439,2.8955992 13.964329,2.8955992 c 1.567891,0 2.934401,0.5322196 4.09953,1.5822746 1.179514,1.050055 1.841192,2.3590276 2.013804,3.9125336 l 0.08631,0.8342902 c 0,0.1726118 0.08631,0.2589177 0.273302,0.2589177 h 2.315875 c 1.308972,0 2.416565,0.4602981 3.337161,1.3665097 0.920596,0.906212 1.380894,1.99942 1.380894,3.279624 0,1.222667 -0.43153,2.287106 -1.280204,3.178934 -0.848675,0.891827 -1.89873,1.380894 -3.150165,1.481584 -0.186996,0 -0.287686,0.08631 -0.287686,0.273302 v 1.970651 c 0,0.158227 0.10069,0.244533 0.287686,0.244533 0.93498,-0.02877 1.826808,-0.244533 2.675482,-0.632909 0.848675,-0.388377 1.582275,-0.906212 2.186416,-1.539122 0.604142,-0.63291 1.093208,-1.380894 1.452816,-2.258338 0.359608,-0.863058 0.546604,-1.76927 0.546604,-2.704251 0,-1.294588 -0.316455,-2.488486 -0.963749,-3.581694 C 28.291107,9.469231 27.428048,8.6061721 26.33484,7.9732623 25.241632,7.3403524 24.047734,7.0238975 22.76753,7.0238975 H 22.307232 C 21.832549,5.1107836 20.825647,3.5428933 19.272141,2.3346109 17.718635,1.1263285 15.963749,0.50780292 13.978714,0.50780292 c -2.028189,0 -3.840612,0.63290988 -5.4085027,1.88434528 C 7.002321,3.6435835 5.995419,5.2546268 5.5495052,7.2252779 3.9672306,7.5992701 2.658258,8.419176 1.6225873,9.7137643 0.58691665,11.008353 0.09784995,12.461168 0.09784995,14.115365 Z M 11.835451,28.298299 c 0,0.230149 0.07192,0.445914 0.215764,0.661678 0.143844,0.215765 0.373993,0.373993 0.661679,0.460299 0.20138,0.04315 0.316455,0.07192 0.359608,0.07192 0.129459,0 0.30207,-0.04315 0.546604,-0.143843 0.30207,-0.129459 0.503451,-0.388377 0.604141,-0.747984 l 0.402761,-1.510353 c 0.08631,-0.316455 0.05754,-0.618526 -0.115075,-0.906212 -0.172611,-0.287687 -0.417145,-0.474683 -0.762368,-0.575373 -0.316455,-0.08631 -0.618526,-0.05754 -0.906212,0.115075 -0.287687,0.172611 -0.489067,0.417145 -0.589757,0.762368 l -0.388377,1.438432 c -0.01438,0.244533 -0.02877,0.373992 -0.02877,0.373992 z m 1.927498,-6.861318 c 0,0.20138 0.07192,0.417145 0.215765,0.63291 0.143843,0.215764 0.359608,0.373992 0.647294,0.474682 0.316455,0.10069 0.63291,0.08631 0.920596,-0.07192 0.287686,-0.158227 0.474682,-0.40276 0.575373,-0.747984 L 16.553506,20.2287 c 0.08631,-0.316455 0.04315,-0.618525 -0.115075,-0.906211 C 16.26582,19.0348 16.006902,18.83342 15.676063,18.73273 c -0.330839,-0.08631 -0.63291,-0.05754 -0.934981,0.115074 -0.30207,0.172612 -0.489066,0.417145 -0.589757,0.747985 l -0.345223,1.452815 c -0.02877,0.244534 -0.04315,0.373993 -0.04315,0.388377 z m 4.056377,2.373412 c 0,0.244533 0.07192,0.489066 0.230149,0.7336 0.158227,0.244533 0.388376,0.402761 0.676063,0.503451 0.02877,0 0.0863,0.01438 0.172611,0.02877 0.07192,0.01438 0.129459,0.02877 0.172612,0.02877 0.186996,0 0.373992,-0.02877 0.546604,-0.115074 0.273302,-0.100691 0.474682,-0.373993 0.589757,-0.819906 l 0.359608,-1.452816 c 0.10069,-0.330839 0.07192,-0.647294 -0.08631,-0.949365 -0.158228,-0.302071 -0.402761,-0.503451 -0.719216,-0.604141 -0.359608,-0.08631 -0.690447,-0.04315 -0.978133,0.115074 -0.287687,0.172612 -0.474683,0.43153 -0.53222,0.762369 l -0.388376,1.481584 c -0.02877,0.08631 -0.04315,0.186997 -0.04315,0.287687 z m 1.956266,-6.890087 c -0.01438,0.230149 0.05754,0.445914 0.215765,0.676063 0.158228,0.230149 0.388377,0.402761 0.704832,0.546604 0.115074,0.05754 0.230149,0.08631 0.373992,0.08631 0.158227,0 0.316455,-0.04315 0.489067,-0.115075 0.30207,-0.143843 0.503451,-0.417145 0.632909,-0.819906 l 0.417145,-1.481584 c 0.02877,-0.186996 0.04315,-0.287687 0.04315,-0.316455 0,-0.244533 -0.07192,-0.474683 -0.230149,-0.704832 -0.158227,-0.230149 -0.388376,-0.388376 -0.704831,-0.474682 -0.02877,0 -0.08631,-0.01438 -0.158227,-0.02877 -0.08631,-0.04315 -0.143844,-0.04315 -0.186997,-0.04315 -0.244533,0 -0.474682,0.07192 -0.704831,0.215765 -0.230149,0.143843 -0.388376,0.373992 -0.474682,0.690447 l -0.388377,1.452816 c -0.01438,0.115075 -0.02877,0.215765 -0.02877,0.316455 z"
   id="path2"
   style="stroke-width:1.43843" />
</svg>
