<?xml version="1.0" encoding="UTF-8" standalone="no"?>
<!-- Generator: Adobe Illustrator 22.0.1, SVG Export Plug-In . SVG Version: 6.00 Build 0)  -->

<svg
   version="1.1"
   id="Layer_1"
   x="0px"
   y="0px"
   viewBox="0 0 30 30"
   style="enable-background:new 0 0 30 30;"
   xml:space="preserve"
   sodipodi:docname="thunderstorm-symbolic.svg"
   inkscape:version="1.2.2 (b0a8486541, 2022-12-01)"
   xmlns:inkscape="http://www.inkscape.org/namespaces/inkscape"
   xmlns:sodipodi="http://sodipodi.sourceforge.net/DTD/sodipodi-0.dtd"
   xmlns="http://www.w3.org/2000/svg"
   xmlns:svg="http://www.w3.org/2000/svg"><defs
   id="defs7" /><sodipodi:namedview
   id="namedview5"
   pagecolor="#ffffff"
   bordercolor="#666666"
   borderopacity="1.0"
   inkscape:showpageshadow="2"
   inkscape:pageopacity="0.0"
   inkscape:pagecheckerboard="0"
   inkscape:deskcolor="#d1d1d1"
   showgrid="false"
   inkscape:zoom="29.233333"
   inkscape:cx="14.982896"
   inkscape:cy="12.246294"
   inkscape:window-width="1920"
   inkscape:window-height="1014"
   inkscape:window-x="1080"
   inkscape:window-y="470"
   inkscape:window-maximized="1"
   inkscape:current-layer="Layer_1" />
<path
   d="m 0.04907138,13.948538 c 0,1.598799 0.47531854,3.024754 1.42595562,4.277867 0.9506371,1.253112 2.189346,2.117328 3.7161268,2.578243 l -0.9506371,2.419803 c -0.043211,0.20165 0.028807,0.316879 0.2016503,0.316879 h 3.0679651 l -1.411552,6.193545 h 0.4033005 l 5.6462084,-8.282066 c 0.05761,-0.05761 0.05761,-0.129632 0.0144,-0.20165 -0.04321,-0.07202 -0.115228,-0.100825 -0.216054,-0.100825 H 8.8064554 l 3.5720906,-6.683267 c 0.100825,-0.20165 0.02881,-0.316879 -0.20165,-0.316879 H 7.9422399 c -0.1296324,0 -0.2448611,0.07202 -0.3312827,0.216054 L 6.0697729,18.500073 C 5.0471178,18.240808 4.1973059,17.679068 3.5203371,16.829256 2.8433683,15.979444 2.5120856,15.014404 2.5120856,13.934134 c 0,-1.195498 0.4033006,-2.232557 1.2243054,-3.125579 C 4.5573957,9.9299356 5.5656472,9.4114063 6.7611453,9.2673703 L 7.5245357,9.1665452 c 0.1872467,0 0.2880718,-0.086422 0.2880718,-0.2592647 L 7.9134327,8.1726973 C 8.0718722,6.6171094 8.7200338,5.3063825 9.8867248,4.2549203 11.053416,3.2034581 12.421757,2.6705251 13.991749,2.6705251 c 1.569991,0 2.938332,0.532933 4.105023,1.5843952 1.181095,1.0514622 1.84366,2.3621891 2.016503,3.917777 L 20.2141,9.0081057 c 0,0.1584395 0.08642,0.244861 0.259265,0.244861 h 2.304575 c 1.310727,0 2.419803,0.460915 3.341633,1.3683413 0.92183,0.907426 1.397149,2.016503 1.397149,3.284019 0,1.224305 -0.432108,2.290171 -1.28192,3.183194 -0.849812,0.893023 -1.915678,1.397148 -3.16879,1.497973 -0.187247,0 -0.288072,0.08642 -0.288072,0.259265 v 1.973292 c 0,0.15844 0.100825,0.244861 0.288072,0.244861 1.915677,-0.05761 3.543283,-0.792197 4.882817,-2.174942 1.339534,-1.382745 2.0021,-3.039158 2.0021,-4.969239 0,-1.296324 -0.316879,-2.491822 -0.965041,-3.586495 C 28.35213,9.2385632 27.473511,8.3743476 26.378838,7.7405896 25.269761,7.1068315 24.074263,6.7899525 22.77794,6.7899525 H 22.331428 C 21.85611,4.8742747 20.833455,3.3042832 19.29227,2.0943815 17.751086,0.88447972 15.979444,0.26512526 13.991749,0.26512526 c -2.030907,0 -3.84576,0.63375805 -5.4157511,1.88687054 C 7.0060064,3.4051083 5.9977549,5.0183107 5.5512436,6.9916028 3.9524448,7.3660962 2.641718,8.1871009 1.6046593,9.4834242 0.5676007,10.779748 0.04907138,12.292125 0.04907138,13.948538 Z M 11.773595,27.934426 c 0,0.56174 0.273669,0.936233 0.835409,1.109076 0.0144,0 0.07202,0 0.158439,0.0144 0.08642,0.0144 0.15844,0.0144 0.201651,0.0144 0.244861,0 0.475318,-0.07202 0.705776,-0.216054 0.230457,-0.144036 0.388897,-0.374494 0.460914,-0.691373 L 17.376593,15.648162 C 17.463014,15.302475 17.434207,15 17.275768,14.711928 c -0.15844,-0.273668 -0.388897,-0.460915 -0.72018,-0.56174 -0.244861,-0.02881 -0.374493,-0.04321 -0.374493,-0.04321 -0.230458,0 -0.460915,0.07202 -0.676969,0.216054 -0.216054,0.144036 -0.374494,0.36009 -0.446512,0.648162 l -3.255211,12.559932 c -0.0144,0.144036 -0.02881,0.273668 -0.02881,0.403301 z m 5.991895,-4.407499 c 0,0.187246 0.04321,0.374493 0.144036,0.547336 0.20165,0.316879 0.446511,0.532933 0.734583,0.633758 0.158439,0.04321 0.302475,0.07202 0.432108,0.07202 0.129632,0 0.288071,-0.02881 0.460915,-0.115229 0.302475,-0.129632 0.504125,-0.4033 0.60495,-0.821004 L 22.2162,15.676969 c 0.04321,-0.20165 0.07202,-0.331283 0.07202,-0.388897 0,-0.216054 -0.07202,-0.432108 -0.230458,-0.648162 -0.158439,-0.216054 -0.374493,-0.374493 -0.662565,-0.460915 -0.244861,-0.02881 -0.374493,-0.04321 -0.374493,-0.04321 -0.244862,0 -0.475319,0.07202 -0.676969,0.216054 C 20.142082,14.495874 19.998046,14.711928 19.911625,15 L 17.8087,23.210048 c 0,0.02881 0,0.07202 -0.0144,0.158439 -0.02881,0.07202 -0.02881,0.115229 -0.02881,0.15844 z"
   id="path2"
   style="stroke-width:1.44036" />
</svg>
