<?xml version="1.0" encoding="UTF-8" standalone="no"?>
<!-- Generator: Adobe Illustrator 22.0.1, SVG Export Plug-In . SVG Version: 6.00 Build 0)  -->

<svg
   version="1.1"
   id="Layer_1"
   x="0px"
   y="0px"
   viewBox="0 0 30 30"
   style="enable-background:new 0 0 30 30;"
   xml:space="preserve"
   sodipodi:docname="tornado-symbolic.svg"
   inkscape:version="1.2.2 (b0a8486541, 2022-12-01)"
   xmlns:inkscape="http://www.inkscape.org/namespaces/inkscape"
   xmlns:sodipodi="http://sodipodi.sourceforge.net/DTD/sodipodi-0.dtd"
   xmlns="http://www.w3.org/2000/svg"
   xmlns:svg="http://www.w3.org/2000/svg"><defs
   id="defs7" /><sodipodi:namedview
   id="namedview5"
   pagecolor="#ffffff"
   bordercolor="#666666"
   borderopacity="1.0"
   inkscape:showpageshadow="2"
   inkscape:pageopacity="0.0"
   inkscape:pagecheckerboard="0"
   inkscape:deskcolor="#d1d1d1"
   showgrid="false"
   inkscape:zoom="29.233333"
   inkscape:cx="14.982896"
   inkscape:cy="12.246294"
   inkscape:window-width="1920"
   inkscape:window-height="1014"
   inkscape:window-x="1080"
   inkscape:window-y="470"
   inkscape:window-maximized="1"
   inkscape:current-layer="Layer_1" />
<path
   d="m 0.58993364,16.185387 c 0,0.913874 0.47680366,1.695302 1.43041096,2.344285 1.7482801,1.231742 4.3839449,1.840992 7.9202387,1.840992 1.5893457,0 3.0594907,-0.132446 4.4236787,-0.410581 1.430411,-0.304625 2.609175,-0.794673 3.509805,-1.456901 0.900629,-0.662227 1.364188,-1.430411 1.364188,-2.33104 0,-0.278135 -0.05298,-0.543026 -0.158935,-0.821162 1.840992,-0.450314 3.284648,-1.059563 4.330967,-1.827747 1.046319,-0.768184 1.576101,-1.655568 1.576101,-2.648909 0,-0.251647 -0.03973,-0.516537 -0.119201,-0.794673 3.033001,-1.0728082 4.542879,-2.5164637 4.542879,-4.3442111 0,-1.1655201 -0.662227,-2.1985947 -1.973437,-3.0992239 -2.582687,-1.72179098 -6.370627,-2.58268649 -11.363821,-2.58268649 -2.357529,0 -4.489901,0.21191274 -6.3971156,0.62249368 C 7.5962986,1.0998487 5.9274858,1.762076 4.6560093,2.6627051 3.3845329,3.5633343 2.7487947,4.5964089 2.7487947,5.7486844 c 0,0.6887164 0.2119127,1.3112101 0.6357382,1.8807256 -1.5628565,0.8873846 -2.3442847,1.9734374 -2.3442847,3.258158 0,0.993341 0.4900482,1.867481 1.4569001,2.622421 -1.2714764,0.741694 -1.90721466,1.629079 -1.90721466,2.675398 z m 0.79467276,5.960046 c 0,0.966852 0.5960046,1.735035 1.7880138,2.278062 1.1920091,0.543026 2.7018874,0.821162 4.5163902,0.821162 1.840992,0 3.3508706,-0.278136 4.5561236,-0.821162 1.205254,-0.543027 1.801259,-1.31121 1.801259,-2.278062 0,-0.357603 -0.119201,-0.662228 -0.344359,-0.913874 -0.225157,-0.251646 -0.529781,-0.370847 -0.887384,-0.370847 -0.29138,0 -0.556271,0.105956 -0.794673,0.304624 -0.238402,0.198668 -0.384092,0.463559 -0.450314,0.754939 -0.264891,0.211913 -0.741695,0.397337 -1.456901,0.569516 -0.7152051,0.172179 -1.5231224,0.264891 -2.4237516,0.264891 -1.4569,0 -2.6489092,-0.211913 -3.5495384,-0.622494 0.2119128,-0.211913 0.3178692,-0.476803 0.3443582,-0.794673 0.026489,-0.317869 -0.052978,-0.596004 -0.1986681,-0.821161 -0.2119128,-0.278136 -0.4768037,-0.46356 -0.8079174,-0.529782 -0.3311136,-0.06622 -0.6357382,0 -0.9271182,0.172179 -0.7814282,0.543026 -1.1655201,1.192009 -1.1655201,1.986682 z m 1.6953019,-5.960046 c 0,-0.01324 0.079467,-0.09271 0.2516464,-0.238402 0.1192009,-0.119201 0.3708473,-0.264891 0.7416946,-0.450315 0.3708473,-0.185423 0.8079173,-0.331113 1.2714765,-0.463559 l 0.1589345,-0.07947 c 2.1456165,0.715206 4.6488357,1.072808 7.5096577,1.072808 1.258232,0 2.397263,-0.06622 3.417093,-0.211912 l 0.344358,0.304624 c -0.119201,0.211913 -0.397336,0.423826 -0.834406,0.662227 -0.529782,0.278136 -1.350944,0.543027 -2.463486,0.75494 -1.112542,0.211912 -2.291306,0.331113 -3.5362937,0.331113 -1.2449873,0 -2.423752,-0.105956 -3.5362938,-0.331113 C 5.2917476,17.311173 4.4573412,17.059527 3.9143148,16.781391 3.4640002,16.595968 3.1858647,16.3973 3.0799083,16.185387 Z m 0.14569,11.151908 c 0,0.834406 0.4768037,1.483389 1.430411,1.933704 0.9536074,0.450314 2.132372,0.675471 3.5362939,0.675471 1.430411,0 2.6356648,-0.225157 3.6025168,-0.675471 0.966852,-0.450315 1.4569,-1.099298 1.4569,-1.933704 0,-0.331114 -0.119201,-0.635738 -0.370847,-0.887385 -0.251647,-0.251646 -0.543027,-0.384092 -0.87414,-0.384092 -0.622494,0 -1.033075,0.31787 -1.218499,0.953608 -0.516537,0.317869 -1.3774325,0.490048 -2.5959308,0.490048 -1.0595637,0 -1.9072147,-0.158935 -2.5429529,-0.490048 -0.1986682,-0.635738 -0.5960046,-0.953608 -1.2184982,-0.953608 -0.3311137,0 -0.6224937,0.119201 -0.847651,0.370848 -0.2251573,0.251646 -0.3576028,0.543026 -0.3576028,0.900629 z M 3.5037338,10.887568 c 0,-0.105956 0.066223,-0.225157 0.1986682,-0.370847 0.3178691,-0.397336 0.9536073,-0.7946727 1.8807256,-1.16552 2.5429529,1.364188 6.0395134,2.03966 10.4764364,2.03966 2.264817,0 4.397189,-0.211913 6.383871,-0.622494 v 0.119201 c 0,0.198669 -0.119201,0.397337 -0.370847,0.596005 -0.543027,0.476804 -1.549612,0.927118 -3.033001,1.364188 -1.60259,0.476804 -3.615762,0.715206 -6.039513,0.715206 -2.436997,0 -4.450168,-0.238402 -6.0527581,-0.715206 C 5.4109485,12.423936 4.3911184,11.973621 3.8745811,11.496818 3.6229347,11.298149 3.5037338,11.099481 3.5037338,10.887568 Z m 1.721791,-5.1388836 c 0,-0.2384018 0.1589346,-0.4900482 0.4635592,-0.7814282 C 6.2850885,4.4109852 7.4770977,3.8812034 9.2386224,3.3646661 11.132592,2.8083951 13.39741,2.5302597 16.046319,2.5302597 c 2.662154,0 4.95346,0.2781354 6.87392,0.8344064 1.788013,0.5165373 2.966778,1.0595637 3.549538,1.6158346 0.29138,0.29138 0.450315,0.556271 0.450315,0.7814283 0,0.2251572 -0.14569,0.4635591 -0.450315,0.7416946 -0.58276,0.5562709 -1.761525,1.0992973 -3.549538,1.6290791 -1.92046,0.556271 -4.198521,0.8344065 -6.87392,0.8344065 -2.648909,0 -4.926971,-0.2781355 -6.8076966,-0.8344065 C 7.4638532,7.6029209 6.271844,7.0598945 5.689084,6.490379 5.3844594,6.2122435 5.2255248,5.9738417 5.2255248,5.7486844 Z"
   id="path2"
   style="stroke-width:1.32445" />
</svg>
