<?xml version="1.0" encoding="UTF-8" standalone="no"?>
<!-- Generator: Adobe Illustrator 22.0.1, SVG Export Plug-In . SVG Version: 6.00 Build 0)  -->

<svg
   version="1.1"
   id="Layer_1"
   x="0px"
   y="0px"
   viewBox="0 0 30 30"
   style="enable-background:new 0 0 30 30;"
   xml:space="preserve"
   sodipodi:docname="tsunami-symbolic.svg"
   inkscape:version="1.2.2 (b0a8486541, 2022-12-01)"
   xmlns:inkscape="http://www.inkscape.org/namespaces/inkscape"
   xmlns:sodipodi="http://sodipodi.sourceforge.net/DTD/sodipodi-0.dtd"
   xmlns="http://www.w3.org/2000/svg"
   xmlns:svg="http://www.w3.org/2000/svg"><defs
   id="defs7" /><sodipodi:namedview
   id="namedview5"
   pagecolor="#ffffff"
   bordercolor="#666666"
   borderopacity="1.0"
   inkscape:showpageshadow="2"
   inkscape:pageopacity="0.0"
   inkscape:pagecheckerboard="0"
   inkscape:deskcolor="#d1d1d1"
   showgrid="false"
   inkscape:zoom="29.233333"
   inkscape:cx="14.982896"
   inkscape:cy="9.5096921"
   inkscape:window-width="1920"
   inkscape:window-height="1014"
   inkscape:window-x="1080"
   inkscape:window-y="470"
   inkscape:window-maximized="1"
   inkscape:current-layer="Layer_1" />
<path
   d="m 0.11164451,27.670463 c 0,-0.239773 0.0899146,-0.449573 0.25475797,-0.629402 0.17982916,-0.17983 0.37464407,-0.269744 0.61441628,-0.269744 H 1.5802493 C 1.2655483,25.782256 0.99580452,24.748239 0.78600384,23.669264 0.47130282,22.02083 0.30645943,20.522254 0.30645943,19.188521 c 0,-2.562566 0.44957289,-4.975274 1.36370447,-7.208152 C 2.5992812,9.7924474 3.8880568,7.919227 5.5514765,6.3457219 7.2298819,4.757231 9.1780311,3.5433842 11.395924,2.7191673 c 2.26285,-0.8541885 4.70553,-1.2887757 7.35801,-1.2887757 1.58849,0 3.087067,0.1348719 4.495729,0.4196014 1.408661,0.3296868 2.772366,0.8392027 4.091113,1.5435336 l 2.547579,1.3637044 -2.817323,0.5844448 c -0.869174,0.1948149 -1.468605,0.5844447 -1.798291,1.1688895 -0.239773,0.4795444 -0.224787,1.0340176 0.04496,1.6634197 l 0.614416,1.4236475 -1.528548,0.074929 c -0.644388,0.044957 -1.243818,0.1798291 -1.76832,0.4046155 -0.49453,0.239772 -0.779259,0.479544 -0.869174,0.749288 -0.164843,0.344673 0.01499,0.839203 0.539487,1.498576 l 1.213847,1.438634 -1.888206,0.269743 c -2.322793,0.344673 -4.225985,0.824217 -5.709576,1.438634 -1.48359,0.614416 -2.65248,1.408661 -3.521654,2.382736 -0.839203,0.929117 -1.468605,2.127978 -1.87322,3.551626 -0.404616,1.438633 -0.6294023,3.221939 -0.6743596,5.379889 H 17.734902 V 22.62026 l -0.569459,0.344673 c -0.209801,0.134872 -0.434587,0.164843 -0.67436,0.1049 -0.254758,-0.05994 -0.434587,-0.194815 -0.554473,-0.419601 -0.134872,-0.209801 -0.164843,-0.434587 -0.119886,-0.674359 0.04496,-0.239773 0.179829,-0.434587 0.404616,-0.569459 l 5.724561,-3.566612 0.02997,-0.02997 c 0.01498,0 0.01498,0 0.01498,-0.01499 h 0.02997 c 0.01499,0 0.02997,0 0.04496,-0.01499 0.104901,-0.02997 0.209801,-0.07493 0.344673,-0.1049 h 0.08991 c 0.01499,0.01498 0.02997,0.02997 0.04496,0.02997 h 0.1049 c 0,0.01499 0.01499,0.01499 0.02997,0.01499 h 0.04496 l 0.02997,0.01499 h 0.02997 c 0.01499,0.01499 0.02997,0.02997 0.02997,0.04496 h 0.02997 c 0.01499,0 0.01499,0 0.01499,0.01499 0.02997,0 0.04496,0 0.04496,0.01499 0.01499,0 0.02997,0 0.04496,0.01498 l 0.02997,0.01499 5.724561,3.521654 c 0.209801,0.134872 0.344673,0.329687 0.404616,0.569459 0.04496,0.254758 0.01499,0.479545 -0.119886,0.689345 -0.119886,0.209801 -0.299716,0.344673 -0.554474,0.38963 -0.254757,0.04496 -0.479544,0.01499 -0.674359,-0.119886 l -0.464559,-0.284729 v 4.151056 h 1.438634 c 0.239772,0 0.434587,0.08992 0.59943,0.269744 0.164844,0.179829 0.239772,0.38963 0.239772,0.629402 0.01499,0.254758 -0.07493,0.464558 -0.239772,0.644388 -0.164843,0.179829 -0.374644,0.269743 -0.59943,0.269743 H 0.98081876 c -0.23977221,0 -0.44957289,-0.08991 -0.61441628,-0.254758 C 0.20155909,28.150007 0.11164451,27.940206 0.11164451,27.670463 Z M 2.4344378,19.188521 c 0,1.063989 0.1498576,2.427693 0.4495729,4.091113 0.2247864,1.213847 0.4945301,2.277836 0.8092312,3.176982 h 4.0311702 c 0.074929,-2.172936 0.2997152,-3.971227 0.6743593,-5.379889 0.5245017,-1.903192 1.3187472,-3.461711 2.3977216,-4.630601 1.093961,-1.228832 2.532594,-2.202907 4.330886,-2.937209 1.228833,-0.509516 2.787352,-0.944103 4.660572,-1.303762 L 19.668065,11.830511 C 19.518208,11.141166 19.563165,10.52675 19.802937,9.9872623 20.132624,9.2229884 20.777012,8.6085721 21.721115,8.173985 21.826015,8.129028 21.91593,8.08407 22.005844,8.0690846 20.717069,7.7693694 19.413307,7.6944406 18.109546,7.859284 c -1.483591,0.1798291 -2.877267,0.6144162 -4.166042,1.2737898 -1.66342,0.8691742 -3.161996,2.1129922 -4.5107149,3.7164692 -0.1498577,0.179829 -0.3446726,0.269744 -0.569459,0.269744 -0.1798292,0 -0.3296868,-0.04496 -0.4645587,-0.149858 C 8.2489138,12.834557 8.1589992,12.669714 8.1440135,12.459913 8.1290277,12.250112 8.173985,12.070283 8.3088568,11.90544 9.8074331,10.122134 11.470853,8.7584297 13.314102,7.8143267 c 1.468604,-0.7343024 3.04211,-1.2138468 4.705529,-1.4236475 0.854189,-0.1049004 1.678406,-0.1198861 2.502623,-0.029972 0.809231,0.089914 1.37869,0.1798291 1.708377,0.2547579 0.329686,0.074929 0.554473,0.1348719 0.674359,0.1798292 l 0.119886,0.044957 C 23.099805,6.3756934 23.219691,5.9560921 23.384534,5.581448 23.624307,5.1468609 23.939008,4.7422453 24.343623,4.382587 23.89405,4.2477151 23.369549,4.0978575 22.785104,3.9629856 21.586243,3.6932419 20.237524,3.5733558 18.753934,3.5733558 c -2.367751,0 -4.570658,0.3896298 -6.623708,1.1539037 -2.008092,0.7642739 -3.7164688,1.8282631 -5.1251305,3.2069533 -1.4686048,1.3637044 -2.592537,2.9971522 -3.3418252,4.8853582 -0.8242169,1.978121 -1.2288325,4.1061 -1.2288325,6.36895 z m 17.1287272,7.582796 h 5.814476 v -5.274989 l -2.967181,-1.813277 -2.847295,1.783306 z"
   id="path2"
   style="stroke-width:1.49858" />
</svg>
